<svg xmlns="http://www.w3.org/2000/svg" id="Layer_4" viewBox="0 0 650 250"><defs><style>.cls-1{fill:#0072c5;}.cls-2{fill:#fefefe;}.cls-3{fill:#2686cd;}.cls-4{fill:#282828;}</style></defs><g><path class="cls-1" d="M215.26,78.93c0,9.92-.24,19.85,.05,29.77,.6,20.46-5.61,38.84-16.44,55.89-14.02,22.09-32.6,39.88-52.94,56-11.03,8.74-22.69,16.59-34.59,24.08-1.04,.66-1.81,1-3.08,.21-27.24-17.05-52.56-36.42-73.52-61.01-11.51-13.5-21.05-28.2-26.53-45.26-2.76-8.6-4.04-17.4-4.03-26.43,.04-24.66,.06-49.33-.05-73.99-.01-2.56,.97-3.01,3.14-3.12,9.24-.45,18.44-1.31,27.52-3.17,12.35-2.53,23.79-7.27,33.86-14.8,15.81-11.83,33.69-13.66,52.48-11.8,9.6,.95,18.48,4.06,26.2,9.8,18.26,13.59,39.08,18.96,61.39,19.87,6.54,.27,6.54,.3,6.54,6.69,0,12.43,0,24.86,0,37.29Z"></path><path class="cls-3" d="M101.08,158.67c-1.69,.29-1.89,1.82-2.31,3.02-5.69,16.21-11.32,32.44-16.98,48.67-.73,2.08-1.5,4.15-2.26,6.22-.47,1.3-.9,1.91-2.4,.73-11.78-9.3-22.91-19.35-33.09-30.36-10.05-10.87-19.02-22.64-25.54-36.03-4.81-9.87-8.11-20.2-9.01-31.3-.5-6.16-.37-12.29-.4-18.43-.1-18.97-.04-37.94-.04-56.91,0-4.41,.17-4.5,4.75-4.68,10.08-.4,19.97-1.95,29.71-4.6,10.13-2.76,19.31-7.48,27.85-13.46,7.96-5.57,16.34-10.03,26.19-11.13,17.28-1.93,33.93-.93,48.67,9.81,1.34,.98,1.69,1.7,1.13,3.27-3.32,9.31-6.55,18.66-9.75,28.01-.3,.88-.93,1.42-1.4,2.12-1.58,.91-3.01-.07-4.43-.46-20.2-5.52-39.9-4.05-58.4,5.7-23.2,12.24-37.43,31.53-42.11,57.55-.36,1.99-.63,3.99-.67,6.02-.02,1.36,.55,1.94,1.87,1.95,6.46,.01,12.91,.03,19.37-.01,1.62-.01,2.09-1.05,2.34-2.4,.64-3.41,1.28-6.82,2.53-10.08,8.27-21.53,23.79-33.94,46.63-37.31,7.62-1.12,14.97,0,22.28,1.91,1.04,.27,2.39,.3,2.62,1.82-2.44,6.78-4.87,13.56-7.33,20.34-.42,1.16-.94,2.28-1.42,3.42-1.08,.89-2.2,.26-3.31,.09-5.48-.84-10.9-.92-16.24,.95-10.71,3.76-18.72,14.49-18.99,25.59-.32,12.72,6.43,23.5,17.51,28.07,.99,.41,2.37,.4,2.61,1.89Z"></path><path class="cls-2" d="M128.24,78.31c-15.57-5.58-30.74-4.44-45.13,3.52-16.21,8.96-25.51,22.97-28.26,41.27-.24,1.57-.68,2.11-2.28,2.09-7.03-.07-14.06-.09-21.09,0-1.8,.02-1.91-.63-1.81-2.2,2.28-34.22,28.54-64.54,62.13-71.79,15.05-3.25,29.82-2.35,44.41,2.4,17.79,6.64,31.94,17.8,41.93,34.03,6.66,10.82,10.49,22.59,11.54,35.28,.15,1.81-.17,2.31-2.02,2.28-6.93-.1-13.86-.1-20.79,0-1.79,.03-2.13-.65-2.39-2.28-3.35-20.96-14.87-35.61-34.33-44.04-.61-.26-1.28-.39-1.92-.57Z"></path><path class="cls-2" d="M101.08,158.67c-7.69-2.77-13.94-7.37-17.59-14.83-5.48-11.21-4.65-22.1,3.09-31.91,7.6-9.62,17.83-12.84,29.83-10.51,1.03,.2,2.06,.44,3.09,.66,8.23,3.45,14.69,8.85,17.81,17.39,4,10.99,2.47,21.34-5.31,30.19-7.76,8.82-17.7,11.77-29.21,9.32-.56-.12-1.13-.2-1.7-.3Z"></path></g><path class="cls-4" d="M314.8,49.63h0V122.55h-12.58v-57.13h-.25l-22.44,57.13h-8.36l-23.07-57.13h-.12v57.13h-11.73V49.63h18.08l20.83,54h.38l21.94-54h17.32Zm10.47,5.51h0c0-2,.75-3.63,2.24-5.01,1.5-1.38,3.24-2.13,5.24-2.13,2.13,0,3.87,.75,5.37,2.13,1.38,1.38,2.13,3.13,2.13,5.01,0,2-.75,3.76-2.24,5.14-1.38,1.25-3.13,2-5.25,2s-3.86-.75-5.35-2.13c-1.38-1.38-2.13-3.01-2.13-5.01Zm13.48,67.41h-12.24v-52.25h12.24v52.25Zm37.16-9.02h0c1.86,0,3.86-.38,5.98-1.25,2.24-.88,4.24-2.01,6.1-3.38v11.53c-1.99,1.13-4.11,1.88-6.6,2.5-2.49,.63-5.24,.88-8.23,.88-7.61,0-13.85-2.51-18.59-7.27-4.85-4.89-7.23-11.15-7.23-18.67,0-8.4,2.49-15.29,7.36-20.8,4.85-5.39,11.72-8.15,20.7-8.15,2.36,0,4.61,.38,6.98,.88,2.36,.63,4.24,1.38,5.6,2.13v11.78c-1.86-1.38-3.86-2.51-5.74-3.26-1.99-.75-3.99-1.13-6.1-1.13-4.87,0-8.73,1.63-11.72,4.76-2.88,3.13-4.37,7.39-4.37,12.65s1.38,9.52,4.24,12.4c2.88,3.01,6.73,4.38,11.6,4.38Zm46.88-44.1h0c1,0,1.88,0,2.63,.25,.86,.13,1.5,.25,1.99,.5v12.4c-.63-.5-1.5-.88-2.74-1.38-1.25-.38-2.74-.63-4.49-.63-2.99,0-5.62,1.25-7.61,3.88-2.11,2.51-3.11,6.39-3.11,11.65v26.44h-12.22v-52.25h12.22v8.27h.25c1-2.88,2.74-5.14,4.99-6.77,2.24-1.63,4.99-2.38,8.1-2.38Zm5.37,27.69h0c0-8.64,2.36-15.41,7.23-20.42,4.85-5.14,11.59-7.64,20.2-7.64,8.11,0,14.46,2.38,19.08,7.27,4.49,4.89,6.85,11.4,6.85,19.67s-2.49,15.29-7.35,20.3c-4.87,5.01-11.47,7.52-19.83,7.52s-14.35-2.38-19.08-7.14-7.1-11.28-7.1-19.55Zm12.72-.38h0c0,5.51,1.25,9.65,3.61,12.53,2.49,2.88,5.98,4.26,10.61,4.26s7.86-1.38,10.22-4.26c2.24-2.88,3.49-7.14,3.49-12.78s-1.25-9.9-3.61-12.78c-2.49-2.88-5.87-4.26-10.24-4.26s-7.98,1.5-10.34,4.51c-2.49,3.01-3.74,7.27-3.74,12.78Zm58.85-12.78h0c0,1.75,.5,3.13,1.63,4.13,1.11,1,3.61,2.26,7.35,3.88,4.99,1.88,8.36,4.13,10.36,6.52,1.99,2.5,2.99,5.51,2.99,9.02,0,4.89-1.88,8.77-5.74,11.78-3.74,3.01-8.86,4.51-15.21,4.51-2.13,0-4.49-.25-7.12-.75-2.61-.63-4.85-1.25-6.73-2v-12.15c2.24,1.5,4.62,2.76,7.23,3.76,2.63,.88,4.87,1.38,6.98,1.38,2.74,0,4.74-.5,6.12-1.25,1.36-.75,1.99-2,1.99-3.88,0-1.75-.75-3.13-2.13-4.26-1.36-1.25-3.86-2.51-7.73-4.14-4.49-1.88-7.73-4.01-9.59-6.39-1.88-2.38-2.88-5.39-2.88-9.02,0-4.64,1.88-8.52,5.62-11.53,3.74-3.13,8.59-4.64,14.46-4.64,1.86,0,3.86,.25,6.1,.63,2.38,.38,4.24,1,5.74,1.63v11.65c-1.61-1.13-3.49-2-5.74-2.76-2.11-.88-4.24-1.25-6.35-1.25-2.38,0-4.12,.5-5.49,1.38-1.25,1-1.88,2.26-1.88,3.76Zm27.56,13.16h0c0-8.64,2.38-15.41,7.23-20.42,4.87-5.14,11.6-7.64,20.2-7.64s14.46,2.38,19.08,7.27c4.61,4.89,6.85,11.4,6.85,19.67s-2.36,15.29-7.23,20.3c-4.85,5.01-11.47,7.52-19.82,7.52s-14.46-2.38-19.2-7.14c-4.74-4.76-7.12-11.28-7.12-19.55Zm12.72-.38h0c0,5.51,1.25,9.65,3.74,12.53,2.38,2.88,5.98,4.26,10.47,4.26s7.86-1.38,10.22-4.26c2.24-2.88,3.49-7.14,3.49-12.78s-1.25-9.9-3.61-12.78c-2.49-2.88-5.87-4.26-10.22-4.26s-7.86,1.5-10.36,4.51c-2.49,3.01-3.74,7.27-3.74,12.78Zm81.31-16.41h-18.34v42.22h-12.34v-42.22h-8.74v-10.02h8.74v-7.27c0-5.51,1.75-10.02,5.35-13.53,3.49-3.51,8.11-5.26,13.6-5.26,1.5,0,2.86,.13,3.99,.25,1.11,.13,2.11,.38,2.99,.63v10.65c-.38-.25-1-.5-2.13-.88-1-.25-2.11-.5-3.49-.5-2.49,0-4.49,.88-5.85,2.51-1.38,1.5-2.13,3.88-2.13,7.14v6.26h18.34v-11.78l12.22-3.76v15.54h12.34v10.02h-12.34v24.43c0,3.26,.62,5.51,1.75,6.77,1.11,1.38,2.99,2,5.49,2,.75,0,1.61-.13,2.61-.5,1-.25,1.75-.75,2.49-1.13v10.15c-.75,.38-1.99,.75-3.86,1.13-1.75,.38-3.49,.63-5.24,.63-5.24,0-9.11-1.38-11.6-4.14-2.61-2.76-3.86-6.89-3.86-12.53v-26.81Z"></path><g><path class="cls-4" d="M270.73,196.02v-6.06c.69,.61,1.52,1.16,2.49,1.65,.97,.49,1.99,.9,3.06,1.24,1.07,.34,2.15,.6,3.23,.78,1.08,.18,2.08,.28,3,.28,3.16,0,5.52-.59,7.08-1.76,1.56-1.17,2.34-2.86,2.34-5.06,0-1.18-.26-2.21-.78-3.09-.52-.88-1.24-1.68-2.16-2.4s-2-1.42-3.26-2.08-2.61-1.36-4.05-2.1c-1.53-.77-2.96-1.56-4.28-2.36-1.33-.8-2.48-1.67-3.46-2.63-.98-.96-1.75-2.04-2.31-3.26-.56-1.21-.84-2.64-.84-4.27,0-2,.44-3.74,1.32-5.22,.88-1.48,2.03-2.7,3.46-3.66,1.43-.96,3.05-1.67,4.88-2.14,1.83-.47,3.69-.7,5.58-.7,4.32,0,7.48,.52,9.45,1.56v5.78c-2.59-1.79-5.92-2.69-9.97-2.69-1.12,0-2.24,.12-3.37,.35-1.12,.23-2.12,.62-3,1.15-.88,.53-1.59,1.21-2.14,2.05-.55,.84-.83,1.86-.83,3.06,0,1.12,.21,2.09,.63,2.91,.42,.82,1.04,1.56,1.85,2.23,.81,.67,1.81,1.33,2.98,1.96,1.17,.63,2.52,1.33,4.05,2.08,1.57,.78,3.06,1.59,4.47,2.45,1.41,.86,2.64,1.81,3.7,2.85,1.06,1.04,1.9,2.19,2.52,3.46,.62,1.27,.93,2.71,.93,4.35,0,2.16-.42,3.99-1.27,5.49-.85,1.5-1.99,2.72-3.43,3.66-1.44,.94-3.1,1.62-4.97,2.03s-3.86,.63-5.94,.63c-.69,0-1.55-.06-2.57-.17-1.02-.11-2.06-.28-3.12-.49s-2.06-.48-3.01-.8c-.95-.32-1.71-.67-2.28-1.05Z"></path><path class="cls-4" d="M330.57,183.38h-22.12c.08,3.49,1.02,6.18,2.81,8.08,1.79,1.9,4.26,2.85,7.4,2.85,3.53,0,6.77-1.16,9.73-3.49v4.71c-2.75,2-6.39,3-10.92,3s-7.9-1.42-10.43-4.27c-2.53-2.85-3.79-6.85-3.79-12.01,0-4.87,1.38-8.85,4.15-11.92,2.76-3.07,6.2-4.6,10.3-4.6s7.27,1.33,9.52,3.98c2.24,2.65,3.37,6.33,3.37,11.05v2.63Zm-5.14-4.25c-.02-2.9-.72-5.15-2.1-6.76-1.38-1.61-3.29-2.42-5.74-2.42s-4.37,.85-6.03,2.54c-1.65,1.69-2.67,3.91-3.06,6.64h16.92Z"></path><path class="cls-4" d="M364.17,197.8h-5.02v-17.87c0-6.65-2.43-9.97-7.28-9.97-2.51,0-4.58,.94-6.23,2.83-1.64,1.89-2.46,4.27-2.46,7.14v17.87h-5.02v-31.33h5.02v5.2h.12c2.37-3.96,5.79-5.94,10.28-5.94,3.43,0,6.05,1.11,7.86,3.32s2.72,5.41,2.72,9.59v19.15Z"></path><path class="cls-4" d="M388.16,197.49c-1.18,.65-2.74,.98-4.68,.98-5.49,0-8.23-3.06-8.23-9.18v-18.54h-5.38v-4.28h5.38v-7.65l5.02-1.62v9.27h7.89v4.28h-7.89v17.65c0,2.1,.36,3.6,1.07,4.5s1.9,1.35,3.55,1.35c1.27,0,2.36-.35,3.27-1.04v4.28Z"></path><path class="cls-4" d="M397.43,158.51c-.9,0-1.66-.31-2.29-.92-.63-.61-.95-1.39-.95-2.33s.32-1.72,.95-2.34c.63-.62,1.4-.93,2.29-.93s1.7,.31,2.34,.93c.64,.62,.96,1.4,.96,2.34s-.32,1.66-.96,2.29c-.64,.63-1.42,.95-2.34,.95Zm2.45,39.29h-5.02v-31.33h5.02v31.33Z"></path><path class="cls-4" d="M436.04,197.8h-5.02v-17.87c0-6.65-2.43-9.97-7.28-9.97-2.51,0-4.59,.94-6.23,2.83s-2.46,4.27-2.46,7.14v17.87h-5.02v-31.33h5.02v5.2h.12c2.37-3.96,5.79-5.94,10.28-5.94,3.43,0,6.05,1.11,7.86,3.32,1.81,2.21,2.72,5.41,2.72,9.59v19.15Z"></path><path class="cls-4" d="M470.67,183.38h-22.12c.08,3.49,1.02,6.18,2.81,8.08,1.79,1.9,4.26,2.85,7.41,2.85,3.53,0,6.77-1.16,9.73-3.49v4.71c-2.75,2-6.39,3-10.92,3s-7.9-1.42-10.43-4.27c-2.53-2.85-3.79-6.85-3.79-12.01,0-4.87,1.38-8.85,4.15-11.92s6.19-4.6,10.3-4.6,7.27,1.33,9.52,3.98c2.24,2.65,3.37,6.33,3.37,11.05v2.63Zm-5.14-4.25c-.02-2.9-.72-5.15-2.1-6.76-1.38-1.61-3.29-2.42-5.74-2.42s-4.38,.85-6.03,2.54c-1.65,1.69-2.67,3.91-3.06,6.64h16.92Z"></path><path class="cls-4" d="M483.28,197.8h-5.02v-46.38h5.02v46.38Z"></path></g></svg>