<svg xmlns="http://www.w3.org/2000/svg" xmlns:xlink="http://www.w3.org/1999/xlink" width="280" zoomAndPan="magnify" viewBox="0 0 210 74.999997" height="100" preserveAspectRatio="xMidYMid meet" version="1.0"><path fill="#0f75bd" d="M 68.355469 20.347656 C 70.273438 19.40625 72.164062 18.402344 74.179688 17.675781 C 72.261719 20.042969 70.074219 22.179688 68.21875 24.597656 C 65.144531 28.304688 62.285156 32.203125 59.886719 36.386719 C 57.898438 39.929688 56.175781 43.753906 55.765625 47.835938 C 55.472656 50.789062 56.140625 53.992188 58.292969 56.152344 C 59.34375 57.367188 60.8125 58.0625 62.242188 58.71875 C 52.472656 58.71875 42.699219 58.710938 32.925781 58.722656 C 34.4375 51.582031 38.300781 45.140625 42.976562 39.609375 C 50.007812 31.539062 58.871094 25.230469 68.355469 20.347656 M 20.003906 37.984375 C 20.628906 35.554688 21.179688 33.078125 22.210938 30.78125 C 22.253906 33.320312 22.039062 35.871094 22.296875 38.40625 C 22.734375 45.542969 24.6875 52.671875 28.609375 58.703125 C 24.960938 58.738281 21.3125 58.699219 17.667969 58.71875 C 17.695312 51.753906 18.414062 44.773438 20.003906 37.984375 " fill-opacity="1" fill-rule="nonzero"/><path fill="#6e6e71" d="M 74.371094 38.285156 C 77.242188 38.234375 80.113281 38.300781 82.980469 38.261719 C 84.816406 38.242188 86.804688 38.507812 88.242188 39.742188 C 90.449219 41.714844 90.042969 45.816406 87.457031 47.28125 C 87.109375 47.496094 86.746094 47.679688 86.390625 47.871094 C 87.617188 48.285156 88.933594 48.8125 89.636719 49.972656 C 90.929688 52.089844 90.675781 55.101562 88.9375 56.902344 C 87.527344 58.21875 85.515625 58.664062 83.636719 58.714844 C 80.570312 58.742188 77.503906 58.683594 74.4375 58.738281 C 74.355469 58.035156 74.320312 57.328125 74.332031 56.621094 C 74.378906 50.511719 74.296875 44.394531 74.371094 38.285156 M 76.328125 39.945312 C 76.292969 42.367188 76.28125 44.785156 76.320312 47.207031 C 78.546875 47.210938 80.773438 47.226562 83 47.199219 C 84.398438 47.164062 85.984375 46.953125 86.921875 45.800781 C 87.90625 44.695312 87.835938 43.003906 87.21875 41.742188 C 86.5 40.480469 85 40 83.628906 39.957031 C 81.199219 39.878906 78.765625 39.917969 76.328125 39.945312 M 76.386719 48.890625 C 76.207031 51.582031 76.335938 54.289062 76.320312 56.988281 C 78.964844 57.027344 81.617188 57.089844 84.257812 56.964844 C 85.707031 56.917969 87.191406 56.253906 87.960938 54.992188 C 88.714844 53.527344 88.695312 51.503906 87.46875 50.292969 C 86.40625 49.191406 84.785156 48.917969 83.316406 48.894531 C 81.007812 48.886719 78.699219 48.929688 76.386719 48.890625 M 175.683594 38.300781 C 176.265625 38.296875 176.851562 38.296875 177.4375 38.300781 C 177.472656 44.933594 177.507812 51.574219 177.421875 58.207031 C 176.890625 58.191406 176.371094 58.179688 175.84375 58.167969 C 175.828125 57.335938 175.8125 56.503906 175.785156 55.671875 C 173.808594 59.152344 168.335938 59.59375 165.835938 56.484375 C 164.148438 54.453125 163.941406 51.613281 164.261719 49.09375 C 164.59375 47.226562 165.527344 45.324219 167.199219 44.308594 C 169.125 43.078125 171.757812 43.070312 173.726562 44.214844 C 174.566406 44.695312 175.09375 45.53125 175.679688 46.269531 C 175.664062 43.617188 175.644531 40.960938 175.683594 38.300781 M 169.257812 45.089844 C 167.6875 45.597656 166.609375 47.078125 166.226562 48.636719 C 165.613281 50.957031 165.839844 53.652344 167.355469 55.585938 C 168.8125 57.378906 171.640625 57.539062 173.464844 56.230469 C 174.820312 55.335938 175.410156 53.699219 175.605469 52.160156 C 175.796875 50.34375 175.613281 48.367188 174.539062 46.835938 C 173.425781 45.164062 171.144531 44.484375 169.257812 45.089844 M 138.289062 45.269531 C 140.535156 42.921875 144.566406 42.761719 147.101562 44.722656 C 148.199219 45.566406 148.621094 46.953125 148.933594 48.242188 C 148.316406 48.320312 147.695312 48.339844 147.078125 48.304688 C 146.71875 47.128906 146.175781 45.835938 144.984375 45.289062 C 143.234375 44.492188 140.945312 44.847656 139.660156 46.324219 C 137.480469 48.667969 137.445312 52.539062 139.199219 55.136719 C 140.523438 57.097656 143.609375 57.8125 145.480469 56.21875 C 146.515625 55.4375 146.96875 54.179688 147.289062 52.96875 C 147.855469 52.96875 148.425781 52.972656 149 52.96875 C 148.789062 54.367188 148.335938 55.777344 147.332031 56.816406 C 145.554688 58.796875 142.445312 59.011719 140.105469 57.992188 C 137.996094 57.078125 136.660156 54.945312 136.300781 52.734375 C 135.910156 50.136719 136.332031 47.179688 138.289062 45.269531 M 94.964844 43.78125 C 96.871094 43.71875 98.8125 43.617188 100.695312 44.007812 C 102.40625 44.425781 103.671875 46.058594 103.683594 47.8125 C 103.730469 51.308594 103.667969 54.804688 103.710938 58.304688 C 103.199219 58.320312 102.695312 58.347656 102.1875 58.324219 C 101.8125 57.714844 102.027344 56.917969 101.914062 56.230469 C 100.945312 57.222656 99.914062 58.285156 98.492188 58.554688 C 96.734375 58.875 94.699219 58.859375 93.238281 57.691406 C 91.910156 56.589844 91.613281 54.660156 92.066406 53.070312 C 92.46875 51.902344 93.570312 51.128906 94.695312 50.734375 C 96.75 49.980469 99.003906 50.203125 101.085938 49.59375 C 102.558594 48.746094 101.960938 46.296875 100.535156 45.679688 C 98.777344 44.964844 96.824219 45.316406 94.980469 45.234375 C 94.96875 44.746094 94.96875 44.261719 94.964844 43.78125 M 94.621094 52.550781 C 93.101562 53.5625 93.570312 56.027344 95.125 56.773438 C 97.382812 57.917969 100.59375 56.863281 101.582031 54.480469 C 102.085938 53.292969 101.914062 51.972656 101.921875 50.71875 C 99.566406 51.632812 96.800781 51.160156 94.621094 52.550781 M 110.769531 44.484375 C 111.707031 43.90625 112.820312 43.789062 113.890625 43.699219 C 113.914062 44.15625 113.933594 44.613281 113.960938 45.074219 C 112.714844 45.425781 111.414062 45.773438 110.398438 46.625 C 109.21875 47.597656 108.589844 49.132812 108.582031 50.652344 C 108.546875 53.203125 108.625 55.761719 108.550781 58.3125 C 107.972656 58.3125 107.398438 58.308594 106.824219 58.300781 C 106.785156 53.519531 106.773438 48.730469 106.824219 43.949219 C 107.363281 43.949219 107.898438 43.957031 108.441406 43.964844 C 108.460938 44.953125 108.480469 45.945312 108.503906 46.9375 C 109.152344 46.03125 109.761719 45.03125 110.769531 44.484375 M 120.402344 44.355469 C 121.289062 43.84375 122.332031 43.808594 123.324219 43.722656 C 123.34375 44.355469 123.574219 45.34375 122.621094 45.328125 C 120.269531 45.683594 118.203125 47.617188 118.023438 50.042969 C 117.933594 52.792969 118.046875 55.554688 117.980469 58.308594 C 117.394531 58.3125 116.8125 58.3125 116.230469 58.3125 C 116.183594 53.53125 116.1875 48.746094 116.226562 43.96875 C 116.769531 43.96875 117.308594 43.972656 117.855469 43.984375 C 117.839844 44.964844 117.839844 45.953125 117.886719 46.9375 C 118.597656 45.96875 119.289062 44.90625 120.402344 44.355469 M 125.492188 43.832031 C 127.238281 43.839844 128.992188 43.683594 130.734375 43.890625 C 132.636719 44.164062 134.21875 45.863281 134.199219 47.816406 C 134.222656 51.308594 134.183594 54.804688 134.234375 58.296875 C 133.671875 58.308594 133.117188 58.3125 132.5625 58.316406 C 132.546875 57.53125 132.546875 56.746094 132.527344 55.960938 C 131.71875 56.902344 130.914062 57.96875 129.667969 58.347656 C 127.882812 58.964844 125.78125 58.878906 124.117188 57.941406 C 122.371094 56.886719 122.070312 54.449219 122.761719 52.671875 C 123.304688 51.515625 124.574219 50.929688 125.738281 50.574219 C 127.582031 50.046875 129.527344 50.125 131.382812 49.691406 C 132.21875 49.53125 132.519531 48.578125 132.445312 47.835938 C 132.433594 46.578125 131.332031 45.523438 130.117188 45.378906 C 128.585938 45.132812 127.035156 45.261719 125.492188 45.222656 Z M 125.535156 52.308594 C 124.066406 52.933594 123.746094 55.152344 124.914062 56.199219 C 126.597656 57.921875 129.597656 57.320312 131.214844 55.800781 C 132.636719 54.515625 132.507812 52.472656 132.4375 50.726562 C 130.199219 51.519531 127.683594 51.238281 125.535156 52.308594 M 150.542969 43.792969 C 151.105469 43.792969 151.671875 43.792969 152.238281 43.789062 C 152.398438 47.113281 152.21875 50.449219 152.324219 53.777344 C 152.40625 55.0625 153.082031 56.527344 154.433594 56.871094 C 155.898438 57.285156 157.703125 57.195312 158.820312 56.039062 C 160.066406 54.804688 160.433594 52.972656 160.457031 51.28125 C 160.460938 48.796875 160.453125 46.308594 160.445312 43.816406 C 161.027344 43.808594 161.613281 43.796875 162.203125 43.792969 C 162.300781 48.585938 162.292969 53.390625 162.230469 58.183594 L 160.621094 58.183594 C 160.605469 57.425781 160.597656 56.664062 160.585938 55.902344 C 159.675781 56.902344 158.71875 57.984375 157.347656 58.3125 C 155.386719 58.871094 152.871094 58.664062 151.535156 56.953125 C 150.46875 55.628906 150.503906 53.832031 150.488281 52.226562 C 150.542969 49.414062 150.425781 46.601562 150.542969 43.792969 M 182.265625 43.625 C 184.644531 43.703125 187.316406 43.171875 189.421875 44.554688 C 190.996094 45.617188 191.042969 47.695312 191.003906 49.402344 C 190.980469 52.34375 191.039062 55.285156 190.933594 58.226562 C 190.398438 58.207031 189.863281 58.191406 189.335938 58.171875 C 189.300781 57.433594 189.269531 56.695312 189.230469 55.957031 C 188.382812 56.886719 187.519531 57.917969 186.25 58.273438 C 184.570312 58.746094 182.660156 58.746094 181.09375 57.910156 C 178.621094 56.628906 178.417969 52.449219 180.90625 51.082031 C 183.121094 49.828125 185.757812 50.109375 188.15625 49.515625 C 189.039062 49.355469 189.285156 48.316406 189.1875 47.546875 C 189.105469 46.34375 188.050781 45.394531 186.894531 45.222656 C 185.367188 44.980469 183.816406 45.148438 182.28125 45.078125 C 182.277344 44.59375 182.269531 44.109375 182.265625 43.625 M 181.742188 52.53125 C 180.34375 53.671875 180.996094 56.070312 182.566406 56.726562 C 184.699219 57.625 187.496094 56.761719 188.664062 54.738281 C 189.394531 53.425781 189.167969 51.871094 189.191406 50.433594 C 186.84375 51.601562 183.90625 50.925781 181.742188 52.53125 " fill-opacity="1" fill-rule="nonzero"/></svg>