<svg xmlns="http://www.w3.org/2000/svg" xmlns:xlink="http://www.w3.org/1999/xlink" width="280" zoomAndPan="magnify" viewBox="0 0 210 74.999997" height="100" preserveAspectRatio="xMidYMid meet" version="1.0"><defs><clipPath id="0f89ef780c"><path d="M 7.5 21 L 50 21 L 50 67.886719 L 7.5 67.886719 Z M 7.5 21 " clip-rule="nonzero"/></clipPath><clipPath id="7c0af958df"><path d="M 76 7.136719 L 95 7.136719 L 95 67.886719 L 76 67.886719 Z M 76 7.136719 " clip-rule="nonzero"/></clipPath><clipPath id="b50c4bf459"><path d="M 100 21 L 126 21 L 126 67.886719 L 100 67.886719 Z M 100 21 " clip-rule="nonzero"/></clipPath><clipPath id="dd459c0a0d"><path d="M 130 22 L 137 22 L 137 67.886719 L 130 67.886719 Z M 130 22 " clip-rule="nonzero"/></clipPath><clipPath id="8f97aed9ad"><path d="M 58 22 L 65 22 L 65 67.886719 L 58 67.886719 Z M 58 22 " clip-rule="nonzero"/></clipPath><clipPath id="19b5988fe0"><path d="M 57 7.136719 L 67 7.136719 L 67 17 L 57 17 Z M 57 7.136719 " clip-rule="nonzero"/></clipPath><clipPath id="c0feaddf1a"><path d="M 145 22 L 186 22 L 186 67.886719 L 145 67.886719 Z M 145 22 " clip-rule="nonzero"/></clipPath><clipPath id="850ff8ceb1"><path d="M 192 61 L 202.5 61 L 202.5 67 L 192 67 Z M 192 61 " clip-rule="nonzero"/></clipPath><clipPath id="af64a21af8"><path d="M 161 7.136719 L 171 7.136719 L 171 17 L 161 17 Z M 161 7.136719 " clip-rule="nonzero"/></clipPath></defs><g clip-path="url(#0f89ef780c)"><path fill="#000000" d="M 7.5 44.652344 C 7.5 30.972656 16.644531 21.394531 29.71875 21.394531 C 38.519531 21.394531 45.695312 25.84375 48.601562 32.683594 C 48.945312 33.28125 49.03125 33.964844 49.03125 34.648438 C 49.03125 36.101562 47.832031 37.214844 46.464844 37.214844 C 46.378906 37.214844 46.378906 37.214844 46.292969 37.214844 C 45.011719 37.214844 43.902344 36.359375 43.558594 35.160156 C 41.339844 29.605469 36.210938 26.441406 29.804688 26.441406 C 20.0625 26.441406 13.140625 33.878906 13.140625 44.652344 C 13.140625 55.339844 19.890625 62.777344 29.71875 62.777344 C 36.125 62.777344 40.996094 59.699219 43.558594 53.203125 C 43.902344 52.003906 45.011719 51.152344 46.210938 51.152344 C 47.746094 51.152344 48.945312 52.347656 48.945312 53.886719 C 48.945312 53.886719 48.945312 53.972656 48.945312 53.972656 C 48.945312 54.570312 48.859375 55.167969 48.601562 55.765625 C 45.953125 63.121094 38.859375 67.824219 29.71875 67.824219 C 16.558594 67.824219 7.5 58.332031 7.5 44.652344 Z M 7.5 44.652344 " fill-opacity="1" fill-rule="nonzero"/></g><g clip-path="url(#7c0af958df)"><path fill="#000000" d="M 81.757812 64.0625 C 81.757812 65.941406 80.730469 67.140625 78.9375 67.140625 C 77.144531 67.140625 76.203125 65.941406 76.203125 64.0625 L 76.203125 10.367188 C 76.203125 8.398438 77.226562 7.203125 79.023438 7.203125 C 80.816406 7.203125 81.757812 8.316406 81.757812 10.367188 L 81.757812 22.59375 L 91.414062 22.59375 C 93.121094 22.59375 94.148438 23.535156 94.148438 25.074219 C 94.148438 26.613281 93.121094 27.550781 91.414062 27.550781 L 81.757812 27.550781 Z M 81.757812 64.0625 " fill-opacity="1" fill-rule="nonzero"/></g><g clip-path="url(#b50c4bf459)"><path fill="#000000" d="M 125.082031 25.585938 C 125.082031 27.039062 123.96875 28.234375 122.515625 28.234375 C 122.433594 28.234375 122.347656 28.234375 122.261719 28.234375 C 121.492188 28.234375 120.808594 27.980469 120.210938 27.636719 C 118.84375 26.953125 117.304688 26.613281 115.679688 26.699219 C 109.699219 26.699219 105.855469 31.914062 105.855469 38.496094 L 105.855469 64.0625 C 105.855469 66.027344 104.914062 67.140625 103.121094 67.140625 C 101.324219 67.140625 100.300781 66.027344 100.300781 64.0625 L 100.300781 25.242188 C 100.300781 23.277344 101.324219 22.082031 103.121094 22.082031 C 104.914062 22.082031 105.855469 23.191406 105.855469 25.242188 L 105.855469 26.355469 C 108.332031 23.105469 112.261719 21.3125 116.363281 21.394531 C 118.929688 21.3125 121.40625 21.910156 123.628906 23.105469 C 124.570312 23.621094 125.082031 24.558594 125.082031 25.585938 Z M 125.082031 25.585938 " fill-opacity="1" fill-rule="nonzero"/></g><g clip-path="url(#dd459c0a0d)"><path fill="#000000" d="M 130.804688 25.242188 C 130.804688 23.277344 131.832031 22.082031 133.625 22.082031 C 135.421875 22.082031 136.359375 23.191406 136.359375 25.242188 L 136.359375 64.0625 C 136.359375 65.941406 135.335938 67.140625 133.539062 67.140625 C 131.746094 67.140625 130.804688 65.941406 130.804688 64.0625 Z M 130.804688 25.242188 " fill-opacity="1" fill-rule="nonzero"/></g><g clip-path="url(#8f97aed9ad)"><path fill="#000000" d="M 58.941406 25.242188 C 58.941406 23.277344 59.96875 22.082031 61.761719 22.082031 C 63.554688 22.082031 64.496094 23.191406 64.496094 25.242188 L 64.496094 64.0625 C 64.496094 65.941406 63.46875 67.140625 61.675781 67.140625 C 59.882812 67.140625 58.941406 65.941406 58.941406 64.0625 Z M 58.941406 25.242188 " fill-opacity="1" fill-rule="nonzero"/></g><g clip-path="url(#19b5988fe0)"><path fill="#000000" d="M 66.207031 11.648438 C 66.207031 11.941406 66.175781 12.230469 66.121094 12.515625 C 66.0625 12.804688 65.976562 13.082031 65.867188 13.351562 C 65.753906 13.621094 65.617188 13.875 65.457031 14.121094 C 65.292969 14.363281 65.109375 14.585938 64.902344 14.792969 C 64.699219 15 64.472656 15.183594 64.230469 15.347656 C 63.988281 15.507812 63.730469 15.644531 63.460938 15.757812 C 63.191406 15.867188 62.914062 15.953125 62.628906 16.007812 C 62.34375 16.066406 62.054688 16.09375 61.761719 16.09375 C 61.46875 16.09375 61.179688 16.066406 60.894531 16.007812 C 60.609375 15.953125 60.332031 15.867188 60.0625 15.757812 C 59.792969 15.644531 59.535156 15.507812 59.292969 15.347656 C 59.050781 15.183594 58.824219 15 58.621094 14.792969 C 58.414062 14.585938 58.230469 14.363281 58.066406 14.121094 C 57.90625 13.875 57.769531 13.621094 57.65625 13.351562 C 57.542969 13.082031 57.460938 12.804688 57.402344 12.515625 C 57.347656 12.230469 57.316406 11.941406 57.316406 11.648438 C 57.316406 11.355469 57.347656 11.066406 57.402344 10.78125 C 57.460938 10.496094 57.542969 10.21875 57.65625 9.949219 C 57.769531 9.679688 57.90625 9.421875 58.066406 9.179688 C 58.230469 8.9375 58.414062 8.710938 58.621094 8.503906 C 58.824219 8.300781 59.050781 8.113281 59.292969 7.953125 C 59.535156 7.789062 59.792969 7.652344 60.0625 7.542969 C 60.332031 7.429688 60.609375 7.34375 60.894531 7.289062 C 61.179688 7.230469 61.46875 7.203125 61.761719 7.203125 C 62.054688 7.203125 62.34375 7.230469 62.628906 7.289062 C 62.914062 7.34375 63.191406 7.429688 63.460938 7.542969 C 63.730469 7.652344 63.988281 7.789062 64.230469 7.953125 C 64.472656 8.113281 64.699219 8.300781 64.902344 8.503906 C 65.109375 8.710938 65.292969 8.9375 65.457031 9.179688 C 65.617188 9.421875 65.753906 9.679688 65.867188 9.949219 C 65.976562 10.21875 66.0625 10.496094 66.121094 10.78125 C 66.175781 11.066406 66.207031 11.355469 66.207031 11.648438 Z M 66.207031 11.648438 " fill-opacity="1" fill-rule="nonzero"/></g><g clip-path="url(#c0feaddf1a)"><path fill="#000000" d="M 165.671875 48.074219 L 150.375 66.027344 C 149.863281 66.710938 149.007812 67.140625 148.152344 67.140625 C 146.699219 67.140625 145.503906 66.027344 145.503906 64.574219 C 145.503906 63.804688 145.761719 63.121094 146.273438 62.609375 L 162.253906 44.480469 L 146.871094 26.78125 C 146.273438 26.269531 145.929688 25.5 145.929688 24.730469 C 145.929688 23.277344 147.128906 22.082031 148.664062 22.164062 C 148.664062 22.164062 148.75 22.164062 148.75 22.164062 C 149.605469 22.164062 150.375 22.59375 150.886719 23.277344 L 165.757812 40.804688 L 180.625 23.277344 C 181.136719 22.59375 181.90625 22.164062 182.761719 22.164062 C 184.214844 22.082031 185.496094 23.191406 185.496094 24.644531 C 185.496094 24.644531 185.496094 24.730469 185.496094 24.730469 C 185.496094 25.5 185.152344 26.269531 184.554688 26.78125 L 169.175781 44.480469 L 185.152344 62.609375 C 185.667969 63.121094 185.921875 63.890625 185.921875 64.574219 C 185.921875 66.027344 184.726562 67.226562 183.273438 67.140625 C 182.417969 67.140625 181.5625 66.710938 181.050781 66.027344 Z M 165.671875 48.074219 " fill-opacity="1" fill-rule="nonzero"/></g><g clip-path="url(#850ff8ceb1)"><path fill="#000000" d="M 196.6875 62.4375 L 195.066406 62.4375 L 195.066406 66.710938 L 194.382812 66.710938 L 194.382812 62.4375 L 192.757812 62.4375 L 192.757812 61.921875 L 196.6875 61.921875 Z M 202.5 61.921875 L 202.5 66.710938 L 201.902344 66.710938 L 201.902344 63.632812 L 201.988281 62.691406 L 201.902344 63.035156 L 200.363281 66.625 L 199.851562 66.625 L 198.3125 63.035156 L 198.140625 62.691406 L 198.226562 63.632812 L 198.226562 66.710938 L 197.628906 66.710938 L 197.628906 61.921875 L 198.398438 61.921875 L 199.851562 65.34375 L 200.105469 65.941406 L 200.277344 65.34375 L 201.730469 61.921875 Z M 202.5 61.921875 " fill-opacity="1" fill-rule="nonzero"/></g><g clip-path="url(#af64a21af8)"><path fill="#000000" d="M 170.113281 11.648438 C 170.113281 11.941406 170.085938 12.230469 170.027344 12.515625 C 169.972656 12.804688 169.886719 13.082031 169.777344 13.351562 C 169.664062 13.621094 169.527344 13.875 169.363281 14.121094 C 169.203125 14.363281 169.019531 14.585938 168.8125 14.792969 C 168.605469 15 168.382812 15.183594 168.140625 15.347656 C 167.898438 15.507812 167.640625 15.644531 167.371094 15.757812 C 167.101562 15.867188 166.824219 15.953125 166.539062 16.007812 C 166.25 16.066406 165.960938 16.09375 165.671875 16.09375 C 165.378906 16.09375 165.089844 16.066406 164.804688 16.007812 C 164.515625 15.953125 164.238281 15.867188 163.96875 15.757812 C 163.699219 15.644531 163.445312 15.507812 163.203125 15.347656 C 162.960938 15.183594 162.734375 15 162.527344 14.792969 C 162.320312 14.585938 162.136719 14.363281 161.976562 14.121094 C 161.8125 13.875 161.675781 13.621094 161.566406 13.351562 C 161.453125 13.082031 161.371094 12.804688 161.3125 12.515625 C 161.253906 12.230469 161.226562 11.941406 161.226562 11.648438 C 161.226562 11.355469 161.253906 11.066406 161.3125 10.78125 C 161.371094 10.496094 161.453125 10.21875 161.566406 9.949219 C 161.675781 9.679688 161.8125 9.421875 161.976562 9.179688 C 162.136719 8.9375 162.320312 8.710938 162.527344 8.503906 C 162.734375 8.300781 162.960938 8.113281 163.203125 7.953125 C 163.445312 7.789062 163.699219 7.652344 163.96875 7.542969 C 164.238281 7.429688 164.515625 7.34375 164.804688 7.289062 C 165.089844 7.230469 165.378906 7.203125 165.671875 7.203125 C 165.960938 7.203125 166.25 7.230469 166.539062 7.289062 C 166.824219 7.34375 167.101562 7.429688 167.371094 7.542969 C 167.640625 7.652344 167.898438 7.789062 168.140625 7.953125 C 168.382812 8.113281 168.605469 8.300781 168.8125 8.503906 C 169.019531 8.710938 169.203125 8.9375 169.363281 9.179688 C 169.527344 9.421875 169.664062 9.679688 169.777344 9.949219 C 169.886719 10.21875 169.972656 10.496094 170.027344 10.78125 C 170.085938 11.066406 170.113281 11.355469 170.113281 11.648438 Z M 170.113281 11.648438 " fill-opacity="1" fill-rule="nonzero"/></g></svg>