<svg xmlns="http://www.w3.org/2000/svg" xmlns:xlink="http://www.w3.org/1999/xlink" width="280" zoomAndPan="magnify" viewBox="0 0 210 74.999997" height="100" preserveAspectRatio="xMidYMid meet" version="1.0"><defs><clipPath id="1e13f3396f"><path d="M 15.882812 52 L 194.382812 52 L 194.382812 67 L 15.882812 67 Z M 15.882812 52 " clip-rule="nonzero"/></clipPath></defs><path fill="#ffffff" d="M 182.589844 26.691406 L 172.730469 24.40625 L 170.96875 23.703125 L 125.726562 24.054688 L 125.726562 45.847656 L 182.589844 46.023438 Z M 182.589844 26.691406 " fill-opacity="1" fill-rule="nonzero"/><path fill="#f48120" d="M 164.105469 43.914062 C 164.390625 43.15625 164.488281 42.375 164.394531 41.566406 C 164.300781 40.761719 164.027344 40.019531 163.574219 39.34375 C 163.113281 38.792969 162.5625 38.347656 161.921875 38.011719 C 161.28125 37.675781 160.601562 37.476562 159.878906 37.414062 L 129.25 37.0625 C 129.074219 37.0625 128.898438 36.886719 128.722656 36.886719 C 128.632812 36.820312 128.589844 36.730469 128.589844 36.621094 C 128.589844 36.511719 128.632812 36.421875 128.722656 36.359375 C 128.898438 36.007812 129.074219 35.832031 129.425781 35.832031 L 160.230469 35.480469 C 161.210938 35.371094 162.15625 35.136719 163.070312 34.777344 C 163.988281 34.414062 164.839844 33.941406 165.628906 33.355469 C 166.417969 32.769531 167.113281 32.089844 167.722656 31.316406 C 168.328125 30.542969 168.824219 29.703125 169.210938 28.800781 L 170.96875 24.230469 C 170.96875 24.054688 171.144531 23.878906 170.96875 23.703125 C 170.730469 22.644531 170.410156 21.613281 170.003906 20.609375 C 169.601562 19.605469 169.117188 18.636719 168.554688 17.710938 C 167.992188 16.785156 167.359375 15.910156 166.652344 15.085938 C 165.949219 14.261719 165.183594 13.5 164.355469 12.800781 C 163.527344 12.097656 162.648438 11.472656 161.71875 10.914062 C 160.785156 10.355469 159.816406 9.878906 158.808594 9.476562 C 157.800781 9.078125 156.765625 8.757812 155.707031 8.527344 C 154.648438 8.292969 153.574219 8.148438 152.492188 8.089844 C 151.410156 8.027344 150.328125 8.058594 149.25 8.171875 C 148.171875 8.289062 147.109375 8.492188 146.0625 8.777344 C 145.015625 9.066406 144 9.4375 143.015625 9.890625 C 142.027344 10.34375 141.085938 10.871094 140.1875 11.476562 C 139.285156 12.082031 138.441406 12.757812 137.648438 13.5 C 136.859375 14.242188 136.132812 15.042969 135.472656 15.902344 C 134.8125 16.761719 134.226562 17.667969 133.714844 18.625 C 133.203125 19.578125 132.769531 20.566406 132.417969 21.59375 C 131.496094 20.9375 130.492188 20.457031 129.40625 20.15625 C 128.316406 19.855469 127.207031 19.746094 126.082031 19.835938 C 125.566406 19.890625 125.0625 19.992188 124.566406 20.132812 C 124.070312 20.277344 123.589844 20.460938 123.121094 20.683594 C 122.65625 20.90625 122.214844 21.167969 121.792969 21.464844 C 121.371094 21.765625 120.976562 22.097656 120.613281 22.460938 C 120.246094 22.824219 119.914062 23.21875 119.617188 23.640625 C 119.316406 24.058594 119.054688 24.503906 118.832031 24.96875 C 118.609375 25.433594 118.425781 25.914062 118.28125 26.40625 C 118.140625 26.902344 118.039062 27.40625 117.984375 27.921875 C 117.863281 28.984375 117.921875 30.039062 118.160156 31.085938 C 117.332031 31.105469 116.511719 31.210938 115.703125 31.390625 C 114.894531 31.570312 114.109375 31.828125 113.351562 32.160156 C 112.589844 32.492188 111.871094 32.894531 111.1875 33.367188 C 110.507812 33.839844 109.878906 34.371094 109.300781 34.964844 C 108.722656 35.558594 108.207031 36.203125 107.753906 36.894531 C 107.300781 37.589844 106.917969 38.320312 106.605469 39.085938 C 106.292969 39.851562 106.058594 40.640625 105.898438 41.453125 C 105.738281 42.265625 105.660156 43.085938 105.660156 43.914062 C 105.632812 44.566406 105.691406 45.210938 105.835938 45.847656 C 105.84375 45.992188 105.898438 46.113281 106 46.214844 C 106.101562 46.3125 106.222656 46.367188 106.363281 46.375 L 162.871094 46.375 C 163.222656 46.375 163.574219 46.199219 163.574219 45.847656 Z M 164.105469 43.914062 " fill-opacity="1" fill-rule="nonzero"/><path fill="#faad3f" d="M 173.785156 24.230469 L 172.90625 24.230469 C 172.730469 24.230469 172.554688 24.40625 172.378906 24.582031 L 171.144531 28.800781 C 170.859375 29.558594 170.761719 30.34375 170.855469 31.148438 C 170.949219 31.953125 171.222656 32.695312 171.671875 33.371094 C 172.136719 33.925781 172.6875 34.367188 173.328125 34.703125 C 173.96875 35.039062 174.648438 35.238281 175.371094 35.304688 L 181.882812 35.65625 C 182.058594 35.65625 182.234375 35.832031 182.410156 35.832031 C 182.5 35.894531 182.542969 35.984375 182.542969 36.09375 C 182.542969 36.203125 182.5 36.292969 182.410156 36.359375 C 182.234375 36.710938 182.058594 36.886719 181.707031 36.886719 L 175.019531 37.238281 C 174.039062 37.34375 173.09375 37.578125 172.179688 37.9375 C 171.261719 38.300781 170.410156 38.773438 169.621094 39.359375 C 168.832031 39.945312 168.136719 40.625 167.527344 41.398438 C 166.921875 42.171875 166.425781 43.011719 166.039062 43.914062 L 165.6875 45.496094 C 165.511719 45.671875 165.6875 46.023438 166.039062 46.023438 L 189.277344 46.023438 C 189.351562 46.035156 189.421875 46.027344 189.492188 46.003906 C 189.5625 45.980469 189.621094 45.945312 189.671875 45.894531 C 189.726562 45.839844 189.761719 45.78125 189.785156 45.710938 C 189.808594 45.640625 189.816406 45.570312 189.804688 45.496094 C 190.226562 44.003906 190.460938 42.480469 190.507812 40.925781 C 190.507812 40.382812 190.476562 39.835938 190.417969 39.292969 C 190.363281 38.75 190.28125 38.210938 190.171875 37.675781 C 190.0625 37.140625 189.925781 36.613281 189.765625 36.09375 C 189.605469 35.570312 189.417969 35.058594 189.207031 34.554688 C 188.996094 34.050781 188.761719 33.558594 188.503906 33.078125 C 188.246094 32.597656 187.964844 32.128906 187.660156 31.675781 C 187.355469 31.222656 187.027344 30.785156 186.679688 30.363281 C 186.335938 29.941406 185.96875 29.535156 185.582031 29.152344 C 185.195312 28.765625 184.789062 28.398438 184.367188 28.050781 C 183.945312 27.707031 183.507812 27.378906 183.050781 27.074219 C 182.597656 26.773438 182.128906 26.492188 181.648438 26.230469 C 181.167969 25.972656 180.675781 25.738281 180.167969 25.527344 C 179.664062 25.316406 179.152344 25.132812 178.628906 24.972656 C 178.105469 24.8125 177.578125 24.675781 177.042969 24.566406 C 176.503906 24.457031 175.964844 24.375 175.421875 24.320312 C 174.878906 24.261719 174.332031 24.234375 173.785156 24.230469 " fill-opacity="1" fill-rule="nonzero"/><g clip-path="url(#1e13f3396f)"><path fill="#404041" d="M 192.796875 55.867188 C 192.589844 55.867188 192.386719 55.828125 192.191406 55.746094 C 191.996094 55.667969 191.828125 55.554688 191.675781 55.40625 C 191.527344 55.257812 191.414062 55.085938 191.335938 54.890625 C 191.253906 54.699219 191.214844 54.496094 191.214844 54.285156 C 191.214844 54.078125 191.253906 53.875 191.335938 53.679688 C 191.414062 53.488281 191.527344 53.316406 191.675781 53.167969 C 191.828125 53.019531 191.996094 52.90625 192.191406 52.824219 C 192.386719 52.746094 192.589844 52.703125 192.796875 52.703125 C 193.007812 52.703125 193.210938 52.746094 193.402344 52.824219 C 193.597656 52.90625 193.769531 53.019531 193.917969 53.167969 C 194.066406 53.316406 194.179688 53.488281 194.261719 53.679688 C 194.34375 53.875 194.382812 54.078125 194.382812 54.285156 C 194.382812 54.496094 194.34375 54.699219 194.261719 54.890625 C 194.183594 55.085938 194.070312 55.257812 193.921875 55.40625 C 193.773438 55.554688 193.601562 55.667969 193.40625 55.75 C 193.210938 55.828125 193.007812 55.867188 192.796875 55.867188 M 192.796875 53.054688 C 192.632812 53.054688 192.476562 53.085938 192.328125 53.148438 C 192.175781 53.210938 192.042969 53.300781 191.925781 53.414062 C 191.8125 53.53125 191.722656 53.664062 191.660156 53.816406 C 191.597656 53.964844 191.566406 54.121094 191.566406 54.285156 C 191.566406 54.449219 191.597656 54.605469 191.660156 54.757812 C 191.722656 54.90625 191.8125 55.039062 191.925781 55.15625 C 192.042969 55.269531 192.175781 55.359375 192.328125 55.421875 C 192.476562 55.484375 192.632812 55.515625 192.796875 55.515625 C 192.960938 55.515625 193.117188 55.484375 193.269531 55.421875 C 193.421875 55.359375 193.554688 55.269531 193.667969 55.15625 C 193.785156 55.039062 193.875 54.90625 193.9375 54.757812 C 194 54.605469 194.03125 54.449219 194.03125 54.285156 C 194.035156 54.121094 194.003906 53.964844 193.945312 53.808594 C 193.882812 53.65625 193.792969 53.523438 193.679688 53.40625 C 193.5625 53.289062 193.425781 53.203125 193.273438 53.140625 C 193.121094 53.082031 192.960938 53.050781 192.796875 53.054688 M 193.503906 55.164062 L 193.148438 55.164062 L 192.796875 54.636719 L 192.445312 54.636719 L 192.445312 55.164062 L 192.09375 55.164062 L 192.09375 53.582031 L 192.972656 53.582031 C 193.046875 53.574219 193.117188 53.578125 193.1875 53.601562 C 193.257812 53.625 193.316406 53.664062 193.371094 53.714844 C 193.421875 53.765625 193.460938 53.828125 193.484375 53.898438 C 193.507812 53.964844 193.511719 54.039062 193.503906 54.109375 C 193.503906 54.285156 193.324219 54.460938 193.148438 54.636719 Z M 192.972656 54.285156 C 193.148438 54.285156 193.148438 54.285156 193.148438 54.109375 C 193.152344 53.992188 193.09375 53.933594 192.972656 53.933594 L 192.445312 53.933594 L 192.445312 54.460938 L 192.972656 54.460938 Z M 35.070312 52.703125 L 38.941406 52.703125 L 38.941406 63.25 L 45.632812 63.25 L 45.632812 66.589844 L 35.070312 66.589844 Z M 49.679688 59.558594 C 49.679688 59.070312 49.730469 58.585938 49.828125 58.109375 C 49.925781 57.632812 50.070312 57.167969 50.265625 56.71875 C 50.457031 56.269531 50.691406 55.84375 50.972656 55.445312 C 51.25 55.042969 51.566406 54.675781 51.921875 54.335938 C 52.273438 54 52.660156 53.703125 53.074219 53.445312 C 53.488281 53.183594 53.921875 52.96875 54.382812 52.800781 C 54.839844 52.628906 55.308594 52.503906 55.792969 52.429688 C 56.277344 52.355469 56.761719 52.328125 57.25 52.351562 C 57.734375 52.332031 58.214844 52.359375 58.695312 52.433594 C 59.171875 52.511719 59.636719 52.636719 60.089844 52.808594 C 60.542969 52.980469 60.972656 53.199219 61.378906 53.457031 C 61.789062 53.71875 62.164062 54.015625 62.511719 54.355469 C 62.859375 54.691406 63.167969 55.0625 63.4375 55.464844 C 63.707031 55.863281 63.9375 56.289062 64.117188 56.734375 C 64.300781 57.183594 64.4375 57.644531 64.527344 58.121094 C 64.613281 58.597656 64.65625 59.074219 64.644531 59.558594 C 64.644531 60.046875 64.59375 60.53125 64.496094 61.007812 C 64.398438 61.488281 64.253906 61.949219 64.0625 62.398438 C 63.867188 62.847656 63.632812 63.273438 63.355469 63.671875 C 63.074219 64.074219 62.757812 64.445312 62.40625 64.78125 C 62.050781 65.117188 61.667969 65.414062 61.253906 65.675781 C 60.835938 65.933594 60.402344 66.148438 59.945312 66.320312 C 59.484375 66.488281 59.015625 66.613281 58.53125 66.6875 C 58.046875 66.761719 57.5625 66.789062 57.074219 66.765625 C 56.59375 66.78125 56.113281 66.746094 55.640625 66.664062 C 55.164062 66.582031 54.703125 66.453125 54.253906 66.277344 C 53.804688 66.105469 53.375 65.886719 52.972656 65.625 C 52.566406 65.363281 52.191406 65.066406 51.84375 64.730469 C 51.5 64.394531 51.191406 64.027344 50.921875 63.628906 C 50.652344 63.230469 50.421875 62.808594 50.238281 62.363281 C 50.050781 61.921875 49.910156 61.460938 49.816406 60.988281 C 49.722656 60.515625 49.679688 60.039062 49.679688 59.558594 M 60.769531 59.558594 C 60.789062 59.316406 60.78125 59.074219 60.75 58.832031 C 60.71875 58.589844 60.660156 58.351562 60.582031 58.121094 C 60.5 57.890625 60.398438 57.667969 60.273438 57.460938 C 60.148438 57.25 60.003906 57.054688 59.839844 56.875 C 59.675781 56.691406 59.492188 56.53125 59.296875 56.386719 C 59.097656 56.242188 58.890625 56.121094 58.667969 56.019531 C 58.445312 55.917969 58.214844 55.839844 57.976562 55.785156 C 57.738281 55.730469 57.496094 55.699219 57.25 55.691406 C 56.777344 55.714844 56.324219 55.824219 55.890625 56.023438 C 55.457031 56.21875 55.078125 56.492188 54.75 56.835938 C 54.421875 57.179688 54.171875 57.570312 53.996094 58.011719 C 53.816406 58.453125 53.730469 58.910156 53.730469 59.382812 C 53.730469 59.859375 53.816406 60.316406 53.996094 60.753906 C 54.171875 61.195312 54.421875 61.589844 54.75 61.933594 C 55.078125 62.277344 55.457031 62.546875 55.890625 62.742188 C 56.324219 62.941406 56.777344 63.050781 57.25 63.074219 C 59.363281 63.425781 60.769531 61.667969 60.769531 59.558594 M 69.398438 60.4375 L 69.398438 52.703125 L 73.269531 52.703125 L 73.269531 60.4375 C 73.269531 62.371094 74.324219 63.425781 75.910156 63.425781 C 76.09375 63.441406 76.28125 63.4375 76.464844 63.410156 C 76.648438 63.382812 76.824219 63.335938 77 63.269531 C 77.171875 63.203125 77.335938 63.117188 77.488281 63.015625 C 77.644531 62.910156 77.785156 62.792969 77.910156 62.65625 C 78.039062 62.523438 78.148438 62.375 78.242188 62.214844 C 78.335938 62.054688 78.410156 61.886719 78.464844 61.707031 C 78.519531 61.53125 78.554688 61.351562 78.570312 61.164062 C 78.585938 60.980469 78.578125 60.796875 78.550781 60.613281 L 78.550781 52.703125 L 82.421875 52.703125 L 82.421875 60.4375 C 82.421875 65.007812 79.785156 66.941406 75.910156 66.941406 C 71.863281 66.765625 69.398438 64.832031 69.398438 60.4375 M 88.234375 52.703125 L 93.691406 52.703125 C 98.617188 52.703125 101.613281 55.515625 101.613281 59.558594 C 101.613281 63.601562 98.617188 66.589844 93.691406 66.589844 L 88.410156 66.589844 L 88.410156 52.703125 Z M 93.691406 63.074219 C 93.933594 63.097656 94.179688 63.09375 94.425781 63.066406 C 94.671875 63.039062 94.910156 62.988281 95.144531 62.910156 C 95.375 62.832031 95.601562 62.730469 95.8125 62.605469 C 96.023438 62.484375 96.222656 62.335938 96.40625 62.171875 C 96.585938 62.007812 96.75 61.824219 96.894531 61.625 C 97.039062 61.425781 97.160156 61.210938 97.261719 60.988281 C 97.359375 60.761719 97.433594 60.53125 97.488281 60.289062 C 97.539062 60.046875 97.5625 59.804688 97.5625 59.558594 C 97.5625 59.3125 97.539062 59.070312 97.488281 58.828125 C 97.433594 58.589844 97.359375 58.355469 97.261719 58.128906 C 97.160156 57.90625 97.039062 57.691406 96.894531 57.492188 C 96.75 57.292969 96.585938 57.113281 96.40625 56.945312 C 96.222656 56.78125 96.023438 56.636719 95.8125 56.511719 C 95.601562 56.386719 95.375 56.285156 95.144531 56.207031 C 94.910156 56.128906 94.671875 56.078125 94.425781 56.050781 C 94.179688 56.023438 93.933594 56.019531 93.691406 56.042969 L 92.105469 56.042969 L 92.105469 63.074219 Z M 107.070312 52.703125 L 118.160156 52.703125 L 118.160156 56.042969 L 110.941406 56.042969 L 110.941406 58.328125 L 117.453125 58.328125 L 117.453125 61.492188 L 110.941406 61.492188 L 110.941406 66.589844 L 107.070312 66.589844 Z M 123.617188 52.703125 L 127.488281 52.703125 L 127.488281 63.25 L 134.179688 63.25 L 134.179688 66.589844 L 123.617188 66.589844 Z M 144.210938 52.527344 L 148.085938 52.527344 L 154.070312 66.589844 L 149.84375 66.589844 L 148.789062 64.128906 L 143.332031 64.128906 L 142.277344 66.589844 L 138.226562 66.589844 Z M 147.734375 61.140625 L 146.148438 57.273438 L 144.5625 61.140625 Z M 159 52.703125 L 165.511719 52.703125 C 166.351562 52.636719 167.171875 52.738281 167.96875 53.015625 C 168.765625 53.289062 169.472656 53.714844 170.089844 54.285156 C 170.339844 54.558594 170.558594 54.855469 170.738281 55.179688 C 170.917969 55.503906 171.058594 55.84375 171.15625 56.199219 C 171.253906 56.554688 171.308594 56.921875 171.320312 57.289062 C 171.332031 57.660156 171.296875 58.027344 171.21875 58.386719 C 171.140625 58.75 171.023438 59.097656 170.859375 59.429688 C 170.699219 59.765625 170.5 60.074219 170.261719 60.359375 C 170.027344 60.644531 169.761719 60.898438 169.464844 61.121094 C 169.164062 61.339844 168.847656 61.523438 168.503906 61.667969 L 171.851562 66.589844 L 167.449219 66.589844 L 164.632812 62.371094 L 162.871094 62.371094 L 162.871094 66.589844 L 159 66.589844 Z M 165.335938 59.382812 C 166.570312 59.382812 167.449219 58.679688 167.449219 57.800781 C 167.449219 56.746094 166.570312 56.21875 165.335938 56.21875 L 162.871094 56.21875 L 162.871094 59.558594 L 165.335938 59.558594 Z M 176.777344 52.703125 L 188.046875 52.703125 L 188.046875 55.867188 L 180.652344 55.867188 L 180.652344 57.976562 L 187.339844 57.976562 L 187.339844 61.140625 L 180.652344 61.140625 L 180.652344 63.25 L 188.222656 63.25 L 188.222656 66.589844 L 176.777344 66.589844 Z M 26.621094 61.316406 C 26.347656 61.953125 25.925781 62.460938 25.351562 62.84375 C 24.777344 63.226562 24.144531 63.421875 23.453125 63.425781 C 22.976562 63.402344 22.523438 63.292969 22.09375 63.09375 C 21.660156 62.898438 21.28125 62.628906 20.953125 62.285156 C 20.625 61.941406 20.371094 61.546875 20.195312 61.105469 C 20.019531 60.667969 19.929688 60.210938 19.929688 59.734375 C 19.929688 59.261719 20.019531 58.804688 20.195312 58.363281 C 20.371094 57.921875 20.625 57.53125 20.953125 57.1875 C 21.28125 56.84375 21.660156 56.570312 22.09375 56.375 C 22.523438 56.175781 22.976562 56.066406 23.453125 56.042969 C 24.1875 56.058594 24.859375 56.273438 25.464844 56.6875 C 26.074219 57.101562 26.515625 57.648438 26.796875 58.328125 L 30.84375 58.328125 C 30.757812 57.910156 30.636719 57.503906 30.480469 57.109375 C 30.324219 56.710938 30.132812 56.332031 29.90625 55.96875 C 29.683594 55.605469 29.425781 55.265625 29.144531 54.949219 C 28.859375 54.628906 28.546875 54.339844 28.210938 54.078125 C 27.875 53.8125 27.519531 53.582031 27.144531 53.378906 C 26.765625 53.179688 26.375 53.011719 25.96875 52.878906 C 25.5625 52.75 25.148438 52.652344 24.726562 52.59375 C 24.304688 52.535156 23.878906 52.511719 23.453125 52.527344 C 22.964844 52.511719 22.480469 52.542969 22 52.625 C 21.523438 52.707031 21.054688 52.832031 20.597656 53.003906 C 20.144531 53.179688 19.710938 53.394531 19.300781 53.65625 C 18.886719 53.914062 18.507812 54.210938 18.152344 54.546875 C 17.800781 54.882812 17.484375 55.25 17.207031 55.648438 C 16.925781 56.046875 16.691406 56.46875 16.496094 56.914062 C 16.300781 57.359375 16.152344 57.816406 16.046875 58.292969 C 15.945312 58.769531 15.890625 59.25 15.882812 59.734375 C 15.878906 60.214844 15.925781 60.691406 16.019531 61.164062 C 16.113281 61.636719 16.25 62.097656 16.4375 62.539062 C 16.625 62.984375 16.851562 63.40625 17.121094 63.804688 C 17.394531 64.203125 17.703125 64.570312 18.046875 64.90625 C 18.390625 65.242188 18.765625 65.539062 19.171875 65.800781 C 19.578125 66.0625 20.003906 66.28125 20.453125 66.453125 C 20.902344 66.628906 21.363281 66.757812 21.839844 66.839844 C 22.316406 66.921875 22.792969 66.957031 23.277344 66.941406 C 24.117188 66.945312 24.9375 66.816406 25.734375 66.550781 C 26.53125 66.285156 27.265625 65.898438 27.933594 65.390625 C 28.601562 64.878906 29.171875 64.277344 29.640625 63.578125 C 30.109375 62.882812 30.453125 62.128906 30.667969 61.316406 Z M 26.621094 61.316406 " fill-opacity="1" fill-rule="nonzero"/></g></svg>