<svg xmlns="http://www.w3.org/2000/svg" xmlns:xlink="http://www.w3.org/1999/xlink" width="280" zoomAndPan="magnify" viewBox="0 0 210 74.999997" height="100" preserveAspectRatio="xMidYMid meet" version="1.0"><defs><g/></defs><path fill="#e21d38" d="M 130.296875 37.527344 C 130.296875 38.417969 130.253906 39.304688 130.164062 40.191406 C 130.078125 41.074219 129.949219 41.953125 129.773438 42.824219 C 129.601562 43.695312 129.386719 44.558594 129.125 45.40625 C 128.867188 46.257812 128.570312 47.09375 128.226562 47.917969 C 127.886719 48.738281 127.507812 49.539062 127.085938 50.324219 C 126.667969 51.109375 126.210938 51.871094 125.714844 52.609375 C 125.222656 53.347656 124.691406 54.0625 124.128906 54.75 C 123.5625 55.433594 122.964844 56.09375 122.335938 56.722656 C 121.707031 57.351562 121.046875 57.945312 120.359375 58.511719 C 119.671875 59.074219 118.957031 59.601562 118.21875 60.097656 C 117.476562 60.589844 116.714844 61.046875 115.929688 61.464844 C 115.144531 61.886719 114.34375 62.265625 113.519531 62.605469 C 112.695312 62.945312 111.859375 63.246094 111.007812 63.503906 C 110.15625 63.761719 109.292969 63.976562 108.421875 64.148438 C 107.546875 64.324219 106.667969 64.453125 105.78125 64.539062 C 104.898438 64.628906 104.007812 64.671875 103.117188 64.671875 C 102.230469 64.671875 101.339844 64.628906 100.457031 64.539062 C 99.570312 64.453125 98.691406 64.324219 97.816406 64.148438 C 96.945312 63.976562 96.082031 63.761719 95.230469 63.503906 C 94.378906 63.246094 93.539062 62.945312 92.71875 62.605469 C 91.894531 62.265625 91.09375 61.886719 90.308594 61.464844 C 89.523438 61.046875 88.761719 60.589844 88.019531 60.097656 C 87.28125 59.601562 86.566406 59.074219 85.878906 58.511719 C 85.191406 57.945312 84.53125 57.351562 83.902344 56.722656 C 83.273438 56.09375 82.675781 55.433594 82.109375 54.75 C 81.546875 54.0625 81.015625 53.347656 80.523438 52.609375 C 80.027344 51.871094 79.570312 51.109375 79.152344 50.324219 C 78.730469 49.539062 78.351562 48.738281 78.011719 47.917969 C 77.667969 47.09375 77.371094 46.257812 77.113281 45.40625 C 76.851562 44.558594 76.636719 43.695312 76.464844 42.824219 C 76.289062 41.953125 76.160156 41.074219 76.070312 40.191406 C 75.984375 39.304688 75.941406 38.417969 75.941406 37.527344 C 75.941406 36.640625 75.984375 35.753906 76.070312 34.867188 C 76.160156 33.984375 76.289062 33.105469 76.464844 32.234375 C 76.636719 31.363281 76.851562 30.5 77.113281 29.648438 C 77.371094 28.800781 77.667969 27.964844 78.011719 27.140625 C 78.351562 26.320312 78.730469 25.519531 79.152344 24.734375 C 79.570312 23.949219 80.027344 23.1875 80.523438 22.449219 C 81.015625 21.710938 81.546875 20.996094 82.109375 20.308594 C 82.675781 19.621094 83.273438 18.964844 83.902344 18.335938 C 84.53125 17.707031 85.191406 17.113281 85.878906 16.546875 C 86.566406 15.984375 87.28125 15.453125 88.019531 14.960938 C 88.761719 14.46875 89.523438 14.011719 90.308594 13.589844 C 91.09375 13.171875 91.894531 12.792969 92.71875 12.453125 C 93.539062 12.113281 94.378906 11.8125 95.230469 11.554688 C 96.082031 11.296875 96.945312 11.082031 97.816406 10.90625 C 98.691406 10.734375 99.570312 10.605469 100.457031 10.515625 C 101.339844 10.429688 102.230469 10.386719 103.117188 10.386719 C 104.007812 10.386719 104.898438 10.429688 105.78125 10.515625 C 106.667969 10.605469 107.546875 10.734375 108.421875 10.90625 C 109.292969 11.082031 110.15625 11.296875 111.007812 11.554688 C 111.859375 11.8125 112.695312 12.113281 113.519531 12.453125 C 114.34375 12.792969 115.144531 13.171875 115.929688 13.589844 C 116.714844 14.011719 117.476562 14.46875 118.21875 14.960938 C 118.957031 15.453125 119.671875 15.984375 120.359375 16.546875 C 121.046875 17.113281 121.707031 17.707031 122.335938 18.335938 C 122.964844 18.964844 123.5625 19.621094 124.128906 20.308594 C 124.691406 20.996094 125.222656 21.710938 125.714844 22.449219 C 126.210938 23.1875 126.667969 23.949219 127.085938 24.734375 C 127.507812 25.519531 127.886719 26.320312 128.226562 27.140625 C 128.570312 27.964844 128.867188 28.800781 129.125 29.648438 C 129.386719 30.5 129.601562 31.363281 129.773438 32.234375 C 129.949219 33.105469 130.078125 33.984375 130.164062 34.867188 C 130.253906 35.753906 130.296875 36.640625 130.296875 37.527344 Z M 130.296875 37.527344 " fill-opacity="1" fill-rule="nonzero"/><path fill="#ffffff" d="M 102.496094 40.207031 C 115.839844 41.308594 120.980469 44.976562 120.734375 49.988281 C 120.492188 52.675781 117.917969 55.246094 114.613281 55.488281 C 110.695312 55.734375 108.859375 54.144531 107.757812 52.433594 C 106.78125 50.84375 105.675781 49.253906 104.574219 47.542969 C 104.332031 47.054688 103.839844 47.421875 103.472656 47.664062 C 102.617188 48.398438 101.882812 49.253906 101.148438 49.988281 C 100.660156 50.476562 100.78125 50.84375 100.902344 51.210938 C 101.636719 52.921875 102.371094 54.632812 103.105469 56.222656 C 104.332031 56.957031 109.839844 57.933594 113.878906 57.566406 C 116.695312 57.324219 120.125 56.222656 123.0625 54.144531 C 125.878906 51.945312 127.957031 49.007812 128.324219 44.242188 C 128.449219 41.308594 127.957031 38.25 125.386719 35.4375 C 122.816406 32.625 118.410156 30.304688 109.472656 29.691406 C 109.960938 28.226562 110.328125 26.878906 110.820312 25.535156 C 116.207031 25.78125 120.980469 26.144531 125.019531 26.636719 C 125.386719 25.046875 125.511719 23.578125 125.878906 22.113281 L 124.777344 20.765625 C 122.695312 20.523438 120.734375 20.03125 118.53125 19.789062 C 115.714844 19.421875 112.777344 19.175781 109.59375 19.054688 C 107.515625 24.921875 105.066406 32.382812 102.496094 40.207031 M 98.945312 17.34375 C 97.964844 17.34375 96.617188 17.589844 94.414062 18.078125 C 89.640625 19.421875 83.765625 22.722656 83.152344 28.226562 C 83.03125 29.082031 83.03125 30.058594 82.90625 30.914062 C 81.558594 31.035156 80.335938 31.160156 79.113281 31.28125 C 78.988281 32.382812 78.988281 33.359375 78.867188 34.460938 C 80.089844 34.339844 81.316406 34.339844 82.664062 34.214844 C 82.417969 39.960938 82.664062 45.707031 83.152344 51.089844 C 83.273438 51.945312 83.273438 52.675781 83.273438 53.167969 C 83.152344 53.65625 82.296875 53.898438 81.070312 53.898438 L 82.664062 55.855469 C 87.3125 56.710938 93.191406 57.324219 99.433594 57.445312 L 99.433594 55.613281 C 95.761719 55.367188 94.046875 54.878906 93.800781 54.144531 C 93.558594 53.535156 93.558594 52.675781 93.433594 51.820312 C 93.191406 46.199219 93.066406 40.085938 93.191406 33.847656 C 95.273438 33.847656 97.351562 33.847656 99.433594 33.726562 C 100.535156 33.238281 101.515625 32.75 102.496094 32.257812 L 102.496094 30.179688 C 99.3125 30.179688 96.25 30.304688 93.191406 30.304688 C 93.3125 27.734375 93.433594 25.289062 93.558594 22.96875 C 93.679688 21.378906 94.78125 20.277344 95.761719 20.277344 C 97.476562 20.15625 99.066406 20.890625 100.660156 21.621094 C 101.515625 21.988281 102.371094 22.476562 103.230469 22.84375 C 103.597656 22.96875 104.085938 23.089844 104.453125 22.722656 C 104.941406 22.113281 105.433594 21.5 105.921875 21.011719 C 106.167969 20.644531 106.042969 20.398438 105.921875 20.277344 C 104.820312 19.421875 103.839844 18.6875 102.738281 17.832031 C 102.128906 17.34375 101.027344 17.34375 100.046875 17.34375 C 99.679688 17.222656 99.3125 17.34375 98.945312 17.34375 " fill-opacity="1" fill-rule="nonzero"/><g fill="#e21d38" fill-opacity="1"><g transform="translate(131.259562, 55.313308)"><g><path d="M 1.53125 0 L 1.046875 -0.765625 L 0.46875 -0.765625 L 0.46875 0 L 0.21875 0 L 0.21875 -1.84375 L 1.09375 -1.84375 C 1.300781 -1.84375 1.460938 -1.796875 1.578125 -1.703125 C 1.691406 -1.609375 1.75 -1.476562 1.75 -1.3125 C 1.75 -1.175781 1.707031 -1.0625 1.625 -0.96875 C 1.539062 -0.875 1.429688 -0.816406 1.296875 -0.796875 L 1.8125 0 Z M 1.484375 -1.3125 C 1.484375 -1.425781 1.445312 -1.507812 1.375 -1.5625 C 1.300781 -1.613281 1.195312 -1.640625 1.0625 -1.640625 L 0.46875 -1.640625 L 0.46875 -0.96875 L 1.078125 -0.96875 C 1.210938 -0.96875 1.3125 -1 1.375 -1.0625 C 1.445312 -1.125 1.484375 -1.207031 1.484375 -1.3125 Z M 1.484375 -1.3125 "/></g></g></g><path stroke-linecap="butt" transform="matrix(1.224222, 0, 0, 1.222637, 75.941285, 10.386584)" fill="none" stroke-linejoin="miter" d="M 47.460069 35.968737 C 47.460069 36.173214 47.42178 36.368105 47.34201 36.556606 C 47.26543 36.741913 47.153752 36.90805 47.013357 37.051822 C 46.869771 37.195594 46.70385 37.307417 46.515592 37.384096 C 46.327335 37.460774 46.132696 37.499113 45.928485 37.499113 C 45.727464 37.499113 45.532826 37.460774 45.344568 37.384096 C 45.156311 37.307417 44.99039 37.195594 44.846803 37.051822 C 44.703217 36.90805 44.59473 36.741913 44.51496 36.556606 C 44.438381 36.368105 44.400091 36.173214 44.400091 35.968737 C 44.400091 35.767456 44.438381 35.572565 44.51496 35.384064 C 44.59473 35.195562 44.703217 35.03262 44.846803 34.888848 C 44.99039 34.745076 45.156311 34.633253 45.344568 34.556574 C 45.532826 34.479896 45.727464 34.441556 45.928485 34.441556 C 46.132696 34.441556 46.327335 34.479896 46.515592 34.556574 C 46.70385 34.633253 46.869771 34.745076 47.013357 34.888848 C 47.153752 35.03262 47.26543 35.195562 47.34201 35.384064 C 47.42178 35.572565 47.460069 35.767456 47.460069 35.968737 Z M 47.460069 35.968737 " stroke="#e21d38" stroke-width="0.274" stroke-opacity="1" stroke-miterlimit="10"/></svg>