<svg xmlns="http://www.w3.org/2000/svg" xmlns:xlink="http://www.w3.org/1999/xlink" width="280" zoomAndPan="magnify" viewBox="0 0 210 74.999997" height="100" preserveAspectRatio="xMidYMid meet" version="1.0"><path fill="#000000" d="M 43.074219 26.117188 C 43.074219 23.539062 45.171875 21.449219 47.761719 21.449219 C 50.351562 21.449219 52.453125 23.539062 52.453125 26.117188 C 52.453125 28.695312 50.351562 30.785156 47.761719 30.785156 C 45.171875 30.785156 43.074219 28.695312 43.074219 26.117188 Z M 43.074219 26.117188 " fill-opacity="1" fill-rule="nonzero"/><path fill="#d0d2d3" d="M 9.171875 26.117188 C 9.171875 23.539062 11.269531 21.449219 13.859375 21.449219 C 16.449219 21.449219 18.550781 23.539062 18.550781 26.117188 C 18.550781 28.695312 16.449219 30.785156 13.859375 30.785156 C 11.269531 30.785156 9.171875 28.695312 9.171875 26.117188 Z M 9.171875 26.117188 " fill-opacity="1" fill-rule="nonzero"/><path fill="#d0d2d3" d="M 20.421875 26.117188 C 20.421875 23.539062 22.523438 21.449219 25.113281 21.449219 C 27.703125 21.449219 29.800781 23.539062 29.800781 26.117188 C 29.800781 28.695312 27.703125 30.785156 25.113281 30.785156 C 22.523438 30.785156 20.421875 28.695312 20.421875 26.117188 Z M 20.421875 26.117188 " fill-opacity="1" fill-rule="nonzero"/><path fill="#d0d2d3" d="M 43.09375 37.46875 C 43.09375 34.890625 45.195312 32.800781 47.785156 32.800781 C 50.375 32.800781 52.472656 34.890625 52.472656 37.46875 C 52.472656 40.046875 50.375 42.136719 47.785156 42.136719 C 45.195312 42.136719 43.097656 40.046875 43.09375 37.46875 Z M 43.09375 37.46875 " fill-opacity="1" fill-rule="nonzero"/><path fill="#b4121b" d="M 31.738281 26.117188 C 31.738281 23.539062 33.835938 21.449219 36.425781 21.449219 C 39.015625 21.449219 41.117188 23.539062 41.117188 26.117188 C 41.117188 28.695312 39.015625 30.785156 36.425781 30.785156 C 33.835938 30.785156 31.738281 28.695312 31.738281 26.117188 Z M 31.738281 26.117188 " fill-opacity="1" fill-rule="nonzero"/><path fill="#faaf3f" d="M 31.738281 37.46875 C 31.738281 34.890625 33.835938 32.800781 36.425781 32.800781 C 39.015625 32.800781 41.117188 34.890625 41.117188 37.46875 C 41.117188 40.046875 39.015625 42.136719 36.425781 42.136719 C 33.835938 42.136719 31.738281 40.046875 31.738281 37.46875 Z M 31.738281 37.46875 " fill-opacity="1" fill-rule="nonzero"/><path fill="#d0d2d3" d="M 20.5625 48.820312 C 20.5625 46.242188 22.660156 44.152344 25.25 44.152344 C 27.839844 44.152344 29.941406 46.242188 29.941406 48.820312 C 29.941406 51.398438 27.839844 53.492188 25.25 53.492188 C 22.664062 53.492188 20.5625 51.40625 20.5625 48.832031 Z M 20.5625 48.820312 " fill-opacity="1" fill-rule="nonzero"/><path fill="#00843f" d="M 31.738281 48.820312 C 31.738281 46.242188 33.835938 44.152344 36.425781 44.152344 C 39.015625 44.152344 41.117188 46.242188 41.117188 48.820312 C 41.117188 51.398438 39.015625 53.492188 36.425781 53.492188 C 33.835938 53.492188 31.738281 51.398438 31.738281 48.820312 Z M 31.738281 48.820312 " fill-opacity="1" fill-rule="nonzero"/><path fill="#000000" d="M 73.902344 33.914062 L 73.902344 30.898438 L 69.300781 30.898438 C 63.605469 30.898438 62.019531 30.550781 62.019531 36.398438 L 62.019531 53.304688 L 65.464844 53.304688 L 65.464844 33.90625 Z M 79.453125 30.789062 L 79.453125 34.046875 C 87.769531 34.046875 89.253906 34.429688 89.253906 38.71875 L 83.039062 38.71875 C 78.277344 38.71875 75.53125 39.597656 75.53125 46.078125 C 75.511719 47.152344 75.640625 48.222656 75.914062 49.261719 C 76.839844 52.570312 79.457031 53.191406 82.859375 53.191406 C 85.277344 53.191406 88.09375 53.097656 89.195312 50.421875 L 89.195312 53.273438 L 92.738281 53.273438 L 92.738281 38.351562 C 92.738281 30.640625 87.253906 30.789062 79.453125 30.789062 Z M 87.832031 49.261719 C 86.769531 50.058594 85.175781 50.085938 83.617188 50.085938 C 81.882812 50.085938 80.671875 50.019531 79.9375 49.261719 C 79.339844 48.640625 79.050781 47.554688 79.050781 45.667969 C 79.050781 42.09375 80.378906 41.816406 83.609375 41.835938 L 89.097656 41.835938 L 89.097656 45.964844 C 89.097656 47.675781 88.601562 48.675781 87.824219 49.261719 Z M 111.820312 22.660156 L 111.820312 30.789062 L 105.082031 30.789062 C 97.628906 30.789062 96.914062 35.445312 96.914062 42.050781 C 96.914062 44.902344 97.046875 47.367188 97.800781 49.25 C 98.789062 51.769531 100.851562 53.253906 105.09375 53.253906 C 111.144531 53.253906 111.828125 50.085938 111.828125 50.085938 L 111.828125 53.265625 L 115.292969 53.265625 L 115.292969 22.667969 Z M 109.972656 49.261719 C 109.148438 49.8125 107.980469 50.019531 106.324219 50.019531 C 104.667969 50.019531 103.378906 49.882812 102.507812 49.257812 C 101.214844 48.332031 100.734375 46.335938 100.734375 42.128906 C 100.734375 35.007812 101.789062 34.191406 106.332031 34.191406 L 111.832031 34.191406 L 111.832031 42.128906 C 111.832031 46.15625 111.480469 48.265625 109.996094 49.257812 Z M 146.464844 30.789062 L 143.148438 30.789062 L 139.46875 46.554688 L 134.195312 30.789062 L 131.339844 30.789062 L 126.207031 46.554688 L 122.246094 30.789062 L 118.695312 30.789062 L 124.230469 53.257812 L 127.421875 53.257812 L 132.671875 36.324219 L 137.957031 53.257812 L 141.15625 53.257812 Z M 151.339844 30.789062 L 151.339844 34.046875 C 159.65625 34.046875 161.144531 34.429688 161.144531 38.71875 L 154.902344 38.71875 C 150.144531 38.71875 147.398438 39.597656 147.398438 46.078125 C 147.378906 47.144531 147.503906 48.210938 147.769531 49.246094 C 148.695312 52.550781 151.3125 53.171875 154.71875 53.171875 C 157.136719 53.171875 159.953125 53.078125 161.050781 50.402344 L 161.050781 53.257812 L 164.59375 53.257812 L 164.59375 38.351562 C 164.585938 30.640625 159.117188 30.789062 151.339844 30.789062 Z M 159.695312 49.261719 C 158.640625 50.058594 157.039062 50.085938 155.480469 50.085938 C 153.75 50.085938 152.542969 50.019531 151.804688 49.261719 C 151.207031 48.640625 150.921875 47.554688 150.921875 45.667969 C 150.921875 42.09375 152.25 41.816406 155.480469 41.835938 L 160.976562 41.835938 L 160.976562 45.964844 C 160.976562 47.675781 160.480469 48.675781 159.703125 49.261719 Z M 180.175781 33.914062 L 180.175781 30.898438 L 175.570312 30.898438 C 169.871094 30.898438 168.292969 30.550781 168.292969 36.398438 L 168.292969 53.304688 L 171.738281 53.304688 L 171.738281 33.90625 Z M 191.34375 30.453125 C 182.230469 30.453125 179.289062 42.597656 183.679688 49.246094 C 185.390625 51.835938 188.203125 53.597656 192.207031 53.484375 C 194.9375 53.414062 197.535156 52.800781 200.007812 51.640625 L 200.007812 48.027344 C 199.136719 48.542969 198.207031 48.957031 197.242188 49.261719 C 194.652344 50.113281 191.074219 50.652344 188.503906 49.261719 C 186.605469 48.238281 185.261719 46.175781 185.261719 42.425781 L 200.34375 42.425781 C 200.34375 42.425781 202.148438 30.453125 191.34375 30.453125 Z M 185.285156 39.1875 C 185.5625 37.273438 186.859375 33.496094 191.53125 33.496094 C 196.203125 33.496094 196.917969 37.132812 197.003906 39.1875 Z M 185.285156 39.1875 " fill-opacity="1" fill-rule="nonzero"/></svg>