<svg width="1" height="1" viewBox="0 0 1 1" fill="none" xmlns="http://www.w3.org/2000/svg">
<path d="M0.349069 0.308657H0.0850663C0.0380866 0.308657 0 0.270575 0 0.223595V0.0850613C0 0.0380817 0.0380866 0 0.0850663 0H0.349069C0.396048 0 0.434135 0.0380817 0.434135 0.0850613V0.223595C0.434135 0.270575 0.396048 0.308657 0.349069 0.308657Z" fill="#081766"/>
<path d="M0.126704 0.099424C0.126704 0.119445 0.110473 0.135677 0.0904519 0.135677C0.0704258 0.135677 0.0541992 0.119445 0.0541992 0.099424C0.0541992 0.0794029 0.0704258 0.0631714 0.0904519 0.0631714C0.110473 0.0631714 0.126704 0.0794029 0.126704 0.099424Z" fill="white"/>
<path d="M0.349742 0.0855741H0.165966C0.159793 0.0855741 0.154785 0.0805715 0.154785 0.0744032C0.154785 0.068235 0.159793 0.0632324 0.165966 0.0632324H0.349742C0.35591 0.0632324 0.360913 0.068235 0.360913 0.0744032C0.360913 0.0805715 0.35591 0.0855741 0.349742 0.0855741Z" fill="white"/>
<path d="M0.349254 0.135745H0.165478C0.159304 0.135745 0.154297 0.130742 0.154297 0.124574C0.154297 0.118401 0.159304 0.113403 0.165478 0.113403H0.349254C0.355422 0.113403 0.360424 0.118401 0.360424 0.124574C0.360424 0.130742 0.355422 0.135745 0.349254 0.135745Z" fill="white"/>
<path d="M0.126704 0.20886C0.126704 0.228881 0.110473 0.245113 0.0904519 0.245113C0.0704258 0.245113 0.0541992 0.228881 0.0541992 0.20886C0.0541992 0.188839 0.0704258 0.172607 0.0904519 0.172607C0.110473 0.172607 0.126704 0.188839 0.126704 0.20886Z" fill="white"/>
<path d="M0.348765 0.194949H0.164989C0.158816 0.194949 0.153809 0.189946 0.153809 0.183778C0.153809 0.177605 0.158816 0.172607 0.164989 0.172607H0.348765C0.354934 0.172607 0.359936 0.177605 0.359936 0.183778C0.359936 0.189946 0.354934 0.194949 0.348765 0.194949Z" fill="white"/>
<path d="M0.348765 0.245425H0.164989C0.158816 0.245425 0.153809 0.240423 0.153809 0.234254C0.153809 0.228086 0.158816 0.223083 0.164989 0.223083H0.348765C0.354934 0.223083 0.359936 0.228086 0.359936 0.234254C0.359936 0.240423 0.354934 0.245425 0.348765 0.245425Z" fill="white"/>
</svg>
