<svg width="85" height="86" viewBox="0 0 85 86" fill="none" xmlns="http://www.w3.org/2000/svg">
<path d="M70.2935 51.7889C70.6309 50.7503 70.8951 49.7056 71.1131 48.6603L76.1041 48.1937C76.3636 46.5966 76.5032 44.9989 76.535 43.4126L71.6905 42.058C71.6374 39.8852 71.3438 37.7481 70.8233 35.6733L75.1277 33.0812C74.67 31.5425 74.1062 30.0397 73.4387 28.585L68.5182 29.4604C67.538 27.5437 66.3251 25.7516 64.9442 24.0874L67.6961 19.8859C66.6261 18.7039 65.4675 17.5925 64.2272 16.5649L60.1527 19.504C58.4597 18.2188 56.6185 17.0937 54.622 16.1856L55.276 11.2256C54.5387 10.9268 53.79 10.6435 53.0209 10.3936C52.2518 10.1437 51.4796 9.93278 50.706 9.7407L48.3211 14.1383C46.1721 13.6995 44.0213 13.5275 41.8947 13.5716L40.3274 8.79939C38.7185 8.90119 37.1294 9.11987 35.5675 9.44672L35.3258 14.4638C33.2289 14.998 31.1943 15.7349 29.2747 16.7094L25.8099 13.1094C24.4148 13.894 23.0739 14.7779 21.7992 15.7537L23.7594 20.3813C22.1188 21.7539 20.6251 23.3103 19.305 25.0369L14.5895 23.2853C13.6814 24.5869 12.8552 25.9615 12.1279 27.4066L15.8914 30.7177C15.4519 31.691 15.053 32.692 14.7155 33.7305C14.3776 34.7705 14.112 35.8148 13.8955 36.8606L8.90447 37.3272C8.6435 38.9238 8.50391 40.5215 8.47405 42.1068L13.3185 43.4615C13.3716 45.6342 13.6652 47.7714 14.1853 49.8476L9.87939 52.4392C10.3371 53.9779 10.9028 55.4797 11.5699 56.9359L16.4903 56.0605C17.4706 57.9772 18.682 59.7688 20.0644 61.4335L17.311 65.6345C18.3824 66.8169 19.54 67.9265 20.7813 68.956L24.8543 66.0165C26.5489 67.3021 28.3905 68.4257 30.387 69.3339L29.7311 74.2949C30.4698 74.5941 31.219 74.876 31.9881 75.1259C32.7572 75.3758 33.529 75.5881 34.3011 75.7797L36.6879 71.3811C38.8369 71.82 40.9873 71.9934 43.1124 71.9489L44.6812 76.7215C46.289 76.6178 47.8792 76.401 49.4396 76.0737L49.6828 71.0571C51.7782 70.5225 53.8128 69.7855 55.7324 68.8111L59.1986 72.4114C60.5942 71.6254 61.9332 70.7425 63.2079 69.7667L61.2491 65.1396C62.8897 63.767 64.384 62.2091 65.704 60.4826L70.4195 62.2341C71.3257 60.9336 72.1519 59.559 72.8807 58.1143L69.1171 54.8032C69.5552 53.8294 69.9556 52.8289 70.2935 51.7889ZM36.117 62.4184C25.2592 58.8905 19.3179 47.23 22.8458 36.3722C26.3732 25.5159 38.0342 19.5731 48.892 23.101C59.7483 26.6285 65.6892 38.2904 62.1617 49.1467C58.6338 60.0045 46.9733 65.9458 36.117 62.4184Z" fill="#0064BE"/>
</svg>
