<svg width="63" height="63" viewBox="0 0 63 63" fill="none" xmlns="http://www.w3.org/2000/svg">
<path d="M51.4181 37.881C51.6648 37.122 51.8603 36.3576 52.0177 35.5921L55.6688 35.2523C55.8594 34.0843 55.9603 32.916 55.9852 31.7551L52.4411 30.7653C52.402 29.1752 52.1864 27.6111 51.805 26.0939L54.9545 24.1979C54.6189 23.072 54.2074 21.9727 53.7187 20.9091L50.1204 21.5495C49.4042 20.1462 48.5152 18.8356 47.5047 17.6185L49.5187 14.5449C48.7347 13.68 47.8886 12.8686 46.9803 12.1155L43.9999 14.265C42.7617 13.3246 41.416 12.5031 39.955 11.8394L40.4346 8.20953C39.8936 7.99209 39.3473 7.78576 38.7838 7.60268C38.2218 7.42008 37.6571 7.26542 37.0916 7.1233L35.346 10.3418C33.7739 10.02 32.2009 9.89322 30.6479 9.92668L29.4987 6.43537C28.3212 6.51077 27.1597 6.66986 26.0172 6.90876L25.8399 10.5792C24.3083 10.9703 22.8174 11.5076 21.4146 12.2224L18.88 9.58929C17.8594 10.1625 16.8789 10.8095 15.9456 11.5232L17.3791 14.9083C16.1788 15.9115 15.0864 17.0507 14.1202 18.3141L10.6711 17.0317C10.0075 17.9851 9.40389 18.99 8.87152 20.0469L11.6256 22.4679C11.303 23.1798 11.0104 23.9126 10.7638 24.6716C10.5163 25.4335 10.3231 26.1955 10.1657 26.961L6.5141 27.3023C6.3231 28.4717 6.2207 29.6395 6.19772 30.7994L9.7414 31.7907C9.78092 33.3793 9.9946 34.9444 10.376 36.4616L7.22656 38.3576C7.56213 39.4835 7.97552 40.5819 8.4638 41.6469L12.062 41.0065C12.7792 42.4069 13.6672 43.7203 14.6763 44.937L12.6628 48.0092C13.4467 48.8741 14.2924 49.6869 15.2007 50.44L18.183 48.2895C19.4202 49.228 20.7664 50.0529 22.2274 50.7166L21.7483 54.345C22.2894 54.5624 22.8366 54.7707 23.3987 54.9533C23.9621 55.1364 24.5258 55.2891 25.0914 55.4312L26.8365 52.2142C28.4086 52.536 29.9811 52.6594 31.5351 52.6279L32.6823 56.1201C33.8598 56.0447 35.0218 55.8842 36.1643 55.6453L36.3412 51.9763C37.8741 51.5856 39.3645 51.045 40.7679 50.3336L43.3025 52.9667C44.3235 52.3921 45.3021 51.746 46.2354 51.0323L44.8019 47.6472C46.0022 46.644 47.0965 45.5039 48.0622 44.2419L51.5118 45.5229C52.1736 44.5705 52.7786 43.566 53.3114 42.5077L50.5578 40.0852C50.8804 39.3733 51.1706 38.6429 51.4181 37.881ZM26.4192 45.657C18.4787 43.077 14.1317 34.548 16.7127 26.6045C19.2927 18.664 27.8227 14.319 35.7632 16.899C43.7052 19.4795 48.0507 28.008 45.4707 35.9486C42.8897 43.892 34.3612 48.2375 26.4192 45.657Z" fill="white"/>
</svg>
