<svg width="102" height="102" viewBox="0 0 102 102" fill="none" xmlns="http://www.w3.org/2000/svg">
<path d="M83.8316 40.2279C83.4287 38.988 82.9528 37.7942 82.4284 36.6338L86.9183 32.6848C86.051 30.9617 85.0635 29.3224 83.9825 27.7696L78.357 29.8601C76.7847 27.8007 75.0043 25.9435 73.0458 24.3074L75.3823 18.7874C73.8624 17.6238 72.2646 16.5703 70.6009 15.6344L66.4682 19.9286C64.1782 18.7654 61.7531 17.8863 59.2515 17.2499L58.9646 11.2658C57.1022 10.8765 55.2065 10.6164 53.2881 10.4935L51.4191 16.1852C48.8827 16.1318 46.3184 16.3372 43.755 16.8611L40.9089 11.6157C39.9877 11.8461 39.0668 12.0973 38.1499 12.3952C37.2316 12.6936 36.339 13.0316 35.4582 13.3867L36.2403 19.3027C33.8586 20.3857 31.6632 21.7267 29.6427 23.2608L24.7836 19.7552C23.3053 20.9818 21.9245 22.3064 20.6466 23.716L23.9304 28.7264C22.2822 30.7112 20.8355 32.8483 19.668 35.1349L13.799 34.0905C13.0032 35.8255 12.3312 37.6164 11.7841 39.4517L16.9189 42.5442C16.2976 45.0184 15.9488 47.5675 15.8858 50.1582L10.1074 51.7731C10.1441 53.6652 10.3103 55.5713 10.6199 57.4757L16.575 58.0309C16.8328 59.2779 17.148 60.5239 17.5509 61.7638C17.9532 63.0022 18.4306 64.1955 18.955 65.3559L14.4636 69.3054C15.3329 71.0295 16.3184 72.6678 17.4009 74.2201L23.0249 72.1301C24.5991 74.1904 26.3796 76.0477 28.3366 77.6842L25.9997 83.2028C27.521 84.366 29.1178 85.4213 30.783 86.3567L34.9157 82.0626C37.2043 83.2262 39.6308 84.1048 42.1309 84.7418L42.4193 90.7254C44.2817 91.1147 46.1774 91.3747 48.0943 91.4981L49.9648 85.8059C52.5007 85.8579 55.065 85.6525 57.6284 85.1286L60.4731 90.3745C61.3948 90.1455 62.3152 89.8929 63.2335 89.5945C64.1504 89.2966 65.0435 88.96 65.9237 88.6035L65.1431 82.687C67.5248 81.604 69.7202 80.263 71.7412 78.7303L76.5988 82.2364C78.0786 81.0094 79.4593 79.6848 80.7372 78.2751L77.452 73.2653C79.1017 71.28 80.547 69.1433 81.7159 66.8563L87.5834 67.9012C88.3793 66.1661 89.0522 64.3733 89.5979 62.5385L84.4635 59.4474C85.0863 56.9727 85.4351 54.4237 85.4962 51.832L91.276 50.2166C91.2378 48.325 91.0736 46.4198 90.762 44.5145L84.8084 43.9588C84.5506 42.7118 84.234 41.4663 83.8316 40.2279ZM58.3092 74.4391C45.3613 78.6462 31.4535 71.5598 27.2469 58.6133C23.0399 45.6654 30.1263 31.7576 43.0742 27.5506C56.0207 23.344 69.9299 30.4299 74.1369 43.3778C78.3435 56.3243 71.2557 70.2326 58.3092 74.4391Z" fill="white"/>
</svg>
