<svg width="234" height="233" viewBox="0 0 234 233" fill="none" xmlns="http://www.w3.org/2000/svg">
<path d="M216.91 72.0402C206.182 58.1533 190.686 48.0207 173.663 43.7623C165.839 41.8053 157.726 41.0498 150.032 38.6374C147.854 37.9551 145.703 37.09 143.635 36.0681C140.621 24.3012 139.127 12.1461 139.224 0H118.496H114.856H94.1279C94.2269 12.1461 92.7313 24.3012 89.7173 36.0665C87.6505 37.09 85.4985 37.9551 83.3221 38.6374C75.6278 41.0498 67.5147 41.8053 59.691 43.7623C42.6667 48.0207 27.17 58.1533 16.4434 72.0402C5.7153 85.9286 -0.175716 103.481 0.00399394 121.03V232.467L201.178 229.523C219.021 229.263 233.35 214.724 233.35 196.877V121.03C233.528 103.481 227.639 85.9286 216.91 72.0402Z" fill="#FFC886"/>
<path d="M138.693 225.272C142.534 215.207 142.864 204.209 144.256 193.523C146.926 173.025 153.611 153.296 158.353 133.176C163.095 113.055 167.3 91.1327 162.103 71.1248C132.773 74.6521 103.013 74.6034 73.6935 70.9862C62.5968 75.6405 56.8352 89.6447 54.7746 101.5C52.7124 113.358 54.2202 125.496 54.4501 137.53C54.7014 150.689 53.413 163.86 54.0359 177.008C54.6573 190.156 57.3652 203.61 64.799 214.474C69.397 221.194 75.5652 226.565 82.268 231.265L136.241 230.475C137.19 228.793 138.017 227.047 138.693 225.272Z" fill="white"/>
<path d="M54.7729 111.993C56.8336 100.138 62.5951 86.1341 73.6918 81.4798C103.011 85.0969 132.773 85.1426 162.103 81.6184C163.367 86.4829 164.065 91.4632 164.345 96.5013C164.768 87.8917 164.24 79.3445 162.103 71.1248C132.773 74.6506 103.011 74.6034 73.6918 70.9862C62.5951 75.6405 56.8336 89.6447 54.7729 101.5C53.6413 108.009 53.5956 114.602 53.8134 121.215C53.9535 118.127 54.2414 115.052 54.7729 111.993Z" fill="#0064BE"/>
<path d="M54.4519 148.02C54.4443 147.609 54.4245 147.196 54.4154 146.785C54.2219 155.814 53.7056 164.844 53.9387 173.864C54.126 165.25 54.6164 156.634 54.4519 148.02Z" fill="#0064BE"/>
</svg>
