<svg width="9" height="9" viewBox="0 0 9 9" fill="none" xmlns="http://www.w3.org/2000/svg">
<path d="M6.03788 8.33478H2.29707C1.02849 8.33478 0 7.3063 0 6.03771V2.29713C0 1.02855 1.02849 6.10352e-05 2.29707 6.10352e-05H6.03788C7.30646 6.10352e-05 8.33495 1.02855 8.33495 2.29713V6.03771C8.33495 7.3063 7.30646 8.33478 6.03788 8.33478Z" fill="#081766"/>
<path d="M1.95676 6.29105C0.882305 5.07261 0.99953 3.20729 2.21797 2.13295C3.43652 1.0585 5.30185 1.17561 6.3763 2.39405C6.46224 2.4914 6.45287 2.64002 6.3554 2.72597C6.25806 2.81191 6.10944 2.80254 6.02349 2.70519C5.12059 1.68122 3.55307 1.58274 2.5291 2.48564C1.50513 3.38843 1.40666 4.95606 2.30956 5.98003C3.21246 7.00389 4.77998 7.10259 5.80395 6.19958C6.47715 5.606 6.77676 4.6918 6.58568 3.81386C6.55801 3.68692 6.63853 3.56167 6.76547 3.53401C6.89229 3.50645 7.01765 3.58686 7.04532 3.71368C7.27254 4.75832 6.91612 5.84598 6.11497 6.55227C4.89653 7.62672 3.03121 7.50961 1.95676 6.29105Z" fill="white"/>
<path d="M4.75641 2.80029C4.72388 2.76336 4.70254 2.71581 4.69847 2.66307C4.68842 2.53354 4.7852 2.42038 4.91463 2.41044L5.94503 2.33071L5.8653 1.30053C5.85536 1.17099 5.95226 1.05795 6.08168 1.0479C6.21122 1.03785 6.32426 1.13463 6.33431 1.26417L6.43211 2.52891C6.43697 2.59113 6.41687 2.65268 6.37632 2.7C6.33567 2.74743 6.27796 2.7768 6.21573 2.78154L4.9511 2.87934C4.87453 2.88521 4.80361 2.85382 4.75641 2.80029Z" fill="white"/>
<path d="M2.86214 4.10647C2.86214 4.00969 2.82013 3.96135 2.73622 3.96135C2.68901 3.96135 2.65457 3.97773 2.63277 4.01082C2.61086 4.04391 2.59867 4.09529 2.5963 4.16497H2.30041C2.30752 4.01263 2.3536 3.89811 2.43864 3.82132C2.52368 3.74452 2.63108 3.70624 2.76095 3.70624C2.89692 3.70624 2.99947 3.74057 3.06847 3.80901C3.13747 3.87756 3.17214 3.96655 3.17214 4.07632C3.17214 4.19806 3.12539 4.31698 3.03211 4.4333C2.93882 4.54963 2.82713 4.64799 2.69726 4.72829H3.19145V4.97267H2.29883V4.74613C2.67433 4.47803 2.86214 4.26469 2.86214 4.10647Z" fill="white"/>
<path d="M3.31885 4.75677V4.50346L3.89097 3.71869H4.2169V4.49285H4.36755V4.75677H4.2169V4.98693H3.91051V4.75677H3.31885ZM3.93535 4.06935L3.62716 4.49285H3.93535V4.06935Z" fill="white"/>
<path d="M5.16485 3.30414L4.68827 5.32H4.396L4.87246 3.30414H5.16485Z" fill="white"/>
<path d="M5.99212 3.94719L5.54388 4.98708H5.23038L5.68392 3.98265H5.15234V3.72223H5.99212V3.94719Z" fill="white"/>
</svg>
