<svg width="19" height="14" viewBox="0 0 19 14" fill="none" xmlns="http://www.w3.org/2000/svg">
<path d="M14.8126 0H3.36077C1.50447 0 0 1.50512 0 3.3611V8.83425C0 10.6906 1.50447 12.195 3.36077 12.195H3.74553L2.9668 13.296C2.71172 13.656 3.08924 14.1244 3.49539 13.9519L7.14744 12.4047C7.47361 12.2664 7.82447 12.195 8.17895 12.195H14.8126C16.6689 12.195 18.1734 10.6906 18.1734 8.83425V3.3611C18.1734 1.50512 16.6689 0 14.8126 0Z" fill="white"/>
<path d="M15.8691 4.08394H2.3036C1.98203 4.08394 1.7207 3.82294 1.7207 3.50105C1.7207 3.17915 1.98203 2.91815 2.3036 2.91815H15.8691C16.1913 2.91815 16.452 3.17915 16.452 3.50105C16.452 3.82294 16.1913 4.08394 15.8691 4.08394Z" fill="#0064BE"/>
<path d="M15.8691 6.68013H2.3036C1.98203 6.68013 1.7207 6.41913 1.7207 6.09724C1.7207 5.77535 1.98203 5.51434 2.3036 5.51434H15.8691C16.1913 5.51434 16.452 5.77535 16.452 6.09724C16.452 6.41913 16.1913 6.68013 15.8691 6.68013Z" fill="#0064BE"/>
<path d="M9.92976 9.27663H2.30343C1.98186 9.27663 1.72119 9.01563 1.72119 8.69373C1.72119 8.37184 1.98186 8.11084 2.30343 8.11084H9.92976C10.2516 8.11084 10.5123 8.37184 10.5123 8.69373C10.5123 9.01563 10.2516 9.27663 9.92976 9.27663Z" fill="#0064BE"/>
</svg>
