<svg width="207" height="212" viewBox="0 0 207 212" fill="none" xmlns="http://www.w3.org/2000/svg">
<path d="M134.342 85.8485C132.899 77.3887 134.708 69.1614 138.812 62.2932C145.774 65.4258 151.409 71.5863 153.183 80.2678C153.917 83.871 153.903 87.5811 153.234 91.1984C157.169 84.8576 160.847 78.3407 164.254 71.6646C158.271 68.3392 153.682 62.5295 151.355 55.2079C148.763 46.9915 149.426 38.5249 152.554 31.0651C159.888 33.1824 166.325 38.5231 169.274 46.9306C170.5 50.4199 170.993 54.1227 170.827 57.8225C172.822 53.2927 174.698 48.6947 176.448 44.0361C174.494 37.166 174.418 29.484 176.631 21.7508C179.259 12.6184 184.594 5.06337 191.356 0.0482744C195.833 7.13917 197.368 17.0564 194.535 26.8914C192.158 35.2007 187.129 41.832 181.104 45.7868C180.415 47.6146 179.71 49.4348 178.985 51.2459C181.54 48.4693 184.469 46.0131 187.758 44.0404C195.644 39.3073 204.073 38.2602 211.186 41.1426C208.548 50.904 202.3 59.628 194.009 64.1564C186.593 68.2288 179.031 68.2793 172.758 65.5974C169.512 72.5274 165.986 79.2983 162.193 85.8977C165.097 83.5375 168.323 81.5482 171.846 80.0851C180.282 76.5782 188.755 76.7738 195.397 80.6214C191.46 89.8011 184.098 97.4693 175.286 100.738C167.403 103.681 159.922 102.658 154.085 99.1236C149.934 105.483 145.526 111.661 140.871 117.641C144.065 115.72 147.527 114.215 151.208 113.269C160.027 111.007 168.378 112.406 174.419 117.138C169.277 125.621 160.951 132.149 151.789 134.137C143.587 135.936 136.326 133.878 131.04 129.566C126.059 135.273 120.844 140.77 115.407 146.045C118.835 144.587 122.471 143.579 126.244 143.157C135.284 142.148 143.351 144.7 148.677 150.227C142.424 157.892 133.279 163.199 123.926 163.9C115.553 164.548 108.645 161.504 104.007 156.5C98.2743 161.466 92.3293 166.199 86.1858 170.687C89.7945 169.71 93.546 169.21 97.3477 169.311C106.457 169.555 114.092 173.202 118.599 179.414C111.329 186.15 101.503 190.16 92.1154 189.571C83.7071 189.063 77.2703 185.097 73.3759 179.496C66.968 183.639 60.3722 187.525 53.596 191.138C57.3369 190.662 61.1445 190.679 64.9139 191.299C73.9476 192.787 81.0167 197.452 84.6078 204.234C76.4157 209.925 66.0488 212.56 56.7691 210.691C48.4539 209.038 42.6044 204.22 39.5343 198.128C28.1762 203.373 16.3793 207.877 4.20111 211.571C2.59551 212.058 0.976374 211.369 0.593912 210.049C0.212977 208.731 1.18572 207.29 2.7563 206.812C11.7309 204.088 20.4942 200.92 29.0235 197.329C26.5954 190.931 26.8788 183.51 29.8617 176.392C33.2248 168.415 39.1985 162.357 46.3447 158.697C50.5851 165.045 52.0962 173.258 48.9472 181.584C47.6398 185.039 45.631 188.192 43.1049 190.923C49.8925 187.593 56.5133 183.989 62.9539 180.129C59.6434 174.138 58.8426 166.772 60.7388 159.338C62.8857 151.005 67.8859 144.213 74.4023 139.627C79.4864 145.321 82.1436 153.23 80.2397 161.881C79.4504 165.469 77.9265 168.856 75.8398 171.895C82.0297 167.688 88.0272 163.232 93.8214 158.542C89.7066 153.073 87.866 145.905 88.682 138.302C89.6161 129.777 93.5959 122.38 99.3929 116.952C105.218 121.884 108.956 129.343 108.294 138.153C108.018 141.811 106.991 145.365 105.362 148.653C110.873 143.651 116.173 138.427 121.248 132.992C116.413 128.147 113.586 121.313 113.333 113.677C113.068 105.11 115.982 97.2385 120.978 91.0489C127.433 95.1239 132.165 101.995 132.731 110.813C132.965 114.474 132.442 118.134 131.287 121.615C136.046 115.901 140.575 109.988 144.852 103.892C139.391 99.7657 135.647 93.3874 134.342 85.8485Z" fill="white"/>
</svg>
