<svg width="143" height="154" viewBox="0 0 143 154" fill="none" xmlns="http://www.w3.org/2000/svg">
<path d="M45.6115 150.339C61.8048 150.724 78.0743 146.878 92.3943 139.321C92.3797 137.117 92.3986 134.911 92.489 132.709L71.7721 132.021L68.1311 131.901L47.4158 131.213C47.2577 137.62 46.6445 144.014 45.6115 150.339Z" fill="#A57952"/>
<path d="M29.2896 72.33C27.5828 68.8889 25.489 65.4456 22.2273 63.4187C18.9641 61.3919 14.2527 61.2431 11.6031 64.023C9.45233 66.2785 9.19829 69.7094 9.28519 72.8271C9.46277 79.1326 10.6348 85.6418 14.2632 90.8047C17.8901 95.966 24.42 99.4484 30.5675 98.0403C31.7218 89.5008 33.1223 80.0491 29.2896 72.33Z" fill="#FFC886"/>
<path d="M28.6512 78.9955C28.8677 79.0377 29.0842 79.0799 29.3022 79.1221C28.5243 77.0195 27.7407 74.9029 26.6052 72.9698C25.4681 71.0367 23.949 69.2738 21.9887 68.1837C20.0284 67.0935 17.5927 66.742 15.5082 67.5723C13.4236 68.4012 11.8297 70.5293 11.9402 72.7684C13.1973 71.385 15.4064 71.0281 17.2237 71.4659C19.0439 71.9038 20.5707 73.3866 21.0598 75.1917C19.4554 75.3247 18.2347 76.8997 17.8525 78.4628C17.4702 80.0274 17.8317 81.682 18.4115 83.1853C18.7469 84.0589 19.1666 84.9185 19.8054 85.6024C20.4426 86.2878 21.3283 86.7878 22.2651 86.7974C21.3878 87.8946 19.9261 88.7363 18.522 88.7571C21.4934 90.3301 25.4305 90.2542 28.2651 88.4443C28.7797 85.3145 28.8241 82.1632 28.6512 78.9955Z" fill="#E7AB72"/>
<path d="M111.556 78.3307C113.484 75.0117 115.797 71.7117 119.184 69.9056C122.573 68.0995 127.284 68.2636 129.746 71.2132C131.745 73.6065 131.774 77.0468 131.483 80.1519C130.894 86.4319 129.298 92.8493 125.34 97.7603C121.384 102.67 114.642 105.713 108.6 103.899C108.006 95.3013 107.225 85.7788 111.556 78.3307Z" fill="#FFC886"/>
<path d="M111.75 85.0277C111.53 85.0554 111.312 85.0832 111.092 85.111C112.006 83.0643 112.927 81.0026 114.187 79.1488C115.448 77.295 117.08 75.6379 119.106 74.6796C121.135 73.7214 123.588 73.5316 125.614 74.4964C127.64 75.4612 129.091 77.69 128.833 79.917C127.67 78.4535 125.489 77.9514 123.645 78.2681C121.802 78.5848 120.181 79.965 119.573 81.7323C121.167 81.9726 122.281 83.6234 122.56 85.2098C122.839 86.7947 122.37 88.4234 121.692 89.8852C121.3 90.7346 120.825 91.5646 120.143 92.2063C119.462 92.8481 118.546 93.2855 117.61 93.2331C118.414 94.386 119.817 95.324 121.217 95.436C118.147 96.8092 114.223 96.4747 111.515 94.4815C111.207 91.3245 111.369 88.177 111.75 85.0277Z" fill="#E7AB72"/>
<path d="M37.7531 79.0656C37.5186 86.2306 31.5214 91.845 24.3565 91.6071C17.1931 91.3692 11.5776 85.3693 11.8122 78.2043C12.0466 71.0408 18.0423 65.4279 25.2056 65.6657C32.3705 65.9036 37.9876 71.9021 37.7531 79.0656Z" fill="#009ACC"/>
<path d="M129.58 82.0923C129.346 89.2573 123.349 94.8717 116.185 94.6338C109.019 94.3959 103.402 88.3959 103.636 81.2309C103.871 74.0674 109.868 68.4545 117.034 68.6925C124.198 68.9303 129.815 74.9288 129.58 82.0923Z" fill="#009ACC"/>
<path d="M116.527 84.4908C115.409 118.651 93.9121 145.659 68.5116 144.815C43.111 143.972 23.4239 115.597 24.5421 81.4368C25.6603 47.2771 26.5683 19.5853 72.5609 21.1123C118.552 22.6393 117.645 50.3311 116.527 84.4908Z" fill="#FFC886"/>
<path d="M28.0382 58.2952C26.6247 57.5827 29.1879 55.1757 32.9612 54.2898C42.9587 51.9434 53.9636 51.1679 61.9983 57.5631C62.2663 59.2802 60.0151 61.2373 58.2851 61.389C56.5535 61.5422 54.8899 60.7879 53.2746 60.1434C45.402 57.0115 36.3371 56.5832 28.0382 58.2952Z" fill="#804400"/>
<path d="M114.119 61.1392C115.577 60.5216 113.177 57.9505 109.47 56.8173C99.6499 53.8158 88.7183 52.3151 80.2811 58.1658C79.9009 59.8614 82.0188 61.9629 83.735 62.2286C85.4528 62.4959 87.1623 61.8531 88.8164 61.3167C96.8776 58.7115 105.952 58.8828 114.119 61.1392Z" fill="#804400"/>
<path d="M57.0664 97.5298C57.0079 99.3154 51.2751 100.574 44.2609 100.342C37.2467 100.109 31.6088 98.4732 31.6673 96.6877C31.7258 94.9021 37.4586 93.643 44.4728 93.8756C51.487 94.1082 57.1249 95.7443 57.0664 97.5298Z" fill="#FFAE6A"/>
<path d="M107.684 99.1983C107.625 100.984 101.892 102.243 94.8782 102.01C87.864 101.778 82.2231 100.142 82.2816 98.356C82.3401 96.5705 88.0759 95.3115 95.0901 95.544C102.104 95.7766 107.742 97.4127 107.684 99.1983Z" fill="#FFAE6A"/>
<path d="M69.7597 69.5465C70.6984 77.9619 68.3244 86.7017 63.2564 93.4839C62.1886 94.9113 60.9477 96.4154 60.9503 98.1984C60.9542 100.216 62.6536 101.927 64.5714 102.555C66.4891 103.182 68.5754 102.947 70.5617 102.597" stroke="#E9AB6A" stroke-width="2" stroke-linecap="round" stroke-linejoin="round"/>
<path d="M44.8638 91.8048C33.5662 91.4297 24.6777 81.932 25.0475 70.6357C25.4173 59.338 34.9075 50.452 46.2051 50.8271C57.5012 51.2022 66.3912 60.6984 66.0214 71.9962C65.6517 83.2924 56.1599 92.1799 44.8638 91.8048ZM46.0959 54.1623C36.6386 53.8483 28.6906 61.2875 28.381 70.7464C28.0715 80.2039 35.5157 88.1541 44.973 88.4681C54.4303 88.7821 62.3783 81.3429 62.6879 71.8855C62.9975 62.4266 55.5532 54.4763 46.0959 54.1623Z" fill="white"/>
<path d="M96.2837 93.4997C84.9876 93.1246 76.0976 83.6269 76.4674 72.3306C76.8372 61.0328 86.3289 52.147 97.625 52.522C108.923 52.8971 117.811 62.3933 117.441 73.6911C117.072 84.9873 107.581 93.8748 96.2837 93.4997ZM97.5158 55.8572C88.0586 55.5432 80.109 62.9823 79.7994 72.4413C79.4899 81.8987 86.9357 89.849 96.3929 90.163C105.852 90.4771 113.798 83.0378 114.108 73.5804C114.417 64.1214 106.975 56.1712 97.5158 55.8572Z" fill="white"/>
<path d="M65.2713 73.3228L63.4304 70.5371C66.2198 68.6974 73.0886 66.4383 79.1422 71.0613L77.117 73.7142C71.4143 69.3558 65.3321 73.2806 65.2713 73.3228Z" fill="white"/>
<path d="M56.3867 110.871C64.8886 116.201 76.4622 116.152 84.9139 110.748" stroke="#E9AB6A" stroke-width="2" stroke-linecap="round" stroke-linejoin="round"/>
<path d="M65.0809 121.241C67.798 122.259 70.7676 122.595 73.6436 122.209" stroke="#E9AB6A" stroke-width="2" stroke-linecap="round" stroke-linejoin="round"/>
<path d="M7.49627 84.116C23.3878 73.3335 35.9219 57.6759 42.9663 39.8094C53.5342 50.3259 68.9045 56.3007 83.8076 56.163C80.9206 54.7445 78.8348 52.0359 77.1477 49.2964C91.4089 53.1711 103.479 62.3019 112.576 73.952C116.27 78.6828 119.363 83.9132 123.575 88.1903C127.788 92.466 133.495 95.7915 139.479 95.3486C136.28 79.405 133.194 62.9318 127.732 47.614C124.378 38.2117 120.37 28.6094 112.944 21.9353C103.704 13.6329 90.5029 11.1649 78.0918 11.6611C64.8521 12.1923 51.7085 15.7485 40.1617 22.2408C24.4715 31.0627 11.9216 45.3406 5.1838 62.0317C3.69459 65.7218 2.46715 69.608 2.51361 73.5884C2.56002 77.5702 4.38043 81.6369 7.49627 84.116Z" fill="#804400"/>
<path d="M24.1862 94.8187C24.1105 97.1325 22.1738 98.9456 19.8616 98.8688C17.5479 98.792 15.7324 96.8543 15.8081 94.5405C15.8839 92.2268 17.822 90.4168 20.1357 90.4936C22.4479 90.5704 24.2619 92.505 24.1862 94.8187Z" fill="#9A5858"/>
<path d="M124.451 98.1235C124.375 100.437 122.437 102.25 120.123 102.173C117.811 102.097 115.997 100.159 116.073 97.8454C116.149 95.5316 118.085 93.7216 120.397 93.7983C122.711 93.8752 124.527 95.8098 124.451 98.1235Z" fill="#9A5858"/>
<path d="M46.7019 65.2199C45.2178 65.1707 43.8825 66.347 43.0784 68.1474L46.4868 71.7898L42.8476 75.1967C43.5322 77.048 44.7876 78.3103 46.2717 78.3596C48.5855 78.4364 50.5556 75.5562 50.6743 71.9288C50.7931 68.2998 49.0156 65.2968 46.7019 65.2199Z" fill="#6F4141"/>
<path d="M95.6296 66.8326C94.144 66.7833 92.8087 67.9596 92.0061 69.76L95.4146 73.4024L91.7754 76.8093C92.4584 78.6606 93.7138 79.9229 95.1995 79.9723C97.5132 80.0491 99.4833 77.1688 99.6021 73.5414C99.7209 69.9125 97.9434 66.9094 95.6296 66.8326Z" fill="#6F4141"/>
<path d="M17.5211 55.8533C16.8307 49.1102 17.8443 42.1204 20.2097 35.5442C22.6459 28.9948 26.4737 22.8527 31.4904 17.7726C36.451 12.6388 42.5861 8.58482 49.292 5.8999C56.0026 3.20904 63.3045 1.96261 70.5449 2.17552C77.7837 2.43713 84.9866 4.16503 91.5099 7.29212C98.0239 10.4204 103.89 14.8621 108.502 20.3213C113.176 25.7261 116.596 32.1057 118.597 38.8055C120.524 45.5272 121.079 52.569 119.941 59.253C118.649 45.7834 112.813 33.5406 103.752 24.7672C94.6788 16.0147 82.619 10.9011 70.272 10.5096C57.9236 10.0692 45.5508 14.3748 35.9222 22.5065C26.3034 30.6599 19.6788 42.4982 17.5211 55.8533Z" fill="white"/>
</svg>
