<svg width="134" height="134" viewBox="0 0 134 134" fill="none" xmlns="http://www.w3.org/2000/svg">
<path d="M3.3817 122.946C-0.426536 117.926 -0.330604 110.915 1.24444 104.812C2.81948 98.7112 5.67761 92.9745 6.91745 86.7978C8.59318 78.4499 7.22535 69.8079 5.47736 61.4758C3.72938 53.1438 1.59145 44.785 1.73318 36.2726C1.87644 27.7602 4.64614 18.8588 11.1478 13.3617C33.9447 -5.90952 70.9289 0.702612 100.622 3.77124C115.628 5.32124 125.915 19.7774 130.698 34.0859C135.483 48.3929 133.901 64.3466 128.26 78.339C122.621 92.3329 113.157 104.516 102.398 115.091C95.9798 121.4 84.5792 116.367 75.7522 118.118C67.1002 119.833 59.6463 125.129 51.5186 128.557C38.5318 134.032 23.5434 134.597 10.1808 130.115C6.25643 128.798 2.95112 127.062 3.3817 122.946Z" fill="#8B5729"/>
</svg>
