<svg width="83" height="64" viewBox="0 0 83 64" fill="none" xmlns="http://www.w3.org/2000/svg">
<path d="M60.7006 45.8185C48.7053 45.8185 38.9443 36.0575 38.9443 24.0607C38.9443 12.0654 48.7053 2.30591 60.7006 2.30591C72.6959 2.30591 82.4569 12.0654 82.4569 24.0607C82.4569 36.0575 72.6959 45.8185 60.7006 45.8185ZM60.7006 9.10617C52.4535 9.10617 45.7446 15.8135 45.7446 24.0607C45.7446 32.3078 52.4535 39.0182 60.7006 39.0182C68.9477 39.0182 75.6566 32.3078 75.6566 24.0607C75.6566 15.8135 68.9477 9.10617 60.7006 9.10617Z" fill="#081766"/>
<path d="M0 44.3062C0 46.9821 0.362476 49.5728 1.04174 52.0324C2.84499 58.5662 8.89441 63.0225 15.6718 63.0225H42.3855C49.163 63.0225 55.2124 58.5662 57.0156 52.0324C57.6934 49.5728 58.0574 46.9821 58.0574 44.3062V0.00012207H0V44.3062Z" fill="#081766"/>
<path d="M42.4903 0.00012207V44.3062C42.4903 46.9821 42.1263 49.5728 41.447 52.0324C39.6453 58.5662 33.5958 63.0225 26.8169 63.0225H42.3836C49.1611 63.0225 55.2135 58.5662 57.0153 52.0324C57.6945 49.5728 58.057 46.9821 58.057 44.3062V0.00012207H42.4903Z" fill="#081766"/>
</svg>
