<svg width="174" height="165" viewBox="0 0 174 165" fill="none" xmlns="http://www.w3.org/2000/svg">
<path d="M51.8042 0.297495C36.2721 16.3303 25.6117 36.5607 18.1715 57.6042C10.7312 78.6508 6.34692 100.631 1.9883 122.523C0.733511 128.821 -0.516085 135.374 1.08916 141.592C4.37656 154.335 18.4784 161.268 31.5542 162.762C44.6299 164.258 58.0072 162.032 70.9496 164.423C80.4344 110.017 76.2785 49.8058 51.8042 0.297495Z" fill="#081766"/>
<path d="M96.5552 135.426C106.149 132.594 115.809 129.75 125.759 128.715C135.708 127.677 146.075 128.544 155.1 132.858C164.127 137.172 171.643 145.269 173.717 155.055C174.378 158.173 168.376 159.022 165.312 159.908C162.252 160.793 158.997 160.63 155.815 160.461C145.208 159.896 134.601 159.33 123.995 158.765C116.42 158.362 108.165 160.243 101.805 156.11C98.6232 154.04 96.7334 150.397 95.9689 146.68C95.2044 142.961 96.3238 139.215 96.5552 135.426Z" fill="#081766"/>
<path d="M30.6267 119.3C58.334 117.661 86.1304 117.553 113.85 118.979C116.414 131.975 119.853 146.195 118.751 159.396C96.5386 165.46 73.3969 165.678 51.0256 160.226C35.7497 156.503 30.4732 135.025 30.6267 119.3Z" fill="#081766"/>
<path d="M98.5201 118.741C88.8991 113.719 77.5468 110.743 66.749 109.653C68.4496 93.8159 68.7836 77.8325 67.7441 61.9362C71.8175 74.7273 74.7708 87.8591 74.6315 101.28C84.0216 104.673 93.2967 110.233 98.5201 118.741Z" fill="#081766"/>
</svg>
