<svg width="43" height="48" viewBox="0 0 43 48" fill="none" xmlns="http://www.w3.org/2000/svg">
<path d="M37.325 44.9009C37.2976 44.9 37.2702 44.8991 37.2443 44.8967C32.5149 44.4623 27.6259 44.0135 22.8963 42.7456C17.4748 41.2916 13.0734 38.9359 9.81454 35.751C4.72617 30.7789 2.71985 24.0576 1.9341 19.2923C0.947364 13.312 1.23475 7.23218 1.51552 1.35485C1.55103 0.59563 2.25874 0.0172044 2.9526 0.047862C3.71177 0.0852598 4.29722 0.727954 4.2617 1.48718C3.98709 7.22299 3.70621 13.1506 4.64595 18.8445C5.36574 23.2037 7.17956 29.335 11.7349 33.7865C14.6526 36.6386 18.6472 38.7598 23.6079 40.0918C28.1094 41.2988 32.8799 41.7376 37.4939 42.1605C38.249 42.2298 38.8061 42.899 38.7372 43.654C38.6707 44.3833 38.0465 44.9249 37.325 44.9009Z" fill="#006A8E"/>
<path d="M41.3805 43.5483C41.3132 45.6048 38.9435 47.1933 36.0879 47.0984C33.2323 47.0036 30.9716 45.2615 31.0389 43.205C31.1062 41.1485 33.4759 39.5601 36.3315 39.6549C39.1871 39.7497 41.4479 41.4918 41.3805 43.5483Z" fill="#006A8E"/>
</svg>
