<svg width="234" height="198" viewBox="0 0 234 198" fill="none" xmlns="http://www.w3.org/2000/svg">
<path d="M173.663 8.6134C167.18 6.99291 160.501 6.18419 154.024 4.58502C140.388 67.5267 130.754 131.329 125.184 195.487L201.176 194.376C219.02 194.115 233.349 179.575 233.349 161.728V85.8806C233.528 68.3324 227.639 50.7811 216.911 36.8912C206.184 23.0044 190.687 12.8718 173.663 8.6134Z" fill="#081766"/>
<path d="M80.7726 4.22101C73.849 6.07605 66.6557 6.87106 59.6925 8.61339C42.6667 12.8717 27.1716 23.0044 16.4434 36.8912C5.7153 50.7796 -0.175722 68.3324 0.00399419 85.8805V197.318L109.71 195.713C104.134 131.355 94.466 67.3531 80.7726 4.22101Z" fill="#081766"/>
<path d="M59.6926 8.61342C57.3289 9.20587 54.9987 9.92017 52.7035 10.7335C47.4079 25.7824 42.5526 40.9394 38.2104 56.194C46.5017 60.9793 54.5159 66.9373 63.5382 70.7205C60.2835 78.6615 56.8004 87.4523 53.5457 95.3918C70.1511 127.296 84.4172 162.08 96.0485 195.879L109.71 195.714C102.986 131.813 91.3561 68.2639 74.9121 5.56891C69.845 6.59085 64.7094 7.35845 59.6926 8.61342Z" fill="#081766"/>
<path d="M181.412 95.3918C178.229 87.4523 174.824 78.663 171.641 70.722C180.463 66.9373 188.298 60.9792 196.408 56.1954C192.224 41.1663 187.558 26.2316 182.471 11.4005C179.594 10.3024 176.653 9.3627 173.663 8.61337C168.879 7.4178 163.989 6.66086 159.15 5.70593C143.11 68.2836 131.759 131.71 125.186 195.489L140.055 195.271C151.391 161.664 165.273 127.104 181.412 95.3918Z" fill="#081766"/>
<path d="M80.7718 4.22101C75.1458 5.72727 69.3431 6.54361 63.6288 7.72852C58.9257 23.7644 54.6491 39.9235 50.8354 56.1939C57.6647 60.9792 64.2624 66.9388 71.6916 70.722C69.0111 78.663 66.1433 87.4523 63.4628 95.3918C77.1364 127.297 88.885 162.08 98.4617 195.88L109.709 195.714C104.133 131.356 94.4653 67.3531 80.7718 4.22101Z" fill="#081766"/>
<path d="M172.562 8.3682C166.426 6.91981 160.137 6.09434 154.024 4.58655C140.388 67.5267 130.754 131.329 125.186 195.487L137.696 195.305C147.243 161.687 158.94 127.116 172.535 95.3918C169.856 87.4523 166.986 78.6615 164.306 70.7205C171.737 66.9373 178.331 60.9793 185.159 56.194C181.399 40.1414 177.19 24.1939 172.562 8.3682Z" fill="#081766"/>
<path d="M84.7006 5.01296C84.0502 5.01296 83.3999 4.74643 82.9323 4.27886C82.8166 4.16159 82.7161 4.02909 82.6155 3.89506C82.5333 3.76104 82.4495 3.61178 82.3993 3.461C82.3323 3.31175 82.282 3.14422 82.2485 2.99496C82.215 2.82743 82.1982 2.66142 82.1982 2.50912C82.1982 2.34463 82.215 2.1771 82.2485 2.00957C82.282 1.86031 82.3323 1.69278 82.3993 1.54353C82.4495 1.39275 82.5333 1.24197 82.6155 1.10947C82.7161 0.976966 82.8166 0.84294 82.9323 0.725668C83.5172 0.157583 84.3838 -0.107422 85.1849 0.0403109C85.3509 0.0753403 85.5017 0.1256 85.6524 0.192613C85.8185 0.259625 85.9525 0.326638 86.085 0.424111C86.2358 0.5094 86.3515 0.625149 86.4688 0.725668C86.5861 0.84294 86.6866 0.976966 86.7856 1.10947C86.8693 1.24197 86.9531 1.39275 87.0201 1.54353C87.0704 1.69278 87.1191 1.86031 87.1526 2.00957C87.1861 2.1771 87.2029 2.34463 87.2029 2.50912C87.2029 2.66142 87.1861 2.82743 87.1526 2.99496C87.1191 3.14422 87.0704 3.31175 87.0201 3.461C86.9531 3.61178 86.8693 3.76104 86.7856 3.89506C86.6866 4.02909 86.5861 4.16159 86.4688 4.27886C86.3515 4.39614 86.2358 4.49666 86.085 4.5789C85.9525 4.67942 85.8185 4.74643 85.6524 4.81344C85.5017 4.88046 85.3509 4.92919 85.1849 4.9627C85.0341 4.9962 84.8681 5.01296 84.7006 5.01296Z" fill="#081766"/>
<path d="M113.761 19.3919C112.51 19.3431 111.491 18.3745 111.376 17.1561C111.059 18.3257 109.907 19.1421 108.672 18.9913H108.655C107.422 18.842 106.487 17.8079 106.453 16.5895C106.054 17.7409 104.852 18.4582 103.619 18.2237C102.384 17.9907 101.534 16.8743 101.583 15.6376C101.083 16.7723 99.7991 17.3739 98.5807 17.0068C97.3455 16.6382 96.6114 15.4061 96.846 14.171C96.1789 15.2371 94.7929 15.6726 93.6248 15.1061C92.4582 14.538 91.9236 13.1688 92.3744 11.9687C91.491 12.919 90.0229 13.0531 88.9887 12.2535C87.9546 11.4341 87.7201 9.96743 88.4541 8.88304C87.3545 9.61714 85.8863 9.38259 85.0685 8.33171C84.2339 7.23209 84.4349 5.66186 85.5345 4.81355C86.6357 3.97893 88.2044 4.19368 89.039 5.27806H89.0557C89.7061 6.16294 89.7228 7.33109 89.138 8.19769C90.0229 7.61589 91.1895 7.63112 92.0744 8.29821C92.9577 8.98356 93.2425 10.1502 92.8755 11.1508C93.6096 10.3665 94.7929 10.0999 95.7951 10.601C96.846 11.1021 97.379 12.2184 97.1795 13.3028C97.7628 12.3525 98.9127 11.8849 100.032 12.2184C101.15 12.552 101.866 13.6196 101.799 14.7375C102.268 13.7049 103.401 13.0866 104.552 13.3028C105.737 13.5206 106.554 14.538 106.587 15.6879C106.971 14.6035 108.055 13.8877 109.24 14.0217C110.425 14.1557 111.325 15.1061 111.443 16.2407C111.743 15.1381 112.76 14.3385 113.96 14.3872C115.145 14.4375 116.112 15.3041 116.313 16.4235C116.513 15.3041 117.481 14.4375 118.665 14.3705C119.85 14.3202 120.867 15.1061 121.184 16.189C121.284 15.0543 122.151 14.1039 123.319 13.9364C124.486 13.7704 125.588 14.4375 126.006 15.4884C125.987 14.3537 126.738 13.3211 127.89 13.0363C129.024 12.753 130.176 13.2861 130.709 14.2867C130.576 13.1688 131.21 12.0692 132.294 11.6519C133.395 11.2361 134.597 11.6184 135.246 12.5352C134.979 11.4508 135.464 10.2842 136.498 9.73289C137.532 9.18308 138.767 9.43285 139.516 10.2675C139.116 9.21506 139.451 7.99817 140.401 7.33109C141.352 6.64726 142.603 6.73102 143.453 7.44836C142.92 6.46449 143.086 5.22933 143.921 4.42974C144.921 3.47786 146.507 3.50984 147.457 4.51046C148.426 5.51261 148.376 7.09807 147.374 8.04843C146.457 8.9333 145.022 8.96529 144.055 8.1657C144.655 9.25009 144.355 10.6513 143.304 11.4006C142.27 12.1514 140.852 11.9687 140.001 11.0503C140.451 12.2184 139.984 13.5526 138.851 14.1557C137.716 14.7543 136.33 14.4055 135.63 13.3866C135.931 14.5883 135.281 15.8554 134.096 16.3215C132.894 16.7723 131.577 16.2544 130.992 15.1716C131.143 16.3885 130.358 17.5749 129.125 17.8917C127.89 18.2085 126.639 17.5399 126.188 16.3885C126.188 17.6236 125.287 18.7095 124.036 18.8923C122.769 19.0751 121.601 18.2907 121.268 17.0891C121.167 18.3257 120.166 19.3081 118.899 19.3751C117.631 19.4238 116.546 18.5405 116.313 17.3388C116.112 18.5085 115.08 19.3919 113.861 19.3919H113.761Z" fill="#081766"/>
<path d="M148.959 5.06321C148.309 5.06321 147.659 4.79516 147.193 4.32912C146.725 3.86155 146.457 3.22797 146.457 2.55937C146.457 1.91057 146.725 1.25872 147.193 0.791149C148.126 -0.14246 149.792 -0.14246 150.726 0.791149C151.195 1.25872 151.462 1.91057 151.462 2.55937C151.462 3.21122 151.195 3.86155 150.726 4.32912C150.258 4.79516 149.611 5.06321 148.959 5.06321Z" fill="#081766"/>
</svg>
