<svg width="82" height="82" viewBox="0 0 82 82" fill="none" xmlns="http://www.w3.org/2000/svg">
<path d="M71.75 39.2916C71.7618 43.8012 70.7082 48.2497 68.675 52.275C66.2643 57.0984 62.5583 61.1555 57.9721 63.9917C53.3859 66.8279 48.1007 68.3312 42.7083 68.3333C38.1988 68.3451 33.7502 67.2915 29.725 65.2583L10.25 71.75L16.7417 52.275C14.7085 48.2497 13.6549 43.8012 13.6667 39.2916C13.6688 33.8993 15.1721 28.614 18.0083 24.0279C20.8445 19.4417 24.9015 15.7357 29.725 13.325C33.7502 11.2918 38.1988 10.2382 42.7083 10.25H44.4167C51.5382 10.6429 58.2646 13.6487 63.3079 18.6921C68.3512 23.7354 71.3571 30.4618 71.75 37.5833V39.2916Z" stroke="#1E1E1E" stroke-width="4" stroke-linecap="round" stroke-linejoin="round"/>
</svg>
