<svg width="82" height="82" viewBox="0 0 82 82" fill="none" xmlns="http://www.w3.org/2000/svg">
<path d="M23.9168 37.5834L37.5835 6.83337C40.302 6.83337 42.9091 7.91328 44.8313 9.83553C46.7536 11.7578 47.8335 14.3649 47.8335 17.0834V30.75H67.1718C68.1623 30.7388 69.1435 30.9431 70.0472 31.3487C70.9509 31.7543 71.7557 32.3515 72.4057 33.099C73.0557 33.8465 73.5354 34.7264 73.8116 35.6777C74.0878 36.629 74.1538 37.629 74.0052 38.6084L69.2902 69.3584C69.0431 70.9878 68.2154 72.473 66.9597 73.5404C65.704 74.6078 64.1048 75.1853 62.4568 75.1667H23.9168M23.9168 37.5834V75.1667M23.9168 37.5834H13.6668C11.8545 37.5834 10.1164 38.3033 8.83493 39.5848C7.55343 40.8663 6.8335 42.6044 6.8335 44.4167V68.3334C6.8335 70.1457 7.55343 71.8838 8.83493 73.1653C10.1164 74.4468 11.8545 75.1667 13.6668 75.1667H23.9168" stroke="#1E1E1E" stroke-width="4" stroke-linecap="round" stroke-linejoin="round"/>
</svg>
