<svg width="82" height="82" viewBox="0 0 82 82" fill="none" xmlns="http://www.w3.org/2000/svg">
<path d="M58.0832 71.75V64.9167C58.0832 61.292 56.6433 57.8159 54.0803 55.2529C51.5173 52.6899 48.0411 51.25 44.4165 51.25H17.0832C13.4585 51.25 9.98237 52.6899 7.41938 55.2529C4.85638 57.8159 3.4165 61.292 3.4165 64.9167V71.75M78.5832 71.75V64.9167C78.5809 61.8886 77.573 58.947 75.7178 56.5537C73.8626 54.1605 71.2651 52.4512 68.3332 51.6942M54.6665 10.6942C57.6063 11.4469 60.2119 13.1566 62.0726 15.5537C63.9333 17.9509 64.9433 20.8992 64.9433 23.9338C64.9433 26.9683 63.9333 29.9166 62.0726 32.3138C60.2119 34.7109 57.6063 36.4206 54.6665 37.1733M44.4165 23.9167C44.4165 31.4646 38.2977 37.5833 30.7498 37.5833C23.2019 37.5833 17.0832 31.4646 17.0832 23.9167C17.0832 16.3688 23.2019 10.25 30.7498 10.25C38.2977 10.25 44.4165 16.3688 44.4165 23.9167Z" stroke="#1E1E1E" stroke-width="4" stroke-linecap="round" stroke-linejoin="round"/>
</svg>
