<svg width="88" height="52" viewBox="0 0 88 52" fill="none" xmlns="http://www.w3.org/2000/svg">
<g clip-path="url(#clip0_64_163)">
<path d="M25.0105 18.9714C25.0105 20.0285 25.1263 20.8856 25.3289 21.5142C25.5605 22.1428 25.85 22.8285 26.2552 23.5714C26.4 23.7999 26.4579 24.0285 26.4579 24.2285C26.4579 24.5142 26.2842 24.7999 25.9079 25.0856L24.0842 26.2856C23.8236 26.4571 23.5631 26.5428 23.3315 26.5428C23.0421 26.5428 22.7526 26.3999 22.4631 26.1428C22.0579 25.7142 21.7105 25.2571 21.421 24.7999C21.1315 24.3142 20.8421 23.7714 20.5236 23.1142C18.2658 25.7428 15.4289 27.0571 12.0131 27.0571C9.58154 27.0571 7.64207 26.3714 6.22365 24.9999C4.80523 23.6285 4.08154 21.7999 4.08154 19.5142C4.08154 17.0856 4.94996 15.1142 6.71575 13.6285C8.48154 12.1428 10.8263 11.3999 13.8079 11.3999C14.7921 11.3999 15.8052 11.4856 16.8763 11.6285C17.9473 11.7714 19.0473 11.9999 20.2052 12.2571V10.1714C20.2052 7.99992 19.7421 6.48564 18.8447 5.59992C17.9184 4.71421 16.3552 4.28564 14.1263 4.28564C13.1131 4.28564 12.071 4.39992 11 4.65707C9.92891 4.91421 8.88681 5.2285 7.87365 5.6285C7.41049 5.8285 7.06312 5.94278 6.86049 5.99992C6.65786 6.05707 6.51312 6.08564 6.39733 6.08564C5.99207 6.08564 5.78944 5.79992 5.78944 5.19992V3.79992C5.78944 3.34278 5.84733 2.99992 5.99207 2.79992C6.13681 2.59992 6.39733 2.39992 6.8026 2.19992C7.81575 1.68564 9.03154 1.25707 10.45 0.914209C11.8684 0.54278 13.3736 0.371352 14.9658 0.371352C18.4105 0.371352 20.9289 1.14278 22.55 2.68564C24.1421 4.22849 24.9526 6.57135 24.9526 9.71421V18.9714H25.0105ZM13.2579 23.3142C14.2131 23.3142 15.1973 23.1428 16.2394 22.7999C17.2815 22.4571 18.2079 21.8285 18.9894 20.9714C19.4526 20.4285 19.8 19.8285 19.9736 19.1428C20.1473 18.4571 20.2631 17.6285 20.2631 16.6571V15.4571C19.4236 15.2571 18.5263 15.0856 17.6 14.9714C16.6736 14.8571 15.7763 14.7999 14.8789 14.7999C12.9394 14.7999 11.521 15.1714 10.5658 15.9428C9.61049 16.7142 9.14733 17.7999 9.14733 19.2285C9.14733 20.5714 9.4947 21.5714 10.2184 22.2571C10.9131 22.9714 11.9263 23.3142 13.2579 23.3142ZM36.5026 26.3999C35.9815 26.3999 35.6342 26.3142 35.4026 26.1142C35.171 25.9428 34.9684 25.5428 34.7947 24.9999L27.9921 2.91421C27.8184 2.34278 27.7315 1.97135 27.7315 1.77135C27.7315 1.31421 27.9631 1.05707 28.4263 1.05707H31.2631C31.8131 1.05707 32.1894 1.14278 32.3921 1.34278C32.6236 1.51421 32.7973 1.91421 32.971 2.45707L37.8342 21.3714L42.35 2.45707C42.4947 1.88564 42.6684 1.51421 42.9 1.34278C43.1315 1.17135 43.5368 1.05707 44.0579 1.05707H46.3736C46.9236 1.05707 47.3 1.14278 47.5315 1.34278C47.7631 1.51421 47.9658 1.91421 48.0815 2.45707L52.6552 21.5999L57.6631 2.45707C57.8368 1.88564 58.0394 1.51421 58.2421 1.34278C58.4736 1.17135 58.85 1.05707 59.371 1.05707H62.0631C62.5263 1.05707 62.7868 1.28564 62.7868 1.77135C62.7868 1.91421 62.7579 2.05707 62.7289 2.22849C62.7 2.39992 62.6421 2.62849 62.5263 2.94278L55.55 25.0285C55.3763 25.5999 55.1736 25.9714 54.9421 26.1428C54.7105 26.3142 54.3342 26.4285 53.8421 26.4285H51.3526C50.8026 26.4285 50.4263 26.3428 50.1947 26.1428C49.9631 25.9428 49.7605 25.5714 49.6447 24.9999L45.1579 6.57135L40.7 24.9714C40.5552 25.5428 40.3815 25.9142 40.15 26.1142C39.9184 26.3142 39.5131 26.3999 38.9921 26.3999H36.5026ZM73.7 27.1714C72.1947 27.1714 70.6894 26.9999 69.2421 26.6571C67.7947 26.3142 66.6658 25.9428 65.9131 25.5142C65.45 25.2571 65.1315 24.9714 65.0158 24.7142C64.9 24.4571 64.8421 24.1714 64.8421 23.9142V22.4571C64.8421 21.8571 65.0736 21.5714 65.5079 21.5714C65.6815 21.5714 65.8552 21.5999 66.0289 21.6571C66.2026 21.7142 66.4631 21.8285 66.7526 21.9428C67.7368 22.3714 68.8079 22.7142 69.9368 22.9428C71.0947 23.1714 72.2236 23.2856 73.3815 23.2856C75.2052 23.2856 76.6236 22.9714 77.6079 22.3428C78.5921 21.7142 79.1131 20.7999 79.1131 19.6285C79.1131 18.8285 78.8526 18.1714 78.3315 17.6285C77.8105 17.0856 76.8263 16.5999 75.4079 16.1428L71.2105 14.8571C69.0973 14.1999 67.5342 13.2285 66.5789 11.9428C65.6236 10.6856 65.1315 9.28564 65.1315 7.79992C65.1315 6.59992 65.3921 5.54278 65.9131 4.6285C66.4342 3.71421 67.1289 2.91421 67.9973 2.28564C68.8657 1.62849 69.85 1.14278 71.0079 0.799923C72.1658 0.457066 73.3815 0.314209 74.6552 0.314209C75.2921 0.314209 75.9579 0.34278 76.5947 0.428495C77.2605 0.514209 77.8684 0.628495 78.4763 0.74278C79.0552 0.885638 79.6052 1.02849 80.1263 1.19992C80.6473 1.37135 81.0526 1.54278 81.3421 1.71421C81.7473 1.94278 82.0368 2.17135 82.2105 2.42849C82.3842 2.65707 82.471 2.97135 82.471 3.37135V4.71421C82.471 5.31421 82.2394 5.6285 81.8052 5.6285C81.5736 5.6285 81.1973 5.51421 80.7052 5.28564C79.0552 4.54278 77.2026 4.17135 75.1473 4.17135C73.4973 4.17135 72.1947 4.42849 71.2973 4.97135C70.4 5.51421 69.9368 6.34278 69.9368 7.51421C69.9368 8.31421 70.2263 8.99992 70.8052 9.54278C71.3842 10.0856 72.4552 10.6285 73.9894 11.1142L78.1 12.3999C80.1842 13.0571 81.6894 13.9714 82.5868 15.1428C83.4842 16.3142 83.9184 17.6571 83.9184 19.1428C83.9184 20.3714 83.6579 21.4856 83.1657 22.4571C82.6447 23.4285 81.95 24.2856 81.0526 24.9714C80.1552 25.6856 79.0842 26.1999 77.8394 26.5714C76.5368 26.9714 75.1763 27.1714 73.7 27.1714Z" fill="#252F3E"/>
<path fill-rule="evenodd" clip-rule="evenodd" d="M79.1711 41.0571C69.6474 47.9999 55.8106 51.6856 43.9132 51.6856C27.2395 51.6856 12.2159 45.5999 0.868494 35.4856C-0.0288744 34.6856 0.781652 33.5999 1.8527 34.2285C14.1264 41.2571 29.2659 45.5142 44.9264 45.5142C55.4922 45.5142 67.1001 43.3428 77.7817 38.8856C79.3738 38.1714 80.7343 39.9142 79.1711 41.0571Z" fill="#FF9900"/>
<path fill-rule="evenodd" clip-rule="evenodd" d="M83.137 36.5999C81.9212 35.0571 75.0896 35.8571 71.9922 36.2285C71.0659 36.3428 70.9212 35.5428 71.7607 34.9428C77.2028 31.1714 86.1475 32.2571 87.1896 33.5142C88.2317 34.7999 86.9001 43.6285 81.8054 47.8571C81.0238 48.5142 80.2712 48.1714 80.6186 47.3142C81.7764 44.4857 84.3528 38.1142 83.137 36.5999Z" fill="#FF9900"/>
</g>
<defs>
<clipPath id="clip0_64_163">
<rect width="88" height="52" fill="white"/>
</clipPath>
</defs>
</svg>
