<svg width="173" height="32" viewBox="0 0 173 32" fill="none" xmlns="http://www.w3.org/2000/svg">
<path d="M27.5199 15.7669V15.4599L24.9199 13.2219H24.6169C23.9019 14.0119 22.7979 14.6039 21.5629 14.6039C19.6349 14.6039 18.1179 13.1339 18.1179 11.1159C18.1179 9.0979 19.6349 7.6279 21.5629 7.6279C22.7979 7.6279 23.9019 8.2199 24.6169 9.0099H24.9199L27.5199 6.7719V6.4649C26.1549 4.7979 24.0109 3.7229 21.5839 3.7229C17.1219 3.7229 13.7429 6.8819 13.7429 11.1159C13.7429 11.2799 13.7799 11.4309 13.7909 11.5919C15.6169 12.8339 17.2289 13.8279 18.6169 14.7379C20.6179 16.0039 22.2329 17.1689 23.5629 18.2519C25.2209 17.8329 26.5649 16.9239 27.5199 15.7669ZM15.3699 15.6879C16.4119 16.9679 17.8829 17.8859 19.6179 18.2779C18.4459 17.6189 17.3109 16.9719 16.2539 16.2559C15.9439 16.0639 15.6679 15.8779 15.3699 15.6879Z" fill="#FC0000"/>
<path d="M42.5699 17.5668L41.9199 14.7588L41.6819 14.6048C41.5519 14.6708 41.4439 14.7588 41.1189 14.7588C40.6199 14.7588 40.3169 14.2318 40.0569 13.8158C39.6239 13.1568 39.2769 12.8058 38.9739 12.6528C40.5549 11.9508 41.6169 10.6348 41.6169 8.74782C41.6169 5.82982 39.6239 3.98682 35.9199 3.98682H29.4639V18.2468H33.7529V13.2448H34.1429C35.0959 13.2448 36.3099 15.3068 36.8729 16.2288C38.0429 18.0938 38.9739 18.5098 40.6419 18.5098C41.4219 18.5098 42.0719 18.2248 42.4619 17.8738L42.5699 17.5668ZM37.2409 8.98882C37.2409 9.93282 36.5479 10.3928 35.7459 10.3928H33.7529V7.49682H35.7459C36.5479 7.49682 37.2409 8.02382 37.2409 8.98882Z" fill="#FC0000"/>
<path d="M59.1398 11.1208C59.1398 6.88678 55.7608 3.72778 51.2768 3.72778C46.7918 3.72778 43.4128 6.88678 43.4128 11.1208C43.4128 15.3548 46.7918 18.5138 51.2768 18.5138C55.7608 18.5138 59.1398 15.3328 59.1398 11.1208ZM54.7638 11.1208C54.7638 13.1608 53.2038 14.6088 51.2768 14.6088C49.3488 14.6088 47.7888 13.1608 47.7888 11.1208C47.7888 9.08078 49.3488 7.63278 51.2768 7.63278C53.2038 7.63278 54.7638 9.08078 54.7638 11.1208Z" fill="#FC0000"/>
<path d="M68.7 3.99097L66.03 11.84L63.5 3.99097H59.4L59.21 4.31997L64.45 18.25H67.05L70 10.48L72.96 18.25H75.56L80.81 4.31997L80.61 3.99097H76.52L73.98 11.89L71.3 3.99097H68.7Z" fill="#FC0000"/>
<path d="M96.5099 11.0999C96.5099 6.84394 93.6719 3.99194 89.0579 3.99194H82.4939V18.2519H89.0579C93.6719 18.2519 96.5099 15.3999 96.5099 11.0999ZM92.1339 11.1219C92.1339 13.4469 90.7689 14.7419 88.8849 14.7419H86.7829V7.50194H88.8849C90.7689 7.50194 92.1339 8.79694 92.1339 11.1219Z" fill="#FC0000"/>
<path d="M110.7 7.50097H114.9V18.25H119.2V7.50097H123.5V3.99097H110.7V7.50097Z" fill="#FC0000"/>
<path d="M137.2 8.75099C137.2 5.83299 135.207 3.98999 131.503 3.98999H125.047V18.25H129.337V13.248H130.355L133.019 18.25H137.287L137.482 17.921L134.622 12.634C136.16 11.91 137.2 10.616 137.2 8.75099ZM132.824 8.99199C132.824 9.93599 132.131 10.396 131.329 10.396H129.337V7.49999H131.329C132.131 7.49999 132.824 8.02699 132.824 8.99199Z" fill="#FC0000"/>
<path d="M139.8 18.25H144.1V3.99097H139.8V18.25Z" fill="#FC0000"/>
<path d="M151.1 9.05897V3.99097H146.8V18.25H151.1V13.86L151.9 12.94L155.5 18.25H160L160.2 17.92L155 10.37L159.8 4.31997L159.7 3.99097H155.1L151.1 9.05897Z" fill="#FC0000"/>
<path d="M165.7 14.74V12.77H170.6V9.47499H165.7V7.50099H172.1V3.98999H161.4V18.25H172.2V14.74H165.7Z" fill="#FC0000"/>
<path d="M103.8 18.4166C106.942 18.4166 109.669 16.8816 109.669 13.9216C109.669 10.6956 106.92 9.86157 104.494 9.15957C103.54 8.87457 102.564 8.54457 102.564 7.84257C102.564 7.33757 103.106 7.03057 103.93 7.03057C105.339 7.03057 106.53 7.90857 107.136 8.47957H107.439L109.453 6.06657V5.75957C108.392 4.55357 106.227 3.63257 103.843 3.63257C100.507 3.63257 98.191 5.43057 98.191 8.04057C98.191 10.8496 100.745 12.0786 102.911 12.6926C104.32 13.0876 105.275 13.1536 105.275 13.9216C105.275 14.4706 104.602 14.7996 103.561 14.7996C102.239 14.7996 100.637 13.9436 99.858 13.1756H99.555L97.563 15.6766V15.9836C98.84 17.4086 101.135 18.4166 103.8 18.4166Z" fill="#FC0000"/>
<path d="M29.82 31.5265C28.781 29.1485 26.694 26.0975 18.52 21.7405C14.75 19.6445 8.31002 16.4175 2.52002 10.2805C3.04502 12.4945 5.73502 17.3595 17.3 23.4305C20.504 25.1835 25.922 26.8275 29.82 31.5185" fill="#FC0000"/>
<path d="M29.3 27.4566C28.314 24.6466 26.534 21.0486 18.09 15.7066C13.979 13.0126 7.94 9.62959 0 1.00659C0.568 3.33159 3.078 9.37759 15.73 17.2266C19.886 20.0426 25.25 21.7796 29.3 27.4566Z" fill="#FC0000"/>
</svg>
