<svg width="248" height="28" viewBox="0 0 248 28" fill="none" xmlns="http://www.w3.org/2000/svg">
<path d="M142.064 5.99663V0.0052501H148.857V28.0035H142.064V5.99663ZM112.096 0.0052501H138.334V6.01763H126.037V28.0035H119.243V6.01763H112.09V0.0052501H112.096ZM247.424 0.0052501V6.01763H235.127V28.0035H228.334V6.01763H221.181V0.0052501H247.419H247.424ZM0 0.0052501H29.4209V6.01763H6.79304V12.0037H26.0922V18.0161H6.79304V27.9982H0V0V0.0052501ZM190.07 0.0052501H217.456V6.01763H196.863V10.9956H213.762V17.0079H196.863V21.9859H217.826V27.9982H190.07V0V0.0052501ZM184.821 7.91848V28.0035H178.028V7.91848C178.028 6.86829 177.183 6.02288 176.144 6.02288H160.899V28.0035H154.106V0.0052501H176.958C181.299 0.0052501 184.821 3.54966 184.821 7.91848ZM101.64 0.0052501H78.4122V28.0035H85.2052V18.0109H100.492C101.311 18.0371 101.969 18.7145 101.969 19.5494V28.0088H108.762V19.4759C108.762 17.9794 107.948 16.6771 106.737 15.9892C108.209 14.6135 109.132 12.6496 109.132 10.4705V7.55092C109.132 3.38689 105.777 0.0157523 101.645 0.0157523L101.64 0.0052501ZM102.339 10.4495C102.339 11.3054 101.65 11.9985 100.8 11.9985H85.2052V6.01763L100.8 6.00187C101.65 6.00187 102.339 6.69501 102.339 7.55092V10.46V10.4495Z" fill="black"/>
<path d="M73.1686 10.3761V17.6434H61.9356V10.3761H73.1686ZM47.6243 28.0089H58.8573V20.7415H47.6243V28.0036V28.0089ZM73.1634 6.09651C73.1634 2.73588 70.4556 0.00537109 67.1112 0.00537109H61.9304V7.27274H73.1582V6.09651H73.1634ZM47.6243 0.0106232V7.27798H58.8573V0.0106232H47.6243ZM33.313 10.3761V17.6434H44.546V10.3761H33.313ZM61.9356 28.0089H67.1165C70.4556 28.0089 73.1686 25.2836 73.1686 21.9177V20.7415H61.9408V28.0089H61.9356ZM33.313 21.9177C33.313 25.2784 36.0208 28.0089 39.3652 28.0089H44.546V20.7468H33.313V21.923V21.9177ZM33.313 6.09651V7.27274H44.546V0.00537109H39.3652C36.026 0.00537109 33.313 2.73063 33.313 6.09651Z" fill="#DA291C"/>
</svg>
