<svg width="206" height="80" viewBox="0 0 206 80" fill="none" xmlns="http://www.w3.org/2000/svg">
<path d="M68.2208 25.2576C68.2208 28.432 68.1448 31.6096 68.2367 34.784C68.4268 41.3312 66.4587 47.2128 63.0265 52.6688C58.5832 59.7376 52.6948 65.4304 46.2485 70.5888C42.7529 73.3856 39.0576 75.8976 35.2862 78.2944C34.9566 78.5056 34.7126 78.6144 34.3101 78.3616C25.6771 72.9056 17.6526 66.7072 11.0099 58.8384C7.36209 54.5184 4.33865 49.8144 2.60191 44.3552C1.7272 41.6032 1.32154 38.7872 1.32471 35.8976C1.33738 28.0064 1.34372 20.112 1.30886 12.2208C1.30569 11.4016 1.61628 11.2576 2.304 11.2224C5.23237 11.0784 8.14806 10.8032 11.0257 10.208C14.9397 9.39836 18.5653 7.88156 21.7567 5.47195C26.7673 1.68635 32.4339 1.10075 38.3889 1.69595C41.4313 1.99995 44.2456 2.99515 46.6922 4.83195C52.4793 9.18076 59.0776 10.8992 66.1481 11.1904C68.2208 11.2768 68.2208 11.2864 68.2208 13.3312C68.2208 17.3088 68.2208 21.2864 68.2208 25.264V25.2576Z" fill="#0072C5"/>
<path d="M32.0346 50.7743C31.499 50.8671 31.4357 51.3567 31.3025 51.7407C29.4993 56.9279 27.715 62.1215 25.9212 67.3151C25.6898 67.9807 25.4458 68.6431 25.2049 69.3055C25.056 69.7215 24.9197 69.9167 24.4443 69.5391C20.711 66.5631 17.1836 63.3471 13.9573 59.8239C10.7723 56.3455 7.92947 52.5791 5.86313 48.2943C4.33873 45.1359 3.29288 41.8303 3.00765 38.2783C2.84919 36.3071 2.89039 34.3455 2.88088 32.3807C2.84919 26.3103 2.86821 20.2399 2.86821 14.1695C2.86821 12.7583 2.92208 12.7295 4.37359 12.6719C7.56818 12.5439 10.7025 12.0479 13.7894 11.1999C16.9998 10.3167 19.9092 8.80627 22.6157 6.89267C25.1384 5.11027 27.7942 3.68307 30.9159 3.33107C36.3923 2.71347 41.6691 3.03347 46.3405 6.47027C46.7652 6.78387 46.8761 7.01427 46.6987 7.51667C45.6465 10.4959 44.6228 13.4879 43.6087 16.4799C43.5136 16.7615 43.3139 16.9343 43.165 17.1583C42.6642 17.4495 42.211 17.1359 41.761 17.0111C35.3592 15.2447 29.1158 15.7151 23.2527 18.8351C15.9001 22.7519 11.3903 28.9247 9.90707 37.2511C9.79298 37.8879 9.70741 38.5279 9.69473 39.1775C9.68839 39.6127 9.86904 39.7983 10.2874 39.8015C12.3347 39.8047 14.3789 39.8111 16.4262 39.7983C16.9396 39.7951 17.0885 39.4623 17.1678 39.0303C17.3706 37.9391 17.5734 36.8479 17.9696 35.8047C20.5905 28.9151 25.5092 24.9439 32.7477 23.8655C35.1627 23.5071 37.4921 23.8655 39.8088 24.4767C40.1384 24.5631 40.5662 24.5727 40.6391 25.0591C39.8658 27.2287 39.0957 29.3983 38.3161 31.5679C38.1829 31.9391 38.0181 32.2975 37.866 32.6623C37.5237 32.9471 37.1688 32.7455 36.817 32.6911C35.0803 32.4223 33.3625 32.3967 31.6702 32.9951C28.2759 34.1983 25.7374 37.6319 25.6518 41.1839C25.5504 45.2543 27.6896 48.7039 31.2011 50.1663C31.5149 50.2975 31.9522 50.2943 32.0283 50.7711L32.0346 50.7743Z" fill="#2686CD"/>
<path d="M40.6421 25.0593C35.7076 23.2737 30.8999 23.6385 26.3393 26.1857C21.202 29.0529 18.2546 33.5361 17.3831 39.3921C17.307 39.8945 17.1676 40.0673 16.6605 40.0609C14.4325 40.0385 12.2046 40.0321 9.9766 40.0609C9.40614 40.0673 9.37128 39.8593 9.40297 39.3569C10.1256 28.4065 18.448 18.7041 29.0934 16.3841C33.8631 15.3441 38.544 15.6321 43.168 17.1521C48.806 19.2769 53.2905 22.8481 56.4565 28.0417C58.5672 31.5041 59.7811 35.2705 60.1138 39.3313C60.1614 39.9105 60.06 40.0705 59.4736 40.0609C57.2774 40.0289 55.0811 40.0289 52.8848 40.0609C52.3175 40.0705 52.2098 39.8529 52.1274 39.3313C51.0657 32.6241 47.4147 27.9361 41.2474 25.2385C41.0541 25.1553 40.8417 25.1137 40.6389 25.0561L40.6421 25.0593Z" fill="#FEFEFE"/>
<path d="M32.0345 50.7745C29.5974 49.8881 27.6166 48.4161 26.4599 46.0289C24.7231 42.4417 24.9862 38.9569 27.4392 35.8177C29.8478 32.7393 33.0899 31.7089 36.893 32.4545C37.2194 32.5185 37.5458 32.5953 37.8723 32.6657C40.4805 33.7697 42.5279 35.4977 43.5167 38.2305C44.7844 41.7473 44.2995 45.0593 41.8338 47.8913C39.3745 50.7137 36.2243 51.6577 32.5765 50.8737C32.399 50.8353 32.2184 50.8097 32.0377 50.7777L32.0345 50.7745Z" fill="#FEFEFE"/>
<path d="M99.7673 15.8815V39.2159H95.7805V20.9343H95.7012L88.5895 39.2159H85.94L78.6286 20.9343H78.5906V39.2159H74.873V15.8815H80.603L87.2045 33.1615H87.325L94.2782 15.8815H99.7673ZM103.086 17.6447C103.086 17.0047 103.323 16.4831 103.795 16.0415C104.271 15.5999 104.822 15.3599 105.456 15.3599C106.131 15.3599 106.683 15.5999 107.158 16.0415C107.595 16.4831 107.833 17.0431 107.833 17.6447C107.833 18.2847 107.595 18.8479 107.123 19.2895C106.686 19.6895 106.131 19.9295 105.459 19.9295C104.787 19.9295 104.236 19.6895 103.764 19.2479C103.326 18.8063 103.089 18.2847 103.089 17.6447H103.086ZM107.358 39.2159H103.479V22.4959H107.358V39.2159ZM119.135 36.3295C119.724 36.3295 120.358 36.2079 121.03 35.9295C121.74 35.6479 122.373 35.2863 122.963 34.8479V38.5375C122.332 38.8991 121.66 39.1391 120.871 39.3375C120.082 39.5391 119.211 39.6191 118.263 39.6191C115.851 39.6191 113.874 38.8159 112.371 37.2927C110.834 35.7279 110.08 33.7247 110.08 31.3183C110.08 28.6303 110.869 26.4255 112.413 24.6623C113.95 22.9375 116.127 22.0543 118.973 22.0543C119.721 22.0543 120.434 22.1759 121.185 22.3359C121.933 22.5375 122.529 22.7775 122.96 23.0175V26.7871C122.37 26.3455 121.736 25.9839 121.141 25.7439C120.51 25.5039 119.876 25.3823 119.207 25.3823C117.664 25.3823 116.441 25.9039 115.493 26.9055C114.58 27.9071 114.108 29.2703 114.108 30.9535C114.108 32.6367 114.545 33.9999 115.452 34.9215C116.365 35.8847 117.585 36.3231 119.128 36.3231L119.135 36.3295ZM133.992 22.2175C134.309 22.2175 134.588 22.2175 134.825 22.2975C135.098 22.3391 135.301 22.3775 135.456 22.4575V26.4255C135.256 26.2655 134.981 26.1439 134.588 25.9839C134.192 25.8623 133.719 25.7823 133.165 25.7823C132.217 25.7823 131.384 26.1823 130.753 27.0239C130.084 27.8271 129.767 29.0687 129.767 30.7519V39.2127H125.894V22.4927H129.767V25.1391H129.847C130.163 24.2175 130.715 23.4943 131.428 22.9727C132.138 22.4511 133.009 22.2111 133.995 22.2111L133.992 22.2175ZM135.694 31.0783C135.694 28.3135 136.442 26.1471 137.985 24.5439C139.522 22.8991 141.658 22.0991 144.387 22.0991C146.957 22.0991 148.97 22.8607 150.434 24.4255C151.857 25.9903 152.605 28.0735 152.605 30.7199C152.605 33.3663 151.816 35.6127 150.275 37.2159C148.732 38.8191 146.64 39.6223 143.991 39.6223C141.341 39.6223 139.443 38.8607 137.944 37.3375C136.445 35.8143 135.694 33.7279 135.694 31.0815V31.0783ZM139.725 30.9567C139.725 32.7199 140.121 34.0447 140.869 34.9663C141.658 35.8879 142.764 36.3295 144.232 36.3295C145.699 36.3295 146.723 35.8879 147.471 34.9663C148.181 34.0447 148.577 32.6815 148.577 30.8767C148.577 29.0719 148.181 27.7087 147.433 26.7871C146.643 25.8655 145.572 25.4239 144.187 25.4239C142.802 25.4239 141.658 25.9039 140.91 26.8671C140.121 27.8303 139.725 29.1935 139.725 30.9567ZM158.376 26.8671C158.376 27.4271 158.534 27.8687 158.893 28.1887C159.244 28.5087 160.037 28.9119 161.222 29.4303C162.803 30.0319 163.871 30.7519 164.505 31.5167C165.136 32.3167 165.453 33.2799 165.453 34.4031C165.453 35.9679 164.857 37.2095 163.634 38.1727C162.448 39.1359 160.826 39.6159 158.813 39.6159C158.138 39.6159 157.39 39.5359 156.557 39.3759C155.73 39.1743 155.02 38.9759 154.424 38.7359V34.8479C155.134 35.3279 155.888 35.7311 156.715 36.0511C157.549 36.3327 158.259 36.4927 158.927 36.4927C159.796 36.4927 160.43 36.3327 160.867 36.0927C161.298 35.8527 161.498 35.4527 161.498 34.8511C161.498 34.2911 161.26 33.8495 160.823 33.4879C160.392 33.0879 159.599 32.6847 158.373 32.1631C156.95 31.5615 155.923 30.8799 155.333 30.1183C154.738 29.3567 154.421 28.3935 154.421 27.2319C154.421 25.7471 155.017 24.5055 156.202 23.5423C157.387 22.5407 158.924 22.0575 160.785 22.0575C161.374 22.0575 162.008 22.1375 162.718 22.2591C163.472 22.3807 164.062 22.5791 164.537 22.7807V26.5087C164.027 26.1471 163.431 25.8687 162.718 25.6255C162.049 25.3439 161.374 25.2255 160.705 25.2255C159.951 25.2255 159.4 25.3855 158.965 25.6671C158.569 25.9871 158.37 26.3903 158.37 26.8703L158.376 26.8671ZM167.11 31.0783C167.11 28.3135 167.865 26.1471 169.402 24.5439C170.945 22.8991 173.078 22.0991 175.804 22.0991C178.529 22.0991 180.386 22.8607 181.85 24.4255C183.311 25.9903 184.021 28.0735 184.021 30.7199C184.021 33.3663 183.273 35.6127 181.73 37.2159C180.193 38.8191 178.095 39.6223 175.449 39.6223C172.802 39.6223 170.866 38.8607 169.364 37.3375C167.861 35.8143 167.107 33.7279 167.107 31.0815L167.11 31.0783ZM171.142 30.9567C171.142 32.7199 171.538 34.0447 172.327 34.9663C173.081 35.8879 174.222 36.3295 175.645 36.3295C177.068 36.3295 178.136 35.8879 178.884 34.9663C179.594 34.0447 179.99 32.6815 179.99 30.8767C179.99 29.0719 179.594 27.7087 178.846 26.7871C178.057 25.8655 176.986 25.4239 175.607 25.4239C174.228 25.4239 173.116 25.9039 172.324 26.8671C171.535 27.8303 171.138 29.1935 171.138 30.9567H171.142ZM196.911 25.7055H191.098V39.2159H187.187V25.7055H184.418V22.4991H187.187V20.1727C187.187 18.4095 187.742 16.9663 188.883 15.8431C189.989 14.7199 191.453 14.1599 193.193 14.1599C193.668 14.1599 194.1 14.2015 194.458 14.2399C194.809 14.2815 195.126 14.3615 195.405 14.4415V17.8495C195.285 17.7695 195.088 17.6895 194.73 17.5679C194.413 17.4879 194.061 17.4079 193.624 17.4079C192.835 17.4079 192.201 17.6895 191.77 18.2111C191.333 18.6911 191.095 19.4527 191.095 20.4959V22.4991H196.907V18.7295L200.78 17.5263V22.4991H204.691V25.7055H200.78V33.5231C200.78 34.5663 200.977 35.2863 201.335 35.6895C201.687 36.1311 202.282 36.3295 203.075 36.3295C203.312 36.3295 203.585 36.2879 203.902 36.1695C204.219 36.0895 204.457 35.9295 204.691 35.8079V39.0559C204.453 39.1775 204.06 39.2959 203.468 39.4175C202.913 39.5391 202.362 39.6191 201.807 39.6191C200.146 39.6191 198.92 39.1775 198.131 38.2943C197.304 37.4111 196.907 36.0895 196.907 34.2847V25.7055H196.911Z" fill="#282828"/>
<path d="M85.8005 62.7264V60.7872C86.0192 60.9824 86.2823 61.1584 86.5897 61.3152C86.8971 61.472 87.2203 61.6032 87.5595 61.712C87.8986 61.8208 88.2408 61.904 88.5831 61.9616C88.9254 62.0192 89.2423 62.0512 89.5339 62.0512C90.5354 62.0512 91.2833 61.8624 91.7777 61.488C92.2721 61.1136 92.5193 60.5728 92.5193 59.8688C92.5193 59.4912 92.4369 59.1616 92.2721 58.88C92.1073 58.5984 91.8791 58.3424 91.5875 58.112C91.296 57.8816 90.9537 57.6576 90.5544 57.4464C90.1551 57.2352 89.7272 57.0112 89.2708 56.7744C88.7859 56.528 88.3327 56.2752 87.9144 56.0192C87.4929 55.7632 87.1284 55.4848 86.8179 55.1776C86.5073 54.8704 86.2632 54.5248 86.0858 54.1344C85.9083 53.7472 85.8195 53.2896 85.8195 52.768C85.8195 52.128 85.959 51.5712 86.2379 51.0976C86.5168 50.624 86.8812 50.2336 87.3344 49.9264C87.7876 49.6192 88.3011 49.392 88.881 49.2416C89.461 49.0912 90.0505 49.0176 90.6495 49.0176C92.0186 49.0176 93.02 49.184 93.6444 49.5168V51.3664C92.8235 50.7936 91.7682 50.5056 90.4847 50.5056C90.1297 50.5056 89.7748 50.544 89.4166 50.6176C89.0617 50.6912 88.7448 50.816 88.4659 50.9856C88.187 51.1552 87.9619 51.3728 87.7876 51.6416C87.6133 51.9104 87.5246 52.2368 87.5246 52.6208C87.5246 52.9792 87.5911 53.2896 87.7242 53.552C87.8574 53.8144 88.0539 54.0512 88.3106 54.2656C88.5673 54.48 88.8842 54.6912 89.255 54.8928C89.6258 55.0944 90.0536 55.3184 90.5385 55.5584C91.0361 55.808 91.5083 56.0672 91.9552 56.3424C92.402 56.6176 92.7919 56.9216 93.1278 57.2544C93.4637 57.5872 93.7299 57.9552 93.9264 58.3616C94.1229 58.768 94.2212 59.2288 94.2212 59.7536C94.2212 60.4448 94.0881 61.0304 93.8187 61.5104C93.5493 61.9904 93.188 62.3808 92.7316 62.6816C92.2753 62.9824 91.7492 63.2 91.1565 63.3312C90.5639 63.4624 89.9332 63.5328 89.274 63.5328C89.0553 63.5328 88.7828 63.5136 88.4595 63.4784C88.1363 63.4432 87.8067 63.3888 87.4707 63.3216C87.1348 63.2544 86.8179 63.168 86.5168 63.0656C86.2157 62.9632 85.9748 62.8512 85.7942 62.7296L85.8005 62.7264Z" fill="#282828"/>
<path d="M104.765 58.6815H97.7549C97.7803 59.7983 98.0782 60.6591 98.6455 61.2671C99.2128 61.8751 99.9956 62.179 100.991 62.179C102.109 62.179 103.136 61.8079 104.074 61.0623V62.5694C103.203 63.2094 102.049 63.5294 100.614 63.5294C99.1779 63.5294 98.1099 63.075 97.3081 62.163C96.5063 61.251 96.1069 59.971 96.1069 58.3198C96.1069 56.7614 96.5443 55.4878 97.4222 54.5054C98.2969 53.523 99.3871 53.0334 100.686 53.0334C101.986 53.0334 102.991 53.4591 103.704 54.3071C104.413 55.1551 104.772 56.3326 104.772 57.843V58.6846L104.765 58.6815ZM103.136 57.3215C103.13 56.3935 102.908 55.6734 102.471 55.1582C102.033 54.643 101.428 54.3838 100.652 54.3838C99.8751 54.3838 99.2667 54.6559 98.7406 55.1967C98.2176 55.7375 97.8944 56.4479 97.7708 57.3215H103.133H103.136Z" fill="#282828"/>
<path d="M115.414 63.2958H113.823V57.5774C113.823 55.4494 113.053 54.3871 111.516 54.3871C110.72 54.3871 110.064 54.6878 109.541 55.2926C109.021 55.8974 108.762 56.659 108.762 57.5774V63.2958H107.171V53.2702H108.762V54.9342H108.8C109.551 53.667 110.635 53.0334 112.058 53.0334C113.145 53.0334 113.975 53.3886 114.549 54.0958C115.122 54.803 115.411 55.827 115.411 57.1646V63.2926L115.414 63.2958Z" fill="#282828"/>
<path d="M123.017 63.1968C122.643 63.4048 122.148 63.5104 121.534 63.5104C119.794 63.5104 118.925 62.5312 118.925 60.5728V54.64H117.22V53.2704H118.925V50.8224L120.516 50.304V53.2704H123.017V54.64H120.516V60.288C120.516 60.96 120.63 61.44 120.855 61.728C121.08 62.016 121.457 62.16 121.98 62.16C122.383 62.16 122.728 62.048 123.017 61.8272V63.1968Z" fill="#282828"/>
<path d="M125.955 50.7231C125.669 50.7231 125.428 50.6239 125.229 50.4287C125.029 50.2335 124.928 49.9839 124.928 49.6831C124.928 49.3823 125.029 49.1327 125.229 48.9343C125.428 48.7359 125.673 48.6367 125.955 48.6367C126.237 48.6367 126.493 48.7359 126.696 48.9343C126.899 49.1327 127 49.3823 127 49.6831C127 49.9839 126.899 50.2143 126.696 50.4159C126.493 50.6175 126.246 50.7199 125.955 50.7199V50.7231ZM126.731 63.2959H125.14V53.2703H126.731V63.2959Z" fill="#282828"/>
<path d="M138.191 63.2958H136.6V57.5774C136.6 55.4494 135.83 54.3871 134.293 54.3871C133.498 54.3871 132.838 54.6878 132.319 55.2926C131.799 55.8974 131.539 56.659 131.539 57.5774V63.2958H129.948V53.2702H131.539V54.9342H131.577C132.328 53.667 133.412 53.0334 134.835 53.0334C135.922 53.0334 136.752 53.3886 137.326 54.0958C137.9 54.803 138.188 55.827 138.188 57.1646V63.2926L138.191 63.2958Z" fill="#282828"/>
<path d="M149.166 58.6815H142.156C142.181 59.7983 142.479 60.6591 143.046 61.2671C143.614 61.8751 144.396 62.179 145.395 62.179C146.514 62.179 147.54 61.8079 148.478 61.0623V62.5694C147.607 63.2094 146.453 63.5294 145.018 63.5294C143.582 63.5294 142.514 63.075 141.712 62.163C140.91 61.251 140.511 59.971 140.511 58.3198C140.511 56.7614 140.948 55.4878 141.826 54.5054C142.704 53.523 143.788 53.0334 145.091 53.0334C146.393 53.0334 147.395 53.4591 148.108 54.3071C148.818 55.1551 149.176 56.3326 149.176 57.843V58.6846L149.166 58.6815ZM147.537 57.3215C147.531 56.3935 147.309 55.6734 146.872 55.1582C146.434 54.643 145.829 54.3838 145.052 54.3838C144.276 54.3838 143.664 54.6559 143.141 55.1967C142.619 55.7375 142.295 56.4479 142.172 57.3215H147.534H147.537Z" fill="#282828"/>
<path d="M153.162 63.2959H151.572V48.4543H153.162V63.2959Z" fill="#282828"/>
</svg>
