<svg width="132" height="132" viewBox="0 0 132 132" fill="none" xmlns="http://www.w3.org/2000/svg">
<path d="M121.407 33.9767C121.249 30.504 121.249 27.1892 121.249 23.8744C121.249 21.191 119.197 19.139 116.514 19.139C96.7828 19.139 81.7873 13.4565 69.3173 1.30224C67.4231 -0.434081 64.5819 -0.434081 62.6877 1.30224C50.2178 13.4565 35.2223 19.139 15.4913 19.139C12.8079 19.139 10.7559 21.191 10.7559 23.8744C10.7559 27.1892 10.7559 30.504 10.598 33.9767C9.96665 67.1247 9.01956 112.585 64.424 131.684L66.0025 132L67.581 131.684C122.828 112.585 122.038 67.2825 121.407 33.9767ZM62.2142 79.9103C61.2671 80.6996 60.1622 81.1731 58.8994 81.1731H58.7415C57.4788 81.1731 56.216 80.5417 55.4267 79.5946L40.7469 63.3363L47.8501 57.0224L59.3729 69.8081L84.9442 45.4996L91.416 52.4448L62.2142 79.9103Z" fill="#FED929"/>
</svg>
