<svg width="41" height="19" viewBox="0 0 41 19" fill="none" xmlns="http://www.w3.org/2000/svg">
<path d="M32.4898 14.0129H34.418L39.9133 8.51643L40.1832 6.18285C37.0351 3.4037 33.2307 1.47311 29.1293 0.573472C25.0278 -0.326168 20.7648 -0.165163 16.7429 1.04128C12.7209 2.24772 9.07287 4.45976 6.14332 7.46846C3.21376 10.4772 1.09941 14.1832 0 18.2364C0.612201 17.9854 1.29036 17.9447 1.92818 18.1207L12.9188 16.3079C12.9188 16.3079 13.478 15.3821 13.7672 15.44C16.1221 12.8531 19.3766 11.2644 22.8643 10.9991C26.3521 10.7338 29.8094 11.812 32.5283 14.0129H32.4898Z" fill="#EA4335"/>
</svg>
