<svg width="22" height="32" viewBox="0 0 22 32" fill="none" xmlns="http://www.w3.org/2000/svg">
<path d="M10.1272 31.8407C8.77322 31.8452 7.43436 31.5562 6.20276 30.9935C4.97117 30.4309 3.8761 29.608 2.99295 28.5814C0.993899 26.3731 -0.0766143 23.4787 0.00427136 20.5007C-0.0766143 17.5228 0.993899 14.6284 2.99295 12.42C3.8761 11.3935 4.97117 10.5706 6.20276 10.0079C7.43436 9.44525 8.77322 9.15622 10.1272 9.16071C11.6441 9.13676 13.1427 9.4949 14.4849 10.2021C15.6644 10.7958 16.6631 11.6949 17.3772 12.8057H17.5507L17.3772 9.855V0H21.3685V31.1464H17.5121V28.1957H17.3386C16.6245 29.3066 15.6258 30.2056 14.4463 30.7993C13.1156 31.5003 11.6311 31.8582 10.1272 31.8407ZM10.7828 28.1957C11.6849 28.2089 12.5796 28.0299 13.4074 27.6708C14.2351 27.3117 14.9771 26.7807 15.5839 26.1129C16.9398 24.5687 17.6326 22.5523 17.5121 20.5007C17.6326 18.4491 16.9398 16.4327 15.5839 14.8886C14.9731 14.2171 14.2289 13.6807 13.3988 13.3136C12.5687 12.9466 11.6711 12.757 10.7635 12.757C9.85591 12.757 8.95832 12.9466 8.12823 13.3136C7.29815 13.6807 6.55387 14.2171 5.94306 14.8886C5.26954 15.6481 4.75251 16.533 4.42164 17.4928C4.09076 18.4525 3.95253 19.4681 4.01488 20.4814C3.95253 21.4947 4.09076 22.5103 4.42164 23.4701C4.75251 24.4298 5.26954 25.3148 5.94306 26.0743C6.55073 26.754 7.29736 27.2952 8.13235 27.6612C8.96735 28.0273 9.87121 28.2095 10.7828 28.1957Z" fill="#5F6368"/>
</svg>
