<svg width="22" height="23" viewBox="0 0 22 23" fill="none" xmlns="http://www.w3.org/2000/svg">
<path d="M3.09027 3.24338C5.1817 1.16591 8.00966 0 10.9572 0C13.9048 0 16.7328 1.16591 18.8242 3.24338C19.8469 4.32342 20.646 5.59509 21.1755 6.98522C21.705 8.37535 21.9543 9.85648 21.9093 11.3434C21.9543 12.8303 21.705 14.3114 21.1755 15.7015C20.646 17.0917 19.8469 18.3633 18.8242 19.4434C16.7328 21.5208 13.9048 22.6868 10.9572 22.6868C8.00966 22.6868 5.1817 21.5208 3.09027 19.4434C2.06754 18.3633 1.26845 17.0917 0.738982 15.7015C0.209518 14.3114 -0.0398771 12.8303 0.00517676 11.3434C-0.0398771 9.85648 0.209518 8.37535 0.738982 6.98522C1.26845 5.59509 2.06754 4.32342 3.09027 3.24338ZM6.05965 16.9362C6.68854 17.601 7.44635 18.1305 8.28678 18.4923C9.12721 18.8542 10.0326 19.0408 10.9476 19.0408C11.8626 19.0408 12.768 18.8542 13.6084 18.4923C14.4488 18.1305 15.2066 17.601 15.8355 16.9362C16.5332 16.1875 17.0748 15.3074 17.4291 14.3472C17.7833 13.387 17.9429 12.3659 17.8987 11.3434C17.9429 10.3209 17.7833 9.29976 17.4291 8.33956C17.0748 7.37936 16.5332 6.49926 15.8355 5.75052C15.2066 5.08577 14.4488 4.55628 13.6084 4.19442C12.768 3.83255 11.8626 3.64592 10.9476 3.64592C10.0326 3.64592 9.12721 3.83255 8.28678 4.19442C7.44635 4.55628 6.68854 5.08577 6.05965 5.75052C5.36202 6.49926 4.82032 7.37936 4.46612 8.33956C4.11191 9.29976 3.95228 10.3209 3.99652 11.3434C3.95743 12.364 4.12138 13.3823 4.47886 14.3391C4.83633 15.2958 5.38022 16.1721 6.07895 16.917L6.05965 16.9362Z" fill="#5F6368"/>
</svg>
