<svg width="19" height="23" viewBox="0 0 19 23" fill="none" xmlns="http://www.w3.org/2000/svg">
<path d="M18.8726 21.2914H15.0162V18.3407H14.9006C14.2142 19.4614 13.2427 20.3798 12.0854 21.0021C10.8844 21.6983 9.52074 22.0643 8.13267 22.0629C7.00568 22.14 5.87581 21.9615 4.82744 21.5407C3.77907 21.1199 2.83929 20.4678 2.07819 19.6329C0.617518 17.785 -0.116384 15.4663 0.0150292 13.1143V0H4.00637V12.3814C4.00637 16.3543 5.761 18.3407 9.27028 18.3407C10.05 18.365 10.8242 18.2027 11.5285 17.8673C12.2329 17.5318 12.8468 17.0329 13.3194 16.4121C14.354 15.1008 14.9055 13.4731 14.8813 11.8029V0H18.8726V21.2914Z" fill="#5F6368"/>
</svg>
