<svg width="34" height="45" viewBox="0 0 34 45" fill="none" xmlns="http://www.w3.org/2000/svg">
<path d="M25.2398 12.0343C23.9767 7.38186 21.3833 3.19939 17.7778 0L10.0651 7.71429C11.6725 9.02796 12.9607 10.6896 13.8324 12.5738C14.7042 14.458 15.1368 16.5156 15.0976 18.5914V19.9607C15.9991 19.9607 16.8917 20.1383 17.7245 20.4833C18.5573 20.8284 19.314 21.3341 19.9514 21.9716C20.5888 22.6092 21.0945 23.366 21.4394 24.199C21.7844 25.032 21.9619 25.9248 21.9619 26.8264C21.9619 27.728 21.7844 28.6208 21.4394 29.4538C21.0945 30.2868 20.5888 31.0437 19.9514 31.6812C19.314 32.3188 18.5573 32.8245 17.7245 33.1695C16.8917 33.5146 15.9991 33.6921 15.0976 33.6921H1.369L0 35.0807V43.3157L1.369 44.685H15.0976C18.9313 44.7149 22.6728 43.5097 25.7686 41.2478C28.8644 38.986 31.1501 35.7875 32.2876 32.1256C33.425 28.4637 33.3539 24.5329 32.0846 20.9145C30.8154 17.2962 28.4155 14.1826 25.2398 12.0343Z" fill="#4285F4"/>
</svg>
