<svg width="29" height="33" viewBox="0 0 29 33" fill="none" xmlns="http://www.w3.org/2000/svg">
<path d="M16.1624 32.5227C14.0221 32.5597 11.8965 32.1637 9.91305 31.3585C7.92961 30.5533 6.12928 29.3556 4.62017 27.8371C3.11106 26.3187 1.92427 24.5109 1.13107 22.5223C0.337865 20.5337 -0.0453975 18.4053 0.00427942 16.2649C-0.0453975 14.1244 0.337865 11.996 1.13107 10.0074C1.92427 8.01883 3.11106 6.21105 4.62017 4.69262C6.12928 3.1742 7.92961 1.97644 9.91305 1.17126C11.8965 0.366076 14.0221 -0.0299254 16.1624 0.0070278C18.3286 -0.0607158 20.4822 0.362024 22.4621 1.24366C24.4421 2.12531 26.1972 3.44305 27.5965 5.09846L24.8199 7.79845C23.7926 6.50611 22.4749 5.4745 20.9739 4.78751C19.4729 4.10053 17.831 3.77756 16.1817 3.84488C14.594 3.80911 13.0154 4.09477 11.5409 4.6847C10.0664 5.27462 8.72635 6.15664 7.6013 7.27774C6.4316 8.4542 5.51774 9.85987 4.91715 11.4065C4.31656 12.9531 4.04219 14.6072 4.11129 16.2649C4.04219 17.9226 4.31656 19.5767 4.91715 21.1233C5.51774 22.6699 6.4316 24.0756 7.6013 25.252C8.72635 26.3731 10.0664 27.2551 11.5409 27.8451C13.0154 28.435 14.594 28.7207 16.1817 28.6849C18.0244 28.7055 19.8481 28.3105 21.5172 27.5292C23.1863 26.7479 24.6579 25.6004 25.8226 24.172L28.5991 26.9492C27.1454 28.6879 25.3202 30.0785 23.2581 31.0185C21.0353 32.0449 18.6104 32.559 16.1624 32.5227Z" fill="#5F6368"/>
</svg>
