<svg width="32" height="33" viewBox="0 0 32 33" fill="none" xmlns="http://www.w3.org/2000/svg">
<path d="M17.7483 0.00011338C14.0285 0.0223384 10.4085 1.20605 7.39394 3.38592C4.37939 5.56579 2.12081 8.63295 0.933664 12.159C-0.253485 15.6851 -0.309921 19.494 0.772239 23.0537C1.8544 26.6134 4.02111 29.7461 6.96975 32.0144L14.9331 24.0494C13.9211 23.5921 13.0352 22.8961 12.3513 22.021C11.6674 21.1459 11.206 20.118 11.0066 19.0253C10.8072 17.9327 10.8758 16.808 11.2066 15.7477C11.5373 14.6874 12.1203 13.7232 12.9055 12.9378C13.6908 12.1524 14.6548 11.5693 15.7148 11.2385C16.7749 10.9077 17.8994 10.8391 18.9918 11.0385C20.0842 11.2379 21.112 11.6994 21.9868 12.3835C22.8617 13.0675 23.5576 13.9536 24.0148 14.9658L31.9782 7.00083C30.3068 4.81529 28.1525 3.0461 25.6839 1.83163C23.2153 0.617148 20.4993 -0.0096961 17.7483 0.00011338Z" fill="#FBBC05"/>
</svg>
