<svg width="141" height="46" viewBox="0 0 141 46" fill="none" xmlns="http://www.w3.org/2000/svg">
<path d="M18.0683 35.6994C15.7047 35.7295 13.3592 35.2821 11.1725 34.3841C8.98584 33.486 7.00286 32.1557 5.34238 30.4729C3.62962 28.8616 2.27041 26.9117 1.35096 24.7471C0.431521 22.5825 -0.0280799 20.2503 0.0013271 17.8987C-0.0269043 15.5471 0.433226 13.2154 1.3526 11.0509C2.27197 8.88647 3.63056 6.93648 5.34238 5.32437C6.99472 3.62414 8.97405 2.27603 11.1611 1.36125C13.3482 0.446461 15.6978 -0.01607 18.0683 0.00151401C20.3271 -0.0285955 22.5693 0.390665 24.6646 1.23492C26.7599 2.07918 28.6666 3.3316 30.2737 4.91937L26.8416 8.41008C24.4911 6.13814 21.3366 4.88995 18.0683 4.93866C16.3729 4.91783 14.6917 5.24999 13.1316 5.91402C11.5714 6.57805 10.1665 7.55943 9.00592 8.7958C7.79978 9.99262 6.84829 11.4212 6.20873 12.9956C5.56918 14.5699 5.25481 16.2574 5.28453 17.9565C5.27038 19.6362 5.59234 21.3018 6.23144 22.8551C6.87054 24.4085 7.81388 25.8183 9.00592 27.0015C11.3937 29.3816 14.6159 30.7355 17.9867 30.7751C21.3575 30.8147 24.6106 29.5369 27.0537 27.2137C28.5661 25.557 29.494 23.4502 29.6953 21.2158H18.1262V16.2787H34.4964C34.6573 17.273 34.7218 18.2805 34.6892 19.2872C34.791 21.3709 34.4693 23.4535 33.7435 25.4093C33.0177 27.365 31.9029 29.1532 30.4665 30.6658C28.8695 32.3289 26.9399 33.6367 24.8037 34.504C22.6675 35.3713 20.3725 35.7786 18.0683 35.6994ZM56.1306 32.4208C53.9336 34.5272 51.008 35.7031 47.9647 35.7031C44.9215 35.7031 41.9958 34.5272 39.7989 32.4208C38.7054 31.3603 37.8442 30.0841 37.27 28.6731C36.6958 27.2622 36.421 25.7472 36.4632 24.2244C36.4222 22.7017 36.6975 21.1871 37.2716 19.7763C37.8458 18.3654 38.7064 17.0891 39.7989 16.0279C41.9981 13.926 44.9229 12.753 47.9647 12.753C51.0066 12.753 53.9313 13.926 56.1306 16.0279C57.2231 17.0891 58.0836 18.3654 58.6578 19.7763C59.232 21.1871 59.5073 22.7017 59.4663 24.2244C59.506 25.7486 59.2282 27.2644 58.6506 28.6755C58.073 30.0866 57.2082 31.362 56.1113 32.4208H56.1306ZM43.4046 29.2001C43.989 29.8243 44.6952 30.3218 45.4796 30.662C46.2639 31.0022 47.1098 31.1777 47.9647 31.1777C48.8197 31.1777 49.6655 31.0022 50.4499 30.662C51.2343 30.3218 51.9405 29.8243 52.5249 29.2001C53.162 28.5414 53.6609 27.7618 53.9921 26.9073C54.3232 26.0527 54.48 25.1405 54.453 24.2244C54.4815 23.3052 54.3255 22.3896 53.9943 21.5317C53.6631 20.6738 53.1635 19.891 52.5249 19.2294C51.9328 18.6116 51.2218 18.12 50.4348 17.7842C49.6478 17.4483 48.8011 17.2752 47.9455 17.2752C47.0898 17.2752 46.243 17.4483 45.4561 17.7842C44.6691 18.12 43.9581 18.6116 43.366 19.2294C42.7274 19.891 42.2278 20.6738 41.8966 21.5317C41.5654 22.3896 41.4094 23.3052 41.4379 24.2244C41.4135 25.1418 41.5733 26.0549 41.9078 26.9095C42.2423 27.7641 42.7447 28.543 43.3853 29.2001H43.4046ZM81.2354 32.4208C79.0385 34.5272 76.1129 35.7031 73.0696 35.7031C70.0263 35.7031 67.1007 34.5272 64.9038 32.4208C63.8103 31.3603 62.9491 30.0841 62.3749 28.6731C61.8006 27.2622 61.5259 25.7472 61.568 24.2244C61.527 22.7017 61.8023 21.1871 62.3765 19.7763C62.9507 18.3654 63.8112 17.0891 64.9038 16.0279C67.1007 13.9216 70.0263 12.7456 73.0696 12.7456C76.1129 12.7456 79.0385 13.9216 81.2354 16.0279C82.328 17.0891 83.1885 18.3654 83.7627 19.7763C84.3368 21.1871 84.6121 22.7017 84.5712 24.2244C84.6133 25.7472 84.3386 27.2622 83.7643 28.6731C83.1901 30.0841 82.3289 31.3603 81.2354 32.4208ZM68.5094 29.2001C69.0938 29.8243 69.8 30.3218 70.5844 30.662C71.3688 31.0022 72.2147 31.1777 73.0696 31.1777C73.9245 31.1777 74.7704 31.0022 75.5547 30.662C76.3391 30.3218 77.0454 29.8243 77.6297 29.2001C78.2669 28.5414 78.7658 27.7618 79.0969 26.9073C79.4281 26.0527 79.5848 25.1405 79.5579 24.2244C79.5863 23.3052 79.4303 22.3896 79.0992 21.5317C78.768 20.6738 78.2684 19.891 77.6297 19.2294C77.0376 18.6116 76.3267 18.12 75.5397 17.7842C74.7527 17.4483 73.9059 17.2752 73.0503 17.2752C72.1947 17.2752 71.3479 17.4483 70.5609 17.7842C69.7739 18.12 69.063 18.6116 68.4709 19.2294C67.8323 19.891 67.3326 20.6738 67.0014 21.5317C66.6703 22.3896 66.5143 23.3052 66.5427 24.2244C66.5183 25.1418 66.6781 26.0549 67.0126 26.9095C67.3471 27.7641 67.8495 28.543 68.4902 29.2001H68.5094ZM97.7406 45.9979C95.4295 46.0715 93.1631 45.3499 91.3198 43.9537C89.6831 42.723 88.3941 41.0882 87.5791 39.2094L91.9754 37.3772C92.4538 38.5 93.2023 39.4872 94.1542 40.2508C95.1731 41.0723 96.4517 41.5032 97.7599 41.4658C98.5895 41.5163 99.4201 41.3874 100.195 41.0878C100.971 40.7883 101.672 40.3252 102.253 39.7301C103.414 38.3285 103.988 36.5313 103.853 34.7158V33.0572H103.679C102.945 33.9301 102.017 34.6198 100.969 35.0717C99.9216 35.5237 98.7832 35.7253 97.6442 35.6608C96.1965 35.6652 94.7637 35.3692 93.4361 34.7916C92.1086 34.214 90.9153 33.3674 89.9315 32.3051C88.864 31.2513 88.0214 29.9918 87.4547 28.6028C86.8879 27.2139 86.6088 25.7243 86.6343 24.2244C86.6077 22.7156 86.886 21.2171 87.4526 19.8186C88.0192 18.4201 88.8623 17.1504 89.9315 16.0858C90.9128 15.0191 92.1053 14.1682 93.433 13.5872C94.7608 13.0061 96.1949 12.7077 97.6442 12.7108C98.8707 12.7087 100.082 12.9787 101.192 13.5015C102.152 13.9208 103.008 14.5463 103.699 15.3337H103.872V13.5015H108.654V34.0408C108.78 35.6656 108.573 37.299 108.046 38.841C107.519 40.383 106.682 41.8011 105.588 43.0087C104.546 44.0059 103.315 44.7842 101.967 45.2976C100.619 45.811 99.182 46.0492 97.7406 45.9979ZM98.0877 31.1865C98.911 31.2046 99.7283 31.0412 100.481 30.7079C101.234 30.3746 101.905 29.8796 102.445 29.2579C103.635 27.8943 104.262 26.1295 104.2 24.3208C104.271 22.4816 103.645 20.6834 102.445 19.2872C101.906 18.6646 101.236 18.1688 100.482 17.8354C99.7289 17.502 98.9112 17.3392 98.0877 17.3587C97.2418 17.3413 96.402 17.5043 95.624 17.8368C94.846 18.1694 94.1478 18.6638 93.5757 19.2872C92.3003 20.6332 91.6074 22.4282 91.6476 24.2822C91.628 25.1916 91.7882 26.096 92.1191 26.9432C92.45 27.7905 92.945 28.564 93.5757 29.2194C94.1451 29.8488 94.8419 30.3498 95.6199 30.689C96.3978 31.0282 97.2391 31.1978 98.0877 31.1865ZM117.157 1.29366V35.0051H112.125V1.29366H117.157ZM130.963 35.6994C129.456 35.7381 127.957 35.4652 126.56 34.8977C125.163 34.3303 123.899 33.4805 122.845 32.4015C121.777 31.3305 120.937 30.0533 120.377 28.6477C119.816 27.242 119.548 25.7371 119.587 24.2244C119.53 22.7079 119.779 21.1955 120.319 19.7774C120.859 18.3593 121.679 17.0644 122.73 15.9701C123.72 14.9257 124.918 14.0997 126.246 13.5451C127.574 12.9905 129.004 12.7195 130.442 12.7494C131.766 12.7354 133.078 12.9913 134.299 13.5015C135.399 13.9455 136.401 14.6007 137.249 15.4301C137.977 16.1332 138.624 16.916 139.177 17.7637C139.625 18.4794 140.005 19.2347 140.315 20.0201L140.835 21.3315L125.41 27.6765C125.876 28.7486 126.657 29.6542 127.648 30.2739C128.639 30.8936 129.795 31.1983 130.963 31.1479C132.099 31.151 133.217 30.8595 134.207 30.3018C135.197 29.7441 136.026 28.9393 136.613 27.9658L140.469 30.5694C139.485 31.9776 138.225 33.1717 136.767 34.0794C135.032 35.1755 133.014 35.7387 130.963 35.6994ZM124.523 23.8772L134.781 19.6151C134.465 18.8636 133.9 18.2438 133.18 17.8601C132.375 17.4052 131.464 17.1723 130.539 17.1851C128.97 17.2257 127.48 17.8841 126.393 19.0172C125.743 19.6396 125.238 20.398 124.915 21.2381C124.592 22.0782 124.458 22.9794 124.523 23.8772Z" fill="#5F6368"/>
</svg>
