<svg xmlns="http://www.w3.org/2000/svg" xmlns:xlink="http://www.w3.org/1999/xlink" width="280" zoomAndPan="magnify" viewBox="0 0 210 74.999997" height="100" preserveAspectRatio="xMidYMid meet" version="1.0"><defs><clipPath id="fc2d36b6e4"><path d="M 7.5 23 L 42 23 L 42 58 L 7.5 58 Z M 7.5 23 " clip-rule="nonzero"/></clipPath><clipPath id="a8e537f7c9"><path d="M 200 38 L 202.5 38 L 202.5 41 L 200 41 Z M 200 38 " clip-rule="nonzero"/></clipPath></defs><path fill="#231f20" d="M 52.054688 44.796875 C 52.054688 40.753906 55.03125 37.535156 59.328125 37.535156 C 63.628906 37.535156 63.546875 38.441406 64.867188 39.679688 L 62.882812 41.910156 C 61.808594 40.917969 60.734375 40.339844 59.328125 40.339844 C 56.933594 40.339844 55.277344 42.320312 55.277344 44.714844 C 55.277344 47.109375 56.933594 49.171875 59.328125 49.171875 C 61.726562 49.171875 61.890625 48.511719 63.050781 47.523438 L 65.03125 49.503906 C 63.628906 51.070312 61.972656 51.980469 59.328125 51.980469 C 55.195312 51.980469 52.136719 48.761719 52.136719 44.796875 Z M 52.054688 44.796875 " fill-opacity="1" fill-rule="nonzero"/><path fill="#231f20" d="M 67.429688 37.78125 L 70.488281 37.78125 C 70.488281 37.78125 70.488281 43.3125 70.488281 43.3125 L 76.191406 43.3125 C 76.191406 43.3125 76.191406 37.78125 76.191406 37.78125 L 79.25 37.78125 C 79.25 37.78125 79.25 51.730469 79.25 51.730469 L 76.191406 51.730469 C 76.191406 51.730469 76.191406 46.117188 76.191406 46.117188 L 70.488281 46.117188 C 70.488281 46.117188 70.488281 51.730469 70.488281 51.730469 L 67.429688 51.730469 C 67.429688 51.730469 67.429688 37.78125 67.429688 37.78125 Z M 67.429688 37.78125 " fill-opacity="1" fill-rule="nonzero"/><path fill="#231f20" d="M 82.96875 37.863281 L 93.550781 37.863281 C 93.550781 37.863281 93.550781 40.585938 93.550781 40.585938 L 86.027344 40.585938 C 86.027344 40.585938 86.027344 43.394531 86.027344 43.394531 L 92.640625 43.394531 C 92.640625 43.394531 92.640625 46.117188 92.640625 46.117188 L 86.027344 46.117188 C 86.027344 46.117188 86.027344 49.007812 86.027344 49.007812 L 93.632812 49.007812 C 93.632812 49.007812 93.632812 51.730469 93.632812 51.730469 L 82.96875 51.730469 C 82.96875 51.730469 82.96875 37.699219 82.96875 37.699219 Z M 82.96875 37.863281 " fill-opacity="1" fill-rule="nonzero"/><path fill="#231f20" d="M 95.699219 44.878906 C 95.699219 40.835938 98.757812 37.617188 102.976562 37.617188 C 107.191406 37.617188 107.191406 38.523438 108.511719 39.761719 L 106.527344 41.992188 C 105.453125 41 104.378906 40.421875 102.976562 40.421875 C 100.578125 40.421875 98.925781 42.402344 98.925781 44.796875 C 98.925781 47.191406 100.578125 49.253906 102.976562 49.253906 C 104.546875 49.253906 105.539062 48.59375 106.695312 47.605469 L 108.679688 49.585938 C 107.273438 51.152344 105.621094 52.0625 102.976562 52.0625 C 98.839844 52.0625 95.78125 48.84375 95.78125 44.878906 Z M 95.699219 44.878906 " fill-opacity="1" fill-rule="nonzero"/><path fill="#231f20" d="M 110.910156 37.945312 L 113.96875 37.945312 C 113.96875 37.945312 113.96875 44.054688 113.96875 44.054688 L 119.671875 37.945312 L 123.390625 37.945312 C 123.390625 37.945312 117.6875 43.890625 117.6875 43.890625 L 123.640625 51.980469 L 119.921875 51.980469 C 119.921875 51.980469 115.621094 46.035156 115.621094 46.035156 L 113.96875 47.6875 L 113.96875 51.980469 C 113.96875 51.980469 110.910156 51.980469 110.910156 51.980469 Z M 110.910156 37.945312 " fill-opacity="1" fill-rule="nonzero"/><path fill="#231f20" d="M 131.988281 37.945312 L 137.691406 37.945312 C 141 37.945312 143.066406 39.925781 143.066406 42.816406 C 143.066406 46.117188 140.503906 47.769531 137.363281 47.769531 L 135.046875 47.769531 C 135.046875 47.769531 135.046875 51.980469 135.046875 51.980469 L 131.988281 51.980469 C 131.988281 51.980469 131.988281 38.027344 131.988281 38.027344 Z M 137.445312 45.046875 C 139.015625 45.046875 139.84375 44.136719 139.925781 42.898438 C 139.925781 41.496094 138.933594 40.753906 137.445312 40.753906 L 135.046875 40.753906 C 135.046875 40.753906 135.046875 45.046875 135.046875 45.046875 L 137.527344 45.046875 Z M 137.445312 45.046875 " fill-opacity="1" fill-rule="nonzero"/><path fill="#231f20" d="M 145.050781 45.046875 C 145.050781 41 148.191406 37.78125 152.488281 37.78125 C 156.789062 37.78125 159.929688 41 159.847656 44.960938 C 159.847656 49.007812 156.707031 52.226562 152.40625 52.226562 C 148.109375 52.226562 144.96875 49.007812 145.050781 45.046875 Z M 156.707031 45.046875 C 156.707031 42.652344 154.96875 40.585938 152.488281 40.585938 C 150.007812 40.585938 148.273438 42.570312 148.273438 44.960938 C 148.273438 47.355469 150.007812 49.421875 152.488281 49.421875 C 154.96875 49.421875 156.707031 47.4375 156.707031 45.046875 Z M 156.707031 45.046875 " fill-opacity="1" fill-rule="nonzero"/><path fill="#231f20" d="M 162.90625 38.027344 L 165.964844 38.027344 C 165.964844 38.027344 165.964844 51.980469 165.964844 51.980469 L 162.90625 51.980469 C 162.90625 51.980469 162.90625 38.027344 162.90625 38.027344 Z M 162.90625 38.027344 " fill-opacity="1" fill-rule="nonzero"/><path fill="#231f20" d="M 169.847656 38.027344 L 172.660156 38.027344 C 172.660156 38.027344 179.1875 46.613281 179.1875 46.613281 L 179.1875 38.027344 C 179.1875 38.027344 182.246094 38.027344 182.246094 38.027344 L 182.246094 51.980469 C 182.246094 51.980469 179.601562 51.980469 179.601562 51.980469 L 172.824219 43.0625 L 172.824219 51.980469 C 172.824219 51.980469 169.765625 51.980469 169.765625 51.980469 L 169.765625 38.027344 Z M 169.847656 38.027344 " fill-opacity="1" fill-rule="nonzero"/><path fill="#231f20" d="M 189.273438 40.917969 L 185.058594 40.917969 C 185.058594 40.917969 185.058594 38.113281 185.058594 38.113281 L 196.632812 38.113281 C 196.632812 38.113281 196.632812 41 196.632812 41 L 192.414062 41 C 192.414062 41 192.414062 52.144531 192.414062 52.144531 L 189.355469 52.144531 C 189.355469 52.144531 189.355469 41 189.355469 41 Z M 189.273438 40.917969 " fill-opacity="1" fill-rule="nonzero"/><path fill="#231f20" d="M 49.574219 27.296875 C 47.34375 30.023438 43.375 30.433594 40.648438 28.289062 C 37.917969 26.058594 37.507812 22.097656 39.65625 19.375 C 41.886719 16.648438 45.855469 16.238281 48.582031 18.382812 C 51.3125 20.613281 51.722656 24.574219 49.574219 27.296875 Z M 49.574219 27.296875 " fill-opacity="1" fill-rule="nonzero"/><g clip-path="url(#fc2d36b6e4)"><path fill="#ee0c5d" d="M 40.976562 37.203125 C 39.242188 38.027344 37.09375 38.027344 35.273438 36.957031 L 30.316406 43.558594 C 30.976562 44.300781 31.308594 45.210938 31.308594 46.117188 C 31.308594 46.945312 31.140625 47.769531 30.644531 48.511719 C 29.40625 50.410156 26.761719 50.988281 24.859375 49.75 C 24.695312 49.585938 24.445312 49.503906 24.28125 49.335938 C 24.28125 49.335938 24.199219 49.253906 24.113281 49.171875 C 24.03125 49.089844 23.867188 48.925781 23.785156 48.761719 C 23.785156 48.761719 23.703125 48.675781 23.617188 48.59375 C 23.535156 48.429688 23.371094 48.265625 23.289062 48.015625 C 23.289062 48.015625 23.289062 47.933594 23.289062 47.851562 C 23.289062 47.6875 23.125 47.523438 23.125 47.355469 C 23.125 47.355469 23.125 47.273438 23.125 47.191406 C 23.125 47.027344 23.125 46.777344 23.039062 46.613281 C 23.039062 46.613281 23.039062 46.53125 23.039062 46.449219 C 23.039062 46.285156 23.039062 46.035156 23.039062 45.871094 C 23.039062 45.871094 23.039062 45.871094 23.039062 45.789062 C 23.039062 45.539062 23.039062 45.375 23.207031 45.128906 C 23.207031 45.128906 23.207031 45.046875 23.207031 44.960938 C 23.207031 44.714844 23.371094 44.550781 23.453125 44.300781 L 19.402344 41.25 L 18.164062 42.898438 L 13.535156 39.433594 L 17.007812 34.808594 L 21.636719 38.277344 L 20.394531 39.925781 L 24.445312 42.980469 C 25.6875 41.910156 27.503906 41.660156 29.074219 42.488281 L 34.035156 35.882812 C 32.050781 33.902344 31.554688 30.847656 33.042969 28.289062 C 33.289062 27.792969 33.703125 27.378906 34.035156 26.96875 C 31.308594 25.152344 28.082031 24.078125 24.527344 23.996094 C 15.1875 23.996094 7.582031 31.507812 7.5 40.917969 C 7.5 50.246094 15.023438 57.839844 24.445312 57.921875 C 33.785156 57.921875 41.390625 50.410156 41.472656 41 C 41.472656 39.597656 41.308594 38.277344 40.976562 37.039062 Z M 40.976562 37.203125 " fill-opacity="1" fill-rule="nonzero"/></g><path fill="#231f20" d="M 199.523438 40.09375 L 199.195312 40.09375 C 199.195312 40.09375 199.195312 38.441406 199.195312 38.441406 L 198.613281 38.441406 C 198.613281 38.441406 198.613281 38.113281 198.613281 38.113281 L 200.183594 38.113281 C 200.183594 38.113281 200.183594 38.441406 200.183594 38.441406 L 199.605469 38.441406 C 199.605469 38.441406 199.605469 40.09375 199.605469 40.09375 Z M 199.523438 40.09375 " fill-opacity="1" fill-rule="nonzero"/><g clip-path="url(#a8e537f7c9)"><path fill="#231f20" d="M 201.589844 39.597656 C 201.589844 39.597656 201.011719 38.6875 201.011719 38.6875 L 201.011719 40.09375 C 201.011719 40.09375 200.679688 40.09375 200.679688 40.09375 L 200.679688 38.195312 C 200.679688 38.195312 201.011719 38.195312 201.011719 38.195312 L 201.589844 39.101562 L 202.167969 38.195312 L 202.5 38.195312 C 202.5 38.195312 202.5 40.09375 202.5 40.09375 L 202.167969 40.09375 C 202.167969 40.09375 202.167969 38.6875 202.167969 38.6875 Z M 201.589844 39.597656 " fill-opacity="1" fill-rule="nonzero"/></g></svg>