<svg xmlns="http://www.w3.org/2000/svg" xmlns:xlink="http://www.w3.org/1999/xlink" width="280" zoomAndPan="magnify" viewBox="0 0 210 74.999997" height="100" preserveAspectRatio="xMidYMid meet" version="1.0"><defs><clipPath id="e6ec829516"><path d="M 80 46 L 152 46 L 152 67.5 L 80 67.5 Z M 80 46 " clip-rule="nonzero"/></clipPath><clipPath id="5f2c86d1e7"><path d="M 58 47 L 74 47 L 74 67.5 L 58 67.5 Z M 58 47 " clip-rule="nonzero"/></clipPath><clipPath id="3d7bb42523"><path d="M 110 47 L 126 47 L 126 67.5 L 110 67.5 Z M 110 47 " clip-rule="nonzero"/></clipPath><clipPath id="1870831857"><path d="M 48.15625 7.5 L 81 7.5 L 81 39 L 48.15625 39 Z M 48.15625 7.5 " clip-rule="nonzero"/></clipPath><clipPath id="25003ef317"><path d="M 75 7.5 L 108 7.5 L 108 39 L 75 39 Z M 75 7.5 " clip-rule="nonzero"/></clipPath><clipPath id="8081fb08f4"><path d="M 129 7.5 L 162.15625 7.5 L 162.15625 39 L 129 39 Z M 129 7.5 " clip-rule="nonzero"/></clipPath><clipPath id="9b94ad110e"><path d="M 102 7.5 L 135 7.5 L 135 39 L 102 39 Z M 102 7.5 " clip-rule="nonzero"/></clipPath></defs><g clip-path="url(#e6ec829516)"><path fill="#049fd9" d="M 104.355469 47.625 C 104.207031 47.585938 101.917969 46.996094 99.484375 46.996094 C 94.875 46.996094 92.101562 49.476562 92.101562 53.171875 C 92.101562 56.441406 94.421875 58.074219 97.207031 58.949219 C 97.515625 59.050781 97.972656 59.195312 98.273438 59.292969 C 99.515625 59.683594 100.503906 60.261719 100.503906 61.261719 C 100.503906 62.382812 99.359375 63.105469 96.875 63.105469 C 94.6875 63.105469 92.59375 62.484375 92.152344 62.371094 L 92.152344 66.917969 C 92.398438 66.96875 94.886719 67.457031 97.546875 67.457031 C 101.371094 67.457031 105.75 65.789062 105.75 60.828125 C 105.75 58.421875 104.269531 56.207031 101.027344 55.175781 L 99.648438 54.738281 C 98.824219 54.480469 97.355469 54.0625 97.355469 52.859375 C 97.355469 51.910156 98.445312 51.238281 100.449219 51.238281 C 102.175781 51.238281 104.28125 51.820312 104.355469 51.84375 Z M 146.597656 57.226562 C 146.597656 60.101562 144.390625 62.425781 141.429688 62.425781 C 138.464844 62.425781 136.261719 60.101562 136.261719 57.226562 C 136.261719 54.359375 138.464844 52.03125 141.429688 52.03125 C 144.390625 52.03125 146.597656 54.359375 146.597656 57.226562 M 141.429688 47.003906 C 135.335938 47.003906 130.96875 51.585938 130.96875 57.226562 C 130.96875 62.878906 135.335938 67.457031 141.429688 67.457031 C 147.523438 67.457031 151.898438 62.878906 151.898438 57.226562 C 151.898438 51.585938 147.523438 47.003906 141.429688 47.003906 M 85.398438 67.105469 L 80.398438 67.105469 L 80.398438 47.351562 L 85.398438 47.351562 " fill-opacity="1" fill-rule="nonzero"/></g><g clip-path="url(#5f2c86d1e7)"><path fill="#049fd9" d="M 73.527344 47.710938 C 73.058594 47.570312 71.320312 47.003906 68.96875 47.003906 C 62.886719 47.003906 58.421875 51.328125 58.421875 57.226562 C 58.421875 63.589844 63.351562 67.457031 68.96875 67.457031 C 71.203125 67.457031 72.90625 66.929688 73.527344 66.753906 L 73.527344 61.453125 C 73.3125 61.570312 71.679688 62.5 69.328125 62.5 C 66 62.5 63.851562 60.164062 63.851562 57.226562 C 63.851562 54.203125 66.089844 51.957031 69.328125 51.957031 C 71.71875 51.957031 73.328125 52.90625 73.527344 53.011719 " fill-opacity="1" fill-rule="nonzero"/></g><g clip-path="url(#3d7bb42523)"><path fill="#049fd9" d="M 125.703125 47.710938 C 125.234375 47.570312 123.5 47.003906 121.144531 47.003906 C 115.0625 47.003906 110.597656 51.328125 110.597656 57.226562 C 110.597656 63.589844 115.527344 67.457031 121.144531 67.457031 C 123.378906 67.457031 125.082031 66.929688 125.703125 66.753906 L 125.703125 61.453125 C 125.488281 61.570312 123.855469 62.5 121.503906 62.5 C 118.175781 62.5 116.027344 60.164062 116.027344 57.226562 C 116.027344 54.203125 118.265625 51.957031 121.503906 51.957031 C 123.894531 51.957031 125.503906 52.90625 125.703125 53.011719 " fill-opacity="1" fill-rule="nonzero"/></g><g clip-path="url(#1870831857)"><path fill="#049fd9" d="M 80.382812 10.003906 C 80.382812 8.644531 79.269531 7.539062 77.902344 7.539062 C 76.535156 7.539062 75.421875 8.644531 75.421875 10.003906 L 75.421875 36.234375 C 75.421875 37.605469 76.535156 38.710938 77.902344 38.710938 C 79.269531 38.710938 80.382812 37.605469 80.382812 36.234375 Z M 66.753906 19.316406 C 66.753906 17.957031 65.636719 16.847656 64.269531 16.847656 C 62.902344 16.847656 61.789062 17.957031 61.789062 19.316406 L 61.789062 31.308594 C 61.789062 32.675781 62.902344 33.78125 64.269531 33.78125 C 65.636719 33.78125 66.753906 32.675781 66.753906 31.308594 Z M 53.121094 26.121094 C 53.121094 24.761719 52.007812 23.65625 50.640625 23.65625 C 49.273438 23.65625 48.15625 24.761719 48.15625 26.121094 L 48.15625 31.308594 C 48.15625 32.675781 49.273438 33.78125 50.640625 33.78125 C 52.007812 33.78125 53.121094 32.675781 53.121094 31.308594 " fill-opacity="1" fill-rule="nonzero"/></g><g clip-path="url(#25003ef317)"><path fill="#049fd9" d="M 75.421875 10.003906 C 75.421875 8.644531 76.535156 7.539062 77.902344 7.539062 C 79.269531 7.539062 80.382812 8.644531 80.382812 10.003906 L 80.382812 36.234375 C 80.382812 37.605469 79.269531 38.710938 77.902344 38.710938 C 76.535156 38.710938 75.421875 37.605469 75.421875 36.234375 Z M 89.054688 19.316406 C 89.054688 17.957031 90.167969 16.847656 91.535156 16.847656 C 92.902344 16.847656 94.015625 17.957031 94.015625 19.316406 L 94.015625 31.308594 C 94.015625 32.675781 92.902344 33.78125 91.535156 33.78125 C 90.167969 33.78125 89.054688 32.675781 89.054688 31.308594 Z M 102.683594 26.121094 C 102.683594 24.761719 103.800781 23.65625 105.164062 23.65625 C 106.53125 23.65625 107.648438 24.761719 107.648438 26.121094 L 107.648438 31.308594 C 107.648438 32.675781 106.53125 33.78125 105.164062 33.78125 C 103.800781 33.78125 102.683594 32.675781 102.683594 31.308594 " fill-opacity="1" fill-rule="nonzero"/></g><g clip-path="url(#8081fb08f4)"><path fill="#049fd9" d="M 129.929688 10.003906 C 129.929688 8.644531 131.046875 7.539062 132.414062 7.539062 C 133.78125 7.539062 134.894531 8.644531 134.894531 10.003906 L 134.894531 36.234375 C 134.894531 37.605469 133.78125 38.710938 132.414062 38.710938 C 131.046875 38.710938 129.929688 37.605469 129.929688 36.234375 Z M 143.5625 19.316406 C 143.5625 17.957031 144.679688 16.847656 146.042969 16.847656 C 147.410156 16.847656 148.527344 17.957031 148.527344 19.316406 L 148.527344 31.308594 C 148.527344 32.675781 147.410156 33.78125 146.042969 33.78125 C 144.679688 33.78125 143.5625 32.675781 143.5625 31.308594 Z M 157.195312 26.121094 C 157.195312 24.761719 158.308594 23.65625 159.675781 23.65625 C 161.042969 23.65625 162.15625 24.761719 162.15625 26.121094 L 162.15625 31.308594 C 162.15625 32.675781 161.042969 33.78125 159.675781 33.78125 C 158.308594 33.78125 157.195312 32.675781 157.195312 31.308594 " fill-opacity="1" fill-rule="nonzero"/></g><g clip-path="url(#9b94ad110e)"><path fill="#049fd9" d="M 134.894531 10.003906 C 134.894531 8.644531 133.78125 7.539062 132.414062 7.539062 C 131.046875 7.539062 129.929688 8.644531 129.929688 10.003906 L 129.929688 36.234375 C 129.929688 37.605469 131.046875 38.710938 132.414062 38.710938 C 133.78125 38.710938 134.894531 37.605469 134.894531 36.234375 Z M 121.261719 19.316406 C 121.261719 17.957031 120.148438 16.847656 118.78125 16.847656 C 117.414062 16.847656 116.300781 17.957031 116.300781 19.316406 L 116.300781 31.308594 C 116.300781 32.675781 117.414062 33.78125 118.78125 33.78125 C 120.148438 33.78125 121.261719 32.675781 121.261719 31.308594 Z M 107.632812 26.121094 C 107.632812 24.761719 106.515625 23.65625 105.148438 23.65625 C 103.785156 23.65625 102.667969 24.761719 102.667969 26.121094 L 102.667969 31.308594 C 102.667969 32.675781 103.785156 33.78125 105.148438 33.78125 C 106.515625 33.78125 107.632812 32.675781 107.632812 31.308594 " fill-opacity="1" fill-rule="nonzero"/></g></svg>