<svg xmlns="http://www.w3.org/2000/svg" xmlns:xlink="http://www.w3.org/1999/xlink" width="280" zoomAndPan="magnify" viewBox="0 0 210 74.999997" height="100" preserveAspectRatio="xMidYMid meet" version="1.0"><path fill="#000000" d="M 116.828125 32.5 L 116.828125 28.648438 L 121.195312 28.648438 L 121.195312 46.648438 L 116.828125 46.648438 Z M 97.546875 28.648438 L 114.425781 28.648438 L 114.425781 32.515625 L 106.515625 32.515625 L 106.515625 46.648438 L 102.144531 46.648438 L 102.144531 32.515625 L 97.542969 32.515625 L 97.542969 28.648438 Z M 184.609375 28.648438 L 184.609375 32.515625 L 176.699219 32.515625 L 176.699219 46.648438 L 172.328125 46.648438 L 172.328125 32.515625 L 167.726562 32.515625 L 167.726562 28.648438 Z M 25.429688 28.648438 L 44.359375 28.648438 L 44.359375 32.515625 L 29.800781 32.515625 L 29.800781 36.363281 L 42.214844 36.363281 L 42.214844 40.226562 L 29.800781 40.226562 L 29.800781 46.644531 L 25.429688 46.644531 L 25.429688 28.644531 Z M 147.710938 28.648438 L 165.328125 28.648438 L 165.328125 32.515625 L 152.082031 32.515625 L 152.082031 35.714844 L 162.953125 35.714844 L 162.953125 39.578125 L 152.082031 39.578125 L 152.082031 42.777344 L 165.566406 42.777344 L 165.566406 46.644531 L 147.710938 46.644531 L 147.710938 28.644531 Z M 144.335938 33.734375 L 144.335938 46.648438 L 139.964844 46.648438 L 139.964844 33.734375 C 139.964844 33.0625 139.421875 32.515625 138.753906 32.515625 L 128.945312 32.515625 C 128.945312 32.515625 128.945312 46.648438 128.945312 46.648438 L 124.574219 46.648438 L 124.574219 28.648438 L 139.277344 28.648438 C 142.070312 28.648438 144.335938 30.925781 144.335938 33.734375 Z M 90.820312 28.648438 L 75.875 28.648438 C 75.875 28.648438 75.875 46.648438 75.875 46.648438 L 80.246094 46.648438 L 80.246094 40.222656 L 90.082031 40.222656 C 90.609375 40.242188 91.03125 40.675781 91.03125 41.210938 L 91.03125 46.652344 L 95.402344 46.652344 L 95.402344 41.164062 C 95.402344 40.203125 94.878906 39.367188 94.097656 38.925781 C 95.046875 38.039062 95.640625 36.777344 95.640625 35.375 L 95.640625 33.5 C 95.640625 30.824219 93.480469 28.65625 90.824219 28.65625 Z M 91.269531 35.363281 C 91.269531 35.914062 90.828125 36.359375 90.28125 36.359375 L 80.246094 36.359375 L 80.246094 32.515625 L 90.28125 32.503906 C 90.828125 32.503906 91.269531 32.949219 91.269531 33.5 L 91.269531 35.371094 Z M 91.269531 35.363281 " fill-opacity="1" fill-rule="nonzero"/><path fill="#da291c" d="M 72.503906 35.316406 L 72.503906 39.988281 L 65.277344 39.988281 L 65.277344 35.316406 Z M 56.070312 46.652344 C 56.070312 46.652344 63.296875 46.652344 63.296875 46.652344 L 63.296875 41.980469 L 56.070312 41.980469 Z M 72.5 32.5625 C 72.5 30.402344 70.757812 28.648438 68.605469 28.648438 L 65.273438 28.648438 L 65.273438 33.320312 L 72.496094 33.320312 L 72.496094 32.5625 Z M 56.070312 28.652344 L 56.070312 33.324219 L 63.296875 33.324219 L 63.296875 28.652344 C 63.296875 28.652344 56.070312 28.652344 56.070312 28.652344 Z M 46.863281 35.316406 L 46.863281 39.988281 L 54.089844 39.988281 L 54.089844 35.316406 Z M 65.277344 46.652344 L 68.609375 46.652344 C 70.757812 46.652344 72.503906 44.898438 72.503906 42.734375 L 72.503906 41.980469 L 65.28125 41.980469 L 65.28125 46.652344 Z M 46.863281 42.734375 C 46.863281 44.894531 48.605469 46.652344 50.757812 46.652344 L 54.089844 46.652344 C 54.089844 46.652344 54.089844 41.980469 54.089844 41.980469 L 46.863281 41.980469 L 46.863281 42.738281 Z M 46.863281 32.5625 L 46.863281 33.320312 L 54.089844 33.320312 L 54.089844 28.648438 L 50.757812 28.648438 C 48.609375 28.648438 46.863281 30.402344 46.863281 32.5625 Z M 46.863281 32.5625 " fill-opacity="1" fill-rule="nonzero"/></svg>