<svg xmlns="http://www.w3.org/2000/svg" xmlns:xlink="http://www.w3.org/1999/xlink" width="280" zoomAndPan="magnify" viewBox="0 0 210 74.999997" height="100" preserveAspectRatio="xMidYMid meet" version="1.0"><defs><clipPath id="b74205b434"><path d="M 102 19.796875 L 109 19.796875 L 109 46 L 102 46 Z M 102 19.796875 " clip-rule="nonzero"/></clipPath><clipPath id="2e5856113c"><path d="M 152 19.796875 L 158 19.796875 L 158 46 L 152 46 Z M 152 19.796875 " clip-rule="nonzero"/></clipPath><clipPath id="e14b08c7bb"><path d="M 170 50 L 176 50 L 176 55.046875 L 170 55.046875 Z M 170 50 " clip-rule="nonzero"/></clipPath><clipPath id="b9b2550677"><path d="M 189 50 L 194 50 L 194 55.046875 L 189 55.046875 Z M 189 50 " clip-rule="nonzero"/></clipPath></defs><path fill="#000000" d="M 90.464844 26.261719 C 87.972656 26.261719 85.386719 26.941406 82.183594 28.65625 L 83.964844 33.054688 C 86.746094 31.5 89.042969 30.824219 90.722656 30.824219 C 92.632812 30.824219 93.472656 31.535156 93.472656 32.472656 L 93.472656 32.535156 C 93.472656 33.183594 92.953125 33.539062 91.695312 33.667969 L 89.496094 33.894531 C 83.996094 34.476562 81.734375 36.871094 81.734375 40.167969 L 81.734375 40.394531 C 81.734375 43.53125 84.320312 45.988281 87.972656 45.988281 C 90.378906 45.988281 92.472656 44.972656 93.742188 43.179688 L 94.152344 45.664062 L 99.132812 45.664062 L 99.132812 34.378906 C 99.132812 29.042969 96.058594 26.261719 90.464844 26.261719 M 89.980469 41.6875 C 88.136719 41.6875 87.261719 40.972656 87.261719 39.875 L 87.261719 39.808594 C 87.261719 38.839844 87.8125 38.128906 89.816406 37.839844 L 90.691406 37.707031 C 91.96875 37.53125 92.75 37.296875 93.472656 36.859375 L 93.472656 38.289062 C 93.472656 40.457031 92.113281 41.6875 89.980469 41.6875 " fill-opacity="1" fill-rule="nonzero"/><path fill="#f04e23" d="M 27.652344 42.363281 L 43.632812 26.390625 L 37.257812 20.023438 L 30.882812 26.390625 L 34.054688 29.5625 L 18.082031 45.535156 L 24.449219 51.910156 L 30.824219 45.535156 Z M 27.652344 42.363281 " fill-opacity="1" fill-rule="nonzero"/><path fill="#f04e23" d="M 8.539062 35.996094 L 24.519531 20.019531 L 30.890625 26.390625 L 14.910156 42.367188 Z M 8.539062 35.996094 " fill-opacity="1" fill-rule="nonzero"/><path fill="#f04e23" d="M 30.820312 45.546875 L 46.800781 29.570312 L 53.171875 35.9375 L 37.191406 51.914062 Z M 30.820312 45.546875 " fill-opacity="1" fill-rule="nonzero"/><g clip-path="url(#b74205b434)"><path fill="#000000" d="M 102.359375 19.796875 L 108.019531 19.796875 L 108.019531 45.664062 L 102.359375 45.664062 Z M 102.359375 19.796875 " fill-opacity="1" fill-rule="nonzero"/></g><path fill="#000000" d="M 72.222656 26.261719 C 69.648438 26.261719 67.582031 27.402344 66.445312 29.183594 L 66.011719 26.585938 L 61.03125 26.585938 L 61.03125 52.125 L 66.691406 52.125 L 66.691406 43.269531 C 67.769531 44.929688 69.804688 45.980469 72.222656 45.980469 C 76.75 45.980469 80.4375 41.972656 80.4375 36.441406 L 80.4375 35.792969 C 80.4375 30.265625 76.75 26.257812 72.222656 26.257812 M 74.613281 36.28125 C 74.613281 39.191406 73.09375 41.292969 70.570312 41.292969 C 68.050781 41.292969 66.527344 39.191406 66.527344 36.28125 L 66.527344 35.957031 C 66.527344 33.046875 68.050781 30.945312 70.570312 30.945312 C 73.09375 30.945312 74.613281 33.046875 74.613281 35.957031 Z M 74.613281 36.28125 " fill-opacity="1" fill-rule="nonzero"/><path fill="#000000" d="M 184.425781 26.261719 C 178.636719 26.261719 174.5625 30.273438 174.5625 35.800781 L 174.5625 36.449219 C 174.5625 41.980469 178.636719 45.988281 184.425781 45.988281 C 190.214844 45.988281 194.292969 41.980469 194.292969 36.449219 L 194.292969 35.800781 C 194.292969 30.273438 190.214844 26.261719 184.425781 26.261719 M 188.46875 36.289062 C 188.46875 39.195312 186.949219 41.300781 184.425781 41.300781 C 181.90625 41.300781 180.382812 39.199219 180.382812 36.289062 L 180.382812 35.964844 C 180.382812 33.054688 181.90625 30.953125 184.425781 30.953125 C 186.949219 30.953125 188.46875 33.054688 188.46875 35.964844 Z M 188.46875 36.289062 " fill-opacity="1" fill-rule="nonzero"/><path fill="#000000" d="M 199.511719 27.425781 L 199.511719 27.332031 C 199.511719 26.78125 199.09375 26.394531 198.347656 26.394531 L 197.054688 26.394531 L 197.054688 29.367188 L 197.667969 29.367188 L 197.667969 28.363281 L 198.351562 28.363281 L 198.867188 29.367188 L 199.542969 29.367188 L 198.914062 28.191406 C 199.296875 28.074219 199.511719 27.785156 199.511719 27.425781 M 197.667969 26.941406 L 198.347656 26.941406 C 198.734375 26.941406 198.894531 27.070312 198.894531 27.363281 L 198.894531 27.394531 C 198.894531 27.65625 198.734375 27.816406 198.347656 27.816406 L 197.667969 27.816406 Z M 197.667969 26.941406 " fill-opacity="1" fill-rule="nonzero"/><path fill="#000000" d="M 198.230469 24.808594 C 196.484375 24.808594 195.160156 26.132812 195.160156 27.878906 C 195.160156 29.625 196.484375 30.953125 198.230469 30.953125 C 199.976562 30.953125 201.304688 29.625 201.304688 27.878906 C 201.304688 26.132812 199.976562 24.808594 198.230469 24.808594 M 198.230469 30.53125 C 196.710938 30.53125 195.609375 29.429688 195.609375 27.878906 C 195.609375 26.328125 196.710938 25.226562 198.230469 25.226562 C 199.75 25.226562 200.851562 26.328125 200.851562 27.878906 C 200.851562 29.429688 199.75 30.53125 198.230469 30.53125 " fill-opacity="1" fill-rule="nonzero"/><g clip-path="url(#2e5856113c)"><path fill="#000000" d="M 152.265625 19.796875 L 157.925781 19.796875 L 157.925781 45.664062 L 152.265625 45.664062 Z M 152.265625 19.796875 " fill-opacity="1" fill-rule="nonzero"/></g><path fill="#000000" d="M 169.058594 41.292969 C 167.410156 41.292969 166.792969 40.484375 166.792969 38.742188 L 166.792969 30.945312 L 173.457031 30.945312 L 173.457031 26.582031 L 166.792969 26.582031 L 166.792969 22.214844 L 161.136719 23.054688 L 161.136719 39.289062 C 161.136719 43.71875 163.398438 45.984375 167.925781 45.984375 C 169.933594 45.984375 172.292969 45.371094 174.234375 44.269531 L 172.617188 40.261719 C 171.484375 40.875 169.898438 41.296875 169.058594 41.296875 " fill-opacity="1" fill-rule="nonzero"/><path fill="#000000" d="M 140.300781 26.261719 C 137.808594 26.261719 135.222656 26.941406 132.019531 28.65625 L 133.796875 33.054688 C 136.578125 31.5 138.875 30.824219 140.558594 30.824219 C 142.464844 30.824219 143.308594 31.535156 143.308594 32.472656 L 143.308594 32.535156 C 143.308594 33.183594 142.789062 33.539062 141.527344 33.667969 L 139.332031 33.894531 C 133.832031 34.476562 131.566406 36.871094 131.566406 40.167969 L 131.566406 40.394531 C 131.566406 43.53125 134.15625 45.988281 137.808594 45.988281 C 140.214844 45.988281 142.304688 44.972656 143.578125 43.179688 L 143.984375 45.664062 L 148.96875 45.664062 L 148.96875 34.378906 C 148.96875 29.042969 145.894531 26.261719 140.300781 26.261719 M 139.8125 41.6875 C 137.96875 41.6875 137.097656 40.972656 137.097656 39.875 L 137.097656 39.808594 C 137.097656 38.839844 137.648438 38.128906 139.652344 37.839844 L 140.527344 37.707031 C 141.800781 37.53125 142.585938 37.296875 143.304688 36.859375 L 143.304688 38.289062 C 143.304688 40.457031 141.949219 41.6875 139.8125 41.6875 " fill-opacity="1" fill-rule="nonzero"/><path fill="#000000" d="M 120.40625 26.261719 C 114.617188 26.261719 110.539062 30.273438 110.539062 35.800781 L 110.539062 36.449219 C 110.539062 41.980469 114.617188 45.988281 120.40625 45.988281 C 126.195312 45.988281 130.269531 41.980469 130.269531 36.449219 L 130.269531 35.800781 C 130.269531 30.273438 126.195312 26.261719 120.40625 26.261719 M 124.445312 36.289062 C 124.445312 39.195312 122.925781 41.300781 120.402344 41.300781 C 117.878906 41.300781 116.359375 39.199219 116.359375 36.289062 L 116.359375 35.964844 C 116.359375 33.054688 117.878906 30.953125 120.402344 30.953125 C 122.925781 30.953125 124.445312 33.054688 124.445312 35.964844 Z M 124.445312 36.289062 " fill-opacity="1" fill-rule="nonzero"/><path fill="#000000" d="M 146.972656 54.910156 L 144.925781 52.207031 L 144.910156 52.207031 L 144.910156 54.910156 L 143.570312 54.910156 L 143.570312 50.257812 L 145.023438 50.257812 L 147.03125 52.890625 L 147.042969 52.890625 L 147.042969 50.257812 L 148.382812 50.257812 L 148.382812 54.910156 Z M 146.972656 54.910156 " fill-opacity="1" fill-rule="nonzero"/><path fill="#000000" d="M 151.554688 53.046875 L 151.554688 53.773438 L 154.402344 53.773438 L 154.257812 54.910156 L 150.148438 54.910156 L 150.148438 50.257812 L 154.257812 50.257812 L 154.257812 51.382812 L 151.554688 51.382812 L 151.554688 52.023438 L 153.691406 52.023438 L 153.691406 53.046875 Z M 151.554688 53.046875 " fill-opacity="1" fill-rule="nonzero"/><path fill="#000000" d="M 157.246094 54.910156 L 157.246094 51.453125 L 155.539062 51.453125 L 155.539062 50.257812 L 160.09375 50.257812 L 160.234375 51.453125 L 158.527344 51.453125 L 158.527344 54.910156 Z M 157.246094 54.910156 " fill-opacity="1" fill-rule="nonzero"/><path fill="#000000" d="M 167.066406 53.488281 L 167.777344 50.257812 L 169.199219 50.257812 L 167.921875 54.910156 L 166.210938 54.910156 L 165.359375 52.09375 L 165.214844 52.09375 L 164.363281 54.910156 L 162.511719 54.910156 L 161.375 50.257812 L 162.796875 50.257812 L 163.652344 53.488281 L 164.648438 50.257812 L 166.070312 50.257812 L 166.925781 53.488281 Z M 167.066406 53.488281 " fill-opacity="1" fill-rule="nonzero"/><g clip-path="url(#e14b08c7bb)"><path fill="#000000" d="M 170.195312 52.578125 C 170.195312 51.0625 171.226562 50.109375 172.855469 50.109375 C 174.484375 50.109375 175.519531 51.0625 175.519531 52.578125 C 175.519531 54.09375 174.488281 55.042969 172.855469 55.042969 C 171.226562 55.042969 170.195312 54.09375 170.195312 52.578125 M 174.128906 52.578125 C 174.128906 51.773438 173.664062 51.292969 172.855469 51.292969 C 172.050781 51.292969 171.585938 51.773438 171.585938 52.578125 C 171.585938 53.382812 172.050781 53.859375 172.851562 53.859375 C 173.65625 53.859375 174.128906 53.382812 174.128906 52.578125 " fill-opacity="1" fill-rule="nonzero"/></g><path fill="#000000" d="M 177.027344 50.257812 L 179.742188 50.257812 C 180.976562 50.257812 181.585938 50.84375 181.585938 51.925781 C 181.585938 52.671875 181.277344 53.179688 180.679688 53.417969 L 181.785156 54.914062 L 180.199219 54.914062 L 179.34375 53.691406 L 178.425781 53.691406 L 178.425781 54.914062 L 177.027344 54.914062 Z M 179.5625 52.597656 C 180.027344 52.597656 180.191406 52.339844 180.191406 51.988281 C 180.191406 51.632812 180.027344 51.382812 179.5625 51.382812 L 178.421875 51.382812 L 178.421875 52.597656 Z M 179.5625 52.597656 " fill-opacity="1" fill-rule="nonzero"/><path fill="#000000" d="M 186.5625 52.492188 L 188.410156 54.898438 L 188.410156 54.910156 L 186.847656 54.910156 L 185.421875 53.117188 L 184.855469 53.117188 L 184.855469 54.910156 L 183.429688 54.910156 L 183.429688 50.257812 L 184.855469 50.257812 L 184.855469 51.964844 L 185.421875 51.964844 L 186.703125 50.257812 L 188.410156 50.257812 Z M 186.5625 52.492188 " fill-opacity="1" fill-rule="nonzero"/><g clip-path="url(#b9b2550677)"><path fill="#000000" d="M 189.550781 54.597656 L 189.550781 53.320312 L 189.558594 53.320312 C 190.335938 53.714844 191.09375 53.90625 191.75 53.90625 C 192.25 53.90625 192.503906 53.785156 192.503906 53.554688 C 192.503906 53.320312 192.335938 53.261719 191.339844 53.101562 C 190.25 52.929688 189.523438 52.601562 189.523438 51.664062 C 189.523438 50.792969 190.289062 50.121094 191.785156 50.121094 C 192.382812 50.121094 193.007812 50.25 193.585938 50.496094 L 193.585938 51.757812 L 193.582031 51.765625 C 193.027344 51.445312 192.285156 51.246094 191.683594 51.246094 C 191.152344 51.246094 190.941406 51.371094 190.941406 51.585938 C 190.941406 51.859375 191.265625 51.882812 192.085938 52.023438 C 193.175781 52.210938 193.902344 52.515625 193.902344 53.5 C 193.902344 54.265625 193.328125 55.03125 191.6875 55.03125 C 190.875 55.03125 190.230469 54.863281 189.550781 54.597656 " fill-opacity="1" fill-rule="nonzero"/></g></svg>