<svg xmlns="http://www.w3.org/2000/svg" xmlns:xlink="http://www.w3.org/1999/xlink" width="280" zoomAndPan="magnify" viewBox="0 0 210 74.999997" height="100" preserveAspectRatio="xMidYMid meet" version="1.0"><defs><clipPath id="a3098c1c24"><path d="M 7.5 20 L 41 20 L 41 51 L 7.5 51 Z M 7.5 20 " clip-rule="nonzero"/></clipPath></defs><path fill="#fc0000" d="M 38.539062 37.203125 L 38.539062 36.859375 L 35.609375 34.339844 L 35.269531 34.339844 C 34.460938 35.230469 33.21875 35.894531 31.828125 35.894531 C 29.65625 35.894531 27.945312 34.242188 27.945312 31.972656 C 27.945312 29.699219 29.65625 28.046875 31.828125 28.046875 C 33.21875 28.046875 34.460938 28.710938 35.269531 29.601562 L 35.609375 29.601562 L 38.539062 27.082031 L 38.539062 26.738281 C 37 24.863281 34.585938 23.652344 31.851562 23.652344 C 26.824219 23.652344 23.015625 27.207031 23.015625 31.972656 C 23.015625 32.15625 23.058594 32.324219 23.070312 32.507812 C 25.125 33.902344 26.941406 35.023438 28.507812 36.046875 C 30.761719 37.46875 32.582031 38.78125 34.082031 40 C 35.949219 39.527344 37.464844 38.503906 38.539062 37.203125 M 24.847656 37.113281 C 26.023438 38.554688 27.679688 39.585938 29.636719 40.027344 C 28.316406 39.285156 27.035156 38.558594 25.84375 37.753906 C 25.496094 37.539062 25.183594 37.328125 24.847656 37.113281 " fill-opacity="1" fill-rule="nonzero"/><path fill="#fc0000" d="M 55.5 39.226562 L 54.765625 36.070312 L 54.496094 35.894531 C 54.351562 35.96875 54.230469 36.070312 53.863281 36.070312 C 53.300781 36.070312 52.960938 35.476562 52.667969 35.007812 C 52.179688 34.265625 51.789062 33.871094 51.445312 33.699219 C 53.226562 32.910156 54.425781 31.429688 54.425781 29.308594 C 54.425781 26.023438 52.179688 23.949219 48.003906 23.949219 L 40.730469 23.949219 L 40.730469 39.992188 L 45.5625 39.992188 L 45.5625 34.367188 L 46.003906 34.367188 C 47.078125 34.367188 48.445312 36.6875 49.078125 37.722656 C 50.398438 39.820312 51.445312 40.289062 53.324219 40.289062 C 54.203125 40.289062 54.9375 39.96875 55.375 39.574219 Z M 49.492188 29.578125 C 49.492188 30.640625 48.710938 31.15625 47.808594 31.15625 L 45.5625 31.15625 L 45.5625 27.898438 L 47.808594 27.898438 C 48.710938 27.898438 49.492188 28.492188 49.492188 29.578125 Z M 49.492188 29.578125 " fill-opacity="1" fill-rule="nonzero"/><path fill="#fc0000" d="M 74.167969 31.976562 C 74.167969 27.214844 70.363281 23.660156 65.308594 23.660156 C 60.253906 23.660156 56.449219 27.214844 56.449219 31.976562 C 56.449219 36.738281 60.253906 40.292969 65.308594 40.292969 C 70.363281 40.292969 74.167969 36.714844 74.167969 31.976562 M 69.238281 31.976562 C 69.238281 34.269531 67.480469 35.902344 65.308594 35.902344 C 63.136719 35.902344 61.378906 34.269531 61.378906 31.976562 C 61.378906 29.679688 63.136719 28.050781 65.308594 28.050781 C 67.480469 28.050781 69.238281 29.679688 69.238281 31.976562 " fill-opacity="1" fill-rule="nonzero"/><path fill="#fc0000" d="M 84.941406 23.957031 L 81.933594 32.785156 L 79.082031 23.957031 L 74.460938 23.957031 L 74.25 24.324219 L 80.152344 39.996094 L 83.082031 39.996094 L 86.40625 31.253906 L 89.742188 39.996094 L 92.671875 39.996094 L 98.589844 24.324219 L 98.363281 23.957031 L 93.753906 23.957031 L 90.890625 32.839844 L 87.871094 23.957031 Z M 84.941406 23.957031 " fill-opacity="1" fill-rule="nonzero"/><path fill="#fc0000" d="M 116.28125 31.953125 C 116.28125 27.164062 113.082031 23.957031 107.882812 23.957031 L 100.484375 23.957031 L 100.484375 40 L 107.882812 40 C 113.082031 40 116.28125 36.789062 116.28125 31.953125 M 111.347656 31.976562 C 111.347656 34.59375 109.808594 36.050781 107.6875 36.050781 L 105.320312 36.050781 L 105.320312 27.90625 L 107.6875 27.90625 C 109.808594 27.90625 111.347656 29.363281 111.347656 31.976562 " fill-opacity="1" fill-rule="nonzero"/><path fill="#fc0000" d="M 132.269531 27.902344 L 137.003906 27.902344 L 137.003906 39.996094 L 141.847656 39.996094 L 141.847656 27.902344 L 146.691406 27.902344 L 146.691406 23.957031 L 132.269531 23.957031 Z M 132.269531 27.902344 " fill-opacity="1" fill-rule="nonzero"/><path fill="#fc0000" d="M 162.128906 29.308594 C 162.128906 26.027344 159.882812 23.953125 155.710938 23.953125 L 148.4375 23.953125 L 148.4375 39.996094 L 153.269531 39.996094 L 153.269531 34.371094 L 154.417969 34.371094 L 157.417969 39.996094 L 162.226562 39.996094 L 162.449219 39.625 L 159.226562 33.679688 C 160.957031 32.863281 162.128906 31.410156 162.128906 29.308594 M 157.199219 29.582031 C 157.199219 30.644531 156.417969 31.160156 155.515625 31.160156 L 153.269531 31.160156 L 153.269531 27.902344 L 155.515625 27.902344 C 156.417969 27.902344 157.199219 28.496094 157.199219 29.582031 " fill-opacity="1" fill-rule="nonzero"/><path fill="#fc0000" d="M 165.058594 39.996094 L 169.90625 39.996094 L 169.90625 23.957031 L 165.058594 23.957031 Z M 165.058594 39.996094 " fill-opacity="1" fill-rule="nonzero"/><path fill="#fc0000" d="M 177.792969 29.65625 L 177.792969 23.957031 L 172.949219 23.957031 L 172.949219 39.996094 L 177.792969 39.996094 L 177.792969 35.058594 L 178.695312 34.023438 L 182.75 39.996094 L 187.820312 39.996094 L 188.046875 39.625 L 182.1875 31.132812 L 187.597656 24.324219 L 187.484375 23.957031 L 182.300781 23.957031 Z M 177.792969 29.65625 " fill-opacity="1" fill-rule="nonzero"/><path fill="#fc0000" d="M 194.246094 36.046875 L 194.246094 33.832031 L 199.765625 33.832031 L 199.765625 30.125 L 194.246094 30.125 L 194.246094 27.902344 L 201.457031 27.902344 L 201.457031 23.953125 L 189.398438 23.953125 L 189.398438 39.996094 L 201.570312 39.996094 L 201.570312 36.046875 Z M 194.246094 36.046875 " fill-opacity="1" fill-rule="nonzero"/><path fill="#fc0000" d="M 124.496094 40.183594 C 128.035156 40.183594 131.109375 38.457031 131.109375 35.128906 C 131.109375 31.496094 128.011719 30.558594 125.277344 29.769531 C 124.203125 29.449219 123.101562 29.078125 123.101562 28.289062 C 123.101562 27.71875 123.710938 27.375 124.640625 27.375 C 126.226562 27.375 127.570312 28.363281 128.253906 29.003906 L 128.59375 29.003906 L 130.863281 26.289062 L 130.863281 25.945312 C 129.667969 24.589844 127.230469 23.550781 124.542969 23.550781 C 120.785156 23.550781 118.171875 25.574219 118.171875 28.511719 C 118.171875 31.671875 121.050781 33.054688 123.492188 33.746094 C 125.082031 34.1875 126.15625 34.261719 126.15625 35.128906 C 126.15625 35.746094 125.398438 36.113281 124.226562 36.113281 C 122.734375 36.113281 120.929688 35.152344 120.050781 34.289062 L 119.710938 34.289062 L 117.464844 37.101562 L 117.464844 37.445312 C 118.90625 39.050781 121.492188 40.183594 124.496094 40.183594 " fill-opacity="1" fill-rule="nonzero"/><path fill="#fc0000" d="M 41.132812 54.933594 C 39.960938 52.257812 37.609375 48.824219 28.398438 43.921875 C 24.148438 41.566406 16.894531 37.933594 10.367188 31.03125 C 10.960938 33.523438 13.992188 38.996094 27.023438 45.824219 C 30.632812 47.796875 36.738281 49.644531 41.132812 54.925781 " fill-opacity="1" fill-rule="nonzero"/><g clip-path="url(#a3098c1c24)"><path fill="#fc0000" d="M 40.546875 50.355469 C 39.433594 47.191406 37.429688 43.144531 27.914062 37.136719 C 23.28125 34.105469 16.476562 30.296875 7.527344 20.597656 C 8.167969 23.214844 10.996094 30.015625 25.253906 38.84375 C 29.9375 42.011719 35.980469 43.96875 40.546875 50.355469 " fill-opacity="1" fill-rule="nonzero"/></g></svg>