<svg xmlns="http://www.w3.org/2000/svg" xmlns:xlink="http://www.w3.org/1999/xlink" width="280" zoomAndPan="magnify" viewBox="0 0 210 74.999997" height="100" preserveAspectRatio="xMidYMid meet" version="1.0"><defs><clipPath id="a78e4d665b"><path d="M 171 7.542969 L 178 7.542969 L 178 14 L 171 14 Z M 171 7.542969 " clip-rule="nonzero"/></clipPath><clipPath id="bea7158452"><path d="M 29.167969 10 L 180.667969 10 L 180.667969 67.457031 L 29.167969 67.457031 Z M 29.167969 10 " clip-rule="nonzero"/></clipPath></defs><g clip-path="url(#a78e4d665b)"><path fill="#0094a1" d="M 174.839844 9.875 C 174.839844 9.792969 174.839844 9.792969 174.839844 9.707031 C 174.839844 9.625 174.757812 9.625 174.671875 9.542969 C 174.589844 9.542969 174.507812 9.457031 174.507812 9.457031 C 174.421875 9.457031 174.339844 9.457031 174.257812 9.457031 L 174.007812 9.457031 L 174.007812 10.292969 L 174.171875 10.292969 C 174.339844 10.292969 174.421875 10.292969 174.507812 10.292969 C 174.589844 10.292969 174.671875 10.207031 174.757812 10.207031 C 174.839844 10.207031 174.839844 10.125 174.839844 10.042969 C 174.839844 10.042969 174.839844 9.957031 174.839844 9.875 M 176.171875 12.042969 L 175.171875 12.042969 L 174.257812 10.957031 L 174.007812 10.957031 L 174.007812 12.042969 L 173.257812 12.042969 L 173.257812 9.042969 L 174.421875 9.042969 C 174.671875 9.042969 174.839844 9.042969 174.921875 9.042969 C 175.089844 9.042969 175.171875 9.125 175.339844 9.207031 C 175.503906 9.292969 175.589844 9.375 175.671875 9.457031 C 175.753906 9.542969 175.753906 9.707031 175.753906 9.875 C 175.753906 10.125 175.671875 10.292969 175.589844 10.457031 C 175.503906 10.625 175.339844 10.707031 175.089844 10.792969 Z M 176.835938 10.625 C 176.835938 9.957031 176.585938 9.375 176.171875 8.957031 C 175.671875 8.457031 175.171875 8.207031 174.507812 8.207031 C 173.839844 8.207031 173.257812 8.457031 172.84375 8.957031 C 172.34375 9.457031 172.175781 9.957031 172.175781 10.625 C 172.175781 11.292969 172.425781 11.875 172.84375 12.292969 C 173.339844 12.792969 173.839844 13.042969 174.507812 13.042969 C 175.171875 13.042969 175.753906 12.792969 176.171875 12.292969 C 176.585938 11.792969 176.835938 11.292969 176.835938 10.625 M 177.503906 10.625 C 177.503906 11.457031 177.171875 12.207031 176.585938 12.792969 C 176.003906 13.375 175.257812 13.707031 174.421875 13.707031 C 173.589844 13.707031 172.84375 13.375 172.257812 12.792969 C 171.675781 12.207031 171.34375 11.457031 171.34375 10.625 C 171.34375 9.792969 171.675781 9.042969 172.257812 8.457031 C 172.84375 7.875 173.589844 7.542969 174.421875 7.542969 C 175.257812 7.542969 176.003906 7.875 176.585938 8.457031 C 177.253906 9.042969 177.503906 9.792969 177.503906 10.625 " fill-opacity="1" fill-rule="nonzero"/></g><g clip-path="url(#bea7158452)"><path fill="#0094a1" d="M 50.058594 10.625 C 42.570312 10.625 36.160156 14.542969 32.746094 20.042969 C 29.832031 25.207031 29.167969 33.542969 29.167969 39.042969 C 29.167969 44.542969 29.832031 52.957031 32.746094 58.042969 C 36.074219 63.542969 42.484375 67.457031 50.058594 67.457031 L 159.773438 67.457031 C 167.265625 67.457031 173.675781 63.542969 177.085938 58.042969 C 180 52.957031 180.667969 44.542969 180.667969 39.042969 C 180.667969 33.542969 180 25.125 177.085938 20.042969 C 173.757812 14.542969 167.347656 10.625 159.773438 10.625 Z M 50.058594 10.625 " fill-opacity="1" fill-rule="nonzero"/></g><path fill="#ffffff" d="M 123.0625 35.957031 L 132.304688 35.957031 L 132.304688 35.707031 C 132.304688 31.457031 130.636719 31.207031 127.558594 31.207031 C 123.8125 31.125 123.148438 32.292969 123.0625 35.957031 M 58.21875 31.375 C 61.214844 31.375 62.878906 31.707031 62.878906 35.792969 L 62.878906 35.957031 L 53.804688 35.957031 C 53.890625 32.457031 54.636719 31.375 58.21875 31.375 M 45.398438 39.207031 C 45.398438 49.125 47.894531 52.707031 58.382812 52.707031 C 62.296875 52.707031 65.460938 52.375 67.789062 51.125 C 69.957031 49.875 71.285156 47.707031 71.285156 43.792969 L 63.046875 43.792969 C 62.960938 46.625 61.046875 46.957031 58.382812 46.957031 C 54.554688 46.957031 53.804688 45.375 53.804688 40.625 L 53.804688 40.457031 L 71.285156 40.457031 L 71.285156 39.207031 C 71.285156 28.375 68.375 25.625 58.382812 25.625 C 47.730469 25.625 45.398438 28.957031 45.398438 39.207031 M 76.863281 34.292969 C 76.863281 39.625 78.695312 42.042969 89.851562 42.042969 C 90.847656 42.042969 92.429688 41.957031 93.347656 42.375 C 94.179688 42.792969 94.59375 43.542969 94.59375 44.875 C 94.59375 47.207031 93.761719 47.457031 89.765625 47.457031 C 87.601562 47.457031 85.355469 47.375 85.1875 44.457031 L 76.863281 44.457031 C 76.949219 50.292969 79.695312 52.207031 84.855469 52.625 C 86.4375 52.707031 88.101562 52.707031 89.851562 52.707031 C 96.925781 52.707031 102.835938 51.542969 102.835938 43.875 C 102.835938 36.542969 99.007812 36.042969 89.851562 35.792969 C 85.273438 35.707031 85.023438 34.707031 85.023438 33.207031 C 85.023438 31.457031 85.1875 30.875 89.851562 30.875 C 91.515625 30.875 93.261719 31.042969 93.597656 33.125 L 101.503906 33.125 L 101.503906 32.042969 C 101.503906 25.707031 94.84375 25.625 89.851562 25.625 C 82.273438 25.625 76.863281 25.792969 76.863281 34.292969 M 145.789062 25.625 L 166.433594 25.625 L 166.433594 31.707031 L 160.273438 31.707031 L 160.273438 52.457031 L 151.863281 52.457031 L 151.863281 31.707031 L 145.707031 31.707031 L 145.707031 25.625 Z M 114.824219 39.042969 C 114.824219 28.792969 117.070312 25.542969 127.726562 25.542969 C 137.628906 25.542969 140.542969 28.207031 140.542969 39.042969 L 140.542969 40.207031 L 123.0625 40.207031 L 123.0625 40.457031 C 123.0625 45.207031 123.8125 46.875 127.726562 46.875 C 130.304688 46.875 132.304688 46.625 132.46875 43.707031 L 140.542969 43.707031 C 140.460938 47.457031 139.210938 49.625 137.046875 50.875 C 134.800781 52.125 131.636719 52.457031 127.726562 52.457031 C 117.320312 52.457031 114.824219 48.957031 114.824219 39.042969 M 39.320312 57.457031 C 35.078125 52.875 34.160156 45.792969 34.160156 39.042969 C 34.160156 32.292969 35.078125 25.207031 39.320312 20.625 C 41.984375 17.792969 47.148438 15.625 51.476562 15.625 L 107.996094 15.625 L 107.996094 62.457031 L 51.476562 62.457031 C 47.0625 62.457031 41.984375 60.292969 39.320312 57.457031 " fill-opacity="1" fill-rule="nonzero"/></svg>