<svg xmlns="http://www.w3.org/2000/svg" xmlns:xlink="http://www.w3.org/1999/xlink" width="280" zoomAndPan="magnify" viewBox="0 0 210 74.999997" height="100" preserveAspectRatio="xMidYMid meet" version="1.0"><path fill="#009982" d="M 95.390625 37.480469 C 95.390625 44.714844 90.984375 48.144531 85.472656 48.144531 L 82.117188 48.144531 L 82.117188 43.785156 L 85.226562 43.785156 C 88.554688 43.785156 90.769531 41.992188 90.769531 37.449219 C 90.769531 32.964844 88.675781 30.738281 85.132812 30.738281 C 81.714844 30.738281 79.28125 32.84375 79.28125 37.355469 L 79.28125 55.535156 L 74.664062 55.535156 L 74.664062 26.96875 L 79.25 26.96875 L 79.25 29.441406 L 79.898438 29.441406 C 81.4375 27.371094 83.6875 26.441406 86.058594 26.441406 C 91.140625 26.441406 95.390625 30.152344 95.390625 37.480469 Z M 65.207031 35.59375 L 62.15625 35.285156 C 59.753906 35.066406 58.492188 34.417969 58.492188 32.996094 C 58.492188 31.328125 60.125 30.367188 62.433594 30.367188 C 64.835938 30.367188 66.378906 31.511719 66.5 33.121094 L 70.90625 33.121094 C 70.71875 28.976562 67.546875 26.441406 62.464844 26.441406 C 57.351562 26.441406 53.902344 29.164062 53.902344 33.152344 C 53.902344 36.488281 55.996094 38.65625 60.773438 39.117188 L 63.882812 39.425781 C 65.761719 39.613281 67.023438 39.984375 67.023438 41.808594 C 67.023438 43.445312 65.855469 44.621094 62.742188 44.621094 C 59.878906 44.621094 58.460938 43.324219 57.96875 41.558594 L 53.195312 41.558594 C 53.65625 45.546875 57.015625 48.640625 62.742188 48.640625 C 68.132812 48.640625 71.613281 45.796875 71.613281 41.558594 C 71.582031 37.882812 69.148438 35.964844 65.207031 35.59375 Z M 113.160156 41.589844 C 112.453125 43.261719 110.730469 44.496094 108.265625 44.496094 C 104.90625 44.496094 102.414062 42.300781 102.414062 37.574219 C 102.414062 33.058594 104.722656 30.554688 108.328125 30.554688 C 111.53125 30.554688 113.347656 32.472656 113.53125 35.378906 L 105.277344 35.378906 L 105.277344 38.714844 L 118.058594 38.714844 L 118.058594 36.519531 C 118.058594 30.429688 114.023438 26.472656 108.296875 26.472656 C 102.96875 26.472656 97.855469 30.121094 97.855469 37.574219 C 97.855469 45.023438 102.96875 48.671875 108.296875 48.671875 C 113.160156 48.671875 116.671875 45.640625 117.75 41.589844 Z M 40.75 26.441406 C 35.730469 26.441406 31.972656 29.070312 31.511719 33.121094 L 36.441406 33.121094 C 36.777344 31.636719 38.132812 30.523438 40.722656 30.523438 C 44.046875 30.523438 45.125 32.285156 45.125 34.417969 L 45.125 41.652344 C 43.246094 43.816406 41.058594 44.804688 38.871094 44.804688 C 36.59375 44.804688 35.023438 43.695312 35.023438 41.746094 C 35.023438 39.859375 36.253906 38.683594 38.597656 38.683594 L 42.261719 38.683594 L 42.261719 35.378906 L 38.441406 35.378906 C 33.207031 35.378906 30.25 38.003906 30.25 42.054688 C 30.25 45.828125 33.082031 48.671875 37.765625 48.671875 C 40.382812 48.671875 42.691406 47.621094 44.417969 46.351562 L 45.0625 46.351562 L 45.0625 48.144531 L 49.652344 48.144531 L 49.652344 34.015625 C 49.777344 28.792969 46.234375 26.441406 40.75 26.441406 Z M 9.613281 48.144531 L 14.203125 48.144531 L 14.203125 19.175781 L 9.613281 19.175781 Z M 28.894531 26.96875 L 23.289062 26.96875 L 16.605469 35.808594 L 16.605469 38.5625 L 23.472656 48.144531 L 29.171875 48.144531 L 21.101562 37.171875 Z M 194.933594 26.96875 L 191.175781 35.347656 C 190.253906 37.355469 189.390625 39.335938 189.113281 40.664062 L 188.46875 40.664062 C 188.191406 39.335938 187.296875 37.417969 186.371094 35.40625 L 182.617188 26.96875 L 177.535156 26.96875 L 186.371094 45.980469 L 182 55.566406 L 186.898438 55.566406 L 200.015625 26.96875 Z M 176.515625 26.96875 L 170.910156 26.96875 L 164.226562 35.777344 L 164.226562 38.53125 L 171.097656 48.113281 L 176.792969 48.113281 L 168.753906 37.140625 Z M 147.75 35.59375 L 144.699219 35.285156 C 142.296875 35.066406 141.035156 34.417969 141.035156 32.996094 C 141.035156 31.328125 142.667969 30.367188 144.976562 30.367188 C 147.378906 30.367188 148.921875 31.511719 149.042969 33.121094 L 153.449219 33.121094 C 153.261719 28.976562 150.089844 26.441406 145.007812 26.441406 C 139.894531 26.441406 136.445312 29.164062 136.445312 33.152344 C 136.445312 36.488281 138.539062 38.65625 143.316406 39.117188 L 146.425781 39.425781 C 148.304688 39.613281 149.566406 39.984375 149.566406 41.808594 C 149.566406 43.445312 148.398438 44.621094 145.285156 44.621094 C 142.421875 44.621094 141.003906 43.324219 140.511719 41.558594 L 135.738281 41.558594 C 136.199219 45.546875 139.558594 48.640625 145.285156 48.640625 C 150.675781 48.640625 154.15625 45.796875 154.15625 41.558594 C 154.15625 37.882812 151.691406 35.964844 147.75 35.59375 Z M 157.238281 48.144531 L 161.824219 48.144531 L 161.824219 19.175781 L 157.238281 19.175781 Z M 126.929688 29.441406 L 126.28125 29.441406 L 126.28125 26.96875 L 121.695312 26.96875 L 121.695312 48.144531 L 126.28125 48.144531 L 126.28125 37.078125 C 126.28125 33.304688 128.007812 31.109375 131.457031 31.109375 L 134.351562 31.109375 L 134.351562 26.441406 L 132.65625 26.441406 C 129.484375 26.441406 128.128906 27.648438 126.929688 29.441406 Z M 126.929688 29.441406 " fill-opacity="1" fill-rule="nonzero"/></svg>