<svg xmlns="http://www.w3.org/2000/svg" xmlns:xlink="http://www.w3.org/1999/xlink" width="280" zoomAndPan="magnify" viewBox="0 0 210 74.999997" height="100" preserveAspectRatio="xMidYMid meet" version="1.0"><defs><clipPath id="bf0d1222a4"><path d="M 198 25 L 202.5 25 L 202.5 29 L 198 29 Z M 198 25 " clip-rule="nonzero"/></clipPath><clipPath id="b594907aff"><path d="M 7.5 18 L 25 18 L 25 56.828125 L 7.5 56.828125 Z M 7.5 18 " clip-rule="nonzero"/></clipPath><clipPath id="39418ac581"><path d="M 24 18 L 41 18 L 41 56.828125 L 24 56.828125 Z M 24 18 " clip-rule="nonzero"/></clipPath></defs><path fill="#c01818" d="M 104.886719 42.957031 L 99.800781 39.984375 L 99.4375 40.570312 C 98.304688 42.371094 96.714844 43.269531 94.761719 43.269531 C 91.402344 43.269531 88.90625 40.75 88.90625 37.464844 C 88.90625 34.132812 91.445312 31.65625 94.761719 31.65625 C 96.757812 31.65625 98.210938 32.511719 99.4375 34.359375 L 99.800781 34.945312 L 104.886719 31.972656 L 104.433594 31.34375 C 101.980469 27.832031 98.847656 26.167969 94.714844 26.167969 C 86.953125 26.167969 82.777344 32.019531 82.777344 37.507812 C 82.777344 43 86.953125 48.851562 94.714844 48.851562 C 98.667969 48.851562 102.390625 46.871094 104.433594 43.628906 Z M 104.886719 42.957031 " fill-opacity="1" fill-rule="nonzero"/><path fill="#c01818" d="M 104.613281 48.761719 L 111.605469 48.761719 L 113.695312 43.628906 L 124.183594 43.628906 L 126.269531 48.761719 L 133.308594 48.761719 L 120.777344 18.742188 L 114.511719 18.742188 L 116.191406 22.746094 L 104.613281 48.761719 M 119.007812 30.578125 L 121.820312 37.644531 L 116.101562 37.644531 Z M 119.007812 30.578125 " fill-opacity="1" fill-rule="nonzero"/><path fill="#c01818" d="M 136.214844 48.804688 L 142.34375 48.804688 L 142.34375 35.304688 L 146.335938 35.304688 L 146.335938 29.632812 L 142.34375 29.632812 L 142.34375 26.976562 C 142.34375 25.808594 143.113281 24.589844 144.566406 24.589844 C 145.339844 24.589844 145.839844 24.726562 146.292969 24.90625 L 146.972656 25.175781 L 149.515625 19.640625 L 148.835938 19.414062 C 147.699219 18.964844 146.109375 18.785156 144.976562 18.785156 C 142.207031 18.785156 139.890625 19.6875 138.347656 21.394531 C 136.984375 22.882812 136.214844 24.953125 136.214844 27.246094 L 136.214844 29.675781 L 133.488281 29.675781 L 133.488281 35.347656 L 136.214844 35.347656 Z M 136.214844 48.804688 " fill-opacity="1" fill-rule="nonzero"/><path fill="#c01818" d="M 73.46875 31.476562 L 73.46875 48.761719 L 80.140625 48.761719 L 80.140625 18.558594 L 67.019531 28.371094 L 53.855469 18.558594 L 53.855469 48.714844 L 60.527344 48.761719 L 60.527344 31.476562 L 67.019531 36.25 Z M 73.46875 31.476562 " fill-opacity="1" fill-rule="nonzero"/><path fill="#c01818" d="M 160.183594 26.167969 C 152.464844 26.167969 148.289062 31.972656 148.289062 37.464844 C 148.289062 42.957031 152.464844 48.761719 160.183594 48.761719 C 163.726562 48.714844 167.039062 47.140625 169.628906 44.214844 L 164.632812 41.515625 C 163.363281 42.820312 161.773438 43.496094 160.046875 43.496094 C 157.507812 43.496094 155.28125 41.832031 154.691406 39.625 L 171.398438 39.625 L 171.398438 38.140625 C 171.445312 29.902344 164.863281 26.210938 160.183594 26.167969 Z M 154.828125 34.71875 C 155.644531 32.648438 157.371094 31.476562 159.59375 31.476562 C 161.863281 31.476562 163.636719 32.648438 164.542969 34.765625 Z M 154.828125 34.71875 " fill-opacity="1" fill-rule="nonzero"/><path fill="#c01818" d="M 185.292969 26.210938 C 177.574219 26.210938 173.398438 32.019531 173.398438 37.507812 C 173.398438 43 177.574219 48.804688 185.292969 48.804688 C 188.832031 48.761719 192.148438 47.1875 194.734375 44.261719 L 189.742188 41.558594 C 188.46875 42.867188 186.882812 43.539062 185.15625 43.539062 C 182.613281 43.539062 180.386719 41.875 179.796875 39.667969 L 196.507812 39.667969 L 196.507812 38.183594 C 196.550781 29.949219 189.96875 26.210938 185.292969 26.210938 Z M 179.933594 34.71875 C 180.75 32.648438 182.476562 31.433594 184.703125 31.476562 C 186.972656 31.476562 188.742188 32.648438 189.652344 34.765625 Z M 179.933594 34.71875 " fill-opacity="1" fill-rule="nonzero"/><path fill="#c01818" d="M 195.734375 25.175781 L 198.320312 25.175781 L 198.320312 25.671875 L 197.277344 25.671875 L 197.277344 28.371094 L 196.734375 28.371094 L 196.734375 25.671875 L 195.734375 25.671875 Z M 195.734375 25.175781 " fill-opacity="1" fill-rule="nonzero"/><g clip-path="url(#bf0d1222a4)"><path fill="#c01818" d="M 198.730469 25.175781 L 199.503906 25.175781 L 200.410156 27.652344 L 201.273438 25.175781 L 202.046875 25.175781 L 202.046875 28.371094 L 201.5 28.371094 L 201.5 25.898438 L 200.59375 28.371094 L 200.136719 28.371094 L 199.230469 25.898438 L 199.230469 28.371094 L 198.683594 28.371094 L 198.683594 25.175781 Z M 198.730469 25.175781 " fill-opacity="1" fill-rule="nonzero"/></g><g clip-path="url(#b594907aff)"><path fill="#c01818" d="M 24.433594 26.078125 L 7.953125 18.515625 L 7.953125 48.582031 L 24.433594 56.144531 L 24.433594 48.761719 L 14.71875 44.304688 L 14.71875 29.003906 L 24.433594 33.457031 Z M 24.433594 26.078125 " fill-opacity="1" fill-rule="nonzero"/></g><g clip-path="url(#39418ac581)"><path fill="#75160d" d="M 24.433594 26.078125 L 40.960938 18.515625 L 40.960938 48.582031 L 24.433594 56.144531 L 24.433594 48.761719 L 34.195312 44.304688 L 34.195312 29.003906 L 24.433594 33.457031 Z M 24.433594 26.078125 " fill-opacity="1" fill-rule="nonzero"/></g></svg>