<svg xmlns="http://www.w3.org/2000/svg" xmlns:xlink="http://www.w3.org/1999/xlink" width="280" zoomAndPan="magnify" viewBox="0 0 210 74.999997" height="100" preserveAspectRatio="xMidYMid meet" version="1.0"><defs><clipPath id="9fba99ecbb"><path d="M 17 20.8125 L 23 20.8125 L 23 48 L 17 48 Z M 17 20.8125 " clip-rule="nonzero"/></clipPath><clipPath id="a95bf0d4d9"><path d="M 23 26 L 28 26 L 28 53.8125 L 23 53.8125 Z M 23 26 " clip-rule="nonzero"/></clipPath><clipPath id="7209fffaa9"><path d="M 12 26 L 17 26 L 17 53.8125 L 12 53.8125 Z M 12 26 " clip-rule="nonzero"/></clipPath><clipPath id="5da24a2217"><path d="M 6.441406 22 L 11 22 L 11 51 L 6.441406 51 Z M 6.441406 22 " clip-rule="nonzero"/></clipPath><clipPath id="7522b1560c"><path d="M 200 31 L 203.691406 31 L 203.691406 36 L 200 36 Z M 200 31 " clip-rule="nonzero"/></clipPath></defs><g clip-path="url(#9fba99ecbb)"><path fill="#6b0aea" d="M 17.597656 20.835938 L 22.089844 20.835938 L 22.089844 47.386719 L 17.597656 47.386719 Z M 17.597656 20.835938 " fill-opacity="1" fill-rule="nonzero"/></g><g clip-path="url(#a95bf0d4d9)"><path fill="#6b0aea" d="M 23.179688 53.789062 L 27.667969 51.039062 L 27.667969 28.054688 C 26.320312 27.066406 24.824219 26.410156 23.179688 26.085938 Z M 23.179688 53.789062 " fill-opacity="1" fill-rule="evenodd"/></g><g clip-path="url(#7209fffaa9)"><path fill="#6b0aea" d="M 12.007812 51.054688 L 16.5 53.804688 L 16.5 26.101562 C 14.851562 26.417969 13.355469 27.070312 12.007812 28.054688 Z M 12.007812 51.054688 " fill-opacity="1" fill-rule="evenodd"/></g><path fill="#6b0aea" d="M 28.757812 22.097656 L 28.757812 50.558594 L 30.84375 49.28125 C 31.601562 48.789062 32.195312 48.144531 32.621094 47.351562 C 33.046875 46.554688 33.25 45.710938 33.238281 44.8125 L 33.238281 31.371094 C 33.25 27.492188 28.757812 22.097656 28.757812 22.097656 Z M 28.757812 22.097656 " fill-opacity="1" fill-rule="evenodd"/><g clip-path="url(#5da24a2217)"><path fill="#6b0aea" d="M 6.441406 44.800781 C 6.429688 45.699219 6.632812 46.546875 7.058594 47.339844 C 7.484375 48.132812 8.078125 48.777344 8.839844 49.269531 L 10.925781 50.550781 L 10.925781 22.097656 C 10.925781 22.097656 6.441406 27.492188 6.441406 31.371094 Z M 6.441406 44.800781 " fill-opacity="1" fill-rule="evenodd"/></g><path fill="#040404" d="M 140.90625 47.699219 L 140.90625 26.761719 L 144.144531 25.414062 L 144.144531 47.699219 Z M 135.800781 38.929688 C 135.816406 38.355469 135.714844 37.808594 135.488281 37.28125 C 135.265625 36.753906 134.941406 36.296875 134.515625 35.90625 C 133.652344 35.128906 132.636719 34.753906 131.46875 34.78125 C 130.308594 34.746094 129.304688 35.125 128.460938 35.90625 C 127.597656 36.734375 127.132812 37.742188 127.070312 38.929688 Z M 131.40625 47.949219 C 129.125 47.949219 127.269531 47.226562 125.839844 45.777344 C 124.410156 44.332031 123.699219 42.410156 123.710938 40.015625 C 123.710938 37.621094 124.429688 35.707031 125.875 34.265625 C 127.320312 32.824219 129.1875 32.105469 131.476562 32.109375 C 133.769531 32.109375 135.625 32.796875 137.042969 34.171875 C 138.457031 35.546875 139.171875 37.351562 139.179688 39.589844 C 139.183594 40.09375 139.144531 40.59375 139.066406 41.089844 L 127.035156 41.089844 C 127.054688 42.285156 127.496094 43.300781 128.359375 44.140625 C 129.214844 44.925781 130.226562 45.300781 131.394531 45.265625 C 133.164062 45.265625 134.40625 44.550781 135.128906 43.121094 L 138.636719 43.121094 C 138.167969 44.566406 137.304688 45.730469 136.054688 46.613281 C 134.652344 47.566406 133.105469 48.011719 131.40625 47.949219 Z M 111.015625 32.359375 L 111.015625 34.765625 C 112.058594 32.984375 113.734375 32.09375 116.035156 32.09375 C 116.851562 32.070312 117.644531 32.203125 118.402344 32.503906 C 119.164062 32.800781 119.832031 33.238281 120.410156 33.8125 C 121.570312 34.960938 122.148438 36.5625 122.148438 38.625 L 122.148438 47.699219 L 118.929688 47.699219 L 118.929688 39.125 C 118.929688 37.75 118.582031 36.695312 117.882812 35.964844 C 117.507812 35.585938 117.066406 35.300781 116.5625 35.109375 C 116.0625 34.917969 115.542969 34.835938 115.003906 34.867188 C 114.460938 34.835938 113.9375 34.914062 113.425781 35.105469 C 112.917969 35.292969 112.46875 35.578125 112.085938 35.957031 C 111.371094 36.691406 111.015625 37.742188 111.015625 39.117188 L 111.015625 47.699219 L 107.765625 47.699219 L 107.765625 32.359375 Z M 101.722656 47.699219 L 101.722656 32.359375 L 104.972656 32.359375 L 104.972656 47.699219 Z M 99.367188 34.949219 L 95.542969 34.949219 L 95.542969 43.4375 C 95.496094 43.910156 95.632812 44.324219 95.957031 44.679688 C 96.230469 44.929688 96.699219 45.054688 97.367188 45.054688 L 99.363281 45.054688 L 99.363281 47.699219 L 96.796875 47.699219 C 93.785156 47.699219 92.277344 46.277344 92.277344 43.4375 L 92.277344 29.890625 L 95.554688 28.546875 L 95.554688 32.359375 L 99.382812 32.359375 Z M 79.65625 32.359375 L 79.65625 34.765625 C 80.6875 32.996094 82.363281 32.109375 84.683594 32.109375 C 85.5 32.082031 86.292969 32.21875 87.050781 32.519531 C 87.8125 32.816406 88.484375 33.253906 89.0625 33.828125 C 90.21875 34.972656 90.800781 36.578125 90.800781 38.640625 L 90.800781 47.699219 L 87.574219 47.699219 L 87.574219 39.125 C 87.574219 37.75 87.226562 36.695312 86.53125 35.964844 C 86.15625 35.585938 85.714844 35.300781 85.210938 35.109375 C 84.710938 34.917969 84.191406 34.835938 83.652344 34.867188 C 83.109375 34.832031 82.578125 34.910156 82.066406 35.101562 C 81.554688 35.292969 81.105469 35.578125 80.71875 35.957031 C 80.007812 36.691406 79.648438 37.742188 79.648438 39.117188 L 79.648438 47.699219 L 76.398438 47.699219 L 76.398438 32.359375 Z M 71.308594 38.929688 C 71.324219 38.355469 71.222656 37.808594 71 37.28125 C 70.773438 36.753906 70.449219 36.296875 70.027344 35.90625 C 69.152344 35.121094 68.128906 34.746094 66.949219 34.78125 C 65.789062 34.746094 64.785156 35.125 63.941406 35.90625 C 63.074219 36.734375 62.613281 37.742188 62.550781 38.929688 Z M 66.898438 47.949219 C 64.617188 47.949219 62.765625 47.226562 61.335938 45.777344 C 59.90625 44.332031 59.195312 42.410156 59.199219 40.015625 C 59.199219 37.621094 59.921875 35.707031 61.367188 34.265625 C 62.8125 32.824219 64.679688 32.105469 66.96875 32.109375 C 69.257812 32.109375 71.113281 32.796875 72.53125 34.171875 C 73.953125 35.546875 74.664062 37.351562 74.671875 39.589844 C 74.675781 40.09375 74.636719 40.59375 74.558594 41.089844 L 62.523438 41.089844 C 62.542969 42.285156 62.988281 43.304688 63.851562 44.140625 C 64.707031 44.929688 65.71875 45.304688 66.890625 45.265625 C 68.65625 45.265625 69.902344 44.550781 70.625 43.121094 L 74.128906 43.121094 C 73.660156 44.566406 72.796875 45.730469 71.546875 46.613281 C 70.144531 47.566406 68.597656 48.011719 66.898438 47.949219 Z M 50.699219 30.691406 C 49.824219 30.652344 49.035156 30.890625 48.335938 31.410156 C 48.019531 31.671875 47.785156 31.984375 47.625 32.355469 C 47.460938 32.726562 47.394531 33.113281 47.417969 33.515625 C 47.402344 33.9375 47.488281 34.335938 47.6875 34.710938 C 47.882812 35.085938 48.160156 35.386719 48.519531 35.613281 C 49.324219 36.132812 50.199219 36.488281 51.140625 36.671875 C 52.164062 36.902344 53.191406 37.160156 54.21875 37.441406 C 55.246094 37.730469 56.117188 38.265625 56.828125 39.050781 C 57.546875 39.828125 57.910156 40.933594 57.910156 42.367188 C 57.914062 43.796875 57.296875 45.078125 56.058594 46.203125 C 54.820312 47.339844 53.167969 47.910156 51.097656 47.921875 C 49.027344 47.933594 47.347656 47.460938 46.054688 46.5 C 45.417969 46.046875 44.925781 45.476562 44.582031 44.777344 C 44.238281 44.082031 44.082031 43.347656 44.113281 42.574219 L 47.589844 42.574219 C 47.632812 43.386719 47.953125 44.0625 48.558594 44.609375 C 49.128906 45.109375 49.96875 45.359375 51.070312 45.359375 C 52.050781 45.414062 52.917969 45.136719 53.679688 44.523438 C 53.945312 44.292969 54.160156 44.023438 54.324219 43.710938 C 54.484375 43.398438 54.582031 43.066406 54.617188 42.71875 C 54.652344 42.367188 54.621094 42.027344 54.523438 41.6875 C 54.421875 41.351562 54.265625 41.042969 54.046875 40.765625 C 53.628906 40.316406 53.125 39.996094 52.539062 39.804688 C 51.871094 39.578125 51.191406 39.386719 50.5 39.234375 C 49.757812 39.070312 49.011719 38.875 48.261719 38.648438 C 47.542969 38.441406 46.859375 38.152344 46.210938 37.789062 C 45.558594 37.410156 45.054688 36.894531 44.695312 36.242188 C 44.277344 35.460938 44.082031 34.632812 44.113281 33.753906 C 44.085938 32.964844 44.238281 32.214844 44.566406 31.496094 C 44.894531 30.78125 45.363281 30.171875 45.980469 29.671875 C 47.226562 28.640625 48.839844 28.125 50.828125 28.125 C 52.8125 28.125 54.402344 28.558594 55.585938 29.429688 C 56.777344 30.320312 57.4375 31.609375 57.570312 33.296875 L 53.976562 33.296875 C 53.910156 32.546875 53.585938 31.925781 53.007812 31.433594 C 52.335938 30.886719 51.566406 30.640625 50.699219 30.691406 Z M 50.699219 30.691406 " fill-opacity="1" fill-rule="evenodd"/><path fill="#040404" d="M 191.738281 33.234375 C 190.65625 33.21875 189.632812 33.449219 188.664062 33.921875 C 187.699219 34.398438 186.945312 35.097656 186.398438 36.015625 C 185.777344 37.09375 185.480469 38.253906 185.503906 39.496094 L 197.695312 39.496094 C 197.808594 38.261719 197.570312 37.097656 196.984375 36.003906 C 196.464844 35.074219 195.722656 34.375 194.761719 33.90625 C 193.808594 33.449219 192.800781 33.222656 191.738281 33.234375 Z M 191.679688 46.539062 C 193.121094 46.585938 194.429688 46.203125 195.609375 45.390625 C 196.136719 45.019531 196.566406 44.5625 196.902344 44.019531 C 197.238281 43.476562 197.453125 42.890625 197.546875 42.257812 L 198.886719 42.257812 C 198.765625 43.027344 198.503906 43.742188 198.101562 44.410156 C 197.699219 45.078125 197.1875 45.648438 196.5625 46.121094 C 195.300781 47.097656 193.695312 47.585938 191.738281 47.585938 C 190.359375 47.613281 189.066406 47.304688 187.851562 46.660156 C 186.695312 46.035156 185.804688 45.144531 185.179688 43.996094 C 184.492188 42.707031 184.171875 41.332031 184.210938 39.875 C 184.175781 38.433594 184.5 37.074219 185.179688 35.800781 C 185.800781 34.65625 186.691406 33.765625 187.84375 33.136719 C 189.054688 32.496094 190.351562 32.1875 191.726562 32.210938 C 193.105469 32.175781 194.398438 32.484375 195.609375 33.136719 C 196.671875 33.714844 197.496094 34.523438 198.085938 35.566406 C 198.652344 36.566406 198.933594 37.636719 198.929688 38.78125 C 198.925781 39.273438 198.878906 39.761719 198.785156 40.246094 L 185.503906 40.246094 C 185.480469 41.5 185.777344 42.671875 186.398438 43.765625 C 186.9375 44.683594 187.6875 45.382812 188.648438 45.859375 C 189.605469 46.324219 190.617188 46.550781 191.679688 46.539062 Z M 175.84375 32.101562 C 177.664062 32.101562 179.144531 32.65625 180.285156 33.757812 C 181.425781 34.863281 181.996094 36.492188 181.992188 38.644531 L 181.992188 47.394531 L 180.714844 47.394531 L 180.714844 38.707031 C 180.714844 36.90625 180.246094 35.527344 179.324219 34.582031 C 178.398438 33.640625 177.121094 33.160156 175.496094 33.160156 C 174.742188 33.128906 174.011719 33.25 173.3125 33.527344 C 172.609375 33.804688 171.992188 34.210938 171.46875 34.75 C 170.453125 35.808594 169.945312 37.367188 169.945312 39.425781 L 169.945312 47.394531 L 168.664062 47.394531 L 168.664062 32.40625 L 169.945312 32.40625 L 169.945312 36.355469 C 170.257812 35.019531 170.988281 33.960938 172.125 33.179688 C 173.25 32.433594 174.488281 32.074219 175.84375 32.101562 Z M 156.558594 29.234375 C 155.042969 29.214844 153.625 29.574219 152.304688 30.316406 C 151.007812 31.050781 150.011719 32.070312 149.3125 33.378906 C 148.542969 34.832031 148.179688 36.378906 148.21875 38.019531 C 148.179688 39.660156 148.546875 41.203125 149.3125 42.65625 C 150.011719 43.960938 151.007812 44.984375 152.304688 45.71875 C 152.953125 46.074219 153.640625 46.339844 154.359375 46.523438 C 155.078125 46.703125 155.808594 46.796875 156.554688 46.796875 C 157.296875 46.796875 158.027344 46.703125 158.746094 46.523438 C 159.464844 46.339844 160.152344 46.074219 160.800781 45.71875 C 162.101562 44.988281 163.105469 43.964844 163.808594 42.65625 C 164.574219 41.203125 164.941406 39.660156 164.902344 38.019531 C 164.941406 36.382812 164.574219 34.835938 163.808594 33.382812 C 163.105469 32.074219 162.105469 31.054688 160.800781 30.320312 C 159.488281 29.582031 158.074219 29.21875 156.558594 29.234375 Z M 156.558594 28.105469 C 158.332031 28.078125 159.992188 28.496094 161.53125 29.363281 C 163.019531 30.203125 164.167969 31.371094 164.976562 32.867188 C 165.835938 34.480469 166.246094 36.199219 166.214844 38.019531 C 166.242188 39.835938 165.832031 41.546875 164.976562 43.15625 C 164.167969 44.652344 163.019531 45.828125 161.53125 46.679688 C 160.773438 47.097656 159.972656 47.410156 159.128906 47.628906 C 158.289062 47.84375 157.433594 47.949219 156.5625 47.949219 C 155.695312 47.949219 154.839844 47.84375 153.996094 47.628906 C 153.15625 47.410156 152.355469 47.097656 151.59375 46.679688 C 150.097656 45.828125 148.9375 44.652344 148.117188 43.148438 C 147.257812 41.546875 146.84375 39.835938 146.878906 38.019531 C 146.84375 36.195312 147.261719 34.476562 148.128906 32.867188 C 148.949219 31.363281 150.109375 30.191406 151.609375 29.347656 C 153.144531 28.492188 154.796875 28.078125 156.558594 28.105469 Z M 156.558594 28.105469 " fill-opacity="1" fill-rule="evenodd"/><path fill="#040404" d="M 202.382812 34.429688 L 202.035156 33.910156 L 201.75 33.910156 L 201.75 34.429688 L 201.402344 34.429688 L 201.402344 32.804688 L 202.152344 32.804688 C 202.542969 32.804688 202.773438 33.007812 202.773438 33.339844 C 202.785156 33.59375 202.667969 33.761719 202.425781 33.839844 L 202.828125 34.421875 Z M 202.382812 33.359375 C 202.382812 33.207031 202.273438 33.125 202.097656 33.125 L 201.75 33.125 L 201.75 33.59375 L 202.113281 33.59375 C 202.289062 33.59375 202.390625 33.5 202.390625 33.363281 Z M 202.382812 33.359375 " fill-opacity="1" fill-rule="nonzero"/><g clip-path="url(#7522b1560c)"><path fill="#040404" d="M 202.007812 35.328125 C 201.785156 35.328125 201.570312 35.285156 201.363281 35.199219 C 201.15625 35.117188 200.972656 34.996094 200.816406 34.839844 C 200.65625 34.683594 200.535156 34.503906 200.449219 34.300781 C 200.363281 34.09375 200.320312 33.882812 200.320312 33.660156 C 200.320312 33.4375 200.363281 33.226562 200.449219 33.023438 C 200.53125 32.816406 200.65625 32.636719 200.8125 32.480469 C 200.972656 32.324219 201.152344 32.203125 201.359375 32.117188 C 201.566406 32.035156 201.78125 31.992188 202.007812 31.992188 C 202.230469 31.992188 202.445312 32.035156 202.652344 32.121094 C 202.859375 32.203125 203.042969 32.324219 203.199219 32.480469 C 203.359375 32.640625 203.480469 32.820312 203.566406 33.023438 C 203.648438 33.230469 203.691406 33.441406 203.691406 33.664062 C 203.691406 33.882812 203.648438 34.09375 203.5625 34.300781 C 203.476562 34.503906 203.355469 34.683594 203.199219 34.839844 C 203.039062 34.992188 202.859375 35.113281 202.652344 35.199219 C 202.445312 35.285156 202.230469 35.324219 202.007812 35.328125 Z M 202.007812 32.359375 C 201.835938 32.359375 201.667969 32.394531 201.503906 32.460938 C 201.34375 32.527344 201.199219 32.621094 201.078125 32.742188 C 200.953125 32.863281 200.859375 33.003906 200.792969 33.164062 C 200.726562 33.324219 200.691406 33.488281 200.691406 33.664062 C 200.691406 33.835938 200.726562 34 200.792969 34.160156 C 200.859375 34.320312 200.953125 34.460938 201.078125 34.582031 C 201.199219 34.707031 201.34375 34.800781 201.503906 34.867188 C 201.667969 34.933594 201.835938 34.964844 202.007812 34.964844 C 202.183594 34.964844 202.351562 34.933594 202.511719 34.867188 C 202.675781 34.800781 202.816406 34.707031 202.941406 34.582031 C 203.066406 34.460938 203.160156 34.320312 203.226562 34.160156 C 203.292969 34 203.328125 33.835938 203.328125 33.664062 C 203.328125 33.488281 203.292969 33.324219 203.226562 33.164062 C 203.160156 33.003906 203.066406 32.863281 202.941406 32.742188 C 202.816406 32.621094 202.675781 32.527344 202.511719 32.460938 C 202.351562 32.394531 202.183594 32.359375 202.007812 32.359375 Z M 202.007812 32.359375 " fill-opacity="1" fill-rule="nonzero"/></g></svg>