<svg xmlns="http://www.w3.org/2000/svg" xmlns:xlink="http://www.w3.org/1999/xlink" width="280" zoomAndPan="magnify" viewBox="0 0 210 74.999997" height="100" preserveAspectRatio="xMidYMid meet" version="1.0"><path fill="#100f0d" d="M 72.652344 42.964844 C 69.042969 42.964844 66.746094 41.589844 65.695312 40.769531 L 65.585938 40.683594 L 65.660156 40.570312 L 67.164062 38.214844 L 67.25 38.078125 L 67.378906 38.175781 C 68.894531 39.285156 70.71875 39.894531 72.59375 39.910156 C 74.742188 39.910156 75.972656 38.972656 75.972656 37.347656 C 75.972656 35.558594 74.523438 35.046875 71.898438 34.121094 L 71.589844 34.015625 C 68.953125 33.09375 66.511719 31.753906 66.511719 28.175781 C 66.511719 24.957031 68.988281 22.878906 72.8125 22.878906 C 75.082031 22.878906 76.847656 23.292969 78.359375 24.179688 L 78.480469 24.25 L 78.421875 24.378906 L 77.21875 26.867188 L 77.148438 27.007812 L 77.011719 26.9375 C 75.730469 26.277344 74.308594 25.9375 72.871094 25.941406 C 71.503906 25.941406 69.875 26.3125 69.875 28.089844 C 69.875 29.824219 71.15625 30.257812 73.710938 31.09375 C 76.484375 32 79.445312 33.300781 79.445312 37.289062 C 79.445312 40.847656 76.90625 42.972656 72.652344 42.972656 L 72.652344 42.964844 " fill-opacity="1" fill-rule="nonzero"/><path fill="#100f0d" d="M 82.164062 47.808594 C 81.480469 47.808594 80.796875 47.722656 80.132812 47.5625 L 79.996094 47.53125 L 80.019531 47.390625 L 80.375 45.054688 L 80.398438 44.910156 L 80.542969 44.925781 L 80.773438 44.957031 C 81.117188 45.007812 81.460938 45.035156 81.808594 45.039062 C 83.144531 45.039062 84 44.53125 84.570312 43.398438 L 79.5625 28.65625 L 79.492188 28.457031 L 83.207031 28.457031 L 83.242188 28.566406 L 86.148438 38.984375 L 88.746094 28.566406 L 88.773438 28.449219 L 92.292969 28.449219 L 92.234375 28.644531 L 87.777344 43.242188 C 86.832031 46.359375 85.046875 47.808594 82.164062 47.808594 " fill-opacity="1" fill-rule="nonzero"/><path fill="#100f0d" d="M 112.695312 42.71875 L 109.113281 42.71875 L 109.113281 33.179688 C 109.113281 31.988281 108.867188 31.195312 107.679688 31.195312 C 106.859375 31.195312 105.898438 31.683594 104.902344 32.617188 L 104.902344 42.722656 L 101.320312 42.722656 L 101.320312 33.183594 C 101.320312 31.992188 101.078125 31.199219 99.886719 31.199219 C 99.019531 31.199219 98.003906 31.734375 97.113281 32.671875 L 97.113281 42.726562 L 93.527344 42.726562 L 93.527344 28.453125 L 95.785156 28.453125 L 95.820312 28.558594 L 96.453125 30.507812 C 97.933594 28.917969 99.4375 28.144531 101.035156 28.144531 C 103.0625 28.144531 103.894531 29.253906 104.363281 30.296875 C 105.367188 29.277344 106.910156 28.144531 108.828125 28.144531 C 112.023438 28.144531 112.695312 30.890625 112.695312 33.195312 L 112.695312 42.71875 " fill-opacity="1" fill-rule="nonzero"/><path fill="#100f0d" d="M 122.316406 35.960938 C 119.972656 36.417969 118.816406 36.847656 118.347656 37.433594 C 118.058594 37.769531 117.96875 38.046875 117.96875 38.625 C 117.96875 39.6875 118.542969 40.253906 119.625 40.253906 C 120.609375 40.21875 121.554688 39.859375 122.316406 39.234375 Z M 118.886719 42.964844 C 116.253906 42.964844 114.414062 41.269531 114.414062 38.847656 C 114.414062 37.285156 114.957031 36.191406 116.121094 35.40625 C 117.285156 34.617188 119.28125 34.007812 122.316406 33.566406 L 122.316406 33.203125 C 122.316406 31.640625 121.75 31.054688 120.226562 31.054688 C 118.925781 31.054688 117.605469 31.601562 116.382812 32.191406 L 116.25 32.253906 L 116.183594 32.125 L 115.035156 29.957031 L 114.96875 29.832031 L 115.089844 29.753906 C 116.890625 28.648438 118.566406 28.144531 120.527344 28.144531 C 124.042969 28.144531 125.898438 29.964844 125.898438 33.414062 L 125.898438 42.710938 L 123.652344 42.710938 L 123.613281 42.617188 L 123.015625 41.234375 C 122.121094 42.050781 120.722656 42.96875 118.886719 42.96875 L 118.886719 42.964844 " fill-opacity="1" fill-rule="nonzero"/><path fill="#100f0d" d="M 140.660156 42.71875 L 137.078125 42.71875 L 137.078125 33.179688 C 137.078125 31.789062 136.589844 31.195312 135.453125 31.195312 C 134.496094 31.195312 133.375 31.769531 132.515625 32.695312 L 132.515625 42.722656 L 128.929688 42.722656 L 128.929688 28.453125 L 131.1875 28.453125 L 131.222656 28.558594 L 131.851562 30.523438 C 133.328125 28.925781 134.882812 28.152344 136.597656 28.152344 C 139.292969 28.152344 140.660156 29.851562 140.660156 33.203125 L 140.660156 42.71875 " fill-opacity="1" fill-rule="nonzero"/><path fill="#100f0d" d="M 148.136719 42.964844 C 145.320312 42.964844 143.964844 41.574219 143.964844 38.707031 L 143.964844 31.027344 L 141.890625 31.027344 L 141.890625 28.453125 L 144.054688 28.453125 L 144.691406 24.582031 L 144.703125 24.460938 L 147.554688 24.460938 L 147.554688 28.453125 L 150.550781 28.453125 L 150.550781 31.027344 L 147.550781 31.027344 L 147.550781 38.515625 C 147.550781 39.738281 147.765625 40.171875 148.929688 40.171875 C 149.425781 40.144531 149.917969 40.054688 150.390625 39.902344 L 150.550781 39.851562 L 150.578125 40.019531 L 150.992188 42.289062 L 151.011719 42.414062 L 150.898438 42.460938 C 150.015625 42.800781 149.078125 42.96875 148.132812 42.964844 L 148.136719 42.964844 " fill-opacity="1" fill-rule="nonzero"/><path fill="#100f0d" d="M 155.296875 34.339844 L 160.144531 34.339844 C 160.0625 31.980469 159.292969 30.835938 157.789062 30.835938 C 156.285156 30.835938 155.496094 31.980469 155.296875 34.339844 Z M 158.03125 42.964844 C 154.046875 42.964844 151.566406 40.167969 151.566406 35.667969 C 151.566406 31.101562 154.011719 28.144531 157.789062 28.144531 C 161.617188 28.144531 163.8125 30.894531 163.8125 35.6875 L 163.8125 36.6875 L 155.269531 36.6875 C 155.464844 38.996094 156.394531 40.027344 158.277344 40.027344 C 159.816406 40.027344 160.835938 39.457031 161.914062 38.765625 L 162.042969 38.683594 L 162.125 38.8125 L 163.433594 40.863281 L 163.511719 40.980469 L 163.402344 41.066406 C 162.066406 42.101562 160.742188 42.957031 158.03125 42.957031 L 158.03125 42.964844 " fill-opacity="1" fill-rule="nonzero"/><path fill="#100f0d" d="M 171.761719 42.964844 C 167.011719 42.964844 165.324219 39.195312 165.324219 35.667969 C 165.316406 32.203125 167 28.144531 171.761719 28.144531 C 173.722656 28.144531 175.089844 28.613281 176.34375 29.714844 L 176.445312 29.804688 L 176.367188 29.917969 L 174.867188 32.085938 L 174.777344 32.210938 L 174.648438 32.117188 C 173.84375 31.457031 172.832031 31.109375 171.789062 31.132812 C 169.949219 31.132812 169.015625 32.648438 169.015625 35.636719 C 169.015625 38.574219 169.949219 40.003906 171.871094 40.003906 C 173.140625 40.003906 173.964844 39.527344 174.804688 38.808594 L 174.925781 38.707031 L 175.023438 38.832031 L 176.582031 40.828125 L 176.664062 40.933594 L 176.570312 41.027344 C 175.285156 42.347656 173.757812 42.964844 171.761719 42.964844 " fill-opacity="1" fill-rule="nonzero"/><path fill="#efb50d" d="M 44.742188 20.652344 C 38.03125 20.652344 32.589844 26.109375 32.59375 32.832031 C 32.597656 39.554688 38.042969 45.003906 44.753906 45 C 51.46875 44.996094 56.910156 39.542969 56.90625 32.820312 C 56.902344 29.59375 55.625 26.5 53.34375 24.21875 C 51.066406 21.925781 47.972656 20.644531 44.742188 20.652344 Z M 44.742188 50.652344 C 34.917969 50.652344 26.949219 42.675781 26.949219 32.835938 C 26.945312 22.992188 34.914062 15.011719 44.738281 15.011719 C 54.566406 15.011719 62.53125 22.988281 62.535156 32.828125 C 62.535156 32.832031 62.535156 32.832031 62.535156 32.832031 C 62.519531 42.667969 54.5625 50.636719 44.742188 50.652344 " fill-opacity="1" fill-rule="nonzero"/><path fill="#efb50d" d="M 64.125 12.269531 L 65.511719 12.269531 L 65.511719 13.65625 L 64.125 13.65625 L 64.125 12.269531 " fill-opacity="1" fill-rule="nonzero"/><path fill="#efb50d" d="M 64.125 9.5 L 65.511719 9.5 L 65.511719 10.890625 L 64.125 10.890625 L 64.125 9.5 " fill-opacity="1" fill-rule="nonzero"/><path fill="#efb50d" d="M 60.21875 13.648438 L 61.515625 13.648438 L 61.515625 15.003906 L 60.21875 15.003906 L 60.21875 13.648438 " fill-opacity="1" fill-rule="nonzero"/><path fill="#100f0d" d="M 57.652344 16.3125 L 58.960938 16.3125 L 58.960938 17.609375 L 57.652344 17.609375 L 57.652344 16.3125 " fill-opacity="1" fill-rule="nonzero"/><path fill="#100f0d" d="M 61.515625 15.003906 L 62.96875 15.003906 L 62.96875 16.3125 L 61.515625 16.3125 L 61.515625 15.003906 " fill-opacity="1" fill-rule="nonzero"/><path fill="#100f0d" d="M 56.351562 15.070312 L 57.652344 15.070312 L 57.652344 16.3125 L 56.351562 16.3125 L 56.351562 15.070312 " fill-opacity="1" fill-rule="nonzero"/><path fill="#100f0d" d="M 60.21875 16.3125 L 61.515625 16.3125 L 61.515625 17.609375 L 60.21875 17.609375 L 60.21875 16.3125 " fill-opacity="1" fill-rule="nonzero"/><path fill="#100f0d" d="M 62.753906 10.890625 L 64.125 10.890625 L 64.125 12.269531 L 62.753906 12.269531 L 62.753906 10.890625 " fill-opacity="1" fill-rule="nonzero"/><path fill="#100f0d" d="M 60.21875 12.269531 L 62.75 12.269531 L 62.75 13.648438 L 60.21875 13.648438 L 60.21875 12.269531 " fill-opacity="1" fill-rule="nonzero"/><path fill="#100f0d" d="M 58.960938 13.648438 L 60.222656 13.648438 L 60.222656 16.3125 L 58.960938 16.3125 L 58.960938 13.648438 " fill-opacity="1" fill-rule="nonzero"/><path fill="#100f0d" d="M 58.960938 17.609375 L 58.960938 18.910156 L 57.660156 18.910156 L 57.660156 17.609375 L 55.496094 17.609375 L 55.496094 18.550781 L 54.335938 18.550781 L 54.335938 19.714844 L 55.632812 19.714844 L 55.632812 21.015625 L 54.335938 21.015625 L 54.335938 19.714844 L 52.957031 19.714844 L 52.957031 21.746094 L 51.65625 21.746094 L 51.65625 23.046875 L 50.792969 23.046875 L 50.792969 24.347656 L 49.839844 24.347656 C 48.769531 25.9375 46.09375 30.898438 45.292969 32.921875 C 42.375 28.851562 40.097656 27.238281 38.324219 26.65625 C 37.339844 26.363281 36.175781 27.414062 37.773438 29.066406 C 41.453125 33.109375 42.601562 36.460938 43.71875 39.132812 C 44.308594 40.539062 46.964844 40.757812 47.488281 39.324219 C 48.617188 36.289062 50.257812 32.886719 52.195312 30.085938 L 52.195312 28.636719 L 53.230469 28.636719 L 53.230469 27.335938 L 54.3125 27.335938 L 54.3125 25.820312 L 55.613281 25.820312 L 55.613281 24.359375 L 54.296875 24.359375 L 54.296875 23.027344 L 55.613281 23.027344 L 55.613281 24.359375 L 56.898438 24.359375 L 56.898438 23.042969 L 57.933594 23.042969 L 57.933594 21.457031 L 59.09375 21.457031 L 59.09375 20.375 L 60.210938 20.375 L 60.210938 17.609375 L 58.960938 17.609375 " fill-opacity="1" fill-rule="nonzero"/><path fill="#100f0d" d="M 98.050781 55.046875 C 98.714844 55.039062 99.355469 55.3125 99.804688 55.800781 C 100.300781 56.339844 100.5625 57.054688 100.53125 57.785156 L 100.53125 57.808594 C 100.566406 58.535156 100.3125 59.25 99.824219 59.789062 C 99.363281 60.273438 98.71875 60.542969 98.050781 60.523438 C 97.371094 60.523438 96.71875 60.246094 96.246094 59.75 C 95.726562 59.234375 95.445312 58.523438 95.472656 57.789062 L 95.472656 57.765625 C 95.453125 57.035156 95.730469 56.332031 96.246094 55.816406 C 96.71875 55.320312 97.371094 55.042969 98.050781 55.046875 Z M 98.117188 54.3125 C 97.082031 54.3125 96.203125 54.800781 95.507812 55.769531 L 95.507812 51.65625 L 94.75 51.65625 L 94.75 61.105469 L 95.519531 61.105469 L 95.519531 59.859375 C 96.464844 61.296875 98.398438 61.699219 99.835938 60.75 C 100.03125 60.621094 100.214844 60.472656 100.375 60.300781 C 101.039062 59.632812 101.394531 58.71875 101.355469 57.777344 L 101.355469 57.753906 C 101.390625 56.820312 101.035156 55.914062 100.375 55.253906 C 99.78125 54.648438 98.964844 54.304688 98.117188 54.3125 " fill-opacity="1" fill-rule="nonzero"/><path fill="#100f0d" d="M 105.441406 60.179688 L 102.796875 54.503906 L 102.777344 54.464844 L 101.902344 54.464844 L 105.054688 61 C 104.898438 61.417969 104.660156 61.796875 104.355469 62.121094 C 104.128906 62.335938 103.828125 62.453125 103.515625 62.449219 C 103.144531 62.453125 102.773438 62.371094 102.4375 62.210938 L 102.371094 62.179688 L 102.09375 62.859375 L 102.152344 62.886719 C 102.566406 63.070312 103.015625 63.164062 103.464844 63.164062 C 103.929688 63.175781 104.382812 63.015625 104.738281 62.722656 C 105.164062 62.320312 105.492188 61.824219 105.695312 61.273438 L 108.550781 54.445312 L 107.710938 54.445312 L 105.441406 60.179688 " fill-opacity="1" fill-rule="nonzero"/><path fill="#100f0d" d="M 118.074219 59.996094 L 115.21875 59.996094 L 115.21875 57.121094 L 117.90625 57.121094 C 118.492188 57.085938 119.074219 57.214844 119.585938 57.496094 C 119.941406 57.710938 120.148438 58.101562 120.128906 58.515625 L 120.128906 58.539062 C 120.144531 58.960938 119.945312 59.359375 119.601562 59.597656 C 119.144531 59.886719 118.613281 60.027344 118.074219 59.996094 Z M 117.71875 55.957031 L 115.21875 55.957031 L 115.21875 53.15625 L 117.792969 53.15625 C 118.277344 53.125 118.761719 53.253906 119.167969 53.515625 C 119.472656 53.738281 119.644531 54.097656 119.628906 54.472656 L 119.628906 54.5 C 119.652344 54.917969 119.460938 55.320312 119.125 55.570312 C 118.710938 55.847656 118.214844 55.980469 117.71875 55.957031 Z M 119.722656 56.402344 C 120.492188 56.007812 120.957031 55.199219 120.917969 54.335938 C 120.925781 53.765625 120.703125 53.21875 120.304688 52.8125 C 119.742188 52.25 118.921875 51.96875 117.882812 51.96875 L 113.964844 51.96875 L 113.964844 61.15625 L 118.046875 61.15625 C 118.910156 61.199219 119.765625 60.964844 120.480469 60.484375 C 121.097656 60.042969 121.445312 59.320312 121.414062 58.566406 C 121.414062 57.554688 120.847656 56.824219 119.722656 56.402344 " fill-opacity="1" fill-rule="nonzero"/><path fill="#100f0d" d="M 125.070312 54.699219 C 124.726562 54.949219 124.433594 55.265625 124.207031 55.632812 L 124.207031 54.316406 L 122.945312 54.316406 L 122.945312 61.171875 L 124.195312 61.171875 L 124.195312 58.414062 C 124.195312 57.492188 124.429688 56.773438 124.894531 56.277344 C 125.351562 55.78125 125.996094 55.507812 126.667969 55.53125 L 126.878906 55.53125 L 126.878906 54.207031 L 126.75 54.207031 C 126.152344 54.171875 125.558594 54.34375 125.070312 54.699219 " fill-opacity="1" fill-rule="nonzero"/><path fill="#100f0d" d="M 130.894531 60.175781 C 130.277344 60.191406 129.679688 59.933594 129.265625 59.472656 C 128.390625 58.488281 128.382812 57.007812 129.246094 56.011719 C 129.660156 55.550781 130.253906 55.292969 130.871094 55.3125 C 131.496094 55.296875 132.09375 55.558594 132.511719 56.019531 C 132.957031 56.496094 133.195312 57.125 133.179688 57.773438 C 133.191406 58.40625 132.960938 59.019531 132.53125 59.480469 C 132.117188 59.945312 131.515625 60.199219 130.894531 60.175781 Z M 130.894531 54.175781 C 129.9375 54.15625 129.015625 54.535156 128.351562 55.230469 C 126.996094 56.636719 126.992188 58.863281 128.339844 60.273438 C 129 60.960938 129.917969 61.339844 130.871094 61.316406 C 131.832031 61.335938 132.757812 60.957031 133.421875 60.265625 C 134.777344 58.859375 134.785156 56.632812 133.4375 55.21875 C 132.773438 54.53125 131.851562 54.152344 130.894531 54.175781 " fill-opacity="1" fill-rule="nonzero"/><path fill="#100f0d" d="M 139.597656 59.789062 C 139.171875 60.113281 138.652344 60.28125 138.121094 60.265625 C 137.730469 60.277344 137.347656 60.164062 137.027344 59.9375 C 136.746094 59.734375 136.585938 59.40625 136.605469 59.0625 C 136.59375 58.710938 136.761719 58.378906 137.054688 58.179688 C 137.453125 57.925781 137.917969 57.804688 138.390625 57.835938 C 139 57.835938 139.605469 57.917969 140.191406 58.082031 L 140.191406 58.617188 C 140.195312 59.082031 139.976562 59.519531 139.597656 59.789062 Z M 138.457031 54.226562 C 137.609375 54.234375 136.773438 54.425781 136.007812 54.789062 L 135.890625 54.835938 L 136.277344 55.898438 L 136.414062 55.835938 C 137.015625 55.539062 137.679688 55.378906 138.351562 55.363281 C 138.84375 55.328125 139.328125 55.480469 139.710938 55.789062 C 140.042969 56.109375 140.210938 56.5625 140.175781 57.023438 L 140.175781 57.078125 C 139.558594 56.917969 138.925781 56.839844 138.289062 56.839844 C 137.535156 56.800781 136.789062 57.003906 136.160156 57.417969 C 135.613281 57.808594 135.304688 58.453125 135.34375 59.125 C 135.320312 59.761719 135.613281 60.363281 136.125 60.738281 C 136.648438 61.125 137.285156 61.324219 137.933594 61.3125 C 138.773438 61.339844 139.585938 61.011719 140.171875 60.410156 L 140.171875 61.171875 L 141.382812 61.171875 L 141.382812 57.011719 C 141.425781 56.269531 141.171875 55.539062 140.667969 54.992188 C 140.167969 54.484375 139.421875 54.226562 138.457031 54.226562 " fill-opacity="1" fill-rule="nonzero"/><path fill="#100f0d" d="M 147.742188 56.003906 C 148.644531 56.988281 148.644531 58.5 147.742188 59.484375 C 147.339844 59.921875 146.769531 60.167969 146.171875 60.164062 C 145.589844 60.171875 145.03125 59.929688 144.636719 59.5 C 143.785156 58.480469 143.777344 57 144.617188 55.96875 C 145.019531 55.542969 145.585938 55.308594 146.171875 55.324219 C 146.769531 55.320312 147.339844 55.566406 147.742188 56.003906 Z M 148.378906 55.3125 C 147.800781 54.585938 146.921875 54.167969 145.996094 54.175781 C 145.128906 54.171875 144.296875 54.527344 143.699219 55.15625 C 143.027344 55.855469 142.671875 56.796875 142.71875 57.765625 C 142.675781 58.722656 143.03125 59.65625 143.699219 60.34375 C 144.300781 60.96875 145.128906 61.316406 145.996094 61.3125 C 146.933594 61.3125 147.816406 60.871094 148.378906 60.121094 L 148.378906 61.171875 L 149.628906 61.171875 L 149.628906 51.601562 L 148.378906 51.601562 L 148.378906 55.3125 " fill-opacity="1" fill-rule="nonzero"/><path fill="#100f0d" d="M 156.457031 59.238281 C 155.984375 59.808594 155.289062 60.152344 154.546875 60.175781 C 153.929688 60.191406 153.335938 59.9375 152.921875 59.472656 C 152.050781 58.480469 152.050781 56.996094 152.921875 56.007812 C 153.316406 55.554688 153.894531 55.300781 154.492188 55.3125 C 155.15625 55.3125 155.796875 55.632812 156.394531 56.265625 L 156.492188 56.367188 L 157.332031 55.480469 L 157.246094 55.390625 C 156.550781 54.613281 155.554688 54.171875 154.515625 54.175781 C 153.570312 54.15625 152.664062 54.539062 152.015625 55.230469 C 151.351562 55.90625 150.988281 56.824219 151.007812 57.773438 C 150.996094 58.710938 151.359375 59.613281 152.015625 60.277344 C 152.664062 60.960938 153.570312 61.34375 154.515625 61.328125 C 155.589844 61.320312 156.609375 60.835938 157.296875 60.007812 L 157.386719 59.90625 L 156.566406 59.140625 L 156.457031 59.238281 " fill-opacity="1" fill-rule="nonzero"/><path fill="#100f0d" d="M 161.496094 60.175781 C 160.875 60.191406 160.28125 59.933594 159.863281 59.472656 C 158.988281 58.488281 158.980469 57.003906 159.847656 56.011719 C 160.257812 55.550781 160.851562 55.292969 161.472656 55.3125 C 162.09375 55.296875 162.691406 55.558594 163.109375 56.019531 C 163.992188 57 164 58.488281 163.132812 59.480469 C 162.71875 59.945312 162.117188 60.199219 161.496094 60.175781 Z M 161.496094 54.175781 C 160.539062 54.152344 159.613281 54.535156 158.949219 55.230469 C 158.277344 55.90625 157.910156 56.824219 157.925781 57.773438 C 157.90625 58.71875 158.273438 59.628906 158.9375 60.296875 C 159.597656 60.984375 160.519531 61.363281 161.472656 61.339844 C 162.429688 61.359375 163.355469 60.976562 164.023438 60.285156 C 164.699219 59.613281 165.070312 58.691406 165.054688 57.738281 C 165.070312 55.796875 163.511719 54.207031 161.570312 54.191406 C 161.546875 54.191406 161.523438 54.191406 161.496094 54.191406 L 161.496094 54.175781 " fill-opacity="1" fill-rule="nonzero"/><path fill="#100f0d" d="M 174.082031 54.175781 C 173.164062 54.160156 172.296875 54.613281 171.78125 55.371094 C 171.355469 54.601562 170.53125 54.140625 169.652344 54.1875 C 168.875 54.183594 168.140625 54.542969 167.664062 55.160156 L 167.664062 54.320312 L 166.414062 54.320312 L 166.414062 61.175781 L 167.664062 61.175781 L 167.664062 57.277344 C 167.644531 56.765625 167.820312 56.265625 168.152344 55.878906 C 168.453125 55.523438 168.894531 55.324219 169.359375 55.335938 C 169.792969 55.3125 170.210938 55.488281 170.5 55.8125 C 170.796875 56.199219 170.945312 56.679688 170.917969 57.164062 L 170.917969 61.171875 L 172.167969 61.171875 L 172.167969 57.25 C 172.136719 56.738281 172.308594 56.234375 172.644531 55.847656 C 172.949219 55.511719 173.386719 55.324219 173.839844 55.339844 C 174.273438 55.3125 174.699219 55.488281 174.992188 55.808594 C 175.292969 56.203125 175.441406 56.695312 175.410156 57.191406 L 175.410156 61.175781 L 176.660156 61.175781 L 176.660156 56.972656 C 176.695312 56.230469 176.449219 55.503906 175.96875 54.945312 C 175.480469 54.425781 174.792969 54.144531 174.082031 54.175781 " fill-opacity="1" fill-rule="nonzero"/><path fill="#100f0d" d="M 178.664062 40.691406 L 179.21875 40.691406 L 179.21875 42.492188 L 179.664062 42.492188 L 179.664062 40.691406 L 180.203125 40.691406 L 180.203125 40.34375 L 178.664062 40.34375 L 178.664062 40.691406 " fill-opacity="1" fill-rule="nonzero"/><path fill="#100f0d" d="M 182.144531 40.34375 L 181.738281 41.910156 L 181.304688 40.34375 L 180.640625 40.34375 L 180.636719 42.492188 L 181.070312 42.492188 L 181.070312 40.847656 L 181.503906 42.492188 L 181.910156 42.492188 L 182.367188 40.847656 L 182.367188 42.492188 L 182.800781 42.492188 L 182.800781 40.34375 L 182.144531 40.34375 " fill-opacity="1" fill-rule="nonzero"/></svg>