<svg xmlns="http://www.w3.org/2000/svg" xmlns:xlink="http://www.w3.org/1999/xlink" width="100" zoomAndPan="magnify" viewBox="0 0 75 74.999997" height="100" preserveAspectRatio="xMidYMid meet" version="1.0"><defs><clipPath id="20c63c60e1"><path d="M 52 45 L 66.75 45 L 66.75 62 L 52 62 Z M 52 45 " clip-rule="nonzero"/></clipPath></defs><path fill="#283167" d="M 45.105469 51.917969 L 14.097656 51.917969 C 11.953125 51.917969 10.035156 50.804688 8.964844 48.953125 C 7.894531 47.09375 7.894531 44.878906 8.964844 43.023438 L 24.464844 16.167969 C 25.539062 14.316406 27.460938 13.207031 29.601562 13.207031 C 31.742188 13.207031 33.664062 14.316406 34.738281 16.167969 L 38.296875 22.339844 L 37.089844 23.03125 L 33.53125 16.867188 C 32.710938 15.445312 31.238281 14.597656 29.601562 14.597656 C 27.960938 14.597656 26.492188 15.445312 25.671875 16.867188 L 10.167969 43.71875 C 9.351562 45.140625 9.351562 46.835938 10.167969 48.253906 C 10.988281 49.675781 12.457031 50.523438 14.097656 50.523438 L 45.105469 50.523438 C 46.566406 50.523438 47.902344 49.847656 48.761719 48.671875 C 49.628906 47.492188 49.875 46.023438 49.441406 44.640625 L 50.765625 44.226562 C 51.339844 46.03125 51.015625 47.953125 49.882812 49.496094 C 48.753906 51.03125 47.011719 51.917969 45.105469 51.917969 Z M 45.105469 51.917969 " fill-opacity="1" fill-rule="nonzero"/><path fill="#283167" d="M 45.105469 48.664062 L 14.097656 48.664062 C 13.125 48.664062 12.257812 48.164062 11.773438 47.328125 C 11.292969 46.488281 11.292969 45.488281 11.773438 44.644531 L 27.277344 17.796875 C 27.765625 16.953125 28.632812 16.453125 29.601562 16.453125 C 30.566406 16.453125 31.4375 16.953125 31.921875 17.796875 L 36.210938 25.21875 L 35.003906 25.917969 L 30.71875 18.488281 C 30.484375 18.085938 30.066406 17.84375 29.601562 17.84375 C 29.136719 17.84375 28.71875 18.085938 28.484375 18.488281 L 12.980469 45.34375 C 12.75 45.746094 12.75 46.230469 12.976562 46.632812 C 13.210938 47.035156 13.628906 47.273438 14.097656 47.273438 L 45.105469 47.273438 C 45.570312 47.273438 45.992188 47.035156 46.222656 46.632812 C 46.453125 46.230469 46.453125 45.746094 46.21875 45.34375 L 46.085938 45.113281 L 47.292969 44.417969 L 47.425781 44.644531 C 47.910156 45.488281 47.910156 46.488281 47.425781 47.328125 C 46.945312 48.164062 46.074219 48.664062 45.105469 48.664062 Z M 45.105469 48.664062 " fill-opacity="1" fill-rule="nonzero"/><path fill="#283167" d="M 28.976562 36.824219 L 30.226562 36.824219 L 31.15625 27.988281 C 31.140625 27.144531 30.449219 26.464844 29.601562 26.464844 C 28.75 26.464844 28.0625 27.144531 28.046875 27.988281 Z M 30.851562 38.214844 L 28.351562 38.214844 C 27.992188 38.214844 27.695312 37.949219 27.65625 37.59375 L 26.65625 28.09375 C 26.65625 28.070312 26.652344 28.042969 26.652344 28.019531 C 26.652344 26.394531 27.976562 25.074219 29.601562 25.074219 C 31.222656 25.074219 32.546875 26.394531 32.546875 28.019531 C 32.546875 28.042969 32.546875 28.070312 32.542969 28.09375 L 31.546875 37.59375 C 31.507812 37.945312 31.207031 38.214844 30.851562 38.214844 Z M 30.851562 38.214844 " fill-opacity="1" fill-rule="nonzero"/><path fill="#283167" d="M 29.601562 40.980469 C 28.984375 40.980469 28.484375 41.480469 28.484375 42.09375 C 28.484375 42.710938 28.984375 43.210938 29.601562 43.210938 C 30.214844 43.210938 30.714844 42.710938 30.714844 42.09375 C 30.714844 41.480469 30.214844 40.980469 29.601562 40.980469 Z M 29.601562 44.601562 C 28.21875 44.601562 27.09375 43.476562 27.09375 42.09375 C 27.09375 40.714844 28.21875 39.585938 29.601562 39.585938 C 30.980469 39.585938 32.109375 40.710938 32.109375 42.09375 C 32.109375 43.480469 30.984375 44.601562 29.601562 44.601562 Z M 29.601562 44.601562 " fill-opacity="1" fill-rule="nonzero"/><path fill="#283167" d="M 57.941406 47.148438 L 54.980469 42.019531 L 56.183594 41.324219 L 59.148438 46.457031 Z M 53.890625 49.492188 L 50.929688 44.359375 L 52.132812 43.664062 L 55.09375 48.792969 Z M 53.890625 49.492188 " fill-opacity="1" fill-rule="nonzero"/><path fill="#283167" d="M 40.605469 20.40625 L 40.949219 21.007812 C 35.046875 24.414062 33.015625 31.992188 36.421875 37.894531 C 38.078125 40.753906 40.742188 42.796875 43.929688 43.652344 C 47.121094 44.507812 50.453125 44.070312 53.3125 42.421875 C 59.21875 39.011719 61.25 31.4375 57.839844 25.53125 C 54.429688 19.625 46.851562 17.597656 40.949219 21.007812 Z M 47.15625 45.472656 C 45.957031 45.472656 44.753906 45.316406 43.570312 44.996094 C 40.023438 44.046875 37.058594 41.769531 35.21875 38.589844 C 31.425781 32.019531 33.683594 23.59375 40.253906 19.800781 C 46.824219 16.007812 55.253906 18.269531 59.042969 24.835938 C 62.835938 31.402344 60.578125 39.832031 54.007812 43.625 C 51.890625 44.847656 49.539062 45.472656 47.15625 45.472656 Z M 47.15625 45.472656 " fill-opacity="1" fill-rule="nonzero"/><g clip-path="url(#20c63c60e1)"><path fill="#283167" d="M 54.5 49.945312 L 59.667969 58.898438 C 60.058594 59.570312 60.675781 60.0625 61.410156 60.28125 C 62.128906 60.492188 62.867188 60.410156 63.492188 60.050781 C 64.113281 59.691406 64.554688 59.089844 64.734375 58.363281 C 64.910156 57.617188 64.796875 56.835938 64.402344 56.164062 L 59.238281 47.210938 Z M 62.203125 61.789062 C 61.808594 61.789062 61.410156 61.730469 61.015625 61.617188 C 59.941406 61.296875 59.03125 60.582031 58.464844 59.589844 L 52.945312 50.035156 C 52.753906 49.703125 52.867188 49.277344 53.199219 49.085938 L 59.140625 45.65625 C 59.300781 45.5625 59.492188 45.539062 59.671875 45.585938 C 59.847656 45.636719 60 45.75 60.089844 45.910156 L 65.609375 55.464844 C 66.179688 56.453125 66.347656 57.597656 66.085938 58.6875 C 65.816406 59.792969 65.148438 60.703125 64.1875 61.257812 C 63.578125 61.609375 62.894531 61.789062 62.203125 61.789062 Z M 62.203125 61.789062 " fill-opacity="1" fill-rule="nonzero"/></g><path fill="#283167" d="M 46.464844 41.34375 L 46.410156 41.34375 C 45.203125 41.25 44.035156 40.9375 42.941406 40.414062 C 42.671875 40.28125 42.511719 39.992188 42.554688 39.695312 L 42.726562 38.34375 C 42.425781 38.144531 42.136719 37.925781 41.863281 37.683594 L 40.605469 38.203125 C 40.328125 38.320312 40.007812 38.238281 39.816406 38.011719 C 39.023438 37.09375 38.417969 36.042969 38.015625 34.898438 C 37.917969 34.617188 38.011719 34.300781 38.25 34.121094 L 39.324219 33.289062 C 39.253906 32.933594 39.207031 32.574219 39.183594 32.210938 L 37.929688 31.6875 C 37.652344 31.570312 37.480469 31.292969 37.503906 30.992188 C 37.597656 29.78125 37.910156 28.617188 38.433594 27.519531 C 38.5625 27.25 38.851562 27.09375 39.152344 27.132812 L 40.5 27.308594 C 40.699219 27.003906 40.917969 26.714844 41.160156 26.445312 L 40.644531 25.1875 C 40.527344 24.910156 40.605469 24.589844 40.832031 24.394531 C 41.753906 23.601562 42.800781 23 43.945312 22.597656 C 44.226562 22.5 44.542969 22.59375 44.726562 22.832031 L 45.558594 23.90625 C 45.914062 23.832031 46.269531 23.789062 46.632812 23.765625 L 47.15625 22.511719 C 47.273438 22.234375 47.550781 22.0625 47.851562 22.085938 C 49.0625 22.175781 50.226562 22.488281 51.324219 23.015625 C 51.59375 23.148438 51.75 23.433594 51.710938 23.730469 L 51.535156 25.078125 C 51.59375 25.117188 51.65625 25.15625 51.714844 25.199219 C 51.882812 25.320312 51.988281 25.503906 52.007812 25.707031 C 52.023438 25.914062 51.949219 26.113281 51.804688 26.257812 L 49.550781 28.515625 C 49.335938 28.730469 49.003906 28.785156 48.734375 28.640625 C 47.386719 27.9375 45.757812 28.1875 44.683594 29.261719 C 44.027344 29.917969 43.667969 30.789062 43.667969 31.710938 C 43.667969 32.636719 44.027344 33.507812 44.683594 34.164062 C 45.335938 34.816406 46.207031 35.175781 47.132812 35.175781 C 48.054688 35.175781 48.925781 34.816406 49.582031 34.164062 C 49.832031 33.910156 50.039062 33.628906 50.203125 33.320312 L 51.4375 33.964844 C 51.207031 34.398438 50.914062 34.796875 50.566406 35.144531 C 49.648438 36.0625 48.429688 36.570312 47.132812 36.570312 C 45.832031 36.570312 44.617188 36.0625 43.695312 35.144531 C 42.78125 34.230469 42.277344 33.011719 42.277344 31.710938 C 42.277344 30.414062 42.78125 29.199219 43.695312 28.28125 C 45.085938 26.894531 47.121094 26.484375 48.90625 27.191406 L 50.238281 25.859375 C 50.128906 25.714844 50.078125 25.53125 50.101562 25.34375 L 50.265625 24.066406 C 49.613281 23.800781 48.9375 23.621094 48.242188 23.523438 L 47.746094 24.714844 C 47.636719 24.972656 47.386719 25.140625 47.105469 25.140625 C 46.546875 25.144531 45.992188 25.21875 45.457031 25.359375 C 45.1875 25.429688 44.898438 25.332031 44.726562 25.109375 L 43.941406 24.089844 C 43.292969 24.363281 42.683594 24.710938 42.125 25.136719 L 42.617188 26.328125 C 42.722656 26.585938 42.664062 26.886719 42.464844 27.082031 C 42.074219 27.476562 41.734375 27.921875 41.457031 28.40625 C 41.3125 28.644531 41.042969 28.78125 40.765625 28.742188 L 39.488281 28.578125 C 39.21875 29.230469 39.039062 29.90625 38.945312 30.601562 L 40.132812 31.101562 C 40.390625 31.207031 40.558594 31.457031 40.5625 31.738281 C 40.5625 32.296875 40.632812 32.851562 40.777344 33.386719 C 40.847656 33.65625 40.753906 33.945312 40.527344 34.117188 L 39.507812 34.902344 C 39.777344 35.554688 40.128906 36.160156 40.558594 36.71875 L 41.746094 36.226562 C 42.007812 36.121094 42.304688 36.183594 42.503906 36.378906 C 42.898438 36.769531 43.34375 37.109375 43.824219 37.390625 C 44.066406 37.53125 44.199219 37.800781 44.164062 38.082031 L 44 39.359375 C 44.648438 39.625 45.328125 39.808594 46.023438 39.898438 L 46.515625 38.710938 C 46.625 38.453125 46.878906 38.285156 47.15625 38.285156 C 47.714844 38.28125 48.273438 38.210938 48.808594 38.070312 C 49.078125 37.996094 49.367188 38.089844 49.539062 38.316406 L 50.324219 39.332031 C 50.96875 39.0625 51.578125 38.710938 52.136719 38.289062 L 51.648438 37.09375 C 51.542969 36.839844 51.601562 36.539062 51.800781 36.34375 C 51.886719 36.253906 51.972656 36.160156 52.054688 36.066406 L 52.71875 36.65625 L 52.933594 36.566406 L 53.621094 38.238281 C 53.734375 38.515625 53.660156 38.835938 53.433594 39.027344 C 52.511719 39.820312 51.464844 40.425781 50.320312 40.824219 C 50.039062 40.925781 49.722656 40.832031 49.539062 40.597656 L 48.707031 39.519531 C 48.351562 39.589844 47.992188 39.636719 47.632812 39.664062 L 47.105469 40.914062 C 47 41.175781 46.742188 41.34375 46.464844 41.34375 Z M 46.464844 41.34375 " fill-opacity="1" fill-rule="nonzero"/><path fill="#283167" d="M 52.335938 35.667969 C 52.472656 35.667969 52.609375 35.707031 52.730469 35.792969 L 53.789062 36.519531 C 54.324219 36.0625 54.796875 35.542969 55.199219 34.96875 L 54.367188 33.984375 C 54.183594 33.769531 54.148438 33.46875 54.277344 33.222656 C 54.53125 32.722656 54.71875 32.195312 54.839844 31.652344 C 54.898438 31.378906 55.113281 31.167969 55.390625 31.117188 L 56.65625 30.882812 C 56.710938 30.183594 56.675781 29.484375 56.554688 28.792969 L 55.273438 28.683594 C 54.992188 28.660156 54.753906 28.472656 54.667969 28.207031 C 54.613281 28.039062 54.554688 27.875 54.484375 27.714844 L 52.84375 28.242188 C 52.917969 28.410156 52.984375 28.578125 53.042969 28.757812 C 53.640625 30.628906 53.070312 32.632812 51.613281 33.902344 L 52.125 35.703125 C 52.191406 35.679688 52.261719 35.667969 52.335938 35.667969 Z M 53.824219 38.085938 C 53.683594 38.085938 53.546875 38.042969 53.429688 37.960938 L 52.308594 37.191406 C 52.210938 37.246094 52.109375 37.300781 52.007812 37.351562 C 51.820312 37.445312 51.601562 37.449219 51.410156 37.367188 C 51.21875 37.285156 51.078125 37.121094 51.023438 36.921875 L 50.148438 33.828125 C 50.070312 33.546875 50.179688 33.242188 50.417969 33.074219 C 51.660156 32.195312 52.183594 30.628906 51.714844 29.179688 C 51.609375 28.84375 51.453125 28.527344 51.25 28.242188 C 51.121094 28.0625 51.089844 27.832031 51.15625 27.621094 C 51.226562 27.410156 51.394531 27.246094 51.605469 27.175781 L 54.640625 26.199219 C 54.964844 26.097656 55.3125 26.238281 55.46875 26.539062 C 55.605469 26.796875 55.726562 27.066406 55.835938 27.335938 L 57.1875 27.449219 C 57.488281 27.476562 57.734375 27.6875 57.808594 27.980469 C 58.089844 29.160156 58.148438 30.367188 57.980469 31.570312 C 57.941406 31.867188 57.714844 32.101562 57.417969 32.160156 L 56.085938 32.40625 C 55.984375 32.753906 55.859375 33.097656 55.714844 33.429688 L 56.59375 34.464844 C 56.789062 34.695312 56.8125 35.027344 56.652344 35.277344 C 56.023438 36.3125 55.210938 37.210938 54.242188 37.945312 C 54.117188 38.035156 53.972656 38.085938 53.824219 38.085938 Z M 53.824219 38.085938 " fill-opacity="1" fill-rule="nonzero"/></svg>