<svg xmlns="http://www.w3.org/2000/svg" xmlns:xlink="http://www.w3.org/1999/xlink" width="100" zoomAndPan="magnify" viewBox="0 0 75 74.999997" height="100" preserveAspectRatio="xMidYMid meet" version="1.0"><path fill="#283167" d="M 58.144531 52.792969 C 57.660156 52.796875 57.222656 52.9375 56.828125 53.214844 C 56.433594 53.496094 56.152344 53.867188 55.992188 54.320312 L 47.757812 54.320312 L 49.285156 52.792969 L 52.027344 52.792969 C 52.238281 52.792969 52.417969 52.71875 52.570312 52.570312 C 52.71875 52.417969 52.792969 52.238281 52.792969 52.027344 C 52.792969 51.816406 52.71875 51.636719 52.570312 51.488281 C 52.417969 51.339844 52.238281 51.261719 52.027344 51.261719 L 48.96875 51.261719 C 48.757812 51.261719 48.578125 51.339844 48.429688 51.488281 L 45.59375 54.320312 L 44.382812 54.320312 L 44.382812 39.792969 C 44.382812 39.582031 44.308594 39.402344 44.15625 39.253906 L 41.351562 36.449219 C 41.96875 36.085938 42.527344 35.648438 43.023438 35.128906 L 48.96875 38.699219 L 48.96875 48.96875 C 48.96875 49.179688 49.042969 49.359375 49.195312 49.511719 C 49.34375 49.660156 49.523438 49.734375 49.734375 49.734375 L 52.167969 49.734375 C 52.230469 49.902344 52.308594 50.0625 52.40625 50.214844 C 52.5 50.363281 52.617188 50.503906 52.746094 50.625 C 52.875 50.75 53.015625 50.859375 53.171875 50.949219 C 53.324219 51.039062 53.488281 51.109375 53.660156 51.164062 C 53.832031 51.214844 54.007812 51.246094 54.1875 51.257812 C 54.363281 51.269531 54.542969 51.261719 54.71875 51.230469 C 54.894531 51.199219 55.066406 51.148438 55.230469 51.078125 C 55.398438 51.007812 55.550781 50.921875 55.695312 50.8125 C 55.839844 50.707031 55.96875 50.585938 56.085938 50.449219 C 56.203125 50.3125 56.300781 50.164062 56.378906 50.003906 C 56.460938 49.84375 56.523438 49.675781 56.5625 49.5 C 56.605469 49.324219 56.625 49.148438 56.625 48.96875 C 56.625 48.789062 56.605469 48.613281 56.5625 48.4375 C 56.523438 48.265625 56.460938 48.097656 56.378906 47.9375 C 56.300781 47.777344 56.203125 47.628906 56.085938 47.492188 C 55.96875 47.355469 55.839844 47.230469 55.695312 47.125 C 55.550781 47.019531 55.398438 46.929688 55.230469 46.859375 C 55.066406 46.789062 54.894531 46.738281 54.71875 46.707031 C 54.542969 46.679688 54.363281 46.667969 54.1875 46.679688 C 54.007812 46.691406 53.832031 46.722656 53.660156 46.777344 C 53.488281 46.828125 53.324219 46.898438 53.171875 46.992188 C 53.015625 47.082031 52.875 47.1875 52.746094 47.3125 C 52.613281 47.4375 52.5 47.574219 52.40625 47.726562 C 52.308594 47.875 52.230469 48.035156 52.167969 48.203125 L 50.5 48.203125 L 50.5 38.265625 C 50.5 37.976562 50.375 37.757812 50.128906 37.609375 L 43.96875 33.914062 C 44.210938 33.527344 44.417969 33.125 44.585938 32.703125 C 44.757812 32.28125 44.890625 31.851562 44.984375 31.40625 C 45.078125 30.960938 45.128906 30.511719 45.144531 30.058594 C 45.15625 29.601562 45.128906 29.152344 45.0625 28.703125 C 44.996094 28.253906 44.886719 27.8125 44.742188 27.382812 C 44.597656 26.953125 44.414062 26.539062 44.195312 26.140625 C 43.976562 25.742188 43.722656 25.367188 43.4375 25.015625 C 43.148438 24.664062 42.835938 24.339844 42.492188 24.042969 C 42.144531 23.746094 41.777344 23.480469 41.386719 23.25 C 40.996094 23.019531 40.585938 22.824219 40.160156 22.667969 C 39.734375 22.507812 39.300781 22.390625 38.851562 22.308594 C 38.40625 22.230469 37.953125 22.1875 37.5 22.1875 C 37.046875 22.1875 36.59375 22.230469 36.148438 22.308594 C 35.699219 22.390625 35.265625 22.507812 34.839844 22.667969 C 34.414062 22.824219 34.003906 23.019531 33.613281 23.25 C 33.222656 23.480469 32.855469 23.746094 32.507812 24.042969 C 32.164062 24.339844 31.851562 24.664062 31.5625 25.015625 C 31.277344 25.367188 31.023438 25.742188 30.804688 26.140625 C 30.585938 26.539062 30.402344 26.953125 30.257812 27.382812 C 30.113281 27.8125 30.003906 28.253906 29.9375 28.703125 C 29.871094 29.152344 29.84375 29.601562 29.855469 30.058594 C 29.871094 30.511719 29.921875 30.960938 30.015625 31.40625 C 30.109375 31.851562 30.242188 32.28125 30.410156 32.703125 C 30.582031 33.125 30.789062 33.527344 31.03125 33.914062 L 24.871094 37.609375 C 24.625 37.757812 24.5 37.976562 24.5 38.265625 L 24.5 48.203125 L 22.832031 48.203125 C 22.769531 48.035156 22.691406 47.875 22.59375 47.726562 C 22.5 47.574219 22.382812 47.4375 22.253906 47.3125 C 22.125 47.1875 21.984375 47.082031 21.828125 46.992188 C 21.675781 46.898438 21.511719 46.828125 21.339844 46.777344 C 21.167969 46.722656 20.992188 46.691406 20.8125 46.679688 C 20.636719 46.667969 20.457031 46.679688 20.28125 46.707031 C 20.105469 46.738281 19.933594 46.789062 19.769531 46.859375 C 19.601562 46.929688 19.449219 47.019531 19.304688 47.125 C 19.160156 47.230469 19.03125 47.355469 18.914062 47.492188 C 18.796875 47.628906 18.699219 47.777344 18.621094 47.9375 C 18.539062 48.097656 18.476562 48.265625 18.4375 48.4375 C 18.394531 48.613281 18.375 48.789062 18.375 48.96875 C 18.375 49.148438 18.394531 49.324219 18.4375 49.5 C 18.476562 49.675781 18.539062 49.84375 18.621094 50.003906 C 18.699219 50.164062 18.796875 50.3125 18.914062 50.449219 C 19.03125 50.585938 19.160156 50.707031 19.304688 50.8125 C 19.449219 50.921875 19.601562 51.007812 19.769531 51.078125 C 19.933594 51.148438 20.105469 51.199219 20.28125 51.230469 C 20.457031 51.261719 20.636719 51.269531 20.8125 51.257812 C 20.992188 51.246094 21.167969 51.214844 21.339844 51.164062 C 21.511719 51.109375 21.675781 51.039062 21.828125 50.949219 C 21.984375 50.859375 22.125 50.75 22.253906 50.625 C 22.382812 50.503906 22.5 50.363281 22.59375 50.214844 C 22.691406 50.0625 22.769531 49.902344 22.832031 49.734375 L 25.265625 49.734375 C 25.476562 49.734375 25.65625 49.660156 25.804688 49.511719 C 25.957031 49.359375 26.03125 49.179688 26.03125 48.96875 L 26.03125 38.699219 L 31.976562 35.128906 C 32.472656 35.648438 33.027344 36.085938 33.648438 36.449219 L 30.84375 39.253906 C 30.691406 39.402344 30.617188 39.582031 30.617188 39.792969 L 30.617188 54.320312 L 19.007812 54.320312 C 18.949219 54.152344 18.871094 53.992188 18.773438 53.84375 C 18.675781 53.691406 18.5625 53.554688 18.433594 53.429688 C 18.300781 53.304688 18.160156 53.199219 18.003906 53.109375 C 17.851562 53.015625 17.6875 52.945312 17.515625 52.894531 C 17.34375 52.839844 17.167969 52.808594 16.992188 52.796875 C 16.8125 52.785156 16.632812 52.796875 16.457031 52.824219 C 16.28125 52.855469 16.109375 52.90625 15.945312 52.976562 C 15.78125 53.046875 15.625 53.136719 15.480469 53.242188 C 15.335938 53.347656 15.207031 53.472656 15.089844 53.609375 C 14.976562 53.746094 14.878906 53.894531 14.796875 54.054688 C 14.714844 54.214844 14.65625 54.382812 14.613281 54.554688 C 14.570312 54.730469 14.550781 54.90625 14.550781 55.085938 C 14.550781 55.265625 14.570312 55.441406 14.613281 55.617188 C 14.65625 55.792969 14.714844 55.960938 14.796875 56.121094 C 14.878906 56.28125 14.976562 56.429688 15.089844 56.566406 C 15.207031 56.703125 15.335938 56.824219 15.480469 56.929688 C 15.625 57.039062 15.78125 57.125 15.945312 57.195312 C 16.109375 57.265625 16.28125 57.316406 16.457031 57.347656 C 16.632812 57.378906 16.8125 57.386719 16.992188 57.375 C 17.167969 57.363281 17.34375 57.332031 17.515625 57.28125 C 17.6875 57.226562 17.851562 57.15625 18.003906 57.066406 C 18.160156 56.976562 18.300781 56.867188 18.433594 56.742188 C 18.5625 56.621094 18.675781 56.480469 18.773438 56.332031 C 18.871094 56.179688 18.949219 56.019531 19.007812 55.851562 L 27.242188 55.851562 L 25.714844 57.378906 L 22.972656 57.378906 C 22.761719 57.378906 22.582031 57.457031 22.429688 57.605469 C 22.28125 57.753906 22.207031 57.933594 22.207031 58.144531 C 22.207031 58.355469 22.28125 58.535156 22.429688 58.6875 C 22.582031 58.835938 22.761719 58.910156 22.972656 58.910156 L 26.03125 58.910156 C 26.242188 58.910156 26.421875 58.835938 26.570312 58.6875 L 29.40625 55.851562 L 31.382812 55.851562 C 31.59375 55.851562 31.773438 55.777344 31.921875 55.628906 C 32.074219 55.476562 32.148438 55.296875 32.148438 55.085938 L 32.148438 40.109375 L 35.136719 37.121094 C 35.65625 37.292969 36.191406 37.40625 36.734375 37.460938 L 36.734375 45.59375 L 33.902344 48.429688 C 33.75 48.578125 33.675781 48.757812 33.675781 48.96875 L 33.675781 52.027344 C 33.675781 52.238281 33.75 52.417969 33.902344 52.570312 C 34.050781 52.71875 34.230469 52.792969 34.441406 52.792969 C 34.652344 52.792969 34.832031 52.71875 34.980469 52.570312 C 35.132812 52.417969 35.207031 52.238281 35.207031 52.027344 L 35.207031 49.285156 L 36.734375 47.757812 L 36.734375 55.992188 C 36.566406 56.054688 36.40625 56.132812 36.253906 56.230469 C 36.105469 56.324219 35.96875 56.4375 35.84375 56.570312 C 35.71875 56.699219 35.613281 56.839844 35.519531 56.996094 C 35.429688 57.148438 35.359375 57.3125 35.304688 57.484375 C 35.253906 57.65625 35.222656 57.832031 35.210938 58.011719 C 35.199219 58.1875 35.207031 58.367188 35.238281 58.542969 C 35.269531 58.71875 35.320312 58.890625 35.390625 59.054688 C 35.460938 59.222656 35.550781 59.375 35.65625 59.519531 C 35.761719 59.664062 35.882812 59.792969 36.019531 59.910156 C 36.160156 60.023438 36.308594 60.125 36.46875 60.203125 C 36.628906 60.285156 36.792969 60.347656 36.96875 60.386719 C 37.144531 60.429688 37.320312 60.449219 37.5 60.449219 C 37.679688 60.449219 37.855469 60.429688 38.03125 60.386719 C 38.207031 60.347656 38.371094 60.285156 38.53125 60.203125 C 38.691406 60.125 38.839844 60.023438 38.980469 59.910156 C 39.117188 59.792969 39.238281 59.664062 39.34375 59.519531 C 39.449219 59.375 39.539062 59.222656 39.609375 59.054688 C 39.679688 58.890625 39.730469 58.71875 39.761719 58.542969 C 39.792969 58.367188 39.800781 58.1875 39.789062 58.011719 C 39.777344 57.832031 39.746094 57.65625 39.695312 57.484375 C 39.640625 57.3125 39.570312 57.148438 39.480469 56.996094 C 39.386719 56.839844 39.28125 56.699219 39.15625 56.570312 C 39.03125 56.4375 38.894531 56.324219 38.746094 56.230469 C 38.59375 56.132812 38.433594 56.054688 38.265625 55.992188 L 38.265625 37.460938 C 38.808594 37.40625 39.34375 37.292969 39.863281 37.121094 L 42.851562 40.109375 L 42.851562 55.085938 C 42.851562 55.296875 42.925781 55.476562 43.078125 55.628906 C 43.226562 55.777344 43.40625 55.851562 43.617188 55.851562 L 55.992188 55.851562 C 56.085938 56.117188 56.226562 56.355469 56.40625 56.570312 C 56.589844 56.785156 56.804688 56.957031 57.050781 57.09375 C 57.296875 57.226562 57.5625 57.3125 57.839844 57.351562 C 58.117188 57.390625 58.394531 57.378906 58.667969 57.3125 C 58.941406 57.25 59.195312 57.140625 59.429688 56.980469 C 59.664062 56.824219 59.859375 56.632812 60.023438 56.402344 C 60.183594 56.171875 60.300781 55.921875 60.367188 55.648438 C 60.4375 55.375 60.457031 55.097656 60.425781 54.820312 C 60.390625 54.539062 60.3125 54.277344 60.179688 54.027344 C 60.050781 53.777344 59.882812 53.558594 59.671875 53.371094 C 59.460938 53.183594 59.226562 53.042969 58.960938 52.941406 C 58.699219 52.84375 58.425781 52.792969 58.144531 52.792969 Z M 54.320312 48.203125 C 54.535156 48.203125 54.714844 48.28125 54.863281 48.429688 C 55.011719 48.578125 55.085938 48.757812 55.085938 48.96875 C 55.085938 49.179688 55.011719 49.359375 54.863281 49.511719 C 54.714844 49.660156 54.535156 49.734375 54.320312 49.734375 C 54.109375 49.734375 53.929688 49.660156 53.78125 49.511719 C 53.632812 49.359375 53.558594 49.179688 53.558594 48.96875 C 53.558594 48.757812 53.632812 48.578125 53.78125 48.429688 C 53.929688 48.28125 54.109375 48.203125 54.320312 48.203125 Z M 20.675781 49.734375 C 20.464844 49.734375 20.285156 49.660156 20.136719 49.511719 C 19.988281 49.359375 19.914062 49.179688 19.914062 48.96875 C 19.914062 48.757812 19.988281 48.578125 20.136719 48.429688 C 20.285156 48.28125 20.464844 48.203125 20.675781 48.203125 C 20.890625 48.203125 21.070312 48.28125 21.21875 48.429688 C 21.367188 48.578125 21.441406 48.757812 21.441406 48.96875 C 21.441406 49.179688 21.367188 49.359375 21.21875 49.511719 C 21.070312 49.660156 20.890625 49.734375 20.675781 49.734375 Z M 16.855469 55.851562 C 16.644531 55.851562 16.464844 55.777344 16.3125 55.628906 C 16.164062 55.476562 16.089844 55.296875 16.089844 55.085938 C 16.089844 54.875 16.164062 54.695312 16.3125 54.546875 C 16.464844 54.398438 16.644531 54.320312 16.855469 54.320312 C 17.066406 54.320312 17.246094 54.398438 17.394531 54.546875 C 17.542969 54.695312 17.617188 54.875 17.617188 55.085938 C 17.617188 55.296875 17.542969 55.476562 17.394531 55.628906 C 17.246094 55.777344 17.066406 55.851562 16.855469 55.851562 Z M 31.382812 29.851562 C 31.382812 29.453125 31.421875 29.054688 31.5 28.660156 C 31.578125 28.265625 31.695312 27.882812 31.847656 27.511719 C 32.003906 27.140625 32.191406 26.789062 32.414062 26.453125 C 32.636719 26.121094 32.890625 25.8125 33.175781 25.527344 C 33.457031 25.242188 33.765625 24.992188 34.101562 24.765625 C 34.433594 24.542969 34.789062 24.355469 35.160156 24.203125 C 35.53125 24.046875 35.914062 23.933594 36.304688 23.855469 C 36.699219 23.777344 37.097656 23.734375 37.5 23.734375 C 37.902344 23.734375 38.300781 23.777344 38.695312 23.855469 C 39.085938 23.933594 39.46875 24.046875 39.839844 24.203125 C 40.210938 24.355469 40.566406 24.542969 40.898438 24.765625 C 41.234375 24.992188 41.542969 25.242188 41.824219 25.527344 C 42.109375 25.8125 42.363281 26.121094 42.585938 26.453125 C 42.808594 26.789062 42.996094 27.140625 43.152344 27.511719 C 43.304688 27.882812 43.421875 28.265625 43.5 28.660156 C 43.578125 29.054688 43.617188 29.453125 43.617188 29.851562 C 43.617188 30.253906 43.578125 30.652344 43.5 31.046875 C 43.421875 31.441406 43.304688 31.824219 43.152344 32.195312 C 42.996094 32.566406 42.808594 32.917969 42.585938 33.253906 C 42.363281 33.585938 42.109375 33.894531 41.824219 34.179688 C 41.542969 34.464844 41.234375 34.714844 40.898438 34.941406 C 40.566406 35.164062 40.210938 35.351562 39.839844 35.503906 C 39.46875 35.660156 39.085938 35.773438 38.695312 35.851562 C 38.300781 35.929688 37.902344 35.96875 37.5 35.96875 C 37.097656 35.96875 36.699219 35.929688 36.308594 35.851562 C 35.914062 35.773438 35.53125 35.65625 35.160156 35.503906 C 34.789062 35.347656 34.4375 35.160156 34.101562 34.9375 C 33.769531 34.714844 33.460938 34.460938 33.175781 34.175781 C 32.890625 33.894531 32.640625 33.585938 32.414062 33.25 C 32.191406 32.917969 32.003906 32.5625 31.851562 32.191406 C 31.695312 31.824219 31.582031 31.441406 31.5 31.046875 C 31.421875 30.652344 31.382812 30.253906 31.382812 29.851562 Z M 37.5 58.910156 C 37.289062 58.910156 37.109375 58.835938 36.960938 58.6875 C 36.808594 58.535156 36.734375 58.355469 36.734375 58.144531 C 36.734375 57.933594 36.808594 57.753906 36.960938 57.605469 C 37.109375 57.457031 37.289062 57.378906 37.5 57.378906 C 37.710938 57.378906 37.890625 57.457031 38.039062 57.605469 C 38.191406 57.753906 38.265625 57.933594 38.265625 58.144531 C 38.265625 58.355469 38.191406 58.535156 38.039062 58.6875 C 37.890625 58.835938 37.710938 58.910156 37.5 58.910156 Z M 58.144531 55.851562 C 57.933594 55.851562 57.753906 55.777344 57.605469 55.628906 C 57.457031 55.476562 57.378906 55.296875 57.378906 55.085938 C 57.378906 54.875 57.457031 54.695312 57.605469 54.546875 C 57.753906 54.398438 57.933594 54.320312 58.144531 54.320312 C 58.355469 54.320312 58.535156 54.398438 58.6875 54.546875 C 58.835938 54.695312 58.910156 54.875 58.910156 55.085938 C 58.910156 55.296875 58.835938 55.476562 58.6875 55.628906 C 58.535156 55.777344 58.355469 55.851562 58.144531 55.851562 Z M 58.144531 55.851562 " fill-opacity="1" fill-rule="nonzero"/><path fill="#283167" d="M 26.03125 51.261719 C 25.820312 51.261719 25.640625 51.339844 25.488281 51.488281 C 25.339844 51.636719 25.265625 51.816406 25.265625 52.027344 C 25.265625 52.238281 25.339844 52.417969 25.488281 52.570312 C 25.640625 52.71875 25.820312 52.792969 26.03125 52.792969 L 27.558594 52.792969 C 27.769531 52.792969 27.949219 52.71875 28.101562 52.570312 C 28.25 52.417969 28.324219 52.238281 28.324219 52.027344 C 28.324219 51.816406 28.25 51.636719 28.101562 51.488281 C 27.949219 51.339844 27.769531 51.261719 27.558594 51.261719 Z M 26.03125 51.261719 " fill-opacity="1" fill-rule="nonzero"/><path fill="#283167" d="M 28.324219 42.085938 C 28.113281 42.085938 27.933594 42.164062 27.785156 42.3125 C 27.632812 42.460938 27.558594 42.640625 27.558594 42.851562 L 27.558594 45.910156 C 27.558594 46.121094 27.632812 46.300781 27.785156 46.453125 C 27.933594 46.601562 28.113281 46.675781 28.324219 46.675781 C 28.535156 46.675781 28.714844 46.601562 28.863281 46.453125 C 29.015625 46.300781 29.089844 46.121094 29.089844 45.910156 L 29.089844 42.851562 C 29.089844 42.640625 29.015625 42.460938 28.863281 42.3125 C 28.714844 42.164062 28.535156 42.085938 28.324219 42.085938 Z M 28.324219 42.085938 " fill-opacity="1" fill-rule="nonzero"/><path fill="#283167" d="M 48.96875 57.378906 L 45.910156 57.378906 C 45.699219 57.378906 45.519531 57.457031 45.371094 57.605469 C 45.222656 57.753906 45.144531 57.933594 45.144531 58.144531 C 45.144531 58.355469 45.222656 58.535156 45.371094 58.6875 C 45.519531 58.835938 45.699219 58.910156 45.910156 58.910156 L 48.96875 58.910156 C 49.179688 58.910156 49.359375 58.835938 49.511719 58.6875 C 49.660156 58.535156 49.734375 58.355469 49.734375 58.144531 C 49.734375 57.933594 49.660156 57.753906 49.511719 57.605469 C 49.359375 57.457031 49.179688 57.378906 48.96875 57.378906 Z M 48.96875 57.378906 " fill-opacity="1" fill-rule="nonzero"/><path fill="#283167" d="M 47.441406 44.382812 L 47.441406 39.792969 C 47.441406 39.582031 47.367188 39.402344 47.214844 39.253906 C 47.066406 39.105469 46.886719 39.027344 46.675781 39.027344 C 46.464844 39.027344 46.285156 39.105469 46.136719 39.253906 C 45.984375 39.402344 45.910156 39.582031 45.910156 39.792969 L 45.910156 44.382812 C 45.910156 44.59375 45.984375 44.773438 46.136719 44.921875 C 46.285156 45.070312 46.464844 45.144531 46.675781 45.144531 C 46.886719 45.144531 47.066406 45.070312 47.214844 44.921875 C 47.367188 44.773438 47.441406 44.59375 47.441406 44.382812 Z M 47.441406 44.382812 " fill-opacity="1" fill-rule="nonzero"/><path fill="#283167" d="M 40.558594 48.203125 C 40.769531 48.203125 40.949219 48.128906 41.097656 47.980469 C 41.25 47.832031 41.324219 47.652344 41.324219 47.441406 L 41.324219 42.851562 C 41.324219 42.640625 41.25 42.460938 41.097656 42.3125 C 40.949219 42.164062 40.769531 42.085938 40.558594 42.085938 C 40.347656 42.085938 40.167969 42.164062 40.019531 42.3125 C 39.867188 42.460938 39.792969 42.640625 39.792969 42.851562 L 39.792969 47.441406 C 39.792969 47.652344 39.867188 47.832031 40.019531 47.980469 C 40.167969 48.128906 40.347656 48.203125 40.558594 48.203125 Z M 40.558594 48.203125 " fill-opacity="1" fill-rule="nonzero"/><path fill="#283167" d="M 40.574219 49.734375 L 40.566406 49.734375 C 40.429688 49.734375 40.300781 49.769531 40.183594 49.839844 C 40.066406 49.90625 39.972656 50 39.902344 50.121094 C 39.835938 50.238281 39.800781 50.367188 39.800781 50.503906 C 39.800781 50.640625 39.835938 50.769531 39.90625 50.886719 C 39.972656 51.007812 40.066406 51.101562 40.1875 51.167969 C 40.304688 51.238281 40.433594 51.269531 40.570312 51.269531 C 40.707031 51.269531 40.835938 51.238281 40.953125 51.167969 C 41.074219 51.101562 41.167969 51.007812 41.234375 50.886719 C 41.304688 50.769531 41.339844 50.640625 41.339844 50.503906 C 41.339844 50.367188 41.304688 50.238281 41.238281 50.121094 C 41.167969 50 41.074219 49.90625 40.957031 49.839844 C 40.839844 49.769531 40.710938 49.734375 40.574219 49.734375 Z M 40.574219 49.734375 " fill-opacity="1" fill-rule="nonzero"/><path fill="#283167" d="M 18.398438 45.144531 C 18.609375 45.144531 18.789062 45.070312 18.941406 44.921875 C 19.089844 44.773438 19.164062 44.59375 19.164062 44.382812 C 19.164062 44.171875 19.089844 43.992188 18.941406 43.839844 C 18.789062 43.691406 18.609375 43.617188 18.398438 43.617188 L 18.390625 43.617188 C 18.179688 43.617188 18 43.695312 17.851562 43.84375 C 17.703125 43.996094 17.628906 44.175781 17.632812 44.386719 C 17.632812 44.597656 17.707031 44.777344 17.859375 44.925781 C 18.007812 45.074219 18.1875 45.148438 18.398438 45.144531 Z M 18.398438 45.144531 " fill-opacity="1" fill-rule="nonzero"/><path fill="#283167" d="M 58.160156 51.261719 C 58.371094 51.261719 58.550781 51.1875 58.703125 51.039062 C 58.851562 50.890625 58.925781 50.710938 58.925781 50.5 C 58.925781 50.289062 58.851562 50.109375 58.703125 49.957031 C 58.550781 49.808594 58.371094 49.734375 58.160156 49.734375 L 58.152344 49.734375 C 57.941406 49.734375 57.761719 49.8125 57.613281 49.960938 C 57.464844 50.109375 57.390625 50.292969 57.390625 50.503906 C 57.394531 50.714844 57.46875 50.894531 57.617188 51.042969 C 57.769531 51.191406 57.949219 51.265625 58.160156 51.261719 Z M 58.160156 51.261719 " fill-opacity="1" fill-rule="nonzero"/><path fill="#283167" d="M 16.871094 49.734375 L 16.863281 49.734375 C 16.726562 49.734375 16.597656 49.769531 16.480469 49.839844 C 16.359375 49.90625 16.265625 50 16.199219 50.121094 C 16.132812 50.238281 16.097656 50.367188 16.097656 50.503906 C 16.097656 50.640625 16.132812 50.769531 16.199219 50.886719 C 16.269531 51.007812 16.363281 51.101562 16.480469 51.167969 C 16.601562 51.238281 16.730469 51.269531 16.867188 51.269531 C 17.003906 51.269531 17.132812 51.238281 17.25 51.167969 C 17.367188 51.101562 17.460938 51.007812 17.53125 50.886719 C 17.597656 50.769531 17.632812 50.640625 17.632812 50.503906 C 17.632812 50.367188 17.601562 50.238281 17.53125 50.121094 C 17.464844 50 17.371094 49.90625 17.253906 49.839844 C 17.132812 49.769531 17.007812 49.734375 16.871094 49.734375 Z M 16.871094 49.734375 " fill-opacity="1" fill-rule="nonzero"/><path fill="#283167" d="M 56.632812 43.617188 L 56.625 43.617188 C 56.488281 43.617188 56.359375 43.652344 56.242188 43.722656 C 56.121094 43.789062 56.027344 43.882812 55.960938 44.003906 C 55.894531 44.121094 55.859375 44.25 55.859375 44.386719 C 55.859375 44.523438 55.894531 44.652344 55.960938 44.769531 C 56.03125 44.890625 56.125 44.984375 56.242188 45.050781 C 56.363281 45.121094 56.492188 45.152344 56.628906 45.152344 C 56.765625 45.152344 56.894531 45.121094 57.011719 45.050781 C 57.128906 44.984375 57.222656 44.890625 57.292969 44.769531 C 57.359375 44.652344 57.394531 44.523438 57.394531 44.386719 C 57.394531 44.25 57.363281 44.121094 57.292969 44.003906 C 57.226562 43.882812 57.132812 43.789062 57.015625 43.722656 C 56.894531 43.652344 56.769531 43.617188 56.632812 43.617188 Z M 56.632812 43.617188 " fill-opacity="1" fill-rule="nonzero"/><path fill="#283167" d="M 49.742188 34.441406 C 49.605469 34.441406 49.476562 34.476562 49.359375 34.546875 C 49.242188 34.613281 49.148438 34.707031 49.078125 34.828125 C 49.011719 34.945312 48.976562 35.074219 48.976562 35.210938 C 48.976562 35.347656 49.011719 35.476562 49.082031 35.59375 C 49.148438 35.714844 49.242188 35.808594 49.363281 35.875 C 49.480469 35.945312 49.609375 35.976562 49.746094 35.976562 C 49.882812 35.976562 50.011719 35.945312 50.128906 35.875 C 50.25 35.808594 50.34375 35.714844 50.410156 35.59375 C 50.480469 35.476562 50.515625 35.347656 50.515625 35.210938 C 50.515625 35.074219 50.480469 34.945312 50.414062 34.828125 C 50.34375 34.707031 50.25 34.613281 50.132812 34.546875 C 50.015625 34.476562 49.886719 34.441406 49.75 34.441406 Z M 49.742188 34.441406 " fill-opacity="1" fill-rule="nonzero"/><path fill="#283167" d="M 25.273438 34.441406 C 25.136719 34.441406 25.007812 34.476562 24.890625 34.546875 C 24.773438 34.613281 24.679688 34.707031 24.609375 34.828125 C 24.542969 34.945312 24.507812 35.074219 24.507812 35.210938 C 24.507812 35.347656 24.542969 35.476562 24.613281 35.59375 C 24.679688 35.714844 24.773438 35.808594 24.894531 35.875 C 25.011719 35.945312 25.140625 35.976562 25.277344 35.976562 C 25.414062 35.976562 25.542969 35.945312 25.660156 35.875 C 25.78125 35.808594 25.875 35.714844 25.941406 35.59375 C 26.011719 35.476562 26.046875 35.347656 26.046875 35.210938 C 26.046875 35.074219 26.011719 34.945312 25.945312 34.828125 C 25.875 34.707031 25.78125 34.613281 25.664062 34.546875 C 25.546875 34.476562 25.417969 34.441406 25.28125 34.441406 Z M 25.273438 34.441406 " fill-opacity="1" fill-rule="nonzero"/><path fill="#283167" d="M 28.339844 48.203125 L 28.332031 48.203125 C 28.195312 48.207031 28.066406 48.242188 27.949219 48.308594 C 27.832031 48.378906 27.738281 48.472656 27.667969 48.589844 C 27.601562 48.710938 27.566406 48.839844 27.566406 48.976562 C 27.566406 49.113281 27.601562 49.242188 27.671875 49.359375 C 27.738281 49.476562 27.832031 49.570312 27.953125 49.640625 C 28.070312 49.707031 28.199219 49.742188 28.335938 49.742188 C 28.472656 49.742188 28.601562 49.707031 28.71875 49.640625 C 28.839844 49.570312 28.933594 49.476562 29 49.359375 C 29.070312 49.242188 29.105469 49.113281 29.105469 48.976562 C 29.105469 48.839844 29.070312 48.710938 29.003906 48.589844 C 28.933594 48.472656 28.839844 48.378906 28.722656 48.308594 C 28.605469 48.242188 28.476562 48.207031 28.339844 48.203125 Z M 28.339844 48.203125 " fill-opacity="1" fill-rule="nonzero"/><path fill="#283167" d="M 35.984375 41.324219 C 35.984375 41.113281 35.910156 40.933594 35.761719 40.78125 C 35.613281 40.632812 35.433594 40.558594 35.222656 40.558594 L 35.214844 40.558594 C 35.003906 40.5625 34.824219 40.636719 34.675781 40.785156 C 34.527344 40.9375 34.457031 41.117188 34.457031 41.328125 C 34.457031 41.539062 34.535156 41.71875 34.683594 41.867188 C 34.832031 42.015625 35.011719 42.089844 35.222656 42.085938 C 35.433594 42.085938 35.613281 42.011719 35.761719 41.863281 C 35.910156 41.714844 35.984375 41.535156 35.984375 41.324219 Z M 35.984375 41.324219 " fill-opacity="1" fill-rule="nonzero"/><path fill="#283167" d="M 46.691406 48.203125 C 46.902344 48.203125 47.082031 48.128906 47.230469 47.980469 C 47.382812 47.832031 47.457031 47.652344 47.457031 47.441406 C 47.457031 47.230469 47.382812 47.050781 47.230469 46.898438 C 47.082031 46.75 46.902344 46.675781 46.691406 46.675781 L 46.683594 46.675781 C 46.472656 46.675781 46.292969 46.753906 46.144531 46.902344 C 45.996094 47.054688 45.921875 47.234375 45.921875 47.445312 C 45.925781 47.65625 46 47.835938 46.148438 47.984375 C 46.300781 48.132812 46.480469 48.207031 46.691406 48.203125 Z M 46.691406 48.203125 " fill-opacity="1" fill-rule="nonzero"/><path fill="#283167" d="M 34.457031 54.320312 L 34.449219 54.320312 C 34.3125 54.324219 34.183594 54.359375 34.066406 54.425781 C 33.949219 54.496094 33.855469 54.589844 33.785156 54.707031 C 33.71875 54.828125 33.683594 54.957031 33.683594 55.09375 C 33.683594 55.230469 33.71875 55.359375 33.789062 55.476562 C 33.855469 55.59375 33.949219 55.6875 34.070312 55.757812 C 34.1875 55.824219 34.316406 55.859375 34.453125 55.859375 C 34.589844 55.859375 34.71875 55.824219 34.835938 55.757812 C 34.957031 55.6875 35.050781 55.59375 35.117188 55.476562 C 35.1875 55.359375 35.222656 55.230469 35.222656 55.09375 C 35.222656 54.957031 35.1875 54.828125 35.121094 54.707031 C 35.050781 54.589844 34.957031 54.496094 34.839844 54.425781 C 34.722656 54.359375 34.59375 54.324219 34.457031 54.320312 Z M 34.457031 54.320312 " fill-opacity="1" fill-rule="nonzero"/><path fill="#283167" d="M 52.042969 57.378906 L 52.035156 57.378906 C 51.898438 57.382812 51.769531 57.417969 51.652344 57.484375 C 51.535156 57.554688 51.441406 57.648438 51.371094 57.765625 C 51.304688 57.886719 51.269531 58.015625 51.269531 58.152344 C 51.273438 58.289062 51.304688 58.417969 51.375 58.535156 C 51.445312 58.652344 51.539062 58.746094 51.65625 58.816406 C 51.773438 58.882812 51.902344 58.917969 52.039062 58.917969 C 52.175781 58.917969 52.304688 58.882812 52.421875 58.816406 C 52.542969 58.746094 52.636719 58.652344 52.703125 58.535156 C 52.773438 58.417969 52.808594 58.289062 52.808594 58.152344 C 52.808594 58.015625 52.773438 57.886719 52.707031 57.765625 C 52.636719 57.648438 52.546875 57.554688 52.425781 57.484375 C 52.308594 57.417969 52.179688 57.382812 52.042969 57.378906 Z M 52.042969 57.378906 " fill-opacity="1" fill-rule="nonzero"/><path fill="#283167" d="M 22.207031 43.480469 C 22.160156 43.480469 22.113281 43.476562 22.066406 43.464844 C 21.464844 43.351562 20.878906 43.175781 20.3125 42.945312 C 19.746094 42.710938 19.207031 42.425781 18.695312 42.082031 C 18.183594 41.742188 17.714844 41.355469 17.28125 40.917969 C 16.851562 40.480469 16.464844 40.007812 16.128906 39.496094 C 15.789062 38.984375 15.507812 38.441406 15.28125 37.871094 C 15.050781 37.300781 14.882812 36.714844 14.769531 36.113281 C 14.660156 35.507812 14.609375 34.902344 14.621094 34.285156 C 14.632812 33.671875 14.703125 33.066406 14.835938 32.46875 C 14.96875 31.867188 15.160156 31.289062 15.410156 30.726562 C 15.660156 30.167969 15.960938 29.636719 16.316406 29.136719 C 16.671875 28.636719 17.074219 28.175781 17.523438 27.757812 C 17.96875 27.339844 18.457031 26.96875 18.976562 26.644531 C 19.5 26.324219 20.050781 26.054688 20.625 25.84375 C 21.199219 25.632812 21.792969 25.480469 22.398438 25.386719 C 23.003906 25.292969 23.613281 25.261719 24.226562 25.289062 C 24.839844 25.316406 25.445312 25.40625 26.039062 25.558594 C 26.066406 24.898438 26.152344 24.242188 26.292969 23.597656 C 26.433594 22.949219 26.628906 22.320312 26.878906 21.707031 C 27.128906 21.09375 27.429688 20.507812 27.78125 19.949219 C 28.132812 19.386719 28.527344 18.863281 28.972656 18.371094 C 29.414062 17.878906 29.894531 17.425781 30.417969 17.019531 C 30.9375 16.609375 31.488281 16.25 32.070312 15.9375 C 32.652344 15.625 33.257812 15.363281 33.886719 15.152344 C 34.515625 14.945312 35.15625 14.792969 35.808594 14.695312 C 36.464844 14.597656 37.121094 14.558594 37.785156 14.574219 C 38.445312 14.589844 39.101562 14.664062 39.75 14.792969 C 40.398438 14.921875 41.03125 15.109375 41.648438 15.347656 C 42.265625 15.585938 42.855469 15.878906 43.421875 16.21875 C 43.988281 16.558594 44.523438 16.949219 45.023438 17.382812 C 45.519531 17.816406 45.980469 18.289062 46.398438 18.804688 C 46.816406 19.316406 47.183594 19.863281 47.507812 20.4375 C 47.832031 21.015625 48.101562 21.617188 48.320312 22.242188 C 48.851562 22.214844 49.484375 22.207031 49.734375 22.207031 C 50.367188 22.207031 50.996094 22.261719 51.617188 22.375 C 52.242188 22.484375 52.847656 22.648438 53.441406 22.867188 C 54.035156 23.085938 54.605469 23.355469 55.152344 23.675781 C 55.699219 23.996094 56.210938 24.363281 56.691406 24.773438 C 57.171875 25.183594 57.613281 25.632812 58.015625 26.125 C 58.417969 26.613281 58.773438 27.132812 59.082031 27.683594 C 59.390625 28.238281 59.648438 28.8125 59.855469 29.410156 C 60.0625 30.007812 60.214844 30.621094 60.3125 31.246094 C 60.410156 31.871094 60.453125 32.5 60.441406 33.132812 C 60.429688 33.765625 60.359375 34.390625 60.234375 35.011719 C 60.113281 35.632812 59.933594 36.238281 59.703125 36.824219 C 59.472656 37.414062 59.191406 37.976562 58.859375 38.515625 C 58.527344 39.054688 58.152344 39.5625 57.730469 40.035156 C 57.308594 40.507812 56.851562 40.9375 56.351562 41.328125 C 55.855469 41.71875 55.328125 42.066406 54.769531 42.363281 C 54.210938 42.660156 53.628906 42.90625 53.027344 43.097656 C 52.828125 43.164062 52.632812 43.148438 52.445312 43.050781 C 52.257812 42.957031 52.128906 42.808594 52.066406 42.605469 C 52 42.40625 52.015625 42.210938 52.113281 42.023438 C 52.207031 41.835938 52.355469 41.707031 52.558594 41.644531 C 53.074219 41.476562 53.570312 41.265625 54.050781 41.011719 C 54.527344 40.753906 54.980469 40.460938 55.40625 40.125 C 55.832031 39.789062 56.226562 39.417969 56.585938 39.015625 C 56.949219 38.609375 57.269531 38.175781 57.554688 37.714844 C 57.835938 37.253906 58.078125 36.769531 58.277344 36.265625 C 58.476562 35.761719 58.625 35.242188 58.734375 34.710938 C 58.839844 34.179688 58.898438 33.640625 58.910156 33.097656 C 58.921875 32.558594 58.882812 32.019531 58.800781 31.484375 C 58.714844 30.945312 58.582031 30.421875 58.40625 29.910156 C 58.230469 29.398438 58.007812 28.90625 57.742188 28.433594 C 57.480469 27.960938 57.175781 27.511719 56.832031 27.09375 C 56.488281 26.675781 56.109375 26.289062 55.695312 25.9375 C 55.285156 25.585938 54.84375 25.269531 54.375 24.996094 C 53.910156 24.722656 53.421875 24.492188 52.910156 24.304688 C 52.402344 24.117188 51.882812 23.972656 51.347656 23.878906 C 50.816406 23.785156 50.277344 23.734375 49.734375 23.734375 C 49.257812 23.734375 48.191406 23.761719 47.878906 23.804688 C 47.691406 23.832031 47.519531 23.792969 47.359375 23.6875 C 47.199219 23.585938 47.09375 23.441406 47.039062 23.257812 C 46.875 22.691406 46.65625 22.140625 46.390625 21.609375 C 46.128906 21.082031 45.816406 20.578125 45.464844 20.101562 C 45.109375 19.628906 44.714844 19.1875 44.28125 18.785156 C 43.847656 18.378906 43.382812 18.015625 42.882812 17.695312 C 42.386719 17.375 41.863281 17.101562 41.316406 16.875 C 40.769531 16.644531 40.203125 16.46875 39.625 16.34375 C 39.046875 16.214844 38.460938 16.140625 37.867188 16.121094 C 37.277344 16.097656 36.6875 16.128906 36.101562 16.210938 C 35.511719 16.296875 34.9375 16.429688 34.375 16.617188 C 33.8125 16.800781 33.269531 17.039062 32.75 17.320312 C 32.230469 17.601562 31.738281 17.929688 31.277344 18.300781 C 30.8125 18.671875 30.390625 19.082031 30 19.527344 C 29.609375 19.976562 29.265625 20.453125 28.960938 20.964844 C 28.65625 21.472656 28.402344 22.003906 28.195312 22.558594 C 27.984375 23.113281 27.828125 23.683594 27.722656 24.265625 C 27.613281 24.851562 27.5625 25.4375 27.558594 26.03125 C 27.558594 26.210938 27.566406 26.398438 27.574219 26.582031 C 27.578125 26.710938 27.554688 26.832031 27.496094 26.949219 C 27.4375 27.066406 27.359375 27.160156 27.253906 27.234375 C 27.148438 27.308594 27.03125 27.355469 26.902344 27.371094 C 26.773438 27.386719 26.648438 27.371094 26.527344 27.324219 C 25.632812 26.96875 24.699219 26.792969 23.734375 26.792969 C 23.261719 26.792969 22.792969 26.835938 22.328125 26.921875 C 21.863281 27.007812 21.410156 27.136719 20.96875 27.308594 C 20.527344 27.480469 20.105469 27.6875 19.703125 27.9375 C 19.300781 28.1875 18.925781 28.46875 18.574219 28.789062 C 18.226562 29.109375 17.90625 29.457031 17.621094 29.832031 C 17.335938 30.210938 17.089844 30.613281 16.878906 31.035156 C 16.667969 31.457031 16.496094 31.898438 16.367188 32.355469 C 16.238281 32.808594 16.152344 33.273438 16.109375 33.742188 C 16.066406 34.214844 16.066406 34.683594 16.113281 35.15625 C 16.15625 35.628906 16.242188 36.089844 16.375 36.546875 C 16.503906 37 16.675781 37.4375 16.886719 37.863281 C 17.097656 38.285156 17.347656 38.6875 17.632812 39.0625 C 17.917969 39.441406 18.238281 39.789062 18.585938 40.105469 C 18.9375 40.421875 19.316406 40.707031 19.71875 40.953125 C 20.121094 41.203125 20.542969 41.410156 20.984375 41.582031 C 21.425781 41.75 21.878906 41.878906 22.34375 41.960938 C 22.539062 41.996094 22.699219 42.09375 22.816406 42.25 C 22.9375 42.410156 22.988281 42.585938 22.96875 42.785156 C 22.953125 42.980469 22.871094 43.148438 22.722656 43.28125 C 22.578125 43.414062 22.40625 43.480469 22.207031 43.480469 Z M 22.207031 43.480469 " fill-opacity="1" fill-rule="nonzero"/><path fill="#283167" d="M 41.492188 29.570312 C 41.625 29.734375 41.796875 29.828125 42.007812 29.851562 C 42.21875 29.871094 42.40625 29.816406 42.570312 29.683594 C 42.734375 29.550781 42.828125 29.378906 42.847656 29.167969 C 42.871094 28.957031 42.816406 28.773438 42.683594 28.609375 C 42.378906 28.207031 42.035156 27.847656 41.648438 27.527344 C 41.261719 27.207031 40.84375 26.933594 40.394531 26.710938 C 39.945312 26.488281 39.476562 26.320312 38.984375 26.203125 C 38.496094 26.089844 38.003906 26.03125 37.5 26.03125 C 36.996094 26.03125 36.503906 26.089844 36.015625 26.203125 C 35.523438 26.320312 35.054688 26.488281 34.605469 26.710938 C 34.15625 26.933594 33.738281 27.207031 33.351562 27.527344 C 32.964844 27.847656 32.621094 28.207031 32.316406 28.609375 C 32.183594 28.773438 32.128906 28.957031 32.152344 29.167969 C 32.171875 29.378906 32.265625 29.550781 32.429688 29.683594 C 32.59375 29.816406 32.78125 29.871094 32.992188 29.851562 C 33.203125 29.828125 33.375 29.734375 33.507812 29.570312 C 33.738281 29.257812 34 28.976562 34.296875 28.726562 C 34.59375 28.476562 34.917969 28.265625 35.265625 28.089844 C 35.609375 27.914062 35.972656 27.785156 36.351562 27.695312 C 36.730469 27.605469 37.113281 27.558594 37.5 27.558594 C 37.886719 27.558594 38.269531 27.605469 38.648438 27.695312 C 39.027344 27.785156 39.390625 27.914062 39.734375 28.089844 C 40.082031 28.265625 40.40625 28.476562 40.703125 28.726562 C 41 28.976562 41.261719 29.257812 41.492188 29.570312 Z M 41.492188 29.570312 " fill-opacity="1" fill-rule="nonzero"/><path fill="#283167" d="M 39.554688 31.832031 C 39.679688 32 39.84375 32.105469 40.054688 32.136719 C 40.261719 32.171875 40.453125 32.125 40.625 32.003906 C 40.792969 31.878906 40.898438 31.714844 40.929688 31.503906 C 40.964844 31.296875 40.921875 31.105469 40.796875 30.933594 C 40.429688 30.378906 39.953125 29.9375 39.371094 29.613281 C 38.789062 29.285156 38.167969 29.113281 37.5 29.089844 C 36.832031 29.113281 36.210938 29.285156 35.628906 29.613281 C 35.046875 29.9375 34.570312 30.378906 34.203125 30.933594 C 34.078125 31.105469 34.035156 31.296875 34.066406 31.503906 C 34.101562 31.714844 34.203125 31.878906 34.375 32.003906 C 34.546875 32.128906 34.738281 32.171875 34.945312 32.136719 C 35.15625 32.105469 35.320312 32 35.445312 31.832031 C 35.667969 31.472656 35.960938 31.1875 36.324219 30.972656 C 36.6875 30.757812 37.078125 30.640625 37.5 30.617188 C 37.921875 30.640625 38.3125 30.757812 38.675781 30.972656 C 39.039062 31.1875 39.332031 31.472656 39.554688 31.832031 Z M 39.554688 31.832031 " fill-opacity="1" fill-rule="nonzero"/><path fill="#283167" d="M 38.265625 32.910156 C 38.265625 32.699219 38.191406 32.519531 38.039062 32.371094 C 37.890625 32.222656 37.710938 32.148438 37.5 32.148438 L 37.492188 32.148438 C 37.28125 32.148438 37.101562 32.226562 36.957031 32.375 C 36.808594 32.527344 36.734375 32.707031 36.734375 32.917969 C 36.738281 33.128906 36.8125 33.308594 36.960938 33.457031 C 37.113281 33.601562 37.292969 33.675781 37.503906 33.675781 C 37.714844 33.675781 37.894531 33.601562 38.042969 33.453125 C 38.191406 33.300781 38.265625 33.121094 38.265625 32.910156 Z M 38.265625 32.910156 " fill-opacity="1" fill-rule="nonzero"/></svg>