<svg xmlns="http://www.w3.org/2000/svg" xmlns:xlink="http://www.w3.org/1999/xlink" width="100" zoomAndPan="magnify" viewBox="0 0 75 74.999997" height="100" preserveAspectRatio="xMidYMid meet" version="1.0"><path fill="#ffffff" d="M 29.523438 36.84375 C 27.566406 35.351562 26.59375 33.113281 26.59375 30.671875 L 26.59375 17.90625 L 26.8125 17.894531 C 30.695312 17.699219 34.371094 16.1875 37.347656 13.699219 L 37.496094 13.574219 L 37.644531 13.699219 C 40.621094 16.1875 44.296875 17.699219 48.179688 17.894531 L 48.398438 17.90625 L 48.398438 30.671875 C 48.398438 33.113281 47.425781 35.351562 45.46875 36.84375 L 38.824219 41.90625 C 37.996094 42.535156 36.992188 42.535156 36.164062 41.90625 Z M 41.882812 33.1875 L 43.753906 33.585938 C 44.101562 33.660156 44.457031 33.5 44.636719 33.191406 L 46.109375 30.636719 C 46.289062 30.328125 46.25 29.941406 46.011719 29.675781 L 44.730469 28.253906 C 44.804688 27.582031 44.804688 27.148438 44.730469 26.476562 L 46.011719 25.058594 C 46.25 24.792969 46.289062 24.40625 46.113281 24.09375 L 44.636719 21.539062 C 44.457031 21.230469 44.101562 21.070312 43.753906 21.144531 L 41.882812 21.542969 C 41.339844 21.144531 40.957031 20.925781 40.34375 20.652344 L 39.753906 18.835938 C 39.640625 18.496094 39.328125 18.269531 38.972656 18.269531 L 36.019531 18.269531 C 35.664062 18.269531 35.347656 18.496094 35.238281 18.835938 L 34.648438 20.652344 C 34.035156 20.925781 33.648438 21.148438 33.109375 21.542969 L 31.238281 21.144531 C 30.890625 21.070312 30.535156 21.230469 30.355469 21.539062 L 28.878906 24.09375 C 28.703125 24.40625 28.742188 24.789062 28.980469 25.054688 L 30.257812 26.476562 C 30.1875 27.148438 30.1875 27.582031 30.257812 28.253906 L 28.980469 29.675781 C 28.742188 29.941406 28.699219 30.324219 28.878906 30.636719 L 30.355469 33.191406 C 30.535156 33.5 30.890625 33.660156 31.238281 33.585938 L 33.109375 33.1875 C 33.648438 33.585938 34.035156 33.808594 34.648438 34.078125 L 35.238281 35.894531 C 35.347656 36.234375 35.664062 36.460938 36.019531 36.460938 L 38.972656 36.460938 C 39.328125 36.460938 39.640625 36.234375 39.753906 35.894531 L 40.34375 34.078125 C 40.957031 33.808594 41.34375 33.582031 41.882812 33.1875 Z M 20.199219 61.628906 L 15.347656 61.628906 C 16.066406 60.640625 16.378906 60.140625 16.847656 58.964844 L 18.695312 58.964844 C 19.167969 60.140625 19.476562 60.640625 20.199219 61.628906 Z M 36.570312 58.964844 L 38.421875 58.964844 C 38.886719 60.140625 39.199219 60.640625 39.921875 61.628906 L 35.070312 61.628906 C 35.792969 60.640625 36.101562 60.140625 36.570312 58.964844 Z M 56.296875 58.964844 L 58.144531 58.964844 C 58.613281 60.140625 58.925781 60.640625 59.648438 61.628906 L 54.792969 61.628906 C 55.515625 60.640625 55.828125 60.140625 56.296875 58.964844 Z M 56.296875 58.964844 " fill-opacity="1" fill-rule="evenodd"/><path fill="#283167" d="M 38.480469 19.765625 L 39.011719 21.398438 C 39.089844 21.648438 39.28125 21.851562 39.527344 21.941406 C 40.125 22.167969 40.679688 22.484375 41.171875 22.894531 C 41.375 23.0625 41.644531 23.125 41.902344 23.070312 L 43.582031 22.714844 L 44.566406 24.417969 L 43.417969 25.695312 C 43.242188 25.890625 43.164062 26.15625 43.207031 26.414062 C 43.3125 27.042969 43.3125 27.6875 43.207031 28.316406 C 43.164062 28.578125 43.242188 28.839844 43.417969 29.035156 L 44.566406 30.3125 L 43.582031 32.015625 L 41.902344 31.660156 C 41.644531 31.605469 41.378906 31.671875 41.171875 31.835938 C 40.679688 32.246094 40.125 32.566406 39.527344 32.789062 C 39.28125 32.878906 39.089844 33.082031 39.011719 33.332031 L 38.480469 34.960938 L 36.511719 34.960938 L 35.980469 33.332031 C 35.902344 33.082031 35.707031 32.878906 35.460938 32.789062 C 34.867188 32.566406 34.3125 32.246094 33.816406 31.835938 C 33.617188 31.671875 33.347656 31.605469 33.089844 31.660156 L 31.40625 32.015625 L 30.425781 30.3125 L 31.574219 29.035156 C 31.75 28.839844 31.828125 28.578125 31.785156 28.316406 C 31.679688 27.6875 31.679688 27.042969 31.785156 26.414062 C 31.828125 26.15625 31.75 25.890625 31.574219 25.695312 L 30.425781 24.417969 L 31.40625 22.714844 L 33.089844 23.070312 C 33.347656 23.125 33.617188 23.0625 33.816406 22.894531 C 34.3125 22.484375 34.867188 22.167969 35.460938 21.941406 C 35.707031 21.851562 35.902344 21.648438 35.980469 21.398438 L 36.511719 19.765625 Z M 35.019531 18.765625 L 34.460938 20.484375 C 33.964844 20.703125 33.492188 20.976562 33.054688 21.296875 L 31.285156 20.921875 C 30.839844 20.828125 30.386719 21.027344 30.15625 21.425781 L 28.679688 23.980469 C 28.453125 24.375 28.503906 24.871094 28.808594 25.210938 L 30.019531 26.554688 C 29.960938 27.105469 29.960938 27.625 30.019531 28.175781 L 28.8125 29.519531 C 28.503906 29.859375 28.453125 30.355469 28.679688 30.75 L 30.15625 33.308594 C 30.386719 33.703125 30.839844 33.90625 31.285156 33.808594 L 33.054688 33.433594 C 33.492188 33.757812 33.964844 34.027344 34.460938 34.246094 L 35.019531 35.964844 C 35.160156 36.402344 35.5625 36.691406 36.019531 36.691406 L 38.972656 36.691406 C 39.429688 36.691406 39.832031 36.402344 39.972656 35.964844 L 40.53125 34.246094 C 41.027344 34.027344 41.496094 33.757812 41.9375 33.433594 L 43.707031 33.808594 C 44.152344 33.90625 44.605469 33.703125 44.835938 33.308594 L 46.308594 30.753906 C 46.539062 30.355469 46.488281 29.859375 46.183594 29.519531 L 44.972656 28.175781 C 45.03125 27.628906 45.03125 27.101562 44.972656 26.554688 L 46.179688 25.210938 C 46.488281 24.871094 46.539062 24.375 46.3125 23.980469 L 44.835938 21.425781 C 44.605469 21.027344 44.152344 20.828125 43.703125 20.921875 L 41.933594 21.296875 C 41.496094 20.976562 41.027344 20.703125 40.53125 20.484375 L 39.972656 18.765625 C 39.832031 18.332031 39.429688 18.039062 38.972656 18.039062 L 36.019531 18.039062 C 35.5625 18.039062 35.160156 18.332031 35.019531 18.765625 Z M 37.496094 25.21875 C 36.3125 25.21875 35.347656 26.179688 35.347656 27.367188 C 35.347656 28.550781 36.3125 29.515625 37.496094 29.515625 C 38.679688 29.515625 39.644531 28.550781 39.644531 27.367188 C 39.644531 26.179688 38.679688 25.21875 37.496094 25.21875 Z M 33.617188 27.367188 C 33.617188 29.503906 35.355469 31.246094 37.496094 31.246094 C 39.632812 31.246094 41.375 29.503906 41.375 27.367188 C 41.375 25.226562 39.632812 23.488281 37.496094 23.488281 C 35.355469 23.488281 33.617188 25.226562 33.617188 27.367188 Z M 64.296875 57.226562 C 64.296875 57.355469 64.1875 57.464844 64.058594 57.464844 L 50.378906 57.464844 C 50.25 57.464844 50.140625 57.355469 50.140625 57.226562 L 50.140625 50.121094 C 50.140625 49.992188 50.25 49.882812 50.378906 49.882812 L 64.058594 49.882812 C 64.1875 49.882812 64.296875 49.992188 64.296875 50.121094 Z M 55.246094 61.398438 C 55.726562 60.742188 56.125 60.011719 56.453125 59.195312 L 57.988281 59.195312 C 58.3125 60.011719 58.710938 60.742188 59.191406 61.398438 Z M 48.167969 30.671875 L 48.167969 18.125 C 44.304688 17.933594 40.566406 16.445312 37.496094 13.875 C 34.425781 16.445312 30.6875 17.933594 26.824219 18.125 L 26.824219 30.671875 C 26.824219 33.140625 27.832031 35.269531 29.664062 36.660156 L 36.304688 41.722656 C 37.050781 42.289062 37.941406 42.289062 38.6875 41.722656 L 45.328125 36.660156 C 47.160156 35.265625 48.167969 33.140625 48.167969 30.671875 Z M 44.335938 49.882812 C 44.464844 49.882812 44.574219 49.992188 44.574219 50.121094 L 44.574219 57.226562 C 44.574219 57.355469 44.464844 57.464844 44.335938 57.464844 L 30.65625 57.464844 C 30.527344 57.464844 30.417969 57.355469 30.417969 57.226562 L 30.417969 50.121094 C 30.417969 49.992188 30.527344 49.882812 30.65625 49.882812 Z M 35.523438 61.398438 C 36.003906 60.742188 36.402344 60.011719 36.726562 59.195312 L 38.265625 59.195312 C 38.589844 60.011719 38.988281 60.742188 39.46875 61.398438 Z M 24.613281 49.882812 C 24.742188 49.882812 24.851562 49.992188 24.851562 50.121094 L 24.851562 57.226562 C 24.851562 57.355469 24.742188 57.464844 24.613281 57.464844 L 10.933594 57.464844 C 10.800781 57.464844 10.691406 57.355469 10.691406 57.226562 L 10.691406 50.121094 C 10.691406 49.992188 10.800781 49.882812 10.933594 49.882812 Z M 15.800781 61.398438 C 16.277344 60.742188 16.679688 60.011719 17.003906 59.195312 L 18.539062 59.195312 C 18.867188 60.011719 19.265625 60.742188 19.746094 61.398438 Z M 64.058594 48.152344 L 58.085938 48.152344 L 58.085938 27.667969 C 58.085938 27.191406 57.695312 26.804688 57.21875 26.804688 L 49.898438 26.804688 L 49.898438 17.28125 C 49.898438 16.804688 49.507812 16.417969 49.03125 16.417969 C 45.046875 16.417969 41.15625 14.878906 38.078125 12.089844 C 37.75 11.789062 37.246094 11.789062 36.917969 12.089844 C 33.835938 14.878906 29.945312 16.417969 25.960938 16.417969 C 25.480469 16.417969 25.09375 16.804688 25.09375 17.28125 L 25.09375 26.804688 L 17.773438 26.804688 C 17.292969 26.804688 16.90625 27.191406 16.90625 27.667969 L 16.90625 48.152344 L 10.933594 48.152344 C 9.847656 48.152344 8.964844 49.035156 8.964844 50.121094 L 8.964844 57.226562 C 8.964844 58.3125 9.847656 59.195312 10.933594 59.195312 L 15.113281 59.195312 C 14.691406 60.054688 14.160156 60.78125 13.5 61.398438 L 12.199219 61.398438 C 11.722656 61.398438 11.335938 61.785156 11.335938 62.261719 C 11.335938 62.742188 11.722656 63.128906 12.199219 63.128906 L 23.34375 63.128906 C 23.824219 63.128906 24.210938 62.742188 24.210938 62.261719 C 24.210938 61.785156 23.824219 61.398438 23.34375 61.398438 L 22.042969 61.398438 C 21.386719 60.78125 20.851562 60.054688 20.429688 59.195312 L 24.613281 59.195312 C 25.699219 59.195312 26.582031 58.3125 26.582031 57.226562 L 26.582031 50.121094 C 26.582031 49.035156 25.699219 48.152344 24.613281 48.152344 L 18.636719 48.152344 L 18.636719 28.535156 L 25.09375 28.535156 L 25.09375 30.671875 C 25.09375 33.691406 26.34375 36.308594 28.613281 38.035156 L 35.257812 43.097656 C 35.683594 43.421875 36.148438 43.644531 36.632812 43.765625 L 36.632812 48.152344 L 30.65625 48.152344 C 29.570312 48.152344 28.6875 49.035156 28.6875 50.121094 L 28.6875 57.226562 C 28.6875 58.3125 29.570312 59.195312 30.65625 59.195312 L 34.835938 59.195312 C 34.414062 60.054688 33.882812 60.78125 33.222656 61.398438 L 31.921875 61.398438 C 31.445312 61.398438 31.058594 61.785156 31.058594 62.261719 C 31.058594 62.742188 31.445312 63.128906 31.921875 63.128906 L 43.070312 63.128906 C 43.546875 63.128906 43.933594 62.742188 43.933594 62.261719 C 43.933594 61.785156 43.546875 61.398438 43.070312 61.398438 L 41.765625 61.398438 C 41.109375 60.78125 40.578125 60.054688 40.15625 59.195312 L 44.335938 59.195312 C 45.421875 59.195312 46.304688 58.3125 46.304688 57.226562 L 46.304688 50.121094 C 46.304688 49.035156 45.421875 48.152344 44.335938 48.152344 L 38.359375 48.152344 L 38.359375 43.765625 C 38.839844 43.644531 39.308594 43.421875 39.734375 43.097656 L 46.378906 38.035156 C 48.648438 36.308594 49.898438 33.691406 49.898438 30.671875 L 49.898438 28.535156 L 56.355469 28.535156 L 56.355469 48.152344 L 50.378906 48.152344 C 49.292969 48.152344 48.410156 49.035156 48.410156 50.121094 L 48.410156 57.226562 C 48.410156 58.3125 49.292969 59.195312 50.378906 59.195312 L 54.5625 59.195312 C 54.140625 60.054688 53.605469 60.78125 52.949219 61.398438 L 51.648438 61.398438 C 51.167969 61.398438 50.78125 61.785156 50.78125 62.261719 C 50.78125 62.742188 51.167969 63.128906 51.648438 63.128906 L 62.792969 63.128906 C 63.269531 63.128906 63.65625 62.742188 63.65625 62.261719 C 63.65625 61.785156 63.269531 61.398438 62.792969 61.398438 L 61.492188 61.398438 C 60.832031 60.78125 60.300781 60.054688 59.878906 59.195312 L 64.058594 59.195312 C 65.144531 59.195312 66.027344 58.3125 66.027344 57.226562 L 66.027344 50.121094 C 66.027344 49.035156 65.144531 48.152344 64.058594 48.152344 Z M 64.058594 48.152344 " fill-opacity="1" fill-rule="evenodd"/></svg>