<svg xmlns="http://www.w3.org/2000/svg" xmlns:xlink="http://www.w3.org/1999/xlink" width="100" zoomAndPan="magnify" viewBox="0 0 75 74.999997" height="100" preserveAspectRatio="xMidYMid meet" version="1.0"><defs><clipPath id="c7ef6d3dd5"><path d="M 11.359375 13.199219 L 63.859375 13.199219 L 63.859375 65.699219 L 11.359375 65.699219 Z M 11.359375 13.199219 " clip-rule="nonzero"/></clipPath></defs><g clip-path="url(#c7ef6d3dd5)"><path fill="#283167" d="M 13.972656 56.765625 L 33.066406 56.765625 C 33.753906 58.085938 34.605469 59.289062 35.625 60.375 C 36.644531 61.457031 37.792969 62.386719 39.066406 63.152344 C 40.34375 63.921875 41.695312 64.503906 43.132812 64.898438 C 44.566406 65.292969 46.03125 65.484375 47.519531 65.476562 C 56.40625 65.476562 63.636719 58.496094 63.636719 49.917969 C 63.621094 48.011719 63.339844 46.144531 62.792969 44.320312 C 62.246094 42.492188 61.457031 40.78125 60.425781 39.175781 C 60.347656 39.0625 60.257812 38.957031 60.152344 38.867188 L 60.152344 15.8125 C 60.152344 15.46875 60.085938 15.132812 59.953125 14.8125 C 59.820312 14.492188 59.632812 14.210938 59.386719 13.964844 C 59.140625 13.71875 58.859375 13.53125 58.539062 13.398438 C 58.21875 13.265625 57.886719 13.199219 57.539062 13.199219 L 13.972656 13.199219 C 13.628906 13.199219 13.292969 13.265625 12.972656 13.398438 C 12.652344 13.53125 12.371094 13.71875 12.125 13.964844 C 11.878906 14.210938 11.691406 14.492188 11.558594 14.8125 C 11.425781 15.132812 11.359375 15.46875 11.359375 15.8125 L 11.359375 54.152344 C 11.359375 54.496094 11.425781 54.832031 11.558594 55.152344 C 11.691406 55.472656 11.878906 55.753906 12.125 56 C 12.371094 56.242188 12.652344 56.433594 12.972656 56.566406 C 13.292969 56.699219 13.628906 56.765625 13.972656 56.765625 Z M 13.101562 54.152344 L 13.101562 46.308594 L 24.429688 46.308594 L 24.429688 55.023438 L 13.972656 55.023438 C 13.734375 55.023438 13.527344 54.9375 13.359375 54.765625 C 13.1875 54.597656 13.101562 54.390625 13.101562 54.152344 Z M 48.824219 25.398438 L 48.824219 28.867188 C 48.121094 28.339844 47.382812 27.835938 46.597656 27.355469 C 46.375 27.21875 46.128906 27.148438 45.867188 27.140625 C 45.605469 27.132812 45.359375 27.191406 45.128906 27.320312 C 44.894531 27.441406 44.707031 27.617188 44.566406 27.84375 C 44.429688 28.066406 44.351562 28.3125 44.34375 28.574219 C 44.40625 30.625 43.828125 32.46875 42.601562 34.109375 L 26.171875 34.109375 L 26.171875 25.398438 Z M 57.832031 39.558594 C 57.667969 40.152344 57.445312 40.722656 57.160156 41.269531 C 56.699219 39.367188 55.992188 37.5625 55.039062 35.851562 L 58.410156 35.851562 L 58.410156 38.78125 C 58.121094 38.96875 57.929688 39.230469 57.832031 39.558594 Z M 58.410156 34.109375 L 53.953125 34.109375 C 52.972656 32.707031 51.84375 31.4375 50.566406 30.296875 L 50.566406 25.398438 L 58.410156 25.398438 Z M 41.089844 35.851562 C 40.671875 36.289062 40.21875 36.753906 39.699219 37.277344 L 39.273438 37.707031 C 38.941406 38.046875 38.640625 38.375 38.371094 38.703125 L 38.371094 35.851562 Z M 24.429688 34.109375 L 13.101562 34.109375 L 13.101562 25.398438 L 24.429688 25.398438 Z M 36.628906 35.851562 L 36.628906 41.460938 C 36.238281 42.34375 36.007812 43.265625 35.9375 44.226562 C 35.597656 43.828125 35.332031 43.382812 35.132812 42.894531 C 35.019531 42.59375 34.828125 42.355469 34.558594 42.183594 C 34.289062 42.007812 33.992188 41.929688 33.671875 41.953125 C 33.355469 41.964844 33.070312 42.070312 32.820312 42.265625 C 32.566406 42.460938 32.398438 42.710938 32.308594 43.015625 C 32.179688 43.433594 32.054688 43.96875 31.9375 44.566406 L 13.101562 44.566406 L 13.101562 35.851562 Z M 26.171875 55.023438 L 26.171875 46.308594 L 31.652344 46.308594 C 31.492188 47.507812 31.40625 48.707031 31.398438 49.917969 C 31.402344 51.671875 31.707031 53.375 32.308594 55.023438 Z M 56.667969 55.035156 C 56.652344 55.621094 56.582031 56.195312 56.453125 56.765625 C 56.328125 57.335938 56.144531 57.886719 55.910156 58.421875 C 55.671875 58.957031 55.386719 59.460938 55.050781 59.9375 C 54.714844 60.417969 54.335938 60.859375 53.914062 61.261719 C 53.492188 61.664062 53.035156 62.023438 52.542969 62.335938 C 52.050781 62.648438 51.53125 62.914062 50.988281 63.125 C 50.445312 63.335938 49.882812 63.492188 49.308594 63.59375 C 48.734375 63.695312 48.15625 63.738281 47.570312 63.726562 C 43.535156 63.726562 39.242188 61.09375 39.242188 56.214844 C 39.242188 52.035156 41.132812 50.15625 42.800781 48.503906 L 43.207031 48.097656 C 45.46875 45.816406 46.597656 44.222656 46.878906 41.4375 C 47.753906 42.050781 48.542969 42.757812 49.253906 43.554688 C 49.960938 44.355469 50.566406 45.226562 51.070312 46.167969 C 51.570312 47.109375 51.957031 48.097656 52.226562 49.128906 C 52.496094 50.164062 52.640625 51.214844 52.664062 52.28125 C 52.675781 52.539062 52.757812 52.773438 52.910156 52.980469 C 53.0625 53.191406 53.261719 53.339844 53.503906 53.429688 C 53.746094 53.519531 53.996094 53.535156 54.246094 53.476562 C 54.5 53.417969 54.714844 53.292969 54.890625 53.105469 C 55.3125 52.648438 55.640625 52.132812 55.871094 51.554688 C 56.40625 52.652344 56.671875 53.8125 56.667969 55.035156 Z M 61.894531 49.917969 C 61.890625 50.925781 61.773438 51.917969 61.546875 52.902344 C 61.320312 53.882812 60.988281 54.828125 60.550781 55.734375 C 60.113281 56.644531 59.582031 57.492188 58.957031 58.28125 C 58.332031 59.070312 57.625 59.785156 56.839844 60.417969 C 57.882812 58.773438 58.40625 56.980469 58.410156 55.035156 C 58.425781 53.097656 57.894531 51.320312 56.816406 49.707031 C 56.679688 49.5 56.492188 49.347656 56.261719 49.25 C 56.035156 49.152344 55.796875 49.125 55.550781 49.171875 C 55.304688 49.210938 55.085938 49.316406 54.902344 49.488281 C 54.714844 49.65625 54.589844 49.863281 54.527344 50.105469 C 54.460938 50.347656 54.382812 50.585938 54.289062 50.816406 C 54.152344 49.667969 53.894531 48.546875 53.507812 47.457031 C 53.117188 46.367188 52.617188 45.332031 51.996094 44.355469 C 51.375 43.375 50.65625 42.480469 49.835938 41.664062 C 49.011719 40.847656 48.113281 40.132812 47.128906 39.519531 C 47.035156 39.464844 46.933594 39.417969 46.828125 39.386719 C 46.71875 39.355469 46.613281 39.339844 46.5 39.335938 C 46.390625 39.332031 46.28125 39.34375 46.171875 39.371094 C 46.0625 39.398438 45.960938 39.4375 45.863281 39.488281 C 45.765625 39.542969 45.675781 39.605469 45.59375 39.683594 C 45.511719 39.757812 45.441406 39.84375 45.382812 39.9375 C 45.324219 40.035156 45.28125 40.132812 45.246094 40.238281 C 45.214844 40.347656 45.195312 40.457031 45.191406 40.566406 C 45.082031 43.265625 44.253906 44.566406 41.96875 46.871094 L 41.574219 47.265625 C 39.851562 48.96875 37.5 51.304688 37.5 56.214844 C 37.507812 57.902344 37.957031 59.46875 38.839844 60.90625 C 37.964844 60.28125 37.175781 59.558594 36.46875 58.746094 C 35.765625 57.933594 35.164062 57.050781 34.671875 56.09375 C 34.175781 55.140625 33.796875 54.140625 33.539062 53.097656 C 33.28125 52.050781 33.148438 50.992188 33.140625 49.917969 C 33.15625 47.976562 33.378906 46.058594 33.804688 44.164062 C 34.144531 44.808594 34.578125 45.382812 35.105469 45.890625 C 35.324219 46.09375 35.578125 46.226562 35.871094 46.28125 C 36.167969 46.335938 36.453125 46.304688 36.726562 46.191406 C 37.003906 46.074219 37.226562 45.894531 37.394531 45.648438 C 37.5625 45.398438 37.648438 45.125 37.65625 44.828125 C 37.675781 43.519531 37.996094 41.488281 40.515625 38.933594 L 40.941406 38.503906 C 44.136719 35.269531 45.789062 33.597656 46.0625 29.074219 C 47.277344 29.785156 48.40625 30.617188 49.449219 31.5625 C 50.492188 32.511719 51.421875 33.558594 52.246094 34.703125 C 53.070312 35.84375 53.765625 37.0625 54.335938 38.351562 C 54.902344 39.640625 55.332031 40.972656 55.621094 42.351562 C 55.679688 42.632812 55.8125 42.871094 56.011719 43.070312 C 56.210938 43.273438 56.453125 43.402344 56.730469 43.460938 C 57.007812 43.523438 57.277344 43.503906 57.539062 43.40625 C 57.804688 43.304688 58.019531 43.140625 58.1875 42.914062 C 58.671875 42.226562 59.042969 41.480469 59.304688 40.679688 C 61.003906 43.523438 61.867188 46.601562 61.894531 49.917969 Z M 58.410156 15.8125 L 58.410156 23.65625 L 38.371094 23.65625 L 38.371094 14.941406 L 57.539062 14.941406 C 57.777344 14.941406 57.984375 15.027344 58.15625 15.199219 C 58.324219 15.367188 58.410156 15.574219 58.410156 15.8125 Z M 13.972656 14.941406 L 36.628906 14.941406 L 36.628906 23.65625 L 13.101562 23.65625 L 13.101562 15.8125 C 13.101562 15.574219 13.1875 15.367188 13.359375 15.199219 C 13.527344 15.027344 13.734375 14.941406 13.972656 14.941406 Z M 13.972656 14.941406 " fill-opacity="1" fill-rule="nonzero"/></g></svg>