<svg width="826" height="149" viewBox="0 0 826 149" fill="none" xmlns="http://www.w3.org/2000/svg">
<path d="M56.6395 147.864C54.7311 147.864 53.4382 146.955 52.7656 145.133L0.400751 4.83321C0.133584 3.99821 0 3.43336 0 3.14356C0 1.74371 1.08775 1.04133 3.26326 1.04133H12.6332C13.7114 1.04133 14.5606 1.25745 15.1713 1.68968C15.782 2.1121 16.2256 2.80465 16.5071 3.77227L61.7347 126.252H62.7462L107.974 3.77227C108.518 1.95492 109.811 1.04133 111.848 1.04133H121.828C123.594 1.04133 124.481 1.81739 124.481 3.35968L124.061 5.02968L71.7154 145.133C71.0283 146.955 69.807 147.864 68.0513 147.864H56.6395Z" fill="white"/>
<path d="M180.285 148.905C169.279 148.905 160.887 145.938 155.114 140.005C149.351 134.062 146.47 125.422 146.47 114.09V34.8146C146.47 23.3554 149.351 14.6911 155.114 8.82156C160.887 2.94219 169.279 4.95911e-05 180.285 4.95911e-05H228.147C239.291 4.95911e-05 247.745 2.94219 253.508 8.82156C259.281 14.6911 262.172 23.3554 262.172 34.8146V114.09C262.172 125.422 259.281 134.062 253.508 140.005C247.745 145.938 239.291 148.905 228.147 148.905H180.285ZM226.925 134.229C233.309 134.229 238.132 132.554 241.39 129.199C244.644 125.849 246.276 120.883 246.276 114.306V34.5985C246.276 21.3171 239.826 14.6764 226.925 14.6764H181.698C168.797 14.6764 162.347 21.3171 162.347 34.5985V114.306C162.347 120.883 163.974 125.849 167.232 129.199C170.5 132.554 175.324 134.229 181.698 134.229H226.925Z" fill="white"/>
<path d="M411.073 143.246C411.746 144.229 412.085 145.069 412.085 145.761C412.085 147.166 411.207 147.864 409.451 147.864H397.619C395.721 147.864 394.094 147.097 392.734 145.565L338.346 82.0067H319.816V145.133C319.816 146.955 318.862 147.864 316.954 147.864H306.573C304.803 147.864 303.92 146.955 303.92 145.133V3.77227C303.92 1.95492 304.803 1.04133 306.573 1.04133H375.006C386.417 1.04133 394.738 3.73297 399.967 9.11626C405.195 14.4995 407.81 23.0656 407.81 34.8146V48.2335C407.81 59.9824 405.195 68.5485 399.967 73.9318C394.738 79.3151 386.417 82.0067 375.006 82.0067H359.529V83.048L411.073 143.246ZM319.816 15.7373V67.3304H373.994C380.239 67.3304 384.819 65.8323 387.734 62.8312C390.659 59.8203 392.123 55.1001 392.123 48.6657V34.402C392.123 27.9725 390.659 23.2572 387.734 20.2561C384.819 17.2452 380.239 15.7373 373.994 15.7373H319.816Z" fill="white"/>
<path d="M428.575 147.864C426.677 147.864 425.732 147.097 425.732 145.565C425.732 144.858 425.932 144.224 426.343 143.659L472.792 72.7726L428.575 5.24579C428.027 4.68585 427.755 3.98347 427.755 3.14356C427.755 1.74371 428.637 1.04133 430.407 1.04133H440.808C441.886 1.04133 442.735 1.21816 443.346 1.5718C443.957 1.92545 444.605 2.52468 445.292 3.35968L481.341 58.9411H482.161L518.21 3.35968C518.897 2.52468 519.546 1.92545 520.157 1.5718C520.767 1.21816 521.612 1.04133 522.695 1.04133H532.885C533.696 1.04133 534.374 1.25745 534.908 1.68968C535.452 2.1121 535.729 2.66712 535.729 3.35968C535.729 3.92453 535.523 4.55324 535.118 5.24579L490.711 72.7726L536.95 143.659C537.355 144.224 537.561 144.926 537.561 145.761C537.561 147.166 536.745 147.864 535.118 147.864H524.737C523.639 147.864 522.757 147.697 522.084 147.353C521.406 146.999 520.729 146.331 520.042 145.349L482.161 86.8399H481.341L468.307 106.958L443.25 145.349C442.296 147.029 440.798 147.864 438.766 147.864H428.575Z" fill="white"/>
<path d="M592.77 148.905C581.764 148.905 573.372 145.938 567.599 140.005C561.836 134.061 558.954 125.422 558.954 114.09V34.8145C558.954 23.3554 561.836 14.6911 567.599 8.82151C573.372 2.94214 581.764 0 592.77 0H640.631C651.776 0 660.23 2.94214 665.993 8.82151C671.766 14.6911 674.657 23.3554 674.657 34.8145V114.09C674.657 125.422 671.766 134.061 665.993 140.005C660.23 145.938 651.776 148.905 640.631 148.905H592.77ZM639.41 134.228C645.793 134.228 650.616 132.554 653.875 129.199C657.129 125.849 658.76 120.883 658.76 114.306V34.5984C658.76 21.317 652.31 14.6763 639.41 14.6763H594.182C581.282 14.6763 574.831 21.317 574.831 34.5984V114.306C574.831 120.883 576.458 125.849 579.717 129.199C582.985 132.554 587.808 134.228 594.182 134.228H639.41Z" fill="white"/>
<path d="M749.209 148.905C738.202 148.905 729.811 145.938 724.038 140.005C718.275 134.061 715.393 125.422 715.393 114.09V34.8145C715.393 23.3554 718.275 14.6911 724.038 8.82151C729.811 2.94214 738.202 0 749.209 0H791.975C803.119 0 811.573 2.94214 817.336 8.82151C823.109 14.6911 826 23.3554 826 34.8145V43.8325C826 45.6548 825.051 46.5634 823.157 46.5634H812.756C810.987 46.5634 810.104 45.6548 810.104 43.8325V34.5984C810.104 21.317 803.654 14.6763 790.753 14.6763H750.621C737.721 14.6763 731.27 21.317 731.27 34.5984V114.306C731.27 120.883 732.897 125.849 736.156 129.199C739.424 132.554 744.247 134.228 750.621 134.228H790.753C797.137 134.228 801.96 132.554 805.219 129.199C808.472 125.849 810.104 120.883 810.104 114.306V105.072C810.104 103.122 810.987 102.145 812.756 102.145H823.157C825.051 102.145 826 103.122 826 105.072V114.09C826 125.422 823.109 134.061 817.336 140.005C811.573 145.938 803.119 148.905 791.975 148.905H749.209Z" fill="white"/>
</svg>
