<svg xmlns="http://www.w3.org/2000/svg" xmlns:xlink="http://www.w3.org/1999/xlink" width="280" zoomAndPan="magnify" viewBox="0 0 210 74.999997" height="100" preserveAspectRatio="xMidYMid meet" version="1.0"><defs><g/></defs><g fill="#0ad60d" fill-opacity="1"><g transform="translate(4.230473, 54.770455)"><g><path d="M 13.921875 0 C 13.472656 0 13.164062 -0.207031 13 -0.625 L 0.53125 -33.09375 C 0.46875 -33.28125 0.4375 -33.40625 0.4375 -33.46875 C 0.4375 -33.789062 0.695312 -33.953125 1.21875 -33.953125 L 3.4375 -33.953125 C 3.695312 -33.953125 3.898438 -33.90625 4.046875 -33.8125 C 4.191406 -33.71875 4.296875 -33.554688 4.359375 -33.328125 L 15.140625 -5 L 15.375 -5 L 26.15625 -33.328125 C 26.28125 -33.742188 26.585938 -33.953125 27.078125 -33.953125 L 29.453125 -33.953125 C 29.867188 -33.953125 30.078125 -33.773438 30.078125 -33.421875 L 29.984375 -33.046875 L 17.515625 -0.625 C 17.347656 -0.207031 17.054688 0 16.640625 0 Z M 13.921875 0 "/></g></g></g><g fill="#0ad60d" fill-opacity="1"><g transform="translate(34.698282, 54.770455)"><g><path d="M 12.90625 0.25 C 10.28125 0.25 8.28125 -0.4375 6.90625 -1.8125 C 5.53125 -3.1875 4.84375 -5.1875 4.84375 -7.8125 L 4.84375 -26.15625 C 4.84375 -28.800781 5.53125 -30.800781 6.90625 -32.15625 C 8.28125 -33.519531 10.28125 -34.203125 12.90625 -34.203125 L 24.3125 -34.203125 C 26.957031 -34.203125 28.96875 -33.519531 30.34375 -32.15625 C 31.71875 -30.800781 32.40625 -28.800781 32.40625 -26.15625 L 32.40625 -7.8125 C 32.40625 -5.1875 31.71875 -3.1875 30.34375 -1.8125 C 28.96875 -0.4375 26.957031 0.25 24.3125 0.25 Z M 24.015625 -3.15625 C 25.535156 -3.15625 26.679688 -3.539062 27.453125 -4.3125 C 28.234375 -5.09375 28.625 -6.242188 28.625 -7.765625 L 28.625 -26.203125 C 28.625 -29.273438 27.085938 -30.8125 24.015625 -30.8125 L 13.25 -30.8125 C 10.175781 -30.8125 8.640625 -29.273438 8.640625 -26.203125 L 8.640625 -7.765625 C 8.640625 -6.242188 9.023438 -5.09375 9.796875 -4.3125 C 10.578125 -3.539062 11.726562 -3.15625 13.25 -3.15625 Z M 24.015625 -3.15625 "/></g></g></g><g fill="#0ad60d" fill-opacity="1"><g transform="translate(71.958274, 54.770455)"><g><path d="M 30.609375 -1.0625 C 30.773438 -0.84375 30.859375 -0.648438 30.859375 -0.484375 C 30.859375 -0.160156 30.644531 0 30.21875 0 L 27.40625 0 C 26.957031 0 26.570312 -0.175781 26.25 -0.53125 L 13.296875 -15.234375 L 8.875 -15.234375 L 8.875 -0.625 C 8.875 -0.207031 8.648438 0 8.203125 0 L 5.71875 0 C 5.300781 0 5.09375 -0.207031 5.09375 -0.625 L 5.09375 -33.328125 C 5.09375 -33.742188 5.300781 -33.953125 5.71875 -33.953125 L 22.03125 -33.953125 C 24.738281 -33.953125 26.71875 -33.328125 27.96875 -32.078125 C 29.21875 -30.835938 29.84375 -28.863281 29.84375 -26.15625 L 29.84375 -23.046875 C 29.84375 -20.328125 29.21875 -18.34375 27.96875 -17.09375 C 26.71875 -15.851562 24.738281 -15.234375 22.03125 -15.234375 L 18.34375 -15.234375 L 18.34375 -14.984375 Z M 8.875 -30.5625 L 8.875 -18.625 L 21.78125 -18.625 C 23.269531 -18.625 24.359375 -18.972656 25.046875 -19.671875 C 25.742188 -20.367188 26.09375 -21.460938 26.09375 -22.953125 L 26.09375 -26.25 C 26.09375 -27.738281 25.742188 -28.828125 25.046875 -29.515625 C 24.359375 -30.210938 23.269531 -30.5625 21.78125 -30.5625 Z M 8.875 -30.5625 "/></g></g></g><g fill="#0ad60d" fill-opacity="1"><g transform="translate(105.870686, 54.770455)"><g><path d="M 0.875 0 C 0.414062 0 0.1875 -0.175781 0.1875 -0.53125 C 0.1875 -0.695312 0.238281 -0.84375 0.34375 -0.96875 L 11.40625 -17.375 L 0.875 -32.984375 C 0.738281 -33.117188 0.671875 -33.28125 0.671875 -33.46875 C 0.671875 -33.789062 0.882812 -33.953125 1.3125 -33.953125 L 3.78125 -33.953125 C 4.039062 -33.953125 4.242188 -33.910156 4.390625 -33.828125 C 4.535156 -33.753906 4.6875 -33.617188 4.84375 -33.421875 L 13.4375 -20.578125 L 13.640625 -20.578125 L 22.21875 -33.421875 C 22.382812 -33.617188 22.539062 -33.753906 22.6875 -33.828125 C 22.832031 -33.910156 23.03125 -33.953125 23.28125 -33.953125 L 25.71875 -33.953125 C 25.90625 -33.953125 26.0625 -33.90625 26.1875 -33.8125 C 26.320312 -33.71875 26.390625 -33.585938 26.390625 -33.421875 C 26.390625 -33.296875 26.34375 -33.148438 26.25 -32.984375 L 15.671875 -17.375 L 26.6875 -0.96875 C 26.78125 -0.84375 26.828125 -0.679688 26.828125 -0.484375 C 26.828125 -0.160156 26.632812 0 26.25 0 L 23.765625 0 C 23.515625 0 23.304688 -0.0390625 23.140625 -0.125 C 22.984375 -0.207031 22.820312 -0.359375 22.65625 -0.578125 L 13.640625 -14.125 L 13.4375 -14.125 L 10.328125 -9.453125 L 4.359375 -0.578125 C 4.140625 -0.191406 3.785156 0 3.296875 0 Z M 0.875 0 "/></g></g></g><g fill="#0ad60d" fill-opacity="1"><g transform="translate(132.942404, 54.770455)"><g><path d="M 12.90625 0.25 C 10.28125 0.25 8.28125 -0.4375 6.90625 -1.8125 C 5.53125 -3.1875 4.84375 -5.1875 4.84375 -7.8125 L 4.84375 -26.15625 C 4.84375 -28.800781 5.53125 -30.800781 6.90625 -32.15625 C 8.28125 -33.519531 10.28125 -34.203125 12.90625 -34.203125 L 24.3125 -34.203125 C 26.957031 -34.203125 28.96875 -33.519531 30.34375 -32.15625 C 31.71875 -30.800781 32.40625 -28.800781 32.40625 -26.15625 L 32.40625 -7.8125 C 32.40625 -5.1875 31.71875 -3.1875 30.34375 -1.8125 C 28.96875 -0.4375 26.957031 0.25 24.3125 0.25 Z M 24.015625 -3.15625 C 25.535156 -3.15625 26.679688 -3.539062 27.453125 -4.3125 C 28.234375 -5.09375 28.625 -6.242188 28.625 -7.765625 L 28.625 -26.203125 C 28.625 -29.273438 27.085938 -30.8125 24.015625 -30.8125 L 13.25 -30.8125 C 10.175781 -30.8125 8.640625 -29.273438 8.640625 -26.203125 L 8.640625 -7.765625 C 8.640625 -6.242188 9.023438 -5.09375 9.796875 -4.3125 C 10.578125 -3.539062 11.726562 -3.15625 13.25 -3.15625 Z M 24.015625 -3.15625 "/></g></g></g><g fill="#0ad60d" fill-opacity="1"><g transform="translate(170.202395, 54.770455)"><g><path d="M 12.90625 0.25 C 10.28125 0.25 8.28125 -0.4375 6.90625 -1.8125 C 5.53125 -3.1875 4.84375 -5.1875 4.84375 -7.8125 L 4.84375 -26.15625 C 4.84375 -28.800781 5.53125 -30.800781 6.90625 -32.15625 C 8.28125 -33.519531 10.28125 -34.203125 12.90625 -34.203125 L 23.09375 -34.203125 C 25.75 -34.203125 27.765625 -33.519531 29.140625 -32.15625 C 30.515625 -30.800781 31.203125 -28.800781 31.203125 -26.15625 L 31.203125 -24.0625 C 31.203125 -23.644531 30.972656 -23.4375 30.515625 -23.4375 L 28.046875 -23.4375 C 27.617188 -23.4375 27.40625 -23.644531 27.40625 -24.0625 L 27.40625 -26.203125 C 27.40625 -29.273438 25.867188 -30.8125 22.796875 -30.8125 L 13.25 -30.8125 C 10.175781 -30.8125 8.640625 -29.273438 8.640625 -26.203125 L 8.640625 -7.765625 C 8.640625 -6.242188 9.023438 -5.09375 9.796875 -4.3125 C 10.578125 -3.539062 11.726562 -3.15625 13.25 -3.15625 L 22.796875 -3.15625 C 24.316406 -3.15625 25.460938 -3.539062 26.234375 -4.3125 C 27.015625 -5.09375 27.40625 -6.242188 27.40625 -7.765625 L 27.40625 -9.890625 C 27.40625 -10.347656 27.617188 -10.578125 28.046875 -10.578125 L 30.515625 -10.578125 C 30.972656 -10.578125 31.203125 -10.347656 31.203125 -9.890625 L 31.203125 -7.8125 C 31.203125 -5.1875 30.515625 -3.1875 29.140625 -1.8125 C 27.765625 -0.4375 25.75 0.25 23.09375 0.25 Z M 12.90625 0.25 "/></g></g></g></svg>