<svg xmlns="http://www.w3.org/2000/svg" xmlns:xlink="http://www.w3.org/1999/xlink" width="280" zoomAndPan="magnify" viewBox="0 0 210 74.999997" height="100" preserveAspectRatio="xMidYMid meet" version="1.0"><defs><g/><clipPath id="31ab44c043"><rect x="0" width="210" y="0" height="69"/></clipPath></defs><g transform="matrix(1, 0, 0, 1, 0, 3)"><g clip-path="url(#31ab44c043)"><g fill="#0ad60d" fill-opacity="1"><g transform="translate(0.0000042, 49.904685)"><g><path d="M 14.5 0 C 14.03125 0 13.710938 -0.21875 13.546875 -0.65625 L 0.5625 -34.46875 C 0.488281 -34.675781 0.453125 -34.8125 0.453125 -34.875 C 0.453125 -35.21875 0.722656 -35.390625 1.265625 -35.390625 L 3.59375 -35.390625 C 3.863281 -35.390625 4.070312 -35.335938 4.21875 -35.234375 C 4.375 -35.128906 4.484375 -34.957031 4.546875 -34.71875 L 15.765625 -5.203125 L 16.015625 -5.203125 L 27.25 -34.71875 C 27.382812 -35.164062 27.703125 -35.390625 28.203125 -35.390625 L 30.6875 -35.390625 C 31.125 -35.390625 31.34375 -35.203125 31.34375 -34.828125 L 31.234375 -34.421875 L 18.25 -0.65625 C 18.082031 -0.21875 17.78125 0 17.34375 0 Z M 14.5 0 "/></g></g></g><g fill="#0ad60d" fill-opacity="1"><g transform="translate(31.743427, 49.904685)"><g><path d="M 13.453125 0.25 C 10.710938 0.25 8.628906 -0.460938 7.203125 -1.890625 C 5.773438 -3.328125 5.0625 -5.410156 5.0625 -8.140625 L 5.0625 -27.25 C 5.0625 -30.007812 5.773438 -32.097656 7.203125 -33.515625 C 8.628906 -34.929688 10.710938 -35.640625 13.453125 -35.640625 L 25.328125 -35.640625 C 28.085938 -35.640625 30.179688 -34.929688 31.609375 -33.515625 C 33.046875 -32.097656 33.765625 -30.007812 33.765625 -27.25 L 33.765625 -8.140625 C 33.765625 -5.410156 33.046875 -3.328125 31.609375 -1.890625 C 30.179688 -0.460938 28.085938 0.25 25.328125 0.25 Z M 25.015625 -3.28125 C 26.597656 -3.28125 27.796875 -3.6875 28.609375 -4.5 C 29.421875 -5.3125 29.828125 -6.507812 29.828125 -8.09375 L 29.828125 -27.296875 C 29.828125 -30.492188 28.222656 -32.09375 25.015625 -32.09375 L 13.796875 -32.09375 C 10.597656 -32.09375 9 -30.492188 9 -27.296875 L 9 -8.09375 C 9 -6.507812 9.398438 -5.3125 10.203125 -4.5 C 11.015625 -3.6875 12.210938 -3.28125 13.796875 -3.28125 Z M 25.015625 -3.28125 "/></g></g></g><g fill="#0ad60d" fill-opacity="1"><g transform="translate(70.5634, 49.904685)"><g><path d="M 31.890625 -1.109375 C 32.054688 -0.878906 32.140625 -0.675781 32.140625 -0.5 C 32.140625 -0.164062 31.921875 0 31.484375 0 L 28.5625 0 C 28.082031 0 27.675781 -0.1875 27.34375 -0.5625 L 13.84375 -15.875 L 9.25 -15.875 L 9.25 -0.65625 C 9.25 -0.21875 9.015625 0 8.546875 0 L 5.96875 0 C 5.53125 0 5.3125 -0.21875 5.3125 -0.65625 L 5.3125 -34.71875 C 5.3125 -35.164062 5.53125 -35.390625 5.96875 -35.390625 L 22.953125 -35.390625 C 25.773438 -35.390625 27.835938 -34.738281 29.140625 -33.4375 C 30.441406 -32.132812 31.09375 -30.070312 31.09375 -27.25 L 31.09375 -24.015625 C 31.09375 -21.179688 30.441406 -19.113281 29.140625 -17.8125 C 27.835938 -16.519531 25.773438 -15.875 22.953125 -15.875 L 19.109375 -15.875 L 19.109375 -15.625 Z M 9.25 -31.84375 L 9.25 -19.40625 L 22.703125 -19.40625 C 24.242188 -19.40625 25.375 -19.765625 26.09375 -20.484375 C 26.820312 -21.210938 27.1875 -22.351562 27.1875 -23.90625 L 27.1875 -27.34375 C 27.1875 -28.894531 26.820312 -30.03125 26.09375 -30.75 C 25.375 -31.476562 24.242188 -31.84375 22.703125 -31.84375 Z M 9.25 -31.84375 "/></g></g></g><g fill="#0ad60d" fill-opacity="1"><g transform="translate(105.895634, 49.904685)"><g><path d="M 0.90625 0 C 0.4375 0 0.203125 -0.1875 0.203125 -0.5625 C 0.203125 -0.726562 0.253906 -0.878906 0.359375 -1.015625 L 11.875 -18.09375 L 0.90625 -34.375 C 0.769531 -34.507812 0.703125 -34.675781 0.703125 -34.875 C 0.703125 -35.21875 0.921875 -35.390625 1.359375 -35.390625 L 3.9375 -35.390625 C 4.207031 -35.390625 4.414062 -35.34375 4.5625 -35.25 C 4.71875 -35.164062 4.882812 -35.023438 5.0625 -34.828125 L 14 -21.4375 L 14.203125 -21.4375 L 23.15625 -34.828125 C 23.320312 -35.023438 23.476562 -35.164062 23.625 -35.25 C 23.78125 -35.34375 23.992188 -35.390625 24.265625 -35.390625 L 26.796875 -35.390625 C 26.992188 -35.390625 27.160156 -35.335938 27.296875 -35.234375 C 27.429688 -35.128906 27.5 -34.992188 27.5 -34.828125 C 27.5 -34.691406 27.445312 -34.539062 27.34375 -34.375 L 16.328125 -18.09375 L 27.796875 -1.015625 C 27.898438 -0.878906 27.953125 -0.707031 27.953125 -0.5 C 27.953125 -0.164062 27.75 0 27.34375 0 L 24.765625 0 C 24.492188 0 24.273438 -0.0390625 24.109375 -0.125 C 23.941406 -0.207031 23.773438 -0.367188 23.609375 -0.609375 L 14.203125 -14.703125 L 14 -14.703125 L 10.765625 -9.859375 L 4.546875 -0.609375 C 4.316406 -0.203125 3.945312 0 3.4375 0 Z M 0.90625 0 "/></g></g></g><g fill="#0ad60d" fill-opacity="1"><g transform="translate(134.100763, 49.904685)"><g><path d="M 13.453125 0.25 C 10.710938 0.25 8.628906 -0.460938 7.203125 -1.890625 C 5.773438 -3.328125 5.0625 -5.410156 5.0625 -8.140625 L 5.0625 -27.25 C 5.0625 -30.007812 5.773438 -32.097656 7.203125 -33.515625 C 8.628906 -34.929688 10.710938 -35.640625 13.453125 -35.640625 L 25.328125 -35.640625 C 28.085938 -35.640625 30.179688 -34.929688 31.609375 -33.515625 C 33.046875 -32.097656 33.765625 -30.007812 33.765625 -27.25 L 33.765625 -8.140625 C 33.765625 -5.410156 33.046875 -3.328125 31.609375 -1.890625 C 30.179688 -0.460938 28.085938 0.25 25.328125 0.25 Z M 25.015625 -3.28125 C 26.597656 -3.28125 27.796875 -3.6875 28.609375 -4.5 C 29.421875 -5.3125 29.828125 -6.507812 29.828125 -8.09375 L 29.828125 -27.296875 C 29.828125 -30.492188 28.222656 -32.09375 25.015625 -32.09375 L 13.796875 -32.09375 C 10.597656 -32.09375 9 -30.492188 9 -27.296875 L 9 -8.09375 C 9 -6.507812 9.398438 -5.3125 10.203125 -4.5 C 11.015625 -3.6875 12.210938 -3.28125 13.796875 -3.28125 Z M 25.015625 -3.28125 "/></g></g></g><g fill="#0ad60d" fill-opacity="1"><g transform="translate(172.920736, 49.904685)"><g><path d="M 13.453125 0.25 C 10.710938 0.25 8.628906 -0.460938 7.203125 -1.890625 C 5.773438 -3.328125 5.0625 -5.410156 5.0625 -8.140625 L 5.0625 -27.25 C 5.0625 -30.007812 5.773438 -32.097656 7.203125 -33.515625 C 8.628906 -34.929688 10.710938 -35.640625 13.453125 -35.640625 L 24.0625 -35.640625 C 26.820312 -35.640625 28.914062 -34.929688 30.34375 -33.515625 C 31.78125 -32.097656 32.5 -30.007812 32.5 -27.25 L 32.5 -25.078125 C 32.5 -24.640625 32.265625 -24.421875 31.796875 -24.421875 L 29.21875 -24.421875 C 28.78125 -24.421875 28.5625 -24.640625 28.5625 -25.078125 L 28.5625 -27.296875 C 28.5625 -30.492188 26.957031 -32.09375 23.75 -32.09375 L 13.796875 -32.09375 C 10.597656 -32.09375 9 -30.492188 9 -27.296875 L 9 -8.09375 C 9 -6.507812 9.398438 -5.3125 10.203125 -4.5 C 11.015625 -3.6875 12.210938 -3.28125 13.796875 -3.28125 L 23.75 -3.28125 C 25.332031 -3.28125 26.53125 -3.6875 27.34375 -4.5 C 28.15625 -5.3125 28.5625 -6.507812 28.5625 -8.09375 L 28.5625 -10.3125 C 28.5625 -10.78125 28.78125 -11.015625 29.21875 -11.015625 L 31.796875 -11.015625 C 32.265625 -11.015625 32.5 -10.78125 32.5 -10.3125 L 32.5 -8.140625 C 32.5 -5.410156 31.78125 -3.328125 30.34375 -1.890625 C 28.914062 -0.460938 26.820312 0.25 24.0625 0.25 Z M 13.453125 0.25 "/></g></g></g></g></g></svg>