<svg xmlns="http://www.w3.org/2000/svg" xmlns:xlink="http://www.w3.org/1999/xlink" width="100" zoomAndPan="magnify" viewBox="0 0 75 74.999997" height="100" preserveAspectRatio="xMidYMid meet" version="1.0"><path fill="#283167" d="M 63.195312 26.664062 C 63.171875 27.105469 62.804688 27.453125 62.367188 27.453125 C 62.351562 27.453125 62.339844 27.453125 62.328125 27.453125 C 61.871094 27.433594 61.515625 27.046875 61.535156 26.585938 C 61.714844 22.613281 60.339844 18.949219 57.664062 16.277344 C 54.988281 13.601562 51.328125 12.226562 47.351562 12.402344 C 46.894531 12.425781 46.507812 12.070312 46.488281 11.613281 C 46.464844 11.15625 46.820312 10.765625 47.277344 10.746094 C 51.722656 10.546875 55.828125 12.09375 58.835938 15.101562 C 61.847656 18.109375 63.394531 22.21875 63.195312 26.664062 Z M 47.078125 15.191406 C 46.621094 15.210938 46.265625 15.597656 46.285156 16.054688 C 46.308594 16.515625 46.695312 16.867188 47.152344 16.847656 C 49.941406 16.722656 52.507812 17.683594 54.382812 19.558594 C 56.253906 21.433594 57.21875 24 57.09375 26.789062 C 57.070312 27.246094 57.425781 27.632812 57.882812 27.652344 C 57.898438 27.65625 57.910156 27.65625 57.921875 27.65625 C 58.363281 27.65625 58.730469 27.308594 58.75 26.863281 C 58.898438 23.605469 57.761719 20.59375 55.554688 18.386719 C 53.347656 16.179688 50.335938 15.042969 47.078125 15.191406 Z M 53.441406 27.855469 C 53.453125 27.855469 53.464844 27.855469 53.476562 27.855469 C 53.917969 27.855469 54.285156 27.507812 54.304688 27.0625 C 54.398438 24.992188 53.675781 23.078125 52.269531 21.671875 C 50.863281 20.265625 48.949219 19.539062 46.875 19.632812 C 46.417969 19.65625 46.066406 20.042969 46.085938 20.5 C 46.105469 20.957031 46.492188 21.3125 46.953125 21.292969 C 48.550781 21.21875 50.023438 21.769531 51.097656 22.84375 C 52.167969 23.917969 52.722656 25.386719 52.648438 26.988281 C 52.628906 27.445312 52.980469 27.832031 53.441406 27.855469 Z M 58.734375 37.257812 L 58.734375 47.1875 C 58.734375 50.921875 57.457031 54.34375 55.035156 57.078125 C 52.707031 59.710938 49.414062 61.507812 45.769531 62.144531 C 45.722656 62.152344 45.675781 62.15625 45.628906 62.15625 C 45.582031 62.15625 45.535156 62.152344 45.488281 62.144531 C 43.9375 61.875 42.453125 61.394531 41.078125 60.730469 C 38.613281 61.675781 36.015625 62.15625 33.351562 62.15625 C 21.460938 62.15625 11.785156 52.480469 11.785156 40.589844 C 11.785156 28.695312 21.460938 19.019531 33.351562 19.019531 C 43.027344 19.019531 51.507812 25.460938 54.113281 34.730469 L 58.230469 36.496094 C 58.539062 36.628906 58.734375 36.925781 58.734375 37.257812 Z M 32.523438 21.046875 C 29.636719 22.960938 27.261719 25.421875 25.507812 28.253906 C 27.742188 28.808594 30.125 29.117188 32.523438 29.171875 Z M 34.183594 29.171875 C 36.570312 29.117188 38.945312 28.8125 41.171875 28.257812 C 39.398438 25.398438 37.011719 22.929688 34.183594 21.046875 Z M 42.828125 27.792969 C 44.300781 27.324219 45.691406 26.742188 46.949219 26.039062 C 44.195312 23.46875 40.726562 21.691406 36.925781 21 C 39.285156 22.894531 41.289062 25.203125 42.828125 27.792969 Z M 29.785156 21 C 25.953125 21.695312 22.5 23.492188 19.765625 26.046875 C 21.023438 26.746094 22.40625 27.328125 23.878906 27.792969 C 25.421875 25.191406 27.429688 22.886719 29.785156 21 Z M 18.566406 27.269531 C 15.554688 30.609375 13.660156 34.96875 13.460938 39.757812 L 20.382812 39.757812 C 20.5 36.105469 21.417969 32.511719 23.066406 29.257812 C 21.449219 28.730469 19.929688 28.070312 18.566406 27.269531 Z M 13.460938 41.417969 C 13.660156 46.207031 15.554688 50.566406 18.566406 53.90625 C 19.910156 53.121094 21.429688 52.453125 23.066406 51.917969 C 21.429688 48.671875 20.511719 45.078125 20.386719 41.417969 Z M 19.769531 55.128906 C 22.5 57.683594 25.949219 59.480469 29.777344 60.175781 C 27.421875 58.285156 25.417969 55.984375 23.878906 53.394531 C 22.386719 53.863281 21.003906 54.445312 19.769531 55.128906 Z M 32.523438 60.128906 L 32.523438 52.027344 C 30.082031 52.085938 27.714844 52.398438 25.527344 52.9375 C 27.28125 55.761719 29.644531 58.222656 32.523438 60.128906 Z M 34.183594 60.125 C 35.183594 59.460938 36.136719 58.71875 37.023438 57.910156 C 36.746094 57.644531 36.476562 57.367188 36.222656 57.078125 C 35.414062 56.160156 34.730469 55.167969 34.179688 54.113281 L 34.179688 60.125 Z M 32.523438 41.417969 L 22.046875 41.417969 C 22.171875 44.988281 23.089844 48.394531 24.675781 51.445312 C 27.121094 50.800781 29.78125 50.433594 32.523438 50.371094 Z M 32.523438 30.800781 C 29.832031 30.738281 27.15625 30.382812 24.667969 29.730469 C 23.070312 32.78125 22.160156 36.191406 22.042969 39.757812 L 32.523438 39.757812 Z M 34.183594 36 L 43.121094 32.171875 C 42.796875 31.335938 42.429688 30.523438 42.015625 29.734375 C 39.53125 30.382812 36.867188 30.738281 34.179688 30.800781 L 34.179688 36 Z M 45.300781 31.234375 C 45.511719 31.144531 45.746094 31.144531 45.957031 31.234375 L 52.097656 33.867188 C 51.210938 31.386719 49.859375 29.15625 48.152344 27.261719 C 46.785156 28.0625 45.261719 28.730469 43.636719 29.257812 C 44.007812 29.992188 44.347656 30.746094 44.644531 31.515625 Z M 39.164062 59.632812 C 38.863281 59.433594 38.574219 59.222656 38.289062 59.003906 C 37.847656 59.414062 37.390625 59.800781 36.921875 60.179688 C 37.679688 60.039062 38.425781 59.859375 39.164062 59.632812 Z M 57.078125 37.804688 L 45.628906 32.898438 L 34.183594 37.804688 L 34.183594 47.1875 C 34.183594 53.796875 38.882812 59.242188 45.628906 60.484375 C 52.375 59.242188 57.078125 53.796875 57.078125 47.1875 Z M 45.957031 35.070312 L 54.707031 38.820312 C 55.011719 38.953125 55.210938 39.25 55.210938 39.582031 L 55.210938 47.1875 C 55.210938 49.863281 54.257812 52.484375 52.53125 54.566406 C 50.808594 56.644531 48.410156 58.0625 45.785156 58.5625 C 45.734375 58.570312 45.679688 58.578125 45.628906 58.578125 C 45.578125 58.578125 45.523438 58.570312 45.472656 58.5625 C 42.847656 58.0625 40.449219 56.644531 38.726562 54.566406 C 37 52.484375 36.046875 49.863281 36.046875 47.1875 L 36.046875 39.582031 C 36.046875 39.25 36.246094 38.953125 36.550781 38.820312 L 45.300781 35.070312 C 45.511719 34.980469 45.746094 34.980469 45.957031 35.070312 Z M 45.628906 36.734375 L 37.707031 40.128906 L 37.707031 47.1875 C 37.707031 51.890625 41.027344 55.953125 45.628906 56.902344 C 50.230469 55.953125 53.550781 51.890625 53.550781 47.1875 L 53.550781 40.128906 Z M 45.628906 36.734375 " fill-opacity="1" fill-rule="nonzero"/></svg>